%TF.GenerationSoftware,KiCad,Pcbnew,10.0.0*%
%TF.CreationDate,2026-08-10T22:10:49-04:00*%
%TF.ProjectId,RGBox,5247426f-782e-46b6-9963-61645f706362,rev?*%
%TF.SameCoordinates,Original*%
%TF.FileFunction,Legend,Bot*%
%TF.FilePolarity,Positive*%
%FSLAX46Y46*%
G04 Gerber Fmt 4.6, Leading zero omitted, Abs format (unit mm)*
G04 Created by KiCad (PCBNEW 10.0.0) date 2026-08-10 22:10:49*
%MOMM*%
%LPD*%
G01*
G04 APERTURE LIST*
%ADD10C,0.150000*%
%ADD11C,0.120000*%
G04 APERTURE END LIST*
D10*
X15531985Y-85725714D02*
X15531985Y-86201904D01*
X15817700Y-85630476D02*
X14817700Y-85963809D01*
X14817700Y-85963809D02*
X15817700Y-86297142D01*
X15817700Y-87154285D02*
X15817700Y-86582857D01*
X15817700Y-86868571D02*
X14817700Y-86868571D01*
X14817700Y-86868571D02*
X14960557Y-86773333D01*
X14960557Y-86773333D02*
X15055795Y-86678095D01*
X15055795Y-86678095D02*
X15103414Y-86582857D01*
X86036213Y-92032200D02*
X85893356Y-92079819D01*
X85893356Y-92079819D02*
X85655261Y-92079819D01*
X85655261Y-92079819D02*
X85560023Y-92032200D01*
X85560023Y-92032200D02*
X85512404Y-91984580D01*
X85512404Y-91984580D02*
X85464785Y-91889342D01*
X85464785Y-91889342D02*
X85464785Y-91794104D01*
X85464785Y-91794104D02*
X85512404Y-91698866D01*
X85512404Y-91698866D02*
X85560023Y-91651247D01*
X85560023Y-91651247D02*
X85655261Y-91603628D01*
X85655261Y-91603628D02*
X85845737Y-91556009D01*
X85845737Y-91556009D02*
X85940975Y-91508390D01*
X85940975Y-91508390D02*
X85988594Y-91460771D01*
X85988594Y-91460771D02*
X86036213Y-91365533D01*
X86036213Y-91365533D02*
X86036213Y-91270295D01*
X86036213Y-91270295D02*
X85988594Y-91175057D01*
X85988594Y-91175057D02*
X85940975Y-91127438D01*
X85940975Y-91127438D02*
X85845737Y-91079819D01*
X85845737Y-91079819D02*
X85607642Y-91079819D01*
X85607642Y-91079819D02*
X85464785Y-91127438D01*
X85131451Y-91079819D02*
X84893356Y-92079819D01*
X84893356Y-92079819D02*
X84702880Y-91365533D01*
X84702880Y-91365533D02*
X84512404Y-92079819D01*
X84512404Y-92079819D02*
X84274309Y-91079819D01*
X83369547Y-92079819D02*
X83940975Y-92079819D01*
X83655261Y-92079819D02*
X83655261Y-91079819D01*
X83655261Y-91079819D02*
X83750499Y-91222676D01*
X83750499Y-91222676D02*
X83845737Y-91317914D01*
X83845737Y-91317914D02*
X83940975Y-91365533D01*
X86036213Y-72732200D02*
X85893356Y-72779819D01*
X85893356Y-72779819D02*
X85655261Y-72779819D01*
X85655261Y-72779819D02*
X85560023Y-72732200D01*
X85560023Y-72732200D02*
X85512404Y-72684580D01*
X85512404Y-72684580D02*
X85464785Y-72589342D01*
X85464785Y-72589342D02*
X85464785Y-72494104D01*
X85464785Y-72494104D02*
X85512404Y-72398866D01*
X85512404Y-72398866D02*
X85560023Y-72351247D01*
X85560023Y-72351247D02*
X85655261Y-72303628D01*
X85655261Y-72303628D02*
X85845737Y-72256009D01*
X85845737Y-72256009D02*
X85940975Y-72208390D01*
X85940975Y-72208390D02*
X85988594Y-72160771D01*
X85988594Y-72160771D02*
X86036213Y-72065533D01*
X86036213Y-72065533D02*
X86036213Y-71970295D01*
X86036213Y-71970295D02*
X85988594Y-71875057D01*
X85988594Y-71875057D02*
X85940975Y-71827438D01*
X85940975Y-71827438D02*
X85845737Y-71779819D01*
X85845737Y-71779819D02*
X85607642Y-71779819D01*
X85607642Y-71779819D02*
X85464785Y-71827438D01*
X85131451Y-71779819D02*
X84893356Y-72779819D01*
X84893356Y-72779819D02*
X84702880Y-72065533D01*
X84702880Y-72065533D02*
X84512404Y-72779819D01*
X84512404Y-72779819D02*
X84274309Y-71779819D01*
X83940975Y-71875057D02*
X83893356Y-71827438D01*
X83893356Y-71827438D02*
X83798118Y-71779819D01*
X83798118Y-71779819D02*
X83560023Y-71779819D01*
X83560023Y-71779819D02*
X83464785Y-71827438D01*
X83464785Y-71827438D02*
X83417166Y-71875057D01*
X83417166Y-71875057D02*
X83369547Y-71970295D01*
X83369547Y-71970295D02*
X83369547Y-72065533D01*
X83369547Y-72065533D02*
X83417166Y-72208390D01*
X83417166Y-72208390D02*
X83988594Y-72779819D01*
X83988594Y-72779819D02*
X83369547Y-72779819D01*
%TO.C,A1*%
D11*
X23982881Y-74580000D02*
X21982881Y-74580000D01*
X19172881Y-74900000D02*
X64892881Y-74900000D01*
X16522881Y-95330000D02*
X16522881Y-77550000D01*
X67542881Y-95330000D02*
X67542881Y-77550000D01*
X19172881Y-97980000D02*
X64892881Y-97980000D01*
X16522881Y-77550000D02*
G75*
G02*
X19172881Y-74900000I2650000J0D01*
G01*
X64892881Y-74900000D02*
G75*
G02*
X67542881Y-77550000I0J-2650000D01*
G01*
X19172881Y-97980000D02*
G75*
G02*
X16522881Y-95330000I0J2650000D01*
G01*
X67542881Y-95330000D02*
G75*
G02*
X64892881Y-97980000I-2650000J0D01*
G01*
%TO.C,SW1*%
X88802881Y-92425000D02*
X88802881Y-93675000D01*
X88502881Y-94975000D02*
X87752881Y-94975000D01*
X87752881Y-94975000D02*
X87752881Y-96315000D01*
X87552881Y-92425000D02*
X88802881Y-92425000D01*
X84702881Y-97925000D02*
X86692881Y-97925000D01*
X81652881Y-94975000D02*
X81652881Y-97925000D01*
X81652881Y-97925000D02*
X84702881Y-97925000D01*
X80902881Y-94975000D02*
X81652881Y-94975000D01*
X80892881Y-92715000D02*
X88512881Y-92715000D01*
X88512881Y-98685000D01*
X80892881Y-98685000D01*
X80892881Y-92715000D01*
X86702881Y-92725000D02*
X88502881Y-92725000D01*
X88502881Y-93475000D01*
X86702881Y-93475000D01*
X86702881Y-92725000D01*
X84202881Y-92725000D02*
X85202881Y-92725000D01*
X85202881Y-93475000D01*
X84202881Y-93475000D01*
X84202881Y-92725000D01*
X80902881Y-92725000D02*
X82702881Y-92725000D01*
X82702881Y-93475000D01*
X80902881Y-93475000D01*
X80902881Y-92725000D01*
%TO.C,SW2*%
X88802881Y-73125000D02*
X88802881Y-74375000D01*
X88502881Y-75675000D02*
X87752881Y-75675000D01*
X87752881Y-75675000D02*
X87752881Y-77015000D01*
X87552881Y-73125000D02*
X88802881Y-73125000D01*
X84702881Y-78625000D02*
X86692881Y-78625000D01*
X81652881Y-75675000D02*
X81652881Y-78625000D01*
X81652881Y-78625000D02*
X84702881Y-78625000D01*
X80902881Y-75675000D02*
X81652881Y-75675000D01*
X80892881Y-73415000D02*
X88512881Y-73415000D01*
X88512881Y-79385000D01*
X80892881Y-79385000D01*
X80892881Y-73415000D01*
X86702881Y-73425000D02*
X88502881Y-73425000D01*
X88502881Y-74175000D01*
X86702881Y-74175000D01*
X86702881Y-73425000D01*
X84202881Y-73425000D02*
X85202881Y-73425000D01*
X85202881Y-74175000D01*
X84202881Y-74175000D01*
X84202881Y-73425000D01*
X80902881Y-73425000D02*
X82702881Y-73425000D01*
X82702881Y-74175000D01*
X80902881Y-74175000D01*
X80902881Y-73425000D01*
%TD*%
M02*
