%TF.GenerationSoftware,KiCad,Pcbnew,10.0.0*%
%TF.CreationDate,2026-08-10T22:10:49-04:00*%
%TF.ProjectId,RGBox,5247426f-782e-46b6-9963-61645f706362,rev?*%
%TF.SameCoordinates,Original*%
%TF.FileFunction,Profile,NP*%
%FSLAX46Y46*%
G04 Gerber Fmt 4.6, Leading zero omitted, Abs format (unit mm)*
G04 Created by KiCad (PCBNEW 10.0.0) date 2026-08-10 22:10:49*
%MOMM*%
%LPD*%
G01*
G04 APERTURE LIST*
%TA.AperFunction,Profile*%
%ADD10C,0.000000*%
%TD*%
%TA.AperFunction,Profile*%
%ADD11C,0.010050*%
%TD*%
G04 APERTURE END LIST*
D10*
X24442763Y-60701597D02*
X27349787Y-60702040D01*
X37351311Y-50703565D02*
X37352885Y-40386567D01*
X95273495Y-112346136D02*
X24431360Y-112346136D01*
X19431360Y-107346136D02*
X19431360Y-96557745D01*
X19431360Y-94111855D02*
X19431360Y-78777745D01*
X19431360Y-76331855D02*
X19431360Y-65702617D01*
X24431746Y-60701596D02*
X24442763Y-60701597D01*
X82350020Y-40383068D02*
X82349979Y-50696932D01*
X92352804Y-60703991D02*
X95273515Y-60704002D01*
X100273495Y-65704002D02*
X100273495Y-107346136D01*
D11*
X37850051Y-59239519D02*
G75*
G02*
X37840001Y-59239519I-5025J0D01*
G01*
X37840001Y-59239519D02*
G75*
G02*
X37850051Y-59239519I5025J0D01*
G01*
X19177726Y-77554800D02*
G75*
G02*
X19167676Y-77554800I-5025J0D01*
G01*
X19167676Y-77554800D02*
G75*
G02*
X19177726Y-77554800I5025J0D01*
G01*
D10*
X27932607Y-95884732D02*
G75*
G02*
X25732607Y-95884732I-1100000J0D01*
G01*
X25732607Y-95884732D02*
G75*
G02*
X27932607Y-95884732I1100000J0D01*
G01*
D11*
X19177726Y-95334800D02*
G75*
G02*
X19167676Y-95334800I-5025J0D01*
G01*
X19167676Y-95334800D02*
G75*
G02*
X19177726Y-95334800I5025J0D01*
G01*
X81850051Y-59239519D02*
G75*
G02*
X81840001Y-59239519I-5025J0D01*
G01*
X81840001Y-59239519D02*
G75*
G02*
X81850051Y-59239519I5025J0D01*
G01*
X92897726Y-95969800D02*
G75*
G02*
X92887676Y-95969800I-5025J0D01*
G01*
X92887676Y-95969800D02*
G75*
G02*
X92897726Y-95969800I5025J0D01*
G01*
X64897726Y-95969800D02*
G75*
G02*
X64887676Y-95969800I-5025J0D01*
G01*
X64887676Y-95969800D02*
G75*
G02*
X64897726Y-95969800I5025J0D01*
G01*
D10*
X37351311Y-50703565D02*
G75*
G02*
X27349787Y-60702040I-10000000J1525D01*
G01*
X37352885Y-40386567D02*
G75*
G02*
X59852986Y-17889998I22499999J-3430D01*
G01*
X59852986Y-17889998D02*
G75*
G02*
X82352883Y-40390087I-105J-22500002D01*
G01*
X92352804Y-60703991D02*
G75*
G02*
X82352844Y-50703951I39J9999999D01*
G01*
X95273515Y-60704002D02*
G75*
G02*
X100273495Y-65704002I-20J-5000000D01*
G01*
X100273495Y-107346136D02*
G75*
G02*
X95273495Y-112346136I-5000000J0D01*
G01*
X24431360Y-112346136D02*
G75*
G02*
X19431365Y-107346136I41J5000036D01*
G01*
X19431360Y-94111855D02*
G75*
G02*
X19431360Y-96557745I-258659J-1222945D01*
G01*
X19431360Y-76331855D02*
G75*
G02*
X19431360Y-78777745I-258659J-1222945D01*
G01*
X19431360Y-65702617D02*
G75*
G02*
X24431746Y-60701559I5001041J17D01*
G01*
X82945026Y-59239519D02*
G75*
G02*
X80745026Y-59239519I-1100000J0D01*
G01*
X80745026Y-59239519D02*
G75*
G02*
X82945026Y-59239519I1100000J0D01*
G01*
X38945026Y-59239519D02*
G75*
G02*
X36745026Y-59239519I-1100000J0D01*
G01*
X36745026Y-59239519D02*
G75*
G02*
X38945026Y-59239519I1100000J0D01*
G01*
X93992701Y-95969800D02*
G75*
G02*
X91792701Y-95969800I-1100000J0D01*
G01*
X91792701Y-95969800D02*
G75*
G02*
X93992701Y-95969800I1100000J0D01*
G01*
D11*
X100557632Y-95249732D02*
G75*
G02*
X100547582Y-95249732I-5025J0D01*
G01*
X100547582Y-95249732D02*
G75*
G02*
X100557632Y-95249732I5025J0D01*
G01*
X26837632Y-95884732D02*
G75*
G02*
X26827582Y-95884732I-5025J0D01*
G01*
X26827582Y-95884732D02*
G75*
G02*
X26837632Y-95884732I5025J0D01*
G01*
X37885307Y-59154451D02*
G75*
G02*
X37875257Y-59154451I-5025J0D01*
G01*
X37875257Y-59154451D02*
G75*
G02*
X37885307Y-59154451I5025J0D01*
G01*
X81885307Y-59154451D02*
G75*
G02*
X81875257Y-59154451I-5025J0D01*
G01*
X81875257Y-59154451D02*
G75*
G02*
X81885307Y-59154451I5025J0D01*
G01*
X100557632Y-77469732D02*
G75*
G02*
X100547582Y-77469732I-5025J0D01*
G01*
X100547582Y-77469732D02*
G75*
G02*
X100557632Y-77469732I5025J0D01*
G01*
M02*
