%TF.GenerationSoftware,KiCad,Pcbnew,10.0.0*%
%TF.CreationDate,2026-08-28T23:32:35-04:00*%
%TF.ProjectId,RGBox,5247426f-782e-46b6-9963-61645f706362,rev?*%
%TF.SameCoordinates,Original*%
%TF.FileFunction,Legend,Top*%
%TF.FilePolarity,Positive*%
%FSLAX46Y46*%
G04 Gerber Fmt 4.6, Leading zero omitted, Abs format (unit mm)*
G04 Created by KiCad (PCBNEW 10.0.0) date 2026-08-28 23:32:35*
%MOMM*%
%LPD*%
G01*
G04 APERTURE LIST*
%ADD10C,0.150000*%
%ADD11C,0.120000*%
G04 APERTURE END LIST*
D10*
X74793333Y-45164819D02*
X74460000Y-44688628D01*
X74221905Y-45164819D02*
X74221905Y-44164819D01*
X74221905Y-44164819D02*
X74602857Y-44164819D01*
X74602857Y-44164819D02*
X74698095Y-44212438D01*
X74698095Y-44212438D02*
X74745714Y-44260057D01*
X74745714Y-44260057D02*
X74793333Y-44355295D01*
X74793333Y-44355295D02*
X74793333Y-44498152D01*
X74793333Y-44498152D02*
X74745714Y-44593390D01*
X74745714Y-44593390D02*
X74698095Y-44641009D01*
X74698095Y-44641009D02*
X74602857Y-44688628D01*
X74602857Y-44688628D02*
X74221905Y-44688628D01*
X75174286Y-44260057D02*
X75221905Y-44212438D01*
X75221905Y-44212438D02*
X75317143Y-44164819D01*
X75317143Y-44164819D02*
X75555238Y-44164819D01*
X75555238Y-44164819D02*
X75650476Y-44212438D01*
X75650476Y-44212438D02*
X75698095Y-44260057D01*
X75698095Y-44260057D02*
X75745714Y-44355295D01*
X75745714Y-44355295D02*
X75745714Y-44450533D01*
X75745714Y-44450533D02*
X75698095Y-44593390D01*
X75698095Y-44593390D02*
X75126667Y-45164819D01*
X75126667Y-45164819D02*
X75745714Y-45164819D01*
X66104761Y-62674819D02*
X65771428Y-62198628D01*
X65533333Y-62674819D02*
X65533333Y-61674819D01*
X65533333Y-61674819D02*
X65914285Y-61674819D01*
X65914285Y-61674819D02*
X66009523Y-61722438D01*
X66009523Y-61722438D02*
X66057142Y-61770057D01*
X66057142Y-61770057D02*
X66104761Y-61865295D01*
X66104761Y-61865295D02*
X66104761Y-62008152D01*
X66104761Y-62008152D02*
X66057142Y-62103390D01*
X66057142Y-62103390D02*
X66009523Y-62151009D01*
X66009523Y-62151009D02*
X65914285Y-62198628D01*
X65914285Y-62198628D02*
X65533333Y-62198628D01*
X66390476Y-61674819D02*
X66723809Y-62674819D01*
X66723809Y-62674819D02*
X67057142Y-61674819D01*
X67914285Y-62674819D02*
X67342857Y-62674819D01*
X67628571Y-62674819D02*
X67628571Y-61674819D01*
X67628571Y-61674819D02*
X67533333Y-61817676D01*
X67533333Y-61817676D02*
X67438095Y-61912914D01*
X67438095Y-61912914D02*
X67342857Y-61960533D01*
X25212734Y-66194666D02*
X24641306Y-66194666D01*
X24927020Y-66194666D02*
X24927020Y-65194666D01*
X24927020Y-65194666D02*
X24831782Y-65337523D01*
X24831782Y-65337523D02*
X24736544Y-65432761D01*
X24736544Y-65432761D02*
X24641306Y-65480380D01*
X24641306Y-68889904D02*
X24688925Y-68842285D01*
X24688925Y-68842285D02*
X24784163Y-68794666D01*
X24784163Y-68794666D02*
X25022258Y-68794666D01*
X25022258Y-68794666D02*
X25117496Y-68842285D01*
X25117496Y-68842285D02*
X25165115Y-68889904D01*
X25165115Y-68889904D02*
X25212734Y-68985142D01*
X25212734Y-68985142D02*
X25212734Y-69080380D01*
X25212734Y-69080380D02*
X25165115Y-69223237D01*
X25165115Y-69223237D02*
X24593687Y-69794666D01*
X24593687Y-69794666D02*
X25212734Y-69794666D01*
X50141306Y-65608951D02*
X50617496Y-65608951D01*
X50046068Y-65894666D02*
X50379401Y-64894666D01*
X50379401Y-64894666D02*
X50712734Y-65894666D01*
X51474639Y-65894666D02*
X51474639Y-64894666D01*
X51474639Y-65847047D02*
X51379401Y-65894666D01*
X51379401Y-65894666D02*
X51188925Y-65894666D01*
X51188925Y-65894666D02*
X51093687Y-65847047D01*
X51093687Y-65847047D02*
X51046068Y-65799427D01*
X51046068Y-65799427D02*
X50998449Y-65704189D01*
X50998449Y-65704189D02*
X50998449Y-65418475D01*
X50998449Y-65418475D02*
X51046068Y-65323237D01*
X51046068Y-65323237D02*
X51093687Y-65275618D01*
X51093687Y-65275618D02*
X51188925Y-65227999D01*
X51188925Y-65227999D02*
X51379401Y-65227999D01*
X51379401Y-65227999D02*
X51474639Y-65275618D01*
X52379401Y-65894666D02*
X52379401Y-65370856D01*
X52379401Y-65370856D02*
X52331782Y-65275618D01*
X52331782Y-65275618D02*
X52236544Y-65227999D01*
X52236544Y-65227999D02*
X52046068Y-65227999D01*
X52046068Y-65227999D02*
X51950830Y-65275618D01*
X52379401Y-65847047D02*
X52284163Y-65894666D01*
X52284163Y-65894666D02*
X52046068Y-65894666D01*
X52046068Y-65894666D02*
X51950830Y-65847047D01*
X51950830Y-65847047D02*
X51903211Y-65751808D01*
X51903211Y-65751808D02*
X51903211Y-65656570D01*
X51903211Y-65656570D02*
X51950830Y-65561332D01*
X51950830Y-65561332D02*
X52046068Y-65513713D01*
X52046068Y-65513713D02*
X52284163Y-65513713D01*
X52284163Y-65513713D02*
X52379401Y-65466094D01*
X52712735Y-65227999D02*
X53093687Y-65227999D01*
X52855592Y-65894666D02*
X52855592Y-65037523D01*
X52855592Y-65037523D02*
X52903211Y-64942285D01*
X52903211Y-64942285D02*
X52998449Y-64894666D01*
X52998449Y-64894666D02*
X53093687Y-64894666D01*
X53427021Y-65894666D02*
X53427021Y-65227999D01*
X53427021Y-65418475D02*
X53474640Y-65323237D01*
X53474640Y-65323237D02*
X53522259Y-65275618D01*
X53522259Y-65275618D02*
X53617497Y-65227999D01*
X53617497Y-65227999D02*
X53712735Y-65227999D01*
X54474640Y-65227999D02*
X54474640Y-65894666D01*
X54046069Y-65227999D02*
X54046069Y-65751808D01*
X54046069Y-65751808D02*
X54093688Y-65847047D01*
X54093688Y-65847047D02*
X54188926Y-65894666D01*
X54188926Y-65894666D02*
X54331783Y-65894666D01*
X54331783Y-65894666D02*
X54427021Y-65847047D01*
X54427021Y-65847047D02*
X54474640Y-65799427D01*
X54950831Y-65894666D02*
X54950831Y-65227999D01*
X54950831Y-64894666D02*
X54903212Y-64942285D01*
X54903212Y-64942285D02*
X54950831Y-64989904D01*
X54950831Y-64989904D02*
X54998450Y-64942285D01*
X54998450Y-64942285D02*
X54950831Y-64894666D01*
X54950831Y-64894666D02*
X54950831Y-64989904D01*
X55284164Y-65227999D02*
X55665116Y-65227999D01*
X55427021Y-64894666D02*
X55427021Y-65751808D01*
X55427021Y-65751808D02*
X55474640Y-65847047D01*
X55474640Y-65847047D02*
X55569878Y-65894666D01*
X55569878Y-65894666D02*
X55665116Y-65894666D01*
X56665117Y-64894666D02*
X57331783Y-64894666D01*
X57331783Y-64894666D02*
X56903212Y-65894666D01*
X58188926Y-64894666D02*
X57712736Y-64894666D01*
X57712736Y-64894666D02*
X57665117Y-65370856D01*
X57665117Y-65370856D02*
X57712736Y-65323237D01*
X57712736Y-65323237D02*
X57807974Y-65275618D01*
X57807974Y-65275618D02*
X58046069Y-65275618D01*
X58046069Y-65275618D02*
X58141307Y-65323237D01*
X58141307Y-65323237D02*
X58188926Y-65370856D01*
X58188926Y-65370856D02*
X58236545Y-65466094D01*
X58236545Y-65466094D02*
X58236545Y-65704189D01*
X58236545Y-65704189D02*
X58188926Y-65799427D01*
X58188926Y-65799427D02*
X58141307Y-65847047D01*
X58141307Y-65847047D02*
X58046069Y-65894666D01*
X58046069Y-65894666D02*
X57807974Y-65894666D01*
X57807974Y-65894666D02*
X57712736Y-65847047D01*
X57712736Y-65847047D02*
X57665117Y-65799427D01*
X58665117Y-65894666D02*
X58665117Y-65227999D01*
X58665117Y-65323237D02*
X58712736Y-65275618D01*
X58712736Y-65275618D02*
X58807974Y-65227999D01*
X58807974Y-65227999D02*
X58950831Y-65227999D01*
X58950831Y-65227999D02*
X59046069Y-65275618D01*
X59046069Y-65275618D02*
X59093688Y-65370856D01*
X59093688Y-65370856D02*
X59093688Y-65894666D01*
X59093688Y-65370856D02*
X59141307Y-65275618D01*
X59141307Y-65275618D02*
X59236545Y-65227999D01*
X59236545Y-65227999D02*
X59379402Y-65227999D01*
X59379402Y-65227999D02*
X59474641Y-65275618D01*
X59474641Y-65275618D02*
X59522260Y-65370856D01*
X59522260Y-65370856D02*
X59522260Y-65894666D01*
X59998450Y-65894666D02*
X59998450Y-65227999D01*
X59998450Y-65323237D02*
X60046069Y-65275618D01*
X60046069Y-65275618D02*
X60141307Y-65227999D01*
X60141307Y-65227999D02*
X60284164Y-65227999D01*
X60284164Y-65227999D02*
X60379402Y-65275618D01*
X60379402Y-65275618D02*
X60427021Y-65370856D01*
X60427021Y-65370856D02*
X60427021Y-65894666D01*
X60427021Y-65370856D02*
X60474640Y-65275618D01*
X60474640Y-65275618D02*
X60569878Y-65227999D01*
X60569878Y-65227999D02*
X60712735Y-65227999D01*
X60712735Y-65227999D02*
X60807974Y-65275618D01*
X60807974Y-65275618D02*
X60855593Y-65370856D01*
X60855593Y-65370856D02*
X60855593Y-65894666D01*
X62046069Y-65847047D02*
X62188926Y-65894666D01*
X62188926Y-65894666D02*
X62427021Y-65894666D01*
X62427021Y-65894666D02*
X62522259Y-65847047D01*
X62522259Y-65847047D02*
X62569878Y-65799427D01*
X62569878Y-65799427D02*
X62617497Y-65704189D01*
X62617497Y-65704189D02*
X62617497Y-65608951D01*
X62617497Y-65608951D02*
X62569878Y-65513713D01*
X62569878Y-65513713D02*
X62522259Y-65466094D01*
X62522259Y-65466094D02*
X62427021Y-65418475D01*
X62427021Y-65418475D02*
X62236545Y-65370856D01*
X62236545Y-65370856D02*
X62141307Y-65323237D01*
X62141307Y-65323237D02*
X62093688Y-65275618D01*
X62093688Y-65275618D02*
X62046069Y-65180380D01*
X62046069Y-65180380D02*
X62046069Y-65085142D01*
X62046069Y-65085142D02*
X62093688Y-64989904D01*
X62093688Y-64989904D02*
X62141307Y-64942285D01*
X62141307Y-64942285D02*
X62236545Y-64894666D01*
X62236545Y-64894666D02*
X62474640Y-64894666D01*
X62474640Y-64894666D02*
X62617497Y-64942285D01*
X63188926Y-65894666D02*
X63093688Y-65847047D01*
X63093688Y-65847047D02*
X63046069Y-65751808D01*
X63046069Y-65751808D02*
X63046069Y-64894666D01*
X63569879Y-65894666D02*
X63569879Y-65227999D01*
X63569879Y-64894666D02*
X63522260Y-64942285D01*
X63522260Y-64942285D02*
X63569879Y-64989904D01*
X63569879Y-64989904D02*
X63617498Y-64942285D01*
X63617498Y-64942285D02*
X63569879Y-64894666D01*
X63569879Y-64894666D02*
X63569879Y-64989904D01*
X64474640Y-65894666D02*
X64474640Y-64894666D01*
X64474640Y-65847047D02*
X64379402Y-65894666D01*
X64379402Y-65894666D02*
X64188926Y-65894666D01*
X64188926Y-65894666D02*
X64093688Y-65847047D01*
X64093688Y-65847047D02*
X64046069Y-65799427D01*
X64046069Y-65799427D02*
X63998450Y-65704189D01*
X63998450Y-65704189D02*
X63998450Y-65418475D01*
X63998450Y-65418475D02*
X64046069Y-65323237D01*
X64046069Y-65323237D02*
X64093688Y-65275618D01*
X64093688Y-65275618D02*
X64188926Y-65227999D01*
X64188926Y-65227999D02*
X64379402Y-65227999D01*
X64379402Y-65227999D02*
X64474640Y-65275618D01*
X65331783Y-65847047D02*
X65236545Y-65894666D01*
X65236545Y-65894666D02*
X65046069Y-65894666D01*
X65046069Y-65894666D02*
X64950831Y-65847047D01*
X64950831Y-65847047D02*
X64903212Y-65751808D01*
X64903212Y-65751808D02*
X64903212Y-65370856D01*
X64903212Y-65370856D02*
X64950831Y-65275618D01*
X64950831Y-65275618D02*
X65046069Y-65227999D01*
X65046069Y-65227999D02*
X65236545Y-65227999D01*
X65236545Y-65227999D02*
X65331783Y-65275618D01*
X65331783Y-65275618D02*
X65379402Y-65370856D01*
X65379402Y-65370856D02*
X65379402Y-65466094D01*
X65379402Y-65466094D02*
X64903212Y-65561332D01*
X66569879Y-65894666D02*
X66569879Y-64894666D01*
X66569879Y-64894666D02*
X66950831Y-64894666D01*
X66950831Y-64894666D02*
X67046069Y-64942285D01*
X67046069Y-64942285D02*
X67093688Y-64989904D01*
X67093688Y-64989904D02*
X67141307Y-65085142D01*
X67141307Y-65085142D02*
X67141307Y-65227999D01*
X67141307Y-65227999D02*
X67093688Y-65323237D01*
X67093688Y-65323237D02*
X67046069Y-65370856D01*
X67046069Y-65370856D02*
X66950831Y-65418475D01*
X66950831Y-65418475D02*
X66569879Y-65418475D01*
X67712736Y-65894666D02*
X67617498Y-65847047D01*
X67617498Y-65847047D02*
X67569879Y-65799427D01*
X67569879Y-65799427D02*
X67522260Y-65704189D01*
X67522260Y-65704189D02*
X67522260Y-65418475D01*
X67522260Y-65418475D02*
X67569879Y-65323237D01*
X67569879Y-65323237D02*
X67617498Y-65275618D01*
X67617498Y-65275618D02*
X67712736Y-65227999D01*
X67712736Y-65227999D02*
X67855593Y-65227999D01*
X67855593Y-65227999D02*
X67950831Y-65275618D01*
X67950831Y-65275618D02*
X67998450Y-65323237D01*
X67998450Y-65323237D02*
X68046069Y-65418475D01*
X68046069Y-65418475D02*
X68046069Y-65704189D01*
X68046069Y-65704189D02*
X67998450Y-65799427D01*
X67998450Y-65799427D02*
X67950831Y-65847047D01*
X67950831Y-65847047D02*
X67855593Y-65894666D01*
X67855593Y-65894666D02*
X67712736Y-65894666D01*
X68331784Y-65227999D02*
X68712736Y-65227999D01*
X68474641Y-64894666D02*
X68474641Y-65751808D01*
X68474641Y-65751808D02*
X68522260Y-65847047D01*
X68522260Y-65847047D02*
X68617498Y-65894666D01*
X68617498Y-65894666D02*
X68712736Y-65894666D01*
X52371541Y-68663152D02*
X52562017Y-69329819D01*
X52562017Y-69329819D02*
X52752493Y-68853628D01*
X52752493Y-68853628D02*
X52942969Y-69329819D01*
X52942969Y-69329819D02*
X53133445Y-68663152D01*
X53419160Y-68663152D02*
X53609636Y-69329819D01*
X53609636Y-69329819D02*
X53800112Y-68853628D01*
X53800112Y-68853628D02*
X53990588Y-69329819D01*
X53990588Y-69329819D02*
X54181064Y-68663152D01*
X54466779Y-68663152D02*
X54657255Y-69329819D01*
X54657255Y-69329819D02*
X54847731Y-68853628D01*
X54847731Y-68853628D02*
X55038207Y-69329819D01*
X55038207Y-69329819D02*
X55228683Y-68663152D01*
X55609636Y-69234580D02*
X55657255Y-69282200D01*
X55657255Y-69282200D02*
X55609636Y-69329819D01*
X55609636Y-69329819D02*
X55562017Y-69282200D01*
X55562017Y-69282200D02*
X55609636Y-69234580D01*
X55609636Y-69234580D02*
X55609636Y-69329819D01*
X56514397Y-69329819D02*
X56514397Y-68806009D01*
X56514397Y-68806009D02*
X56466778Y-68710771D01*
X56466778Y-68710771D02*
X56371540Y-68663152D01*
X56371540Y-68663152D02*
X56181064Y-68663152D01*
X56181064Y-68663152D02*
X56085826Y-68710771D01*
X56514397Y-69282200D02*
X56419159Y-69329819D01*
X56419159Y-69329819D02*
X56181064Y-69329819D01*
X56181064Y-69329819D02*
X56085826Y-69282200D01*
X56085826Y-69282200D02*
X56038207Y-69186961D01*
X56038207Y-69186961D02*
X56038207Y-69091723D01*
X56038207Y-69091723D02*
X56085826Y-68996485D01*
X56085826Y-68996485D02*
X56181064Y-68948866D01*
X56181064Y-68948866D02*
X56419159Y-68948866D01*
X56419159Y-68948866D02*
X56514397Y-68901247D01*
X57419159Y-69329819D02*
X57419159Y-68329819D01*
X57419159Y-69282200D02*
X57323921Y-69329819D01*
X57323921Y-69329819D02*
X57133445Y-69329819D01*
X57133445Y-69329819D02*
X57038207Y-69282200D01*
X57038207Y-69282200D02*
X56990588Y-69234580D01*
X56990588Y-69234580D02*
X56942969Y-69139342D01*
X56942969Y-69139342D02*
X56942969Y-68853628D01*
X56942969Y-68853628D02*
X56990588Y-68758390D01*
X56990588Y-68758390D02*
X57038207Y-68710771D01*
X57038207Y-68710771D02*
X57133445Y-68663152D01*
X57133445Y-68663152D02*
X57323921Y-68663152D01*
X57323921Y-68663152D02*
X57419159Y-68710771D01*
X58323921Y-69329819D02*
X58323921Y-68806009D01*
X58323921Y-68806009D02*
X58276302Y-68710771D01*
X58276302Y-68710771D02*
X58181064Y-68663152D01*
X58181064Y-68663152D02*
X57990588Y-68663152D01*
X57990588Y-68663152D02*
X57895350Y-68710771D01*
X58323921Y-69282200D02*
X58228683Y-69329819D01*
X58228683Y-69329819D02*
X57990588Y-69329819D01*
X57990588Y-69329819D02*
X57895350Y-69282200D01*
X57895350Y-69282200D02*
X57847731Y-69186961D01*
X57847731Y-69186961D02*
X57847731Y-69091723D01*
X57847731Y-69091723D02*
X57895350Y-68996485D01*
X57895350Y-68996485D02*
X57990588Y-68948866D01*
X57990588Y-68948866D02*
X58228683Y-68948866D01*
X58228683Y-68948866D02*
X58323921Y-68901247D01*
X58657255Y-68663152D02*
X59038207Y-68663152D01*
X58800112Y-69329819D02*
X58800112Y-68472676D01*
X58800112Y-68472676D02*
X58847731Y-68377438D01*
X58847731Y-68377438D02*
X58942969Y-68329819D01*
X58942969Y-68329819D02*
X59038207Y-68329819D01*
X59371541Y-69329819D02*
X59371541Y-68663152D01*
X59371541Y-68853628D02*
X59419160Y-68758390D01*
X59419160Y-68758390D02*
X59466779Y-68710771D01*
X59466779Y-68710771D02*
X59562017Y-68663152D01*
X59562017Y-68663152D02*
X59657255Y-68663152D01*
X60419160Y-68663152D02*
X60419160Y-69329819D01*
X59990589Y-68663152D02*
X59990589Y-69186961D01*
X59990589Y-69186961D02*
X60038208Y-69282200D01*
X60038208Y-69282200D02*
X60133446Y-69329819D01*
X60133446Y-69329819D02*
X60276303Y-69329819D01*
X60276303Y-69329819D02*
X60371541Y-69282200D01*
X60371541Y-69282200D02*
X60419160Y-69234580D01*
X60895351Y-69234580D02*
X60942970Y-69282200D01*
X60942970Y-69282200D02*
X60895351Y-69329819D01*
X60895351Y-69329819D02*
X60847732Y-69282200D01*
X60847732Y-69282200D02*
X60895351Y-69234580D01*
X60895351Y-69234580D02*
X60895351Y-69329819D01*
X61371541Y-69329819D02*
X61371541Y-68663152D01*
X61371541Y-68329819D02*
X61323922Y-68377438D01*
X61323922Y-68377438D02*
X61371541Y-68425057D01*
X61371541Y-68425057D02*
X61419160Y-68377438D01*
X61419160Y-68377438D02*
X61371541Y-68329819D01*
X61371541Y-68329819D02*
X61371541Y-68425057D01*
X61704874Y-68663152D02*
X62085826Y-68663152D01*
X61847731Y-68329819D02*
X61847731Y-69186961D01*
X61847731Y-69186961D02*
X61895350Y-69282200D01*
X61895350Y-69282200D02*
X61990588Y-69329819D01*
X61990588Y-69329819D02*
X62085826Y-69329819D01*
X63133445Y-68282200D02*
X62276303Y-69567914D01*
X63895350Y-68663152D02*
X63895350Y-69329819D01*
X63657255Y-68282200D02*
X63419160Y-68996485D01*
X63419160Y-68996485D02*
X64038207Y-68996485D01*
X64371541Y-68425057D02*
X64419160Y-68377438D01*
X64419160Y-68377438D02*
X64514398Y-68329819D01*
X64514398Y-68329819D02*
X64752493Y-68329819D01*
X64752493Y-68329819D02*
X64847731Y-68377438D01*
X64847731Y-68377438D02*
X64895350Y-68425057D01*
X64895350Y-68425057D02*
X64942969Y-68520295D01*
X64942969Y-68520295D02*
X64942969Y-68615533D01*
X64942969Y-68615533D02*
X64895350Y-68758390D01*
X64895350Y-68758390D02*
X64323922Y-69329819D01*
X64323922Y-69329819D02*
X64942969Y-69329819D01*
X65895350Y-69329819D02*
X65323922Y-69329819D01*
X65609636Y-69329819D02*
X65609636Y-68329819D01*
X65609636Y-68329819D02*
X65514398Y-68472676D01*
X65514398Y-68472676D02*
X65419160Y-68567914D01*
X65419160Y-68567914D02*
X65323922Y-68615533D01*
X66371541Y-69329819D02*
X66562017Y-69329819D01*
X66562017Y-69329819D02*
X66657255Y-69282200D01*
X66657255Y-69282200D02*
X66704874Y-69234580D01*
X66704874Y-69234580D02*
X66800112Y-69091723D01*
X66800112Y-69091723D02*
X66847731Y-68901247D01*
X66847731Y-68901247D02*
X66847731Y-68520295D01*
X66847731Y-68520295D02*
X66800112Y-68425057D01*
X66800112Y-68425057D02*
X66752493Y-68377438D01*
X66752493Y-68377438D02*
X66657255Y-68329819D01*
X66657255Y-68329819D02*
X66466779Y-68329819D01*
X66466779Y-68329819D02*
X66371541Y-68377438D01*
X66371541Y-68377438D02*
X66323922Y-68425057D01*
X66323922Y-68425057D02*
X66276303Y-68520295D01*
X66276303Y-68520295D02*
X66276303Y-68758390D01*
X66276303Y-68758390D02*
X66323922Y-68853628D01*
X66323922Y-68853628D02*
X66371541Y-68901247D01*
X66371541Y-68901247D02*
X66466779Y-68948866D01*
X66466779Y-68948866D02*
X66657255Y-68948866D01*
X66657255Y-68948866D02*
X66752493Y-68901247D01*
X66752493Y-68901247D02*
X66800112Y-68853628D01*
X66800112Y-68853628D02*
X66847731Y-68758390D01*
X93761541Y-65379819D02*
X94380588Y-65379819D01*
X94380588Y-65379819D02*
X94047255Y-65760771D01*
X94047255Y-65760771D02*
X94190112Y-65760771D01*
X94190112Y-65760771D02*
X94285350Y-65808390D01*
X94285350Y-65808390D02*
X94332969Y-65856009D01*
X94332969Y-65856009D02*
X94380588Y-65951247D01*
X94380588Y-65951247D02*
X94380588Y-66189342D01*
X94380588Y-66189342D02*
X94332969Y-66284580D01*
X94332969Y-66284580D02*
X94285350Y-66332200D01*
X94285350Y-66332200D02*
X94190112Y-66379819D01*
X94190112Y-66379819D02*
X93904398Y-66379819D01*
X93904398Y-66379819D02*
X93809160Y-66332200D01*
X93809160Y-66332200D02*
X93761541Y-66284580D01*
X63361905Y-40754819D02*
X63361905Y-39754819D01*
X63361905Y-39754819D02*
X63600000Y-39754819D01*
X63600000Y-39754819D02*
X63742857Y-39802438D01*
X63742857Y-39802438D02*
X63838095Y-39897676D01*
X63838095Y-39897676D02*
X63885714Y-39992914D01*
X63885714Y-39992914D02*
X63933333Y-40183390D01*
X63933333Y-40183390D02*
X63933333Y-40326247D01*
X63933333Y-40326247D02*
X63885714Y-40516723D01*
X63885714Y-40516723D02*
X63838095Y-40611961D01*
X63838095Y-40611961D02*
X63742857Y-40707200D01*
X63742857Y-40707200D02*
X63600000Y-40754819D01*
X63600000Y-40754819D02*
X63361905Y-40754819D01*
X64790476Y-40088152D02*
X64790476Y-40754819D01*
X64552381Y-39707200D02*
X64314286Y-40421485D01*
X64314286Y-40421485D02*
X64933333Y-40421485D01*
X60074819Y-57526666D02*
X59598628Y-57859999D01*
X60074819Y-58098094D02*
X59074819Y-58098094D01*
X59074819Y-58098094D02*
X59074819Y-57717142D01*
X59074819Y-57717142D02*
X59122438Y-57621904D01*
X59122438Y-57621904D02*
X59170057Y-57574285D01*
X59170057Y-57574285D02*
X59265295Y-57526666D01*
X59265295Y-57526666D02*
X59408152Y-57526666D01*
X59408152Y-57526666D02*
X59503390Y-57574285D01*
X59503390Y-57574285D02*
X59551009Y-57621904D01*
X59551009Y-57621904D02*
X59598628Y-57717142D01*
X59598628Y-57717142D02*
X59598628Y-58098094D01*
X59074819Y-56621904D02*
X59074819Y-57098094D01*
X59074819Y-57098094D02*
X59551009Y-57145713D01*
X59551009Y-57145713D02*
X59503390Y-57098094D01*
X59503390Y-57098094D02*
X59455771Y-57002856D01*
X59455771Y-57002856D02*
X59455771Y-56764761D01*
X59455771Y-56764761D02*
X59503390Y-56669523D01*
X59503390Y-56669523D02*
X59551009Y-56621904D01*
X59551009Y-56621904D02*
X59646247Y-56574285D01*
X59646247Y-56574285D02*
X59884342Y-56574285D01*
X59884342Y-56574285D02*
X59979580Y-56621904D01*
X59979580Y-56621904D02*
X60027200Y-56669523D01*
X60027200Y-56669523D02*
X60074819Y-56764761D01*
X60074819Y-56764761D02*
X60074819Y-57002856D01*
X60074819Y-57002856D02*
X60027200Y-57098094D01*
X60027200Y-57098094D02*
X59979580Y-57145713D01*
X74601905Y-53794819D02*
X74601905Y-52794819D01*
X74601905Y-52794819D02*
X74840000Y-52794819D01*
X74840000Y-52794819D02*
X74982857Y-52842438D01*
X74982857Y-52842438D02*
X75078095Y-52937676D01*
X75078095Y-52937676D02*
X75125714Y-53032914D01*
X75125714Y-53032914D02*
X75173333Y-53223390D01*
X75173333Y-53223390D02*
X75173333Y-53366247D01*
X75173333Y-53366247D02*
X75125714Y-53556723D01*
X75125714Y-53556723D02*
X75078095Y-53651961D01*
X75078095Y-53651961D02*
X74982857Y-53747200D01*
X74982857Y-53747200D02*
X74840000Y-53794819D01*
X74840000Y-53794819D02*
X74601905Y-53794819D01*
X75554286Y-52890057D02*
X75601905Y-52842438D01*
X75601905Y-52842438D02*
X75697143Y-52794819D01*
X75697143Y-52794819D02*
X75935238Y-52794819D01*
X75935238Y-52794819D02*
X76030476Y-52842438D01*
X76030476Y-52842438D02*
X76078095Y-52890057D01*
X76078095Y-52890057D02*
X76125714Y-52985295D01*
X76125714Y-52985295D02*
X76125714Y-53080533D01*
X76125714Y-53080533D02*
X76078095Y-53223390D01*
X76078095Y-53223390D02*
X75506667Y-53794819D01*
X75506667Y-53794819D02*
X76125714Y-53794819D01*
X44863333Y-43124819D02*
X44530000Y-42648628D01*
X44291905Y-43124819D02*
X44291905Y-42124819D01*
X44291905Y-42124819D02*
X44672857Y-42124819D01*
X44672857Y-42124819D02*
X44768095Y-42172438D01*
X44768095Y-42172438D02*
X44815714Y-42220057D01*
X44815714Y-42220057D02*
X44863333Y-42315295D01*
X44863333Y-42315295D02*
X44863333Y-42458152D01*
X44863333Y-42458152D02*
X44815714Y-42553390D01*
X44815714Y-42553390D02*
X44768095Y-42601009D01*
X44768095Y-42601009D02*
X44672857Y-42648628D01*
X44672857Y-42648628D02*
X44291905Y-42648628D01*
X45196667Y-42124819D02*
X45815714Y-42124819D01*
X45815714Y-42124819D02*
X45482381Y-42505771D01*
X45482381Y-42505771D02*
X45625238Y-42505771D01*
X45625238Y-42505771D02*
X45720476Y-42553390D01*
X45720476Y-42553390D02*
X45768095Y-42601009D01*
X45768095Y-42601009D02*
X45815714Y-42696247D01*
X45815714Y-42696247D02*
X45815714Y-42934342D01*
X45815714Y-42934342D02*
X45768095Y-43029580D01*
X45768095Y-43029580D02*
X45720476Y-43077200D01*
X45720476Y-43077200D02*
X45625238Y-43124819D01*
X45625238Y-43124819D02*
X45339524Y-43124819D01*
X45339524Y-43124819D02*
X45244286Y-43077200D01*
X45244286Y-43077200D02*
X45196667Y-43029580D01*
X66104761Y-81454819D02*
X65771428Y-80978628D01*
X65533333Y-81454819D02*
X65533333Y-80454819D01*
X65533333Y-80454819D02*
X65914285Y-80454819D01*
X65914285Y-80454819D02*
X66009523Y-80502438D01*
X66009523Y-80502438D02*
X66057142Y-80550057D01*
X66057142Y-80550057D02*
X66104761Y-80645295D01*
X66104761Y-80645295D02*
X66104761Y-80788152D01*
X66104761Y-80788152D02*
X66057142Y-80883390D01*
X66057142Y-80883390D02*
X66009523Y-80931009D01*
X66009523Y-80931009D02*
X65914285Y-80978628D01*
X65914285Y-80978628D02*
X65533333Y-80978628D01*
X66390476Y-80454819D02*
X66723809Y-81454819D01*
X66723809Y-81454819D02*
X67057142Y-80454819D01*
X67342857Y-80550057D02*
X67390476Y-80502438D01*
X67390476Y-80502438D02*
X67485714Y-80454819D01*
X67485714Y-80454819D02*
X67723809Y-80454819D01*
X67723809Y-80454819D02*
X67819047Y-80502438D01*
X67819047Y-80502438D02*
X67866666Y-80550057D01*
X67866666Y-80550057D02*
X67914285Y-80645295D01*
X67914285Y-80645295D02*
X67914285Y-80740533D01*
X67914285Y-80740533D02*
X67866666Y-80883390D01*
X67866666Y-80883390D02*
X67295238Y-81454819D01*
X67295238Y-81454819D02*
X67914285Y-81454819D01*
X25233469Y-85109819D02*
X24662041Y-85109819D01*
X24947755Y-85109819D02*
X24947755Y-84109819D01*
X24947755Y-84109819D02*
X24852517Y-84252676D01*
X24852517Y-84252676D02*
X24757279Y-84347914D01*
X24757279Y-84347914D02*
X24662041Y-84395533D01*
X24662041Y-87805057D02*
X24709660Y-87757438D01*
X24709660Y-87757438D02*
X24804898Y-87709819D01*
X24804898Y-87709819D02*
X25042993Y-87709819D01*
X25042993Y-87709819D02*
X25138231Y-87757438D01*
X25138231Y-87757438D02*
X25185850Y-87805057D01*
X25185850Y-87805057D02*
X25233469Y-87900295D01*
X25233469Y-87900295D02*
X25233469Y-87995533D01*
X25233469Y-87995533D02*
X25185850Y-88138390D01*
X25185850Y-88138390D02*
X24614422Y-88709819D01*
X24614422Y-88709819D02*
X25233469Y-88709819D01*
X50162041Y-84524104D02*
X50638231Y-84524104D01*
X50066803Y-84809819D02*
X50400136Y-83809819D01*
X50400136Y-83809819D02*
X50733469Y-84809819D01*
X51495374Y-84809819D02*
X51495374Y-83809819D01*
X51495374Y-84762200D02*
X51400136Y-84809819D01*
X51400136Y-84809819D02*
X51209660Y-84809819D01*
X51209660Y-84809819D02*
X51114422Y-84762200D01*
X51114422Y-84762200D02*
X51066803Y-84714580D01*
X51066803Y-84714580D02*
X51019184Y-84619342D01*
X51019184Y-84619342D02*
X51019184Y-84333628D01*
X51019184Y-84333628D02*
X51066803Y-84238390D01*
X51066803Y-84238390D02*
X51114422Y-84190771D01*
X51114422Y-84190771D02*
X51209660Y-84143152D01*
X51209660Y-84143152D02*
X51400136Y-84143152D01*
X51400136Y-84143152D02*
X51495374Y-84190771D01*
X52400136Y-84809819D02*
X52400136Y-84286009D01*
X52400136Y-84286009D02*
X52352517Y-84190771D01*
X52352517Y-84190771D02*
X52257279Y-84143152D01*
X52257279Y-84143152D02*
X52066803Y-84143152D01*
X52066803Y-84143152D02*
X51971565Y-84190771D01*
X52400136Y-84762200D02*
X52304898Y-84809819D01*
X52304898Y-84809819D02*
X52066803Y-84809819D01*
X52066803Y-84809819D02*
X51971565Y-84762200D01*
X51971565Y-84762200D02*
X51923946Y-84666961D01*
X51923946Y-84666961D02*
X51923946Y-84571723D01*
X51923946Y-84571723D02*
X51971565Y-84476485D01*
X51971565Y-84476485D02*
X52066803Y-84428866D01*
X52066803Y-84428866D02*
X52304898Y-84428866D01*
X52304898Y-84428866D02*
X52400136Y-84381247D01*
X52733470Y-84143152D02*
X53114422Y-84143152D01*
X52876327Y-84809819D02*
X52876327Y-83952676D01*
X52876327Y-83952676D02*
X52923946Y-83857438D01*
X52923946Y-83857438D02*
X53019184Y-83809819D01*
X53019184Y-83809819D02*
X53114422Y-83809819D01*
X53447756Y-84809819D02*
X53447756Y-84143152D01*
X53447756Y-84333628D02*
X53495375Y-84238390D01*
X53495375Y-84238390D02*
X53542994Y-84190771D01*
X53542994Y-84190771D02*
X53638232Y-84143152D01*
X53638232Y-84143152D02*
X53733470Y-84143152D01*
X54495375Y-84143152D02*
X54495375Y-84809819D01*
X54066804Y-84143152D02*
X54066804Y-84666961D01*
X54066804Y-84666961D02*
X54114423Y-84762200D01*
X54114423Y-84762200D02*
X54209661Y-84809819D01*
X54209661Y-84809819D02*
X54352518Y-84809819D01*
X54352518Y-84809819D02*
X54447756Y-84762200D01*
X54447756Y-84762200D02*
X54495375Y-84714580D01*
X54971566Y-84809819D02*
X54971566Y-84143152D01*
X54971566Y-83809819D02*
X54923947Y-83857438D01*
X54923947Y-83857438D02*
X54971566Y-83905057D01*
X54971566Y-83905057D02*
X55019185Y-83857438D01*
X55019185Y-83857438D02*
X54971566Y-83809819D01*
X54971566Y-83809819D02*
X54971566Y-83905057D01*
X55304899Y-84143152D02*
X55685851Y-84143152D01*
X55447756Y-83809819D02*
X55447756Y-84666961D01*
X55447756Y-84666961D02*
X55495375Y-84762200D01*
X55495375Y-84762200D02*
X55590613Y-84809819D01*
X55590613Y-84809819D02*
X55685851Y-84809819D01*
X56685852Y-83809819D02*
X57352518Y-83809819D01*
X57352518Y-83809819D02*
X56923947Y-84809819D01*
X58209661Y-83809819D02*
X57733471Y-83809819D01*
X57733471Y-83809819D02*
X57685852Y-84286009D01*
X57685852Y-84286009D02*
X57733471Y-84238390D01*
X57733471Y-84238390D02*
X57828709Y-84190771D01*
X57828709Y-84190771D02*
X58066804Y-84190771D01*
X58066804Y-84190771D02*
X58162042Y-84238390D01*
X58162042Y-84238390D02*
X58209661Y-84286009D01*
X58209661Y-84286009D02*
X58257280Y-84381247D01*
X58257280Y-84381247D02*
X58257280Y-84619342D01*
X58257280Y-84619342D02*
X58209661Y-84714580D01*
X58209661Y-84714580D02*
X58162042Y-84762200D01*
X58162042Y-84762200D02*
X58066804Y-84809819D01*
X58066804Y-84809819D02*
X57828709Y-84809819D01*
X57828709Y-84809819D02*
X57733471Y-84762200D01*
X57733471Y-84762200D02*
X57685852Y-84714580D01*
X58685852Y-84809819D02*
X58685852Y-84143152D01*
X58685852Y-84238390D02*
X58733471Y-84190771D01*
X58733471Y-84190771D02*
X58828709Y-84143152D01*
X58828709Y-84143152D02*
X58971566Y-84143152D01*
X58971566Y-84143152D02*
X59066804Y-84190771D01*
X59066804Y-84190771D02*
X59114423Y-84286009D01*
X59114423Y-84286009D02*
X59114423Y-84809819D01*
X59114423Y-84286009D02*
X59162042Y-84190771D01*
X59162042Y-84190771D02*
X59257280Y-84143152D01*
X59257280Y-84143152D02*
X59400137Y-84143152D01*
X59400137Y-84143152D02*
X59495376Y-84190771D01*
X59495376Y-84190771D02*
X59542995Y-84286009D01*
X59542995Y-84286009D02*
X59542995Y-84809819D01*
X60019185Y-84809819D02*
X60019185Y-84143152D01*
X60019185Y-84238390D02*
X60066804Y-84190771D01*
X60066804Y-84190771D02*
X60162042Y-84143152D01*
X60162042Y-84143152D02*
X60304899Y-84143152D01*
X60304899Y-84143152D02*
X60400137Y-84190771D01*
X60400137Y-84190771D02*
X60447756Y-84286009D01*
X60447756Y-84286009D02*
X60447756Y-84809819D01*
X60447756Y-84286009D02*
X60495375Y-84190771D01*
X60495375Y-84190771D02*
X60590613Y-84143152D01*
X60590613Y-84143152D02*
X60733470Y-84143152D01*
X60733470Y-84143152D02*
X60828709Y-84190771D01*
X60828709Y-84190771D02*
X60876328Y-84286009D01*
X60876328Y-84286009D02*
X60876328Y-84809819D01*
X62066804Y-84762200D02*
X62209661Y-84809819D01*
X62209661Y-84809819D02*
X62447756Y-84809819D01*
X62447756Y-84809819D02*
X62542994Y-84762200D01*
X62542994Y-84762200D02*
X62590613Y-84714580D01*
X62590613Y-84714580D02*
X62638232Y-84619342D01*
X62638232Y-84619342D02*
X62638232Y-84524104D01*
X62638232Y-84524104D02*
X62590613Y-84428866D01*
X62590613Y-84428866D02*
X62542994Y-84381247D01*
X62542994Y-84381247D02*
X62447756Y-84333628D01*
X62447756Y-84333628D02*
X62257280Y-84286009D01*
X62257280Y-84286009D02*
X62162042Y-84238390D01*
X62162042Y-84238390D02*
X62114423Y-84190771D01*
X62114423Y-84190771D02*
X62066804Y-84095533D01*
X62066804Y-84095533D02*
X62066804Y-84000295D01*
X62066804Y-84000295D02*
X62114423Y-83905057D01*
X62114423Y-83905057D02*
X62162042Y-83857438D01*
X62162042Y-83857438D02*
X62257280Y-83809819D01*
X62257280Y-83809819D02*
X62495375Y-83809819D01*
X62495375Y-83809819D02*
X62638232Y-83857438D01*
X63209661Y-84809819D02*
X63114423Y-84762200D01*
X63114423Y-84762200D02*
X63066804Y-84666961D01*
X63066804Y-84666961D02*
X63066804Y-83809819D01*
X63590614Y-84809819D02*
X63590614Y-84143152D01*
X63590614Y-83809819D02*
X63542995Y-83857438D01*
X63542995Y-83857438D02*
X63590614Y-83905057D01*
X63590614Y-83905057D02*
X63638233Y-83857438D01*
X63638233Y-83857438D02*
X63590614Y-83809819D01*
X63590614Y-83809819D02*
X63590614Y-83905057D01*
X64495375Y-84809819D02*
X64495375Y-83809819D01*
X64495375Y-84762200D02*
X64400137Y-84809819D01*
X64400137Y-84809819D02*
X64209661Y-84809819D01*
X64209661Y-84809819D02*
X64114423Y-84762200D01*
X64114423Y-84762200D02*
X64066804Y-84714580D01*
X64066804Y-84714580D02*
X64019185Y-84619342D01*
X64019185Y-84619342D02*
X64019185Y-84333628D01*
X64019185Y-84333628D02*
X64066804Y-84238390D01*
X64066804Y-84238390D02*
X64114423Y-84190771D01*
X64114423Y-84190771D02*
X64209661Y-84143152D01*
X64209661Y-84143152D02*
X64400137Y-84143152D01*
X64400137Y-84143152D02*
X64495375Y-84190771D01*
X65352518Y-84762200D02*
X65257280Y-84809819D01*
X65257280Y-84809819D02*
X65066804Y-84809819D01*
X65066804Y-84809819D02*
X64971566Y-84762200D01*
X64971566Y-84762200D02*
X64923947Y-84666961D01*
X64923947Y-84666961D02*
X64923947Y-84286009D01*
X64923947Y-84286009D02*
X64971566Y-84190771D01*
X64971566Y-84190771D02*
X65066804Y-84143152D01*
X65066804Y-84143152D02*
X65257280Y-84143152D01*
X65257280Y-84143152D02*
X65352518Y-84190771D01*
X65352518Y-84190771D02*
X65400137Y-84286009D01*
X65400137Y-84286009D02*
X65400137Y-84381247D01*
X65400137Y-84381247D02*
X64923947Y-84476485D01*
X66590614Y-84809819D02*
X66590614Y-83809819D01*
X66590614Y-83809819D02*
X66971566Y-83809819D01*
X66971566Y-83809819D02*
X67066804Y-83857438D01*
X67066804Y-83857438D02*
X67114423Y-83905057D01*
X67114423Y-83905057D02*
X67162042Y-84000295D01*
X67162042Y-84000295D02*
X67162042Y-84143152D01*
X67162042Y-84143152D02*
X67114423Y-84238390D01*
X67114423Y-84238390D02*
X67066804Y-84286009D01*
X67066804Y-84286009D02*
X66971566Y-84333628D01*
X66971566Y-84333628D02*
X66590614Y-84333628D01*
X67733471Y-84809819D02*
X67638233Y-84762200D01*
X67638233Y-84762200D02*
X67590614Y-84714580D01*
X67590614Y-84714580D02*
X67542995Y-84619342D01*
X67542995Y-84619342D02*
X67542995Y-84333628D01*
X67542995Y-84333628D02*
X67590614Y-84238390D01*
X67590614Y-84238390D02*
X67638233Y-84190771D01*
X67638233Y-84190771D02*
X67733471Y-84143152D01*
X67733471Y-84143152D02*
X67876328Y-84143152D01*
X67876328Y-84143152D02*
X67971566Y-84190771D01*
X67971566Y-84190771D02*
X68019185Y-84238390D01*
X68019185Y-84238390D02*
X68066804Y-84333628D01*
X68066804Y-84333628D02*
X68066804Y-84619342D01*
X68066804Y-84619342D02*
X68019185Y-84714580D01*
X68019185Y-84714580D02*
X67971566Y-84762200D01*
X67971566Y-84762200D02*
X67876328Y-84809819D01*
X67876328Y-84809819D02*
X67733471Y-84809819D01*
X68352519Y-84143152D02*
X68733471Y-84143152D01*
X68495376Y-83809819D02*
X68495376Y-84666961D01*
X68495376Y-84666961D02*
X68542995Y-84762200D01*
X68542995Y-84762200D02*
X68638233Y-84809819D01*
X68638233Y-84809819D02*
X68733471Y-84809819D01*
X51781541Y-87603152D02*
X51972017Y-88269819D01*
X51972017Y-88269819D02*
X52162493Y-87793628D01*
X52162493Y-87793628D02*
X52352969Y-88269819D01*
X52352969Y-88269819D02*
X52543445Y-87603152D01*
X52829160Y-87603152D02*
X53019636Y-88269819D01*
X53019636Y-88269819D02*
X53210112Y-87793628D01*
X53210112Y-87793628D02*
X53400588Y-88269819D01*
X53400588Y-88269819D02*
X53591064Y-87603152D01*
X53876779Y-87603152D02*
X54067255Y-88269819D01*
X54067255Y-88269819D02*
X54257731Y-87793628D01*
X54257731Y-87793628D02*
X54448207Y-88269819D01*
X54448207Y-88269819D02*
X54638683Y-87603152D01*
X55019636Y-88174580D02*
X55067255Y-88222200D01*
X55067255Y-88222200D02*
X55019636Y-88269819D01*
X55019636Y-88269819D02*
X54972017Y-88222200D01*
X54972017Y-88222200D02*
X55019636Y-88174580D01*
X55019636Y-88174580D02*
X55019636Y-88269819D01*
X55924397Y-88269819D02*
X55924397Y-87746009D01*
X55924397Y-87746009D02*
X55876778Y-87650771D01*
X55876778Y-87650771D02*
X55781540Y-87603152D01*
X55781540Y-87603152D02*
X55591064Y-87603152D01*
X55591064Y-87603152D02*
X55495826Y-87650771D01*
X55924397Y-88222200D02*
X55829159Y-88269819D01*
X55829159Y-88269819D02*
X55591064Y-88269819D01*
X55591064Y-88269819D02*
X55495826Y-88222200D01*
X55495826Y-88222200D02*
X55448207Y-88126961D01*
X55448207Y-88126961D02*
X55448207Y-88031723D01*
X55448207Y-88031723D02*
X55495826Y-87936485D01*
X55495826Y-87936485D02*
X55591064Y-87888866D01*
X55591064Y-87888866D02*
X55829159Y-87888866D01*
X55829159Y-87888866D02*
X55924397Y-87841247D01*
X56829159Y-88269819D02*
X56829159Y-87269819D01*
X56829159Y-88222200D02*
X56733921Y-88269819D01*
X56733921Y-88269819D02*
X56543445Y-88269819D01*
X56543445Y-88269819D02*
X56448207Y-88222200D01*
X56448207Y-88222200D02*
X56400588Y-88174580D01*
X56400588Y-88174580D02*
X56352969Y-88079342D01*
X56352969Y-88079342D02*
X56352969Y-87793628D01*
X56352969Y-87793628D02*
X56400588Y-87698390D01*
X56400588Y-87698390D02*
X56448207Y-87650771D01*
X56448207Y-87650771D02*
X56543445Y-87603152D01*
X56543445Y-87603152D02*
X56733921Y-87603152D01*
X56733921Y-87603152D02*
X56829159Y-87650771D01*
X57733921Y-88269819D02*
X57733921Y-87746009D01*
X57733921Y-87746009D02*
X57686302Y-87650771D01*
X57686302Y-87650771D02*
X57591064Y-87603152D01*
X57591064Y-87603152D02*
X57400588Y-87603152D01*
X57400588Y-87603152D02*
X57305350Y-87650771D01*
X57733921Y-88222200D02*
X57638683Y-88269819D01*
X57638683Y-88269819D02*
X57400588Y-88269819D01*
X57400588Y-88269819D02*
X57305350Y-88222200D01*
X57305350Y-88222200D02*
X57257731Y-88126961D01*
X57257731Y-88126961D02*
X57257731Y-88031723D01*
X57257731Y-88031723D02*
X57305350Y-87936485D01*
X57305350Y-87936485D02*
X57400588Y-87888866D01*
X57400588Y-87888866D02*
X57638683Y-87888866D01*
X57638683Y-87888866D02*
X57733921Y-87841247D01*
X58067255Y-87603152D02*
X58448207Y-87603152D01*
X58210112Y-88269819D02*
X58210112Y-87412676D01*
X58210112Y-87412676D02*
X58257731Y-87317438D01*
X58257731Y-87317438D02*
X58352969Y-87269819D01*
X58352969Y-87269819D02*
X58448207Y-87269819D01*
X58781541Y-88269819D02*
X58781541Y-87603152D01*
X58781541Y-87793628D02*
X58829160Y-87698390D01*
X58829160Y-87698390D02*
X58876779Y-87650771D01*
X58876779Y-87650771D02*
X58972017Y-87603152D01*
X58972017Y-87603152D02*
X59067255Y-87603152D01*
X59829160Y-87603152D02*
X59829160Y-88269819D01*
X59400589Y-87603152D02*
X59400589Y-88126961D01*
X59400589Y-88126961D02*
X59448208Y-88222200D01*
X59448208Y-88222200D02*
X59543446Y-88269819D01*
X59543446Y-88269819D02*
X59686303Y-88269819D01*
X59686303Y-88269819D02*
X59781541Y-88222200D01*
X59781541Y-88222200D02*
X59829160Y-88174580D01*
X60305351Y-88174580D02*
X60352970Y-88222200D01*
X60352970Y-88222200D02*
X60305351Y-88269819D01*
X60305351Y-88269819D02*
X60257732Y-88222200D01*
X60257732Y-88222200D02*
X60305351Y-88174580D01*
X60305351Y-88174580D02*
X60305351Y-88269819D01*
X60781541Y-88269819D02*
X60781541Y-87603152D01*
X60781541Y-87269819D02*
X60733922Y-87317438D01*
X60733922Y-87317438D02*
X60781541Y-87365057D01*
X60781541Y-87365057D02*
X60829160Y-87317438D01*
X60829160Y-87317438D02*
X60781541Y-87269819D01*
X60781541Y-87269819D02*
X60781541Y-87365057D01*
X61114874Y-87603152D02*
X61495826Y-87603152D01*
X61257731Y-87269819D02*
X61257731Y-88126961D01*
X61257731Y-88126961D02*
X61305350Y-88222200D01*
X61305350Y-88222200D02*
X61400588Y-88269819D01*
X61400588Y-88269819D02*
X61495826Y-88269819D01*
X62543445Y-87222200D02*
X61686303Y-88507914D01*
X63305350Y-87603152D02*
X63305350Y-88269819D01*
X63067255Y-87222200D02*
X62829160Y-87936485D01*
X62829160Y-87936485D02*
X63448207Y-87936485D01*
X63781541Y-87365057D02*
X63829160Y-87317438D01*
X63829160Y-87317438D02*
X63924398Y-87269819D01*
X63924398Y-87269819D02*
X64162493Y-87269819D01*
X64162493Y-87269819D02*
X64257731Y-87317438D01*
X64257731Y-87317438D02*
X64305350Y-87365057D01*
X64305350Y-87365057D02*
X64352969Y-87460295D01*
X64352969Y-87460295D02*
X64352969Y-87555533D01*
X64352969Y-87555533D02*
X64305350Y-87698390D01*
X64305350Y-87698390D02*
X63733922Y-88269819D01*
X63733922Y-88269819D02*
X64352969Y-88269819D01*
X65305350Y-88269819D02*
X64733922Y-88269819D01*
X65019636Y-88269819D02*
X65019636Y-87269819D01*
X65019636Y-87269819D02*
X64924398Y-87412676D01*
X64924398Y-87412676D02*
X64829160Y-87507914D01*
X64829160Y-87507914D02*
X64733922Y-87555533D01*
X65781541Y-88269819D02*
X65972017Y-88269819D01*
X65972017Y-88269819D02*
X66067255Y-88222200D01*
X66067255Y-88222200D02*
X66114874Y-88174580D01*
X66114874Y-88174580D02*
X66210112Y-88031723D01*
X66210112Y-88031723D02*
X66257731Y-87841247D01*
X66257731Y-87841247D02*
X66257731Y-87460295D01*
X66257731Y-87460295D02*
X66210112Y-87365057D01*
X66210112Y-87365057D02*
X66162493Y-87317438D01*
X66162493Y-87317438D02*
X66067255Y-87269819D01*
X66067255Y-87269819D02*
X65876779Y-87269819D01*
X65876779Y-87269819D02*
X65781541Y-87317438D01*
X65781541Y-87317438D02*
X65733922Y-87365057D01*
X65733922Y-87365057D02*
X65686303Y-87460295D01*
X65686303Y-87460295D02*
X65686303Y-87698390D01*
X65686303Y-87698390D02*
X65733922Y-87793628D01*
X65733922Y-87793628D02*
X65781541Y-87841247D01*
X65781541Y-87841247D02*
X65876779Y-87888866D01*
X65876779Y-87888866D02*
X66067255Y-87888866D01*
X66067255Y-87888866D02*
X66162493Y-87841247D01*
X66162493Y-87841247D02*
X66210112Y-87793628D01*
X66210112Y-87793628D02*
X66257731Y-87698390D01*
X94031541Y-84169819D02*
X94650588Y-84169819D01*
X94650588Y-84169819D02*
X94317255Y-84550771D01*
X94317255Y-84550771D02*
X94460112Y-84550771D01*
X94460112Y-84550771D02*
X94555350Y-84598390D01*
X94555350Y-84598390D02*
X94602969Y-84646009D01*
X94602969Y-84646009D02*
X94650588Y-84741247D01*
X94650588Y-84741247D02*
X94650588Y-84979342D01*
X94650588Y-84979342D02*
X94602969Y-85074580D01*
X94602969Y-85074580D02*
X94555350Y-85122200D01*
X94555350Y-85122200D02*
X94460112Y-85169819D01*
X94460112Y-85169819D02*
X94174398Y-85169819D01*
X94174398Y-85169819D02*
X94079160Y-85122200D01*
X94079160Y-85122200D02*
X94031541Y-85074580D01*
X43801905Y-53564819D02*
X43801905Y-52564819D01*
X43801905Y-52564819D02*
X44040000Y-52564819D01*
X44040000Y-52564819D02*
X44182857Y-52612438D01*
X44182857Y-52612438D02*
X44278095Y-52707676D01*
X44278095Y-52707676D02*
X44325714Y-52802914D01*
X44325714Y-52802914D02*
X44373333Y-52993390D01*
X44373333Y-52993390D02*
X44373333Y-53136247D01*
X44373333Y-53136247D02*
X44325714Y-53326723D01*
X44325714Y-53326723D02*
X44278095Y-53421961D01*
X44278095Y-53421961D02*
X44182857Y-53517200D01*
X44182857Y-53517200D02*
X44040000Y-53564819D01*
X44040000Y-53564819D02*
X43801905Y-53564819D01*
X44706667Y-52564819D02*
X45325714Y-52564819D01*
X45325714Y-52564819D02*
X44992381Y-52945771D01*
X44992381Y-52945771D02*
X45135238Y-52945771D01*
X45135238Y-52945771D02*
X45230476Y-52993390D01*
X45230476Y-52993390D02*
X45278095Y-53041009D01*
X45278095Y-53041009D02*
X45325714Y-53136247D01*
X45325714Y-53136247D02*
X45325714Y-53374342D01*
X45325714Y-53374342D02*
X45278095Y-53469580D01*
X45278095Y-53469580D02*
X45230476Y-53517200D01*
X45230476Y-53517200D02*
X45135238Y-53564819D01*
X45135238Y-53564819D02*
X44849524Y-53564819D01*
X44849524Y-53564819D02*
X44754286Y-53517200D01*
X44754286Y-53517200D02*
X44706667Y-53469580D01*
X68034819Y-33206666D02*
X67558628Y-33539999D01*
X68034819Y-33778094D02*
X67034819Y-33778094D01*
X67034819Y-33778094D02*
X67034819Y-33397142D01*
X67034819Y-33397142D02*
X67082438Y-33301904D01*
X67082438Y-33301904D02*
X67130057Y-33254285D01*
X67130057Y-33254285D02*
X67225295Y-33206666D01*
X67225295Y-33206666D02*
X67368152Y-33206666D01*
X67368152Y-33206666D02*
X67463390Y-33254285D01*
X67463390Y-33254285D02*
X67511009Y-33301904D01*
X67511009Y-33301904D02*
X67558628Y-33397142D01*
X67558628Y-33397142D02*
X67558628Y-33778094D01*
X68034819Y-32254285D02*
X68034819Y-32825713D01*
X68034819Y-32539999D02*
X67034819Y-32539999D01*
X67034819Y-32539999D02*
X67177676Y-32635237D01*
X67177676Y-32635237D02*
X67272914Y-32730475D01*
X67272914Y-32730475D02*
X67320533Y-32825713D01*
X59131905Y-26874819D02*
X59131905Y-25874819D01*
X59131905Y-25874819D02*
X59370000Y-25874819D01*
X59370000Y-25874819D02*
X59512857Y-25922438D01*
X59512857Y-25922438D02*
X59608095Y-26017676D01*
X59608095Y-26017676D02*
X59655714Y-26112914D01*
X59655714Y-26112914D02*
X59703333Y-26303390D01*
X59703333Y-26303390D02*
X59703333Y-26446247D01*
X59703333Y-26446247D02*
X59655714Y-26636723D01*
X59655714Y-26636723D02*
X59608095Y-26731961D01*
X59608095Y-26731961D02*
X59512857Y-26827200D01*
X59512857Y-26827200D02*
X59370000Y-26874819D01*
X59370000Y-26874819D02*
X59131905Y-26874819D01*
X60655714Y-26874819D02*
X60084286Y-26874819D01*
X60370000Y-26874819D02*
X60370000Y-25874819D01*
X60370000Y-25874819D02*
X60274762Y-26017676D01*
X60274762Y-26017676D02*
X60179524Y-26112914D01*
X60179524Y-26112914D02*
X60084286Y-26160533D01*
X55244819Y-56826666D02*
X54768628Y-57159999D01*
X55244819Y-57398094D02*
X54244819Y-57398094D01*
X54244819Y-57398094D02*
X54244819Y-57017142D01*
X54244819Y-57017142D02*
X54292438Y-56921904D01*
X54292438Y-56921904D02*
X54340057Y-56874285D01*
X54340057Y-56874285D02*
X54435295Y-56826666D01*
X54435295Y-56826666D02*
X54578152Y-56826666D01*
X54578152Y-56826666D02*
X54673390Y-56874285D01*
X54673390Y-56874285D02*
X54721009Y-56921904D01*
X54721009Y-56921904D02*
X54768628Y-57017142D01*
X54768628Y-57017142D02*
X54768628Y-57398094D01*
X54244819Y-55969523D02*
X54244819Y-56159999D01*
X54244819Y-56159999D02*
X54292438Y-56255237D01*
X54292438Y-56255237D02*
X54340057Y-56302856D01*
X54340057Y-56302856D02*
X54482914Y-56398094D01*
X54482914Y-56398094D02*
X54673390Y-56445713D01*
X54673390Y-56445713D02*
X55054342Y-56445713D01*
X55054342Y-56445713D02*
X55149580Y-56398094D01*
X55149580Y-56398094D02*
X55197200Y-56350475D01*
X55197200Y-56350475D02*
X55244819Y-56255237D01*
X55244819Y-56255237D02*
X55244819Y-56064761D01*
X55244819Y-56064761D02*
X55197200Y-55969523D01*
X55197200Y-55969523D02*
X55149580Y-55921904D01*
X55149580Y-55921904D02*
X55054342Y-55874285D01*
X55054342Y-55874285D02*
X54816247Y-55874285D01*
X54816247Y-55874285D02*
X54721009Y-55921904D01*
X54721009Y-55921904D02*
X54673390Y-55969523D01*
X54673390Y-55969523D02*
X54625771Y-56064761D01*
X54625771Y-56064761D02*
X54625771Y-56255237D01*
X54625771Y-56255237D02*
X54673390Y-56350475D01*
X54673390Y-56350475D02*
X54721009Y-56398094D01*
X54721009Y-56398094D02*
X54816247Y-56445713D01*
X66244761Y-100414819D02*
X65911428Y-99938628D01*
X65673333Y-100414819D02*
X65673333Y-99414819D01*
X65673333Y-99414819D02*
X66054285Y-99414819D01*
X66054285Y-99414819D02*
X66149523Y-99462438D01*
X66149523Y-99462438D02*
X66197142Y-99510057D01*
X66197142Y-99510057D02*
X66244761Y-99605295D01*
X66244761Y-99605295D02*
X66244761Y-99748152D01*
X66244761Y-99748152D02*
X66197142Y-99843390D01*
X66197142Y-99843390D02*
X66149523Y-99891009D01*
X66149523Y-99891009D02*
X66054285Y-99938628D01*
X66054285Y-99938628D02*
X65673333Y-99938628D01*
X66530476Y-99414819D02*
X66863809Y-100414819D01*
X66863809Y-100414819D02*
X67197142Y-99414819D01*
X67435238Y-99414819D02*
X68054285Y-99414819D01*
X68054285Y-99414819D02*
X67720952Y-99795771D01*
X67720952Y-99795771D02*
X67863809Y-99795771D01*
X67863809Y-99795771D02*
X67959047Y-99843390D01*
X67959047Y-99843390D02*
X68006666Y-99891009D01*
X68006666Y-99891009D02*
X68054285Y-99986247D01*
X68054285Y-99986247D02*
X68054285Y-100224342D01*
X68054285Y-100224342D02*
X68006666Y-100319580D01*
X68006666Y-100319580D02*
X67959047Y-100367200D01*
X67959047Y-100367200D02*
X67863809Y-100414819D01*
X67863809Y-100414819D02*
X67578095Y-100414819D01*
X67578095Y-100414819D02*
X67482857Y-100367200D01*
X67482857Y-100367200D02*
X67435238Y-100319580D01*
X25233469Y-104097632D02*
X24662041Y-104097632D01*
X24947755Y-104097632D02*
X24947755Y-103097632D01*
X24947755Y-103097632D02*
X24852517Y-103240489D01*
X24852517Y-103240489D02*
X24757279Y-103335727D01*
X24757279Y-103335727D02*
X24662041Y-103383346D01*
X24662041Y-106792870D02*
X24709660Y-106745251D01*
X24709660Y-106745251D02*
X24804898Y-106697632D01*
X24804898Y-106697632D02*
X25042993Y-106697632D01*
X25042993Y-106697632D02*
X25138231Y-106745251D01*
X25138231Y-106745251D02*
X25185850Y-106792870D01*
X25185850Y-106792870D02*
X25233469Y-106888108D01*
X25233469Y-106888108D02*
X25233469Y-106983346D01*
X25233469Y-106983346D02*
X25185850Y-107126203D01*
X25185850Y-107126203D02*
X24614422Y-107697632D01*
X24614422Y-107697632D02*
X25233469Y-107697632D01*
X50162041Y-103511917D02*
X50638231Y-103511917D01*
X50066803Y-103797632D02*
X50400136Y-102797632D01*
X50400136Y-102797632D02*
X50733469Y-103797632D01*
X51495374Y-103797632D02*
X51495374Y-102797632D01*
X51495374Y-103750013D02*
X51400136Y-103797632D01*
X51400136Y-103797632D02*
X51209660Y-103797632D01*
X51209660Y-103797632D02*
X51114422Y-103750013D01*
X51114422Y-103750013D02*
X51066803Y-103702393D01*
X51066803Y-103702393D02*
X51019184Y-103607155D01*
X51019184Y-103607155D02*
X51019184Y-103321441D01*
X51019184Y-103321441D02*
X51066803Y-103226203D01*
X51066803Y-103226203D02*
X51114422Y-103178584D01*
X51114422Y-103178584D02*
X51209660Y-103130965D01*
X51209660Y-103130965D02*
X51400136Y-103130965D01*
X51400136Y-103130965D02*
X51495374Y-103178584D01*
X52400136Y-103797632D02*
X52400136Y-103273822D01*
X52400136Y-103273822D02*
X52352517Y-103178584D01*
X52352517Y-103178584D02*
X52257279Y-103130965D01*
X52257279Y-103130965D02*
X52066803Y-103130965D01*
X52066803Y-103130965D02*
X51971565Y-103178584D01*
X52400136Y-103750013D02*
X52304898Y-103797632D01*
X52304898Y-103797632D02*
X52066803Y-103797632D01*
X52066803Y-103797632D02*
X51971565Y-103750013D01*
X51971565Y-103750013D02*
X51923946Y-103654774D01*
X51923946Y-103654774D02*
X51923946Y-103559536D01*
X51923946Y-103559536D02*
X51971565Y-103464298D01*
X51971565Y-103464298D02*
X52066803Y-103416679D01*
X52066803Y-103416679D02*
X52304898Y-103416679D01*
X52304898Y-103416679D02*
X52400136Y-103369060D01*
X52733470Y-103130965D02*
X53114422Y-103130965D01*
X52876327Y-103797632D02*
X52876327Y-102940489D01*
X52876327Y-102940489D02*
X52923946Y-102845251D01*
X52923946Y-102845251D02*
X53019184Y-102797632D01*
X53019184Y-102797632D02*
X53114422Y-102797632D01*
X53447756Y-103797632D02*
X53447756Y-103130965D01*
X53447756Y-103321441D02*
X53495375Y-103226203D01*
X53495375Y-103226203D02*
X53542994Y-103178584D01*
X53542994Y-103178584D02*
X53638232Y-103130965D01*
X53638232Y-103130965D02*
X53733470Y-103130965D01*
X54495375Y-103130965D02*
X54495375Y-103797632D01*
X54066804Y-103130965D02*
X54066804Y-103654774D01*
X54066804Y-103654774D02*
X54114423Y-103750013D01*
X54114423Y-103750013D02*
X54209661Y-103797632D01*
X54209661Y-103797632D02*
X54352518Y-103797632D01*
X54352518Y-103797632D02*
X54447756Y-103750013D01*
X54447756Y-103750013D02*
X54495375Y-103702393D01*
X54971566Y-103797632D02*
X54971566Y-103130965D01*
X54971566Y-102797632D02*
X54923947Y-102845251D01*
X54923947Y-102845251D02*
X54971566Y-102892870D01*
X54971566Y-102892870D02*
X55019185Y-102845251D01*
X55019185Y-102845251D02*
X54971566Y-102797632D01*
X54971566Y-102797632D02*
X54971566Y-102892870D01*
X55304899Y-103130965D02*
X55685851Y-103130965D01*
X55447756Y-102797632D02*
X55447756Y-103654774D01*
X55447756Y-103654774D02*
X55495375Y-103750013D01*
X55495375Y-103750013D02*
X55590613Y-103797632D01*
X55590613Y-103797632D02*
X55685851Y-103797632D01*
X56685852Y-102797632D02*
X57352518Y-102797632D01*
X57352518Y-102797632D02*
X56923947Y-103797632D01*
X58209661Y-102797632D02*
X57733471Y-102797632D01*
X57733471Y-102797632D02*
X57685852Y-103273822D01*
X57685852Y-103273822D02*
X57733471Y-103226203D01*
X57733471Y-103226203D02*
X57828709Y-103178584D01*
X57828709Y-103178584D02*
X58066804Y-103178584D01*
X58066804Y-103178584D02*
X58162042Y-103226203D01*
X58162042Y-103226203D02*
X58209661Y-103273822D01*
X58209661Y-103273822D02*
X58257280Y-103369060D01*
X58257280Y-103369060D02*
X58257280Y-103607155D01*
X58257280Y-103607155D02*
X58209661Y-103702393D01*
X58209661Y-103702393D02*
X58162042Y-103750013D01*
X58162042Y-103750013D02*
X58066804Y-103797632D01*
X58066804Y-103797632D02*
X57828709Y-103797632D01*
X57828709Y-103797632D02*
X57733471Y-103750013D01*
X57733471Y-103750013D02*
X57685852Y-103702393D01*
X58685852Y-103797632D02*
X58685852Y-103130965D01*
X58685852Y-103226203D02*
X58733471Y-103178584D01*
X58733471Y-103178584D02*
X58828709Y-103130965D01*
X58828709Y-103130965D02*
X58971566Y-103130965D01*
X58971566Y-103130965D02*
X59066804Y-103178584D01*
X59066804Y-103178584D02*
X59114423Y-103273822D01*
X59114423Y-103273822D02*
X59114423Y-103797632D01*
X59114423Y-103273822D02*
X59162042Y-103178584D01*
X59162042Y-103178584D02*
X59257280Y-103130965D01*
X59257280Y-103130965D02*
X59400137Y-103130965D01*
X59400137Y-103130965D02*
X59495376Y-103178584D01*
X59495376Y-103178584D02*
X59542995Y-103273822D01*
X59542995Y-103273822D02*
X59542995Y-103797632D01*
X60019185Y-103797632D02*
X60019185Y-103130965D01*
X60019185Y-103226203D02*
X60066804Y-103178584D01*
X60066804Y-103178584D02*
X60162042Y-103130965D01*
X60162042Y-103130965D02*
X60304899Y-103130965D01*
X60304899Y-103130965D02*
X60400137Y-103178584D01*
X60400137Y-103178584D02*
X60447756Y-103273822D01*
X60447756Y-103273822D02*
X60447756Y-103797632D01*
X60447756Y-103273822D02*
X60495375Y-103178584D01*
X60495375Y-103178584D02*
X60590613Y-103130965D01*
X60590613Y-103130965D02*
X60733470Y-103130965D01*
X60733470Y-103130965D02*
X60828709Y-103178584D01*
X60828709Y-103178584D02*
X60876328Y-103273822D01*
X60876328Y-103273822D02*
X60876328Y-103797632D01*
X62066804Y-103750013D02*
X62209661Y-103797632D01*
X62209661Y-103797632D02*
X62447756Y-103797632D01*
X62447756Y-103797632D02*
X62542994Y-103750013D01*
X62542994Y-103750013D02*
X62590613Y-103702393D01*
X62590613Y-103702393D02*
X62638232Y-103607155D01*
X62638232Y-103607155D02*
X62638232Y-103511917D01*
X62638232Y-103511917D02*
X62590613Y-103416679D01*
X62590613Y-103416679D02*
X62542994Y-103369060D01*
X62542994Y-103369060D02*
X62447756Y-103321441D01*
X62447756Y-103321441D02*
X62257280Y-103273822D01*
X62257280Y-103273822D02*
X62162042Y-103226203D01*
X62162042Y-103226203D02*
X62114423Y-103178584D01*
X62114423Y-103178584D02*
X62066804Y-103083346D01*
X62066804Y-103083346D02*
X62066804Y-102988108D01*
X62066804Y-102988108D02*
X62114423Y-102892870D01*
X62114423Y-102892870D02*
X62162042Y-102845251D01*
X62162042Y-102845251D02*
X62257280Y-102797632D01*
X62257280Y-102797632D02*
X62495375Y-102797632D01*
X62495375Y-102797632D02*
X62638232Y-102845251D01*
X63209661Y-103797632D02*
X63114423Y-103750013D01*
X63114423Y-103750013D02*
X63066804Y-103654774D01*
X63066804Y-103654774D02*
X63066804Y-102797632D01*
X63590614Y-103797632D02*
X63590614Y-103130965D01*
X63590614Y-102797632D02*
X63542995Y-102845251D01*
X63542995Y-102845251D02*
X63590614Y-102892870D01*
X63590614Y-102892870D02*
X63638233Y-102845251D01*
X63638233Y-102845251D02*
X63590614Y-102797632D01*
X63590614Y-102797632D02*
X63590614Y-102892870D01*
X64495375Y-103797632D02*
X64495375Y-102797632D01*
X64495375Y-103750013D02*
X64400137Y-103797632D01*
X64400137Y-103797632D02*
X64209661Y-103797632D01*
X64209661Y-103797632D02*
X64114423Y-103750013D01*
X64114423Y-103750013D02*
X64066804Y-103702393D01*
X64066804Y-103702393D02*
X64019185Y-103607155D01*
X64019185Y-103607155D02*
X64019185Y-103321441D01*
X64019185Y-103321441D02*
X64066804Y-103226203D01*
X64066804Y-103226203D02*
X64114423Y-103178584D01*
X64114423Y-103178584D02*
X64209661Y-103130965D01*
X64209661Y-103130965D02*
X64400137Y-103130965D01*
X64400137Y-103130965D02*
X64495375Y-103178584D01*
X65352518Y-103750013D02*
X65257280Y-103797632D01*
X65257280Y-103797632D02*
X65066804Y-103797632D01*
X65066804Y-103797632D02*
X64971566Y-103750013D01*
X64971566Y-103750013D02*
X64923947Y-103654774D01*
X64923947Y-103654774D02*
X64923947Y-103273822D01*
X64923947Y-103273822D02*
X64971566Y-103178584D01*
X64971566Y-103178584D02*
X65066804Y-103130965D01*
X65066804Y-103130965D02*
X65257280Y-103130965D01*
X65257280Y-103130965D02*
X65352518Y-103178584D01*
X65352518Y-103178584D02*
X65400137Y-103273822D01*
X65400137Y-103273822D02*
X65400137Y-103369060D01*
X65400137Y-103369060D02*
X64923947Y-103464298D01*
X66590614Y-103797632D02*
X66590614Y-102797632D01*
X66590614Y-102797632D02*
X66971566Y-102797632D01*
X66971566Y-102797632D02*
X67066804Y-102845251D01*
X67066804Y-102845251D02*
X67114423Y-102892870D01*
X67114423Y-102892870D02*
X67162042Y-102988108D01*
X67162042Y-102988108D02*
X67162042Y-103130965D01*
X67162042Y-103130965D02*
X67114423Y-103226203D01*
X67114423Y-103226203D02*
X67066804Y-103273822D01*
X67066804Y-103273822D02*
X66971566Y-103321441D01*
X66971566Y-103321441D02*
X66590614Y-103321441D01*
X67733471Y-103797632D02*
X67638233Y-103750013D01*
X67638233Y-103750013D02*
X67590614Y-103702393D01*
X67590614Y-103702393D02*
X67542995Y-103607155D01*
X67542995Y-103607155D02*
X67542995Y-103321441D01*
X67542995Y-103321441D02*
X67590614Y-103226203D01*
X67590614Y-103226203D02*
X67638233Y-103178584D01*
X67638233Y-103178584D02*
X67733471Y-103130965D01*
X67733471Y-103130965D02*
X67876328Y-103130965D01*
X67876328Y-103130965D02*
X67971566Y-103178584D01*
X67971566Y-103178584D02*
X68019185Y-103226203D01*
X68019185Y-103226203D02*
X68066804Y-103321441D01*
X68066804Y-103321441D02*
X68066804Y-103607155D01*
X68066804Y-103607155D02*
X68019185Y-103702393D01*
X68019185Y-103702393D02*
X67971566Y-103750013D01*
X67971566Y-103750013D02*
X67876328Y-103797632D01*
X67876328Y-103797632D02*
X67733471Y-103797632D01*
X68352519Y-103130965D02*
X68733471Y-103130965D01*
X68495376Y-102797632D02*
X68495376Y-103654774D01*
X68495376Y-103654774D02*
X68542995Y-103750013D01*
X68542995Y-103750013D02*
X68638233Y-103797632D01*
X68638233Y-103797632D02*
X68733471Y-103797632D01*
X52211541Y-106933152D02*
X52402017Y-107599819D01*
X52402017Y-107599819D02*
X52592493Y-107123628D01*
X52592493Y-107123628D02*
X52782969Y-107599819D01*
X52782969Y-107599819D02*
X52973445Y-106933152D01*
X53259160Y-106933152D02*
X53449636Y-107599819D01*
X53449636Y-107599819D02*
X53640112Y-107123628D01*
X53640112Y-107123628D02*
X53830588Y-107599819D01*
X53830588Y-107599819D02*
X54021064Y-106933152D01*
X54306779Y-106933152D02*
X54497255Y-107599819D01*
X54497255Y-107599819D02*
X54687731Y-107123628D01*
X54687731Y-107123628D02*
X54878207Y-107599819D01*
X54878207Y-107599819D02*
X55068683Y-106933152D01*
X55449636Y-107504580D02*
X55497255Y-107552200D01*
X55497255Y-107552200D02*
X55449636Y-107599819D01*
X55449636Y-107599819D02*
X55402017Y-107552200D01*
X55402017Y-107552200D02*
X55449636Y-107504580D01*
X55449636Y-107504580D02*
X55449636Y-107599819D01*
X56354397Y-107599819D02*
X56354397Y-107076009D01*
X56354397Y-107076009D02*
X56306778Y-106980771D01*
X56306778Y-106980771D02*
X56211540Y-106933152D01*
X56211540Y-106933152D02*
X56021064Y-106933152D01*
X56021064Y-106933152D02*
X55925826Y-106980771D01*
X56354397Y-107552200D02*
X56259159Y-107599819D01*
X56259159Y-107599819D02*
X56021064Y-107599819D01*
X56021064Y-107599819D02*
X55925826Y-107552200D01*
X55925826Y-107552200D02*
X55878207Y-107456961D01*
X55878207Y-107456961D02*
X55878207Y-107361723D01*
X55878207Y-107361723D02*
X55925826Y-107266485D01*
X55925826Y-107266485D02*
X56021064Y-107218866D01*
X56021064Y-107218866D02*
X56259159Y-107218866D01*
X56259159Y-107218866D02*
X56354397Y-107171247D01*
X57259159Y-107599819D02*
X57259159Y-106599819D01*
X57259159Y-107552200D02*
X57163921Y-107599819D01*
X57163921Y-107599819D02*
X56973445Y-107599819D01*
X56973445Y-107599819D02*
X56878207Y-107552200D01*
X56878207Y-107552200D02*
X56830588Y-107504580D01*
X56830588Y-107504580D02*
X56782969Y-107409342D01*
X56782969Y-107409342D02*
X56782969Y-107123628D01*
X56782969Y-107123628D02*
X56830588Y-107028390D01*
X56830588Y-107028390D02*
X56878207Y-106980771D01*
X56878207Y-106980771D02*
X56973445Y-106933152D01*
X56973445Y-106933152D02*
X57163921Y-106933152D01*
X57163921Y-106933152D02*
X57259159Y-106980771D01*
X58163921Y-107599819D02*
X58163921Y-107076009D01*
X58163921Y-107076009D02*
X58116302Y-106980771D01*
X58116302Y-106980771D02*
X58021064Y-106933152D01*
X58021064Y-106933152D02*
X57830588Y-106933152D01*
X57830588Y-106933152D02*
X57735350Y-106980771D01*
X58163921Y-107552200D02*
X58068683Y-107599819D01*
X58068683Y-107599819D02*
X57830588Y-107599819D01*
X57830588Y-107599819D02*
X57735350Y-107552200D01*
X57735350Y-107552200D02*
X57687731Y-107456961D01*
X57687731Y-107456961D02*
X57687731Y-107361723D01*
X57687731Y-107361723D02*
X57735350Y-107266485D01*
X57735350Y-107266485D02*
X57830588Y-107218866D01*
X57830588Y-107218866D02*
X58068683Y-107218866D01*
X58068683Y-107218866D02*
X58163921Y-107171247D01*
X58497255Y-106933152D02*
X58878207Y-106933152D01*
X58640112Y-107599819D02*
X58640112Y-106742676D01*
X58640112Y-106742676D02*
X58687731Y-106647438D01*
X58687731Y-106647438D02*
X58782969Y-106599819D01*
X58782969Y-106599819D02*
X58878207Y-106599819D01*
X59211541Y-107599819D02*
X59211541Y-106933152D01*
X59211541Y-107123628D02*
X59259160Y-107028390D01*
X59259160Y-107028390D02*
X59306779Y-106980771D01*
X59306779Y-106980771D02*
X59402017Y-106933152D01*
X59402017Y-106933152D02*
X59497255Y-106933152D01*
X60259160Y-106933152D02*
X60259160Y-107599819D01*
X59830589Y-106933152D02*
X59830589Y-107456961D01*
X59830589Y-107456961D02*
X59878208Y-107552200D01*
X59878208Y-107552200D02*
X59973446Y-107599819D01*
X59973446Y-107599819D02*
X60116303Y-107599819D01*
X60116303Y-107599819D02*
X60211541Y-107552200D01*
X60211541Y-107552200D02*
X60259160Y-107504580D01*
X60735351Y-107504580D02*
X60782970Y-107552200D01*
X60782970Y-107552200D02*
X60735351Y-107599819D01*
X60735351Y-107599819D02*
X60687732Y-107552200D01*
X60687732Y-107552200D02*
X60735351Y-107504580D01*
X60735351Y-107504580D02*
X60735351Y-107599819D01*
X61211541Y-107599819D02*
X61211541Y-106933152D01*
X61211541Y-106599819D02*
X61163922Y-106647438D01*
X61163922Y-106647438D02*
X61211541Y-106695057D01*
X61211541Y-106695057D02*
X61259160Y-106647438D01*
X61259160Y-106647438D02*
X61211541Y-106599819D01*
X61211541Y-106599819D02*
X61211541Y-106695057D01*
X61544874Y-106933152D02*
X61925826Y-106933152D01*
X61687731Y-106599819D02*
X61687731Y-107456961D01*
X61687731Y-107456961D02*
X61735350Y-107552200D01*
X61735350Y-107552200D02*
X61830588Y-107599819D01*
X61830588Y-107599819D02*
X61925826Y-107599819D01*
X62973445Y-106552200D02*
X62116303Y-107837914D01*
X63735350Y-106933152D02*
X63735350Y-107599819D01*
X63497255Y-106552200D02*
X63259160Y-107266485D01*
X63259160Y-107266485D02*
X63878207Y-107266485D01*
X64211541Y-106695057D02*
X64259160Y-106647438D01*
X64259160Y-106647438D02*
X64354398Y-106599819D01*
X64354398Y-106599819D02*
X64592493Y-106599819D01*
X64592493Y-106599819D02*
X64687731Y-106647438D01*
X64687731Y-106647438D02*
X64735350Y-106695057D01*
X64735350Y-106695057D02*
X64782969Y-106790295D01*
X64782969Y-106790295D02*
X64782969Y-106885533D01*
X64782969Y-106885533D02*
X64735350Y-107028390D01*
X64735350Y-107028390D02*
X64163922Y-107599819D01*
X64163922Y-107599819D02*
X64782969Y-107599819D01*
X65735350Y-107599819D02*
X65163922Y-107599819D01*
X65449636Y-107599819D02*
X65449636Y-106599819D01*
X65449636Y-106599819D02*
X65354398Y-106742676D01*
X65354398Y-106742676D02*
X65259160Y-106837914D01*
X65259160Y-106837914D02*
X65163922Y-106885533D01*
X66211541Y-107599819D02*
X66402017Y-107599819D01*
X66402017Y-107599819D02*
X66497255Y-107552200D01*
X66497255Y-107552200D02*
X66544874Y-107504580D01*
X66544874Y-107504580D02*
X66640112Y-107361723D01*
X66640112Y-107361723D02*
X66687731Y-107171247D01*
X66687731Y-107171247D02*
X66687731Y-106790295D01*
X66687731Y-106790295D02*
X66640112Y-106695057D01*
X66640112Y-106695057D02*
X66592493Y-106647438D01*
X66592493Y-106647438D02*
X66497255Y-106599819D01*
X66497255Y-106599819D02*
X66306779Y-106599819D01*
X66306779Y-106599819D02*
X66211541Y-106647438D01*
X66211541Y-106647438D02*
X66163922Y-106695057D01*
X66163922Y-106695057D02*
X66116303Y-106790295D01*
X66116303Y-106790295D02*
X66116303Y-107028390D01*
X66116303Y-107028390D02*
X66163922Y-107123628D01*
X66163922Y-107123628D02*
X66211541Y-107171247D01*
X66211541Y-107171247D02*
X66306779Y-107218866D01*
X66306779Y-107218866D02*
X66497255Y-107218866D01*
X66497255Y-107218866D02*
X66592493Y-107171247D01*
X66592493Y-107171247D02*
X66640112Y-107123628D01*
X66640112Y-107123628D02*
X66687731Y-107028390D01*
X94011541Y-103179819D02*
X94630588Y-103179819D01*
X94630588Y-103179819D02*
X94297255Y-103560771D01*
X94297255Y-103560771D02*
X94440112Y-103560771D01*
X94440112Y-103560771D02*
X94535350Y-103608390D01*
X94535350Y-103608390D02*
X94582969Y-103656009D01*
X94582969Y-103656009D02*
X94630588Y-103751247D01*
X94630588Y-103751247D02*
X94630588Y-103989342D01*
X94630588Y-103989342D02*
X94582969Y-104084580D01*
X94582969Y-104084580D02*
X94535350Y-104132200D01*
X94535350Y-104132200D02*
X94440112Y-104179819D01*
X94440112Y-104179819D02*
X94154398Y-104179819D01*
X94154398Y-104179819D02*
X94059160Y-104132200D01*
X94059160Y-104132200D02*
X94011541Y-104084580D01*
X65074819Y-57026666D02*
X64598628Y-57359999D01*
X65074819Y-57598094D02*
X64074819Y-57598094D01*
X64074819Y-57598094D02*
X64074819Y-57217142D01*
X64074819Y-57217142D02*
X64122438Y-57121904D01*
X64122438Y-57121904D02*
X64170057Y-57074285D01*
X64170057Y-57074285D02*
X64265295Y-57026666D01*
X64265295Y-57026666D02*
X64408152Y-57026666D01*
X64408152Y-57026666D02*
X64503390Y-57074285D01*
X64503390Y-57074285D02*
X64551009Y-57121904D01*
X64551009Y-57121904D02*
X64598628Y-57217142D01*
X64598628Y-57217142D02*
X64598628Y-57598094D01*
X64408152Y-56169523D02*
X65074819Y-56169523D01*
X64027200Y-56407618D02*
X64741485Y-56645713D01*
X64741485Y-56645713D02*
X64741485Y-56026666D01*
X37683809Y-62034819D02*
X37683809Y-61034819D01*
X37683809Y-61034819D02*
X38017142Y-61749104D01*
X38017142Y-61749104D02*
X38350475Y-61034819D01*
X38350475Y-61034819D02*
X38350475Y-62034819D01*
X38969523Y-62034819D02*
X38874285Y-61987200D01*
X38874285Y-61987200D02*
X38826666Y-61939580D01*
X38826666Y-61939580D02*
X38779047Y-61844342D01*
X38779047Y-61844342D02*
X38779047Y-61558628D01*
X38779047Y-61558628D02*
X38826666Y-61463390D01*
X38826666Y-61463390D02*
X38874285Y-61415771D01*
X38874285Y-61415771D02*
X38969523Y-61368152D01*
X38969523Y-61368152D02*
X39112380Y-61368152D01*
X39112380Y-61368152D02*
X39207618Y-61415771D01*
X39207618Y-61415771D02*
X39255237Y-61463390D01*
X39255237Y-61463390D02*
X39302856Y-61558628D01*
X39302856Y-61558628D02*
X39302856Y-61844342D01*
X39302856Y-61844342D02*
X39255237Y-61939580D01*
X39255237Y-61939580D02*
X39207618Y-61987200D01*
X39207618Y-61987200D02*
X39112380Y-62034819D01*
X39112380Y-62034819D02*
X38969523Y-62034819D01*
X40159999Y-61368152D02*
X40159999Y-62034819D01*
X39731428Y-61368152D02*
X39731428Y-61891961D01*
X39731428Y-61891961D02*
X39779047Y-61987200D01*
X39779047Y-61987200D02*
X39874285Y-62034819D01*
X39874285Y-62034819D02*
X40017142Y-62034819D01*
X40017142Y-62034819D02*
X40112380Y-61987200D01*
X40112380Y-61987200D02*
X40159999Y-61939580D01*
X40636190Y-61368152D02*
X40636190Y-62034819D01*
X40636190Y-61463390D02*
X40683809Y-61415771D01*
X40683809Y-61415771D02*
X40779047Y-61368152D01*
X40779047Y-61368152D02*
X40921904Y-61368152D01*
X40921904Y-61368152D02*
X41017142Y-61415771D01*
X41017142Y-61415771D02*
X41064761Y-61511009D01*
X41064761Y-61511009D02*
X41064761Y-62034819D01*
X41398095Y-61368152D02*
X41779047Y-61368152D01*
X41540952Y-61034819D02*
X41540952Y-61891961D01*
X41540952Y-61891961D02*
X41588571Y-61987200D01*
X41588571Y-61987200D02*
X41683809Y-62034819D01*
X41683809Y-62034819D02*
X41779047Y-62034819D01*
%TO.C,R2*%
D11*
X71682881Y-41030000D02*
X71682881Y-41360000D01*
X71682881Y-43770000D02*
X71682881Y-43440000D01*
X78222881Y-41030000D02*
X71682881Y-41030000D01*
X78222881Y-41360000D02*
X78222881Y-41030000D01*
X78222881Y-43440000D02*
X78222881Y-43770000D01*
X78222881Y-43770000D02*
X71682881Y-43770000D01*
%TO.C,RV1*%
D10*
X22352146Y-62924847D02*
X97352146Y-62924847D01*
X22352146Y-72124847D02*
X22352146Y-62924847D01*
X97352146Y-62924847D02*
X97352146Y-72124847D01*
X97352146Y-72124847D02*
X22352146Y-72124847D01*
%TO.C,D4*%
D11*
X62412881Y-39310000D02*
X62412881Y-38845000D01*
X62412881Y-41935000D02*
X62412881Y-41470000D01*
X57064745Y-39310000D02*
G75*
G02*
X62412881Y-38845170I2788136J-1080000D01*
G01*
X57598197Y-39310000D02*
G75*
G02*
X62107565Y-39310000I2254684J-1080000D01*
G01*
X62107565Y-41470000D02*
G75*
G02*
X57598197Y-41470000I-2254684J1080000D01*
G01*
X62412881Y-41934830D02*
G75*
G02*
X57064745Y-41470000I-2560000J1544830D01*
G01*
%TO.C,R5*%
X58392881Y-45340000D02*
X58392881Y-51880000D01*
X58392881Y-51880000D02*
X58722881Y-51880000D01*
X58722881Y-45340000D02*
X58392881Y-45340000D01*
X60802881Y-45340000D02*
X61132881Y-45340000D01*
X61132881Y-45340000D02*
X61132881Y-51880000D01*
X61132881Y-51880000D02*
X60802881Y-51880000D01*
%TO.C,D2*%
X77770000Y-50793433D02*
X77770000Y-47703433D01*
X72220000Y-49248433D02*
G75*
G02*
X77770000Y-47703603I2990000J0D01*
G01*
X77770000Y-50793263D02*
G75*
G02*
X72220000Y-49248433I-2560000J1544830D01*
G01*
X77710000Y-49248433D02*
G75*
G02*
X72710000Y-49248433I-2500000J0D01*
G01*
X72710000Y-49248433D02*
G75*
G02*
X77710000Y-49248433I2500000J0D01*
G01*
%TO.C,R3*%
X41682881Y-39030000D02*
X48222881Y-39030000D01*
X41682881Y-39360000D02*
X41682881Y-39030000D01*
X41682881Y-41440000D02*
X41682881Y-41770000D01*
X41682881Y-41770000D02*
X48222881Y-41770000D01*
X48222881Y-39030000D02*
X48222881Y-39360000D01*
X48222881Y-41770000D02*
X48222881Y-41440000D01*
%TO.C,RV2*%
D10*
X22372881Y-81840000D02*
X97372881Y-81840000D01*
X22372881Y-91040000D02*
X22372881Y-81840000D01*
X97372881Y-81840000D02*
X97372881Y-91040000D01*
X97372881Y-91040000D02*
X22372881Y-91040000D01*
%TO.C,D3*%
D11*
X41950000Y-47703433D02*
X41950000Y-50793433D01*
X41950000Y-47703603D02*
G75*
G02*
X47500000Y-49248433I2560000J-1544830D01*
G01*
X47500000Y-49248433D02*
G75*
G02*
X41950000Y-50793263I-2990000J0D01*
G01*
X47010000Y-49248433D02*
G75*
G02*
X42010000Y-49248433I-2500000J0D01*
G01*
X42010000Y-49248433D02*
G75*
G02*
X47010000Y-49248433I2500000J0D01*
G01*
%TO.C,R1*%
X63802881Y-29630000D02*
X63802881Y-36170000D01*
X63802881Y-36170000D02*
X64132881Y-36170000D01*
X64132881Y-29630000D02*
X63802881Y-29630000D01*
X66212881Y-29630000D02*
X66542881Y-29630000D01*
X66542881Y-29630000D02*
X66542881Y-36170000D01*
X66542881Y-36170000D02*
X66212881Y-36170000D01*
%TO.C,D1*%
X62395000Y-24181804D02*
X62395000Y-21091804D01*
X56845000Y-22636804D02*
G75*
G02*
X62395000Y-21091974I2990000J0D01*
G01*
X62395000Y-24181634D02*
G75*
G02*
X56845000Y-22636804I-2560000J1544830D01*
G01*
X62335000Y-22636804D02*
G75*
G02*
X57335000Y-22636804I-2500000J0D01*
G01*
X57335000Y-22636804D02*
G75*
G02*
X62335000Y-22636804I2500000J0D01*
G01*
%TO.C,R6*%
X53472881Y-45440000D02*
X53472881Y-51980000D01*
X53472881Y-51980000D02*
X53802881Y-51980000D01*
X53802881Y-45440000D02*
X53472881Y-45440000D01*
X55882881Y-45440000D02*
X56212881Y-45440000D01*
X56212881Y-45440000D02*
X56212881Y-51980000D01*
X56212881Y-51980000D02*
X55882881Y-51980000D01*
%TO.C,RV3*%
D10*
X22372881Y-100827813D02*
X97372881Y-100827813D01*
X22372881Y-110027813D02*
X22372881Y-100827813D01*
X97372881Y-100827813D02*
X97372881Y-110027813D01*
X97372881Y-110027813D02*
X22372881Y-110027813D01*
%TO.C,R4*%
D11*
X63342881Y-45310000D02*
X63342881Y-51850000D01*
X63342881Y-51850000D02*
X63672881Y-51850000D01*
X63672881Y-45310000D02*
X63342881Y-45310000D01*
X65752881Y-45310000D02*
X66082881Y-45310000D01*
X66082881Y-45310000D02*
X66082881Y-51850000D01*
X66082881Y-51850000D02*
X65752881Y-51850000D01*
%TD*%
M02*
