%TF.GenerationSoftware,KiCad,Pcbnew,10.0.0*%
%TF.CreationDate,2026-08-10T22:10:49-04:00*%
%TF.ProjectId,RGBox,5247426f-782e-46b6-9963-61645f706362,rev?*%
%TF.SameCoordinates,Original*%
%TF.FileFunction,Copper,L2,Bot*%
%TF.FilePolarity,Positive*%
%FSLAX46Y46*%
G04 Gerber Fmt 4.6, Leading zero omitted, Abs format (unit mm)*
G04 Created by KiCad (PCBNEW 10.0.0) date 2026-08-10 22:10:49*
%MOMM*%
%LPD*%
G01*
G04 APERTURE LIST*
G04 Aperture macros list*
%AMRoundRect*
0 Rectangle with rounded corners*
0 $1 Rounding radius*
0 $2 $3 $4 $5 $6 $7 $8 $9 X,Y pos of 4 corners*
0 Add a 4 corners polygon primitive as box body*
4,1,4,$2,$3,$4,$5,$6,$7,$8,$9,$2,$3,0*
0 Add four circle primitives for the rounded corners*
1,1,$1+$1,$2,$3*
1,1,$1+$1,$4,$5*
1,1,$1+$1,$6,$7*
1,1,$1+$1,$8,$9*
0 Add four rect primitives between the rounded corners*
20,1,$1+$1,$2,$3,$4,$5,0*
20,1,$1+$1,$4,$5,$6,$7,0*
20,1,$1+$1,$6,$7,$8,$9,0*
20,1,$1+$1,$8,$9,$2,$3,0*%
G04 Aperture macros list end*
%TA.AperFunction,ComponentPad*%
%ADD10R,2.000000X2.000000*%
%TD*%
%TA.AperFunction,ComponentPad*%
%ADD11C,2.000000*%
%TD*%
%TA.AperFunction,ComponentPad*%
%ADD12O,1.060000X1.800000*%
%TD*%
%TA.AperFunction,ComponentPad*%
%ADD13R,1.070000X1.800000*%
%TD*%
%TA.AperFunction,WasherPad*%
%ADD14C,3.200000*%
%TD*%
%TA.AperFunction,ComponentPad*%
%ADD15R,1.600000X2.600000*%
%TD*%
%TA.AperFunction,ComponentPad*%
%ADD16O,1.600000X2.600000*%
%TD*%
%TA.AperFunction,ComponentPad*%
%ADD17R,1.800000X1.800000*%
%TD*%
%TA.AperFunction,ComponentPad*%
%ADD18C,1.800000*%
%TD*%
%TA.AperFunction,ComponentPad*%
%ADD19C,1.600000*%
%TD*%
%TA.AperFunction,ComponentPad*%
%ADD20RoundRect,0.250000X0.600000X0.750000X-0.600000X0.750000X-0.600000X-0.750000X0.600000X-0.750000X0*%
%TD*%
%TA.AperFunction,ComponentPad*%
%ADD21O,1.700000X2.000000*%
%TD*%
%TA.AperFunction,ViaPad*%
%ADD22C,0.600000*%
%TD*%
%TA.AperFunction,Conductor*%
%ADD23C,0.200000*%
%TD*%
%TA.AperFunction,Conductor*%
%ADD24C,0.500000*%
%TD*%
G04 APERTURE END LIST*
D10*
%TO.P,RV3,1,1_1*%
%TO.N,+3.3V*%
X23122881Y-103677813D03*
D11*
%TO.P,RV3,2,2_2*%
%TO.N,Net-(A1-A4)*%
X23122881Y-107177813D03*
%TO.P,RV3,3,3_3*%
%TO.N,GND*%
X96622881Y-107177813D03*
%TD*%
D10*
%TO.P,RV2,1,1_1*%
%TO.N,+3.3V*%
X23122881Y-84690000D03*
D11*
%TO.P,RV2,2,2_2*%
%TO.N,Net-(A1-A3)*%
X23122881Y-88190000D03*
%TO.P,RV2,3,3_3*%
%TO.N,GND*%
X96622881Y-88190000D03*
%TD*%
D10*
%TO.P,RV1,1,1_1*%
%TO.N,+3.3V*%
X23102146Y-65774847D03*
D11*
%TO.P,RV1,2,2_2*%
%TO.N,Net-(A1-A2)*%
X23102146Y-69274847D03*
%TO.P,RV1,3,3_3*%
%TO.N,GND*%
X96602146Y-69274847D03*
%TD*%
D12*
%TO.P,D4,4,RK_4*%
%TO.N,Net-(D4-RK)*%
X57947881Y-40390000D03*
%TO.P,D4,3,A_3*%
%TO.N,+3.3V*%
X59217881Y-40390000D03*
%TO.P,D4,2,GK_2*%
%TO.N,Net-(D4-GK)*%
X60487881Y-40390000D03*
D13*
%TO.P,D4,1,BK_1*%
%TO.N,Net-(D4-BK)*%
X61757881Y-40390000D03*
%TD*%
D14*
%TO.P,A1,*%
%TO.N,*%
X19172881Y-77550000D03*
X19172881Y-95330000D03*
D15*
%TO.P,A1,1,~{RESET}_1*%
%TO.N,unconnected-(A1-~{RESET}-Pad1)*%
X22982881Y-76580000D03*
D16*
%TO.P,A1,2,3V3_2*%
%TO.N,+3.3V*%
X25522881Y-76580000D03*
%TO.P,A1,3,AREF_3*%
%TO.N,unconnected-(A1-AREF-Pad3)*%
X28062881Y-76580000D03*
%TO.P,A1,4,GND_4*%
%TO.N,GND*%
X30602881Y-76580000D03*
%TO.P,A1,5,A0_5*%
%TO.N,unconnected-(A1-A0-Pad5)*%
X33142881Y-76580000D03*
%TO.P,A1,6,A1_6*%
%TO.N,unconnected-(A1-A1-Pad6)*%
X35682881Y-76580000D03*
%TO.P,A1,7,A2_7*%
%TO.N,Net-(A1-A2)*%
X38222881Y-76580000D03*
%TO.P,A1,8,A3_8*%
%TO.N,Net-(A1-A3)*%
X40762881Y-76580000D03*
%TO.P,A1,9,A4_9*%
%TO.N,Net-(A1-A4)*%
X43302881Y-76580000D03*
%TO.P,A1,10,A5_10*%
%TO.N,unconnected-(A1-A5-Pad10)*%
X45842881Y-76580000D03*
%TO.P,A1,11,SCK_11*%
%TO.N,unconnected-(A1-SCK-Pad11)*%
X48382881Y-76580000D03*
%TO.P,A1,12,MOSI_12*%
%TO.N,unconnected-(A1-MOSI-Pad12)*%
X50922881Y-76580000D03*
%TO.P,A1,13,MISO_13*%
%TO.N,unconnected-(A1-MISO-Pad13)*%
X53462881Y-76580000D03*
%TO.P,A1,14,RX_14*%
%TO.N,unconnected-(A1-RX-Pad14)*%
X56002881Y-76580000D03*
%TO.P,A1,15,TX_15*%
%TO.N,unconnected-(A1-TX-Pad15)*%
X58542881Y-76580000D03*
%TO.P,A1,16,SPARE_16*%
%TO.N,unconnected-(A1-SPARE-Pad16)*%
X61082881Y-76580000D03*
%TO.P,A1,17,SDA_17*%
%TO.N,unconnected-(A1-SDA-Pad17)*%
X61082881Y-96300000D03*
%TO.P,A1,18,SCL_18*%
%TO.N,unconnected-(A1-SCL-Pad18)*%
X58542881Y-96300000D03*
%TO.P,A1,19,D0_19*%
%TO.N,Net-(A1-D0)*%
X56002881Y-96300000D03*
%TO.P,A1,20,D1_20*%
%TO.N,Net-(A1-D1)*%
X53462881Y-96300000D03*
%TO.P,A1,21,D2_21*%
%TO.N,Net-(A1-D2)*%
X50922881Y-96300000D03*
%TO.P,A1,22,D3_22*%
%TO.N,Net-(A1-D3)*%
X48382881Y-96300000D03*
%TO.P,A1,23,D4_23*%
%TO.N,Net-(A1-D4)*%
X45842881Y-96300000D03*
%TO.P,A1,24,D5_24*%
%TO.N,Net-(A1-D5)*%
X43302881Y-96300000D03*
%TO.P,A1,25,D6_25*%
%TO.N,Net-(A1-D6)*%
X40762881Y-96300000D03*
%TO.P,A1,26,USB_26*%
%TO.N,unconnected-(A1-USB-Pad26)*%
X38222881Y-96300000D03*
%TO.P,A1,27,EN_27*%
%TO.N,Net-(A1-EN)*%
X35682881Y-96300000D03*
%TO.P,A1,28,VBAT_28*%
%TO.N,unconnected-(A1-VBAT-Pad28)*%
X33142881Y-96300000D03*
%TD*%
D17*
%TO.P,D1 Red,1,K_1*%
%TO.N,+3.3V*%
X58583056Y-22636804D03*
D18*
%TO.P,D1 Red,2,A_2*%
%TO.N,Net-(D1-A)*%
X61123056Y-22636804D03*
%TD*%
D17*
%TO.P,D2 Green,1,K_1*%
%TO.N,+3.3V*%
X73947146Y-49248433D03*
D18*
%TO.P,D2 Green,2,A_2*%
%TO.N,Net-(D2-A)*%
X76487146Y-49248433D03*
%TD*%
D17*
%TO.P,D3 Blue,1,K_1*%
%TO.N,+3.3V*%
X45777881Y-49250000D03*
D18*
%TO.P,D3 Blue,2,A_2*%
%TO.N,Net-(D3-A)*%
X43237881Y-49250000D03*
%TD*%
D19*
%TO.P,R1 Red,2*%
%TO.N,Net-(A1-D0)*%
X65172881Y-36710000D03*
%TO.P,R1 Red,1*%
%TO.N,Net-(D1-A)*%
X65172881Y-29090000D03*
%TD*%
%TO.P,R2 Green,1*%
%TO.N,Net-(D2-A)*%
X78762881Y-42400000D03*
%TO.P,R2 Green,2*%
%TO.N,Net-(A1-D1)*%
X71142881Y-42400000D03*
%TD*%
%TO.P,R3 Blue,1*%
%TO.N,Net-(D3-A)*%
X41142881Y-40400000D03*
%TO.P,R3 Blue,2*%
%TO.N,Net-(A1-D2)*%
X48762881Y-40400000D03*
%TD*%
%TO.P,R4,1*%
%TO.N,Net-(D4-BK)*%
X64712881Y-44770000D03*
%TO.P,R4,2*%
%TO.N,Net-(A1-D3)*%
X64712881Y-52390000D03*
%TD*%
%TO.P,R5,1*%
%TO.N,Net-(D4-GK)*%
X59762881Y-44800000D03*
%TO.P,R5,2*%
%TO.N,Net-(A1-D4)*%
X59762881Y-52420000D03*
%TD*%
%TO.P,R6,1*%
%TO.N,Net-(D4-RK)*%
X54842881Y-44900000D03*
%TO.P,R6,2*%
%TO.N,Net-(A1-D5)*%
X54842881Y-52520000D03*
%TD*%
D20*
%TO.P,SW1,1,A_1*%
%TO.N,GND*%
X85952881Y-95175000D03*
D21*
%TO.P,SW1,2,B_2*%
%TO.N,Net-(A1-EN)*%
X83452881Y-95175000D03*
%TD*%
D20*
%TO.P,SW2,1,A_1*%
%TO.N,+3.3V*%
X85952881Y-75875000D03*
D21*
%TO.P,SW2,2,B_2*%
%TO.N,Net-(A1-D6)*%
X83452881Y-75875000D03*
%TD*%
D22*
%TO.N,GND*%
X56060000Y-79250000D03*
X34840000Y-86530000D03*
X41350000Y-67490000D03*
%TD*%
%TO.N,Net-(D2-A)*%
D23*
X78762881Y-46972698D02*
X76487146Y-49248433D01*
%TO.N,Net-(D1-A)*%
X65172881Y-26686629D02*
X65172881Y-29090000D01*
X61123056Y-22636804D02*
X65172881Y-26686629D01*
%TO.N,Net-(D2-A)*%
X78762881Y-42400000D02*
X78762881Y-46972698D01*
%TO.N,Net-(A1-D0)*%
D24*
X65172881Y-36710000D02*
X66662881Y-38200000D01*
X56002881Y-96572233D02*
X56002881Y-96600000D01*
X66662881Y-38200000D02*
X66662881Y-85912233D01*
X66662881Y-85912233D02*
X56002881Y-96572233D01*
%TO.N,Net-(D3-A)*%
D23*
X41142881Y-40400000D02*
X41142881Y-47155000D01*
X41142881Y-47155000D02*
X43237881Y-49250000D01*
%TO.N,Net-(A1-D1)*%
X71142881Y-86788974D02*
X62182881Y-95748974D01*
X54762881Y-97900000D02*
X53462881Y-96600000D01*
%TO.N,Net-(D4-RK)*%
X57947881Y-41795000D02*
X57947881Y-40390000D01*
%TO.N,Net-(D4-BK)*%
X64712881Y-44770000D02*
X61757881Y-41815000D01*
%TO.N,Net-(A1-D2)*%
X48762881Y-40400000D02*
X49822881Y-41460000D01*
X49822881Y-41460000D02*
X49822881Y-95500000D01*
%TO.N,Net-(A1-D1)*%
X62182881Y-95748974D02*
X62182881Y-97255635D01*
%TO.N,Net-(D4-RK)*%
X54842881Y-44900000D02*
X57947881Y-41795000D01*
%TO.N,Net-(A1-D1)*%
X61538516Y-97900000D02*
X54762881Y-97900000D01*
X62182881Y-97255635D02*
X61538516Y-97900000D01*
%TO.N,Net-(A1-D2)*%
X49822881Y-95500000D02*
X50922881Y-96600000D01*
%TO.N,Net-(A1-D1)*%
X71142881Y-42400000D02*
X71142881Y-86788974D01*
%TO.N,Net-(D4-BK)*%
X61757881Y-41815000D02*
X61757881Y-40390000D01*
%TO.N,Net-(D4-GK)*%
X59762881Y-44800000D02*
X60487881Y-44075000D01*
X60487881Y-44075000D02*
X60487881Y-40390000D01*
%TD*%
%TA.AperFunction,Conductor*%
%TO.N,GND*%
G36*
X60763690Y-18309328D02*
G01*
X60768803Y-18309539D01*
X61675411Y-18365830D01*
X61680504Y-18366253D01*
X62584003Y-18459960D01*
X62589040Y-18460588D01*
X63487926Y-18591556D01*
X63492900Y-18592386D01*
X64385663Y-18760400D01*
X64390599Y-18761435D01*
X65275589Y-18966184D01*
X65280539Y-18967437D01*
X66156315Y-19208584D01*
X66161211Y-19210042D01*
X67024008Y-19486448D01*
X67026231Y-19487161D01*
X67031078Y-19488825D01*
X67883940Y-19801465D01*
X67888647Y-19803302D01*
X68727900Y-20150935D01*
X68732537Y-20152969D01*
X69555584Y-20534469D01*
X69556663Y-20534969D01*
X69561268Y-20537220D01*
X70368886Y-20952941D01*
X70373393Y-20955380D01*
X71163146Y-21404122D01*
X71167549Y-21406746D01*
X71936851Y-21886973D01*
X71938061Y-21887728D01*
X71942352Y-21890532D01*
X72692366Y-22402970D01*
X72696537Y-22405948D01*
X73424691Y-22948910D01*
X73428731Y-22952054D01*
X73686038Y-23161007D01*
X74133848Y-23524662D01*
X74137752Y-23527968D01*
X74338273Y-23705047D01*
X74818621Y-24129241D01*
X74822392Y-24132713D01*
X75477806Y-24761584D01*
X75481430Y-24765208D01*
X76110307Y-25420639D01*
X76113778Y-25424410D01*
X76715016Y-26105250D01*
X76718321Y-26109152D01*
X76842722Y-26262343D01*
X77290938Y-26814292D01*
X77294086Y-26818337D01*
X77837054Y-27546512D01*
X77840032Y-27550683D01*
X78352452Y-28300685D01*
X78355255Y-28304976D01*
X78836231Y-29075492D01*
X78838854Y-29079893D01*
X78984991Y-29337088D01*
X79287591Y-29869652D01*
X79290030Y-29874159D01*
X79705744Y-30681781D01*
X79707995Y-30686386D01*
X80089974Y-31510487D01*
X80092033Y-31515181D01*
X80439634Y-32354373D01*
X80441497Y-32359148D01*
X80754110Y-33211959D01*
X80755775Y-33216806D01*
X81032900Y-34081869D01*
X81034362Y-34086782D01*
X81275486Y-34962509D01*
X81276744Y-34967477D01*
X81481475Y-35852425D01*
X81482527Y-35857441D01*
X81650514Y-36750101D01*
X81651358Y-36755157D01*
X81782314Y-37654003D01*
X81782948Y-37659089D01*
X81876647Y-38562580D01*
X81877070Y-38567688D01*
X81933350Y-39474261D01*
X81933562Y-39479382D01*
X81950734Y-40310229D01*
X81949700Y-40328967D01*
X81949519Y-40330335D01*
X81949479Y-50749660D01*
X81950539Y-50757716D01*
X81949859Y-50757805D01*
X81952343Y-50776670D01*
X81952343Y-51018229D01*
X81990291Y-51645615D01*
X82066051Y-52269579D01*
X82066052Y-52269584D01*
X82179345Y-52887816D01*
X82329760Y-53498087D01*
X82430227Y-53820500D01*
X82516752Y-54098172D01*
X82516755Y-54098180D01*
X82516756Y-54098183D01*
X82739626Y-54685851D01*
X82739629Y-54685858D01*
X82739633Y-54685868D01*
X82997592Y-55259035D01*
X82997593Y-55259036D01*
X83289688Y-55815582D01*
X83289697Y-55815599D01*
X83591880Y-56315473D01*
X83614852Y-56353474D01*
X83971901Y-56870754D01*
X84359532Y-57365532D01*
X84776329Y-57836003D01*
X85220772Y-58280449D01*
X85691239Y-58697250D01*
X85693215Y-58698798D01*
X86186013Y-59084885D01*
X86627846Y-59389862D01*
X86703291Y-59441938D01*
X87102510Y-59683277D01*
X87241187Y-59767111D01*
X87241195Y-59767115D01*
X87797723Y-60059207D01*
X88370892Y-60317171D01*
X88620015Y-60411652D01*
X88958584Y-60540056D01*
X89558663Y-60727051D01*
X90168939Y-60877472D01*
X90787183Y-60990772D01*
X91411139Y-61066537D01*
X92038532Y-61104490D01*
X92275408Y-61104490D01*
X92275412Y-61104491D01*
X92504972Y-61104491D01*
X95259555Y-61104501D01*
X95270849Y-61104501D01*
X95276174Y-61104618D01*
X95668994Y-61121770D01*
X95679736Y-61122710D01*
X96066846Y-61173676D01*
X96077473Y-61175549D01*
X96458675Y-61260061D01*
X96469101Y-61262854D01*
X96841476Y-61380266D01*
X96851626Y-61383960D01*
X97140770Y-61503728D01*
X97212340Y-61533374D01*
X97222144Y-61537946D01*
X97568462Y-61718228D01*
X97577809Y-61723625D01*
X97810970Y-61872166D01*
X97907104Y-61933411D01*
X97915964Y-61939615D01*
X98225705Y-62177288D01*
X98233992Y-62184242D01*
X98521846Y-62448013D01*
X98529496Y-62455662D01*
X98793267Y-62743519D01*
X98800220Y-62751806D01*
X99037890Y-63061544D01*
X99044095Y-63070405D01*
X99253876Y-63399696D01*
X99259284Y-63409064D01*
X99439558Y-63755368D01*
X99444130Y-63765172D01*
X99593541Y-64125882D01*
X99597241Y-64136048D01*
X99714643Y-64508401D01*
X99717443Y-64518850D01*
X99801948Y-64900028D01*
X99803826Y-64910681D01*
X99854786Y-65297759D01*
X99855729Y-65308535D01*
X99872877Y-65701299D01*
X99872995Y-65706708D01*
X99872995Y-107343429D01*
X99872877Y-107348838D01*
X99855729Y-107741602D01*
X99854786Y-107752379D01*
X99803825Y-108139459D01*
X99801947Y-108150111D01*
X99717443Y-108531287D01*
X99714643Y-108541737D01*
X99597238Y-108914097D01*
X99593538Y-108924262D01*
X99444128Y-109284970D01*
X99439556Y-109294774D01*
X99259281Y-109641078D01*
X99253873Y-109650446D01*
X99044091Y-109979738D01*
X99037886Y-109988599D01*
X98800210Y-110298345D01*
X98793256Y-110306632D01*
X98529490Y-110594482D01*
X98521841Y-110602131D01*
X98233991Y-110865897D01*
X98225704Y-110872851D01*
X97915958Y-111110527D01*
X97907097Y-111116732D01*
X97577805Y-111326514D01*
X97568437Y-111331922D01*
X97222133Y-111512197D01*
X97212329Y-111516769D01*
X96851621Y-111666179D01*
X96841456Y-111669879D01*
X96469096Y-111787284D01*
X96458646Y-111790084D01*
X96077470Y-111874588D01*
X96066818Y-111876466D01*
X95679738Y-111927427D01*
X95668961Y-111928370D01*
X95276198Y-111945518D01*
X95270789Y-111945636D01*
X24434072Y-111945636D01*
X24428662Y-111945518D01*
X24035898Y-111928366D01*
X24025122Y-111927423D01*
X23638043Y-111876460D01*
X23627390Y-111874582D01*
X23246212Y-111790074D01*
X23235763Y-111787274D01*
X22863407Y-111669869D01*
X22853242Y-111666169D01*
X22492535Y-111516757D01*
X22482731Y-111512185D01*
X22136419Y-111331905D01*
X22127051Y-111326496D01*
X21797783Y-111116728D01*
X21788921Y-111110524D01*
X21479164Y-110872838D01*
X21470878Y-110865884D01*
X21183027Y-110602117D01*
X21175378Y-110594468D01*
X20911611Y-110306617D01*
X20904657Y-110298331D01*
X20666971Y-109988574D01*
X20660767Y-109979712D01*
X20636339Y-109941368D01*
X20450999Y-109650445D01*
X20445590Y-109641076D01*
X20418603Y-109589234D01*
X26147381Y-109589234D01*
X26147381Y-109766391D01*
X26175095Y-109941369D01*
X26229837Y-110109852D01*
X26229838Y-110109855D01*
X26310267Y-110267703D01*
X26414398Y-110411027D01*
X26539667Y-110536296D01*
X26682991Y-110640427D01*
X26760410Y-110679874D01*
X26840838Y-110720855D01*
X26840841Y-110720856D01*
X26925082Y-110748227D01*
X27009326Y-110775599D01*
X27184302Y-110803313D01*
X27184303Y-110803313D01*
X27361459Y-110803313D01*
X27361460Y-110803313D01*
X27536436Y-110775599D01*
X27704923Y-110720855D01*
X27862771Y-110640427D01*
X28006095Y-110536296D01*
X28131364Y-110411027D01*
X28235495Y-110267703D01*
X28315923Y-110109855D01*
X28370667Y-109941368D01*
X28398381Y-109766392D01*
X28398381Y-109589234D01*
X91347381Y-109589234D01*
X91347381Y-109766391D01*
X91375095Y-109941369D01*
X91429837Y-110109852D01*
X91429838Y-110109855D01*
X91510267Y-110267703D01*
X91614398Y-110411027D01*
X91739667Y-110536296D01*
X91882991Y-110640427D01*
X91960410Y-110679874D01*
X92040838Y-110720855D01*
X92040841Y-110720856D01*
X92125082Y-110748227D01*
X92209326Y-110775599D01*
X92384302Y-110803313D01*
X92384303Y-110803313D01*
X92561459Y-110803313D01*
X92561460Y-110803313D01*
X92736436Y-110775599D01*
X92904923Y-110720855D01*
X93062771Y-110640427D01*
X93206095Y-110536296D01*
X93331364Y-110411027D01*
X93435495Y-110267703D01*
X93515923Y-110109855D01*
X93570667Y-109941368D01*
X93598381Y-109766392D01*
X93598381Y-109589234D01*
X93570667Y-109414258D01*
X93537097Y-109310939D01*
X93515924Y-109245773D01*
X93515923Y-109245770D01*
X93435494Y-109087922D01*
X93331364Y-108944599D01*
X93206095Y-108819330D01*
X93062771Y-108715199D01*
X92990379Y-108678313D01*
X92904923Y-108634770D01*
X92904920Y-108634769D01*
X92736437Y-108580027D01*
X92648948Y-108566170D01*
X92561460Y-108552313D01*
X92384302Y-108552313D01*
X92325976Y-108561551D01*
X92209324Y-108580027D01*
X92040841Y-108634769D01*
X92040838Y-108634770D01*
X91882990Y-108715199D01*
X91801219Y-108774609D01*
X91739667Y-108819330D01*
X91739665Y-108819332D01*
X91739664Y-108819332D01*
X91614400Y-108944596D01*
X91614400Y-108944597D01*
X91614398Y-108944599D01*
X91569677Y-109006151D01*
X91510267Y-109087922D01*
X91429838Y-109245770D01*
X91429837Y-109245773D01*
X91375095Y-109414256D01*
X91347381Y-109589234D01*
X28398381Y-109589234D01*
X28370667Y-109414258D01*
X28337097Y-109310939D01*
X28315924Y-109245773D01*
X28315923Y-109245770D01*
X28235494Y-109087922D01*
X28131364Y-108944599D01*
X28006095Y-108819330D01*
X27862771Y-108715199D01*
X27790379Y-108678313D01*
X27704923Y-108634770D01*
X27704920Y-108634769D01*
X27536437Y-108580027D01*
X27448948Y-108566170D01*
X27361460Y-108552313D01*
X27184302Y-108552313D01*
X27125976Y-108561551D01*
X27009324Y-108580027D01*
X26840841Y-108634769D01*
X26840838Y-108634770D01*
X26682990Y-108715199D01*
X26601219Y-108774609D01*
X26539667Y-108819330D01*
X26539665Y-108819332D01*
X26539664Y-108819332D01*
X26414400Y-108944596D01*
X26414400Y-108944597D01*
X26414398Y-108944599D01*
X26369677Y-109006151D01*
X26310267Y-109087922D01*
X26229838Y-109245770D01*
X26229837Y-109245773D01*
X26175095Y-109414256D01*
X26147381Y-109589234D01*
X20418603Y-109589234D01*
X20265310Y-109294764D01*
X20260738Y-109284960D01*
X20228261Y-109206555D01*
X20111323Y-108924246D01*
X20107626Y-108914088D01*
X20099530Y-108888412D01*
X19990219Y-108541727D01*
X19987421Y-108531283D01*
X19971874Y-108461156D01*
X19902910Y-108150092D01*
X19901037Y-108139465D01*
X19850070Y-107752355D01*
X19849130Y-107741616D01*
X19831978Y-107348834D01*
X19831860Y-107343424D01*
X19831860Y-107059715D01*
X21622381Y-107059715D01*
X21622381Y-107295910D01*
X21659327Y-107529181D01*
X21732314Y-107753809D01*
X21839400Y-107963976D01*
X21839538Y-107964246D01*
X21978364Y-108155323D01*
X22145371Y-108322330D01*
X22336448Y-108461156D01*
X22435872Y-108511815D01*
X22546884Y-108568379D01*
X22546886Y-108568379D01*
X22546889Y-108568381D01*
X22582732Y-108580027D01*
X22771512Y-108641366D01*
X23004784Y-108678313D01*
X23004789Y-108678313D01*
X23240978Y-108678313D01*
X23474249Y-108641366D01*
X23494552Y-108634769D01*
X23698873Y-108568381D01*
X23909314Y-108461156D01*
X24100391Y-108322330D01*
X24267398Y-108155323D01*
X24406224Y-107964246D01*
X24513449Y-107753805D01*
X24586434Y-107529181D01*
X24588598Y-107515521D01*
X24623381Y-107295910D01*
X24623381Y-107059760D01*
X95122881Y-107059760D01*
X95122881Y-107295865D01*
X95159815Y-107529060D01*
X95232778Y-107753615D01*
X95339968Y-107963987D01*
X95400219Y-108046917D01*
X95400221Y-108046918D01*
X96099093Y-107348046D01*
X96110363Y-107390105D01*
X96182771Y-107515521D01*
X96285173Y-107617923D01*
X96410589Y-107690331D01*
X96452646Y-107701600D01*
X95753774Y-108400471D01*
X95836709Y-108460727D01*
X96047078Y-108567915D01*
X96271633Y-108640878D01*
X96271632Y-108640878D01*
X96504829Y-108677813D01*
X96740933Y-108677813D01*
X96974128Y-108640878D01*
X97198683Y-108567915D01*
X97409044Y-108460731D01*
X97409050Y-108460727D01*
X97491985Y-108400471D01*
X97491986Y-108400471D01*
X96793114Y-107701600D01*
X96835173Y-107690331D01*
X96960589Y-107617923D01*
X97062991Y-107515521D01*
X97135399Y-107390105D01*
X97146668Y-107348047D01*
X97845539Y-108046918D01*
X97845539Y-108046917D01*
X97905795Y-107963982D01*
X97905799Y-107963976D01*
X98012983Y-107753615D01*
X98085946Y-107529060D01*
X98122881Y-107295865D01*
X98122881Y-107059760D01*
X98085946Y-106826565D01*
X98012983Y-106602010D01*
X97905795Y-106391641D01*
X97845539Y-106308707D01*
X97845539Y-106308706D01*
X97146668Y-107007578D01*
X97135399Y-106965521D01*
X97062991Y-106840105D01*
X96960589Y-106737703D01*
X96835173Y-106665295D01*
X96793115Y-106654025D01*
X97491986Y-105955153D01*
X97491985Y-105955151D01*
X97409055Y-105894900D01*
X97198683Y-105787710D01*
X96974128Y-105714747D01*
X96974129Y-105714747D01*
X96740933Y-105677813D01*
X96504829Y-105677813D01*
X96271633Y-105714747D01*
X96047078Y-105787710D01*
X95836711Y-105894897D01*
X95753775Y-105955153D01*
X96452647Y-106654025D01*
X96410589Y-106665295D01*
X96285173Y-106737703D01*
X96182771Y-106840105D01*
X96110363Y-106965521D01*
X96099093Y-107007579D01*
X95400221Y-106308707D01*
X95339965Y-106391643D01*
X95232778Y-106602010D01*
X95159815Y-106826565D01*
X95122881Y-107059760D01*
X24623381Y-107059760D01*
X24623381Y-107059715D01*
X24586434Y-106826444D01*
X24513447Y-106601816D01*
X24406358Y-106391643D01*
X24406224Y-106391380D01*
X24267398Y-106200303D01*
X24100391Y-106033296D01*
X23909314Y-105894470D01*
X23698877Y-105787246D01*
X23474249Y-105714259D01*
X23240978Y-105677313D01*
X23240973Y-105677313D01*
X23004789Y-105677313D01*
X23004784Y-105677313D01*
X22771512Y-105714259D01*
X22546884Y-105787246D01*
X22336447Y-105894470D01*
X22252928Y-105955151D01*
X22145371Y-106033296D01*
X22145369Y-106033298D01*
X22145368Y-106033298D01*
X21978366Y-106200300D01*
X21978366Y-106200301D01*
X21978364Y-106200303D01*
X21918743Y-106282363D01*
X21839538Y-106391379D01*
X21732314Y-106601816D01*
X21659327Y-106826444D01*
X21622381Y-107059715D01*
X19831860Y-107059715D01*
X19831860Y-102629948D01*
X21622381Y-102629948D01*
X21622381Y-104725683D01*
X21622382Y-104725689D01*
X21628789Y-104785296D01*
X21679083Y-104920141D01*
X21679087Y-104920148D01*
X21765333Y-105035357D01*
X21765336Y-105035360D01*
X21880545Y-105121606D01*
X21880552Y-105121610D01*
X22015398Y-105171904D01*
X22015397Y-105171904D01*
X22022325Y-105172648D01*
X22075008Y-105178313D01*
X24170753Y-105178312D01*
X24230364Y-105171904D01*
X24365212Y-105121609D01*
X24480427Y-105035359D01*
X24566677Y-104920144D01*
X24616972Y-104785296D01*
X24623381Y-104725686D01*
X24623380Y-102629941D01*
X24616972Y-102570330D01*
X24566677Y-102435482D01*
X24566676Y-102435481D01*
X24566674Y-102435477D01*
X24480428Y-102320268D01*
X24480425Y-102320265D01*
X24365216Y-102234019D01*
X24365209Y-102234015D01*
X24230363Y-102183721D01*
X24230364Y-102183721D01*
X24170764Y-102177314D01*
X24170762Y-102177313D01*
X24170754Y-102177313D01*
X24170745Y-102177313D01*
X22075010Y-102177313D01*
X22075004Y-102177314D01*
X22015397Y-102183721D01*
X21880552Y-102234015D01*
X21880545Y-102234019D01*
X21765336Y-102320265D01*
X21765333Y-102320268D01*
X21679087Y-102435477D01*
X21679083Y-102435484D01*
X21628789Y-102570330D01*
X21622382Y-102629929D01*
X21622382Y-102629936D01*
X21622381Y-102629948D01*
X19831860Y-102629948D01*
X19831860Y-101089234D01*
X27347381Y-101089234D01*
X27347381Y-101266391D01*
X27375095Y-101441369D01*
X27429837Y-101609852D01*
X27429838Y-101609855D01*
X27510267Y-101767703D01*
X27614398Y-101911027D01*
X27739667Y-102036296D01*
X27882991Y-102140427D01*
X27955385Y-102177314D01*
X28040838Y-102220855D01*
X28040841Y-102220856D01*
X28081354Y-102234019D01*
X28209326Y-102275599D01*
X28384302Y-102303313D01*
X28384303Y-102303313D01*
X28561459Y-102303313D01*
X28561460Y-102303313D01*
X28736436Y-102275599D01*
X28904923Y-102220855D01*
X29062771Y-102140427D01*
X29206095Y-102036296D01*
X29331364Y-101911027D01*
X29435495Y-101767703D01*
X29515923Y-101609855D01*
X29570667Y-101441368D01*
X29598381Y-101266392D01*
X29598381Y-101089234D01*
X90147381Y-101089234D01*
X90147381Y-101266391D01*
X90175095Y-101441369D01*
X90229837Y-101609852D01*
X90229838Y-101609855D01*
X90310267Y-101767703D01*
X90414398Y-101911027D01*
X90539667Y-102036296D01*
X90682991Y-102140427D01*
X90755385Y-102177314D01*
X90840838Y-102220855D01*
X90840841Y-102220856D01*
X90881354Y-102234019D01*
X91009326Y-102275599D01*
X91184302Y-102303313D01*
X91184303Y-102303313D01*
X91361459Y-102303313D01*
X91361460Y-102303313D01*
X91536436Y-102275599D01*
X91704923Y-102220855D01*
X91862771Y-102140427D01*
X92006095Y-102036296D01*
X92131364Y-101911027D01*
X92235495Y-101767703D01*
X92315923Y-101609855D01*
X92370667Y-101441368D01*
X92398381Y-101266392D01*
X92398381Y-101089234D01*
X92370667Y-100914258D01*
X92315923Y-100745771D01*
X92315923Y-100745770D01*
X92235494Y-100587922D01*
X92131364Y-100444599D01*
X92006095Y-100319330D01*
X91862771Y-100215199D01*
X91704923Y-100134770D01*
X91704920Y-100134769D01*
X91536437Y-100080027D01*
X91448948Y-100066170D01*
X91361460Y-100052313D01*
X91184302Y-100052313D01*
X91125976Y-100061551D01*
X91009324Y-100080027D01*
X90840841Y-100134769D01*
X90840838Y-100134770D01*
X90682990Y-100215199D01*
X90601219Y-100274609D01*
X90539667Y-100319330D01*
X90539665Y-100319332D01*
X90539664Y-100319332D01*
X90414400Y-100444596D01*
X90414400Y-100444597D01*
X90414398Y-100444599D01*
X90369677Y-100506151D01*
X90310267Y-100587922D01*
X90229838Y-100745770D01*
X90229837Y-100745773D01*
X90175095Y-100914256D01*
X90147381Y-101089234D01*
X29598381Y-101089234D01*
X29570667Y-100914258D01*
X29515923Y-100745771D01*
X29515923Y-100745770D01*
X29435494Y-100587922D01*
X29331364Y-100444599D01*
X29206095Y-100319330D01*
X29062771Y-100215199D01*
X28904923Y-100134770D01*
X28904920Y-100134769D01*
X28736437Y-100080027D01*
X28648948Y-100066170D01*
X28561460Y-100052313D01*
X28384302Y-100052313D01*
X28325976Y-100061551D01*
X28209324Y-100080027D01*
X28040841Y-100134769D01*
X28040838Y-100134770D01*
X27882990Y-100215199D01*
X27801219Y-100274609D01*
X27739667Y-100319330D01*
X27739665Y-100319332D01*
X27739664Y-100319332D01*
X27614400Y-100444596D01*
X27614400Y-100444597D01*
X27614398Y-100444599D01*
X27569677Y-100506151D01*
X27510267Y-100587922D01*
X27429838Y-100745770D01*
X27429837Y-100745773D01*
X27375095Y-100914256D01*
X27347381Y-101089234D01*
X19831860Y-101089234D01*
X19831860Y-97413461D01*
X19851545Y-97346422D01*
X19904349Y-97300667D01*
X19908407Y-97298900D01*
X19965387Y-97275298D01*
X20103902Y-97217923D01*
X20342360Y-97080249D01*
X20560809Y-96912628D01*
X20755509Y-96717928D01*
X20923130Y-96499479D01*
X21060804Y-96261021D01*
X21166176Y-96006632D01*
X21230483Y-95766634D01*
X25332107Y-95766634D01*
X25332107Y-96002829D01*
X25369053Y-96236100D01*
X25442040Y-96460728D01*
X25529735Y-96632837D01*
X25549264Y-96671165D01*
X25688090Y-96862242D01*
X25855097Y-97029249D01*
X26046174Y-97168075D01*
X26143998Y-97217919D01*
X26256610Y-97275298D01*
X26256612Y-97275298D01*
X26256615Y-97275300D01*
X26377019Y-97314421D01*
X26481238Y-97348285D01*
X26714510Y-97385232D01*
X26714515Y-97385232D01*
X26950704Y-97385232D01*
X27183975Y-97348285D01*
X27215250Y-97338123D01*
X27408599Y-97275300D01*
X27619040Y-97168075D01*
X27810117Y-97029249D01*
X27977124Y-96862242D01*
X28115950Y-96671165D01*
X28223175Y-96460724D01*
X28296160Y-96236100D01*
X28298232Y-96223015D01*
X28333107Y-96002829D01*
X28333107Y-95766634D01*
X28296160Y-95533363D01*
X28250814Y-95393803D01*
X28223175Y-95308740D01*
X28223173Y-95308737D01*
X28223173Y-95308735D01*
X28163859Y-95192326D01*
X28115950Y-95098299D01*
X27977124Y-94907222D01*
X27810117Y-94740215D01*
X27619040Y-94601389D01*
X27605877Y-94594682D01*
X27408603Y-94494165D01*
X27183975Y-94421178D01*
X26950704Y-94384232D01*
X26950699Y-94384232D01*
X26714515Y-94384232D01*
X26714510Y-94384232D01*
X26481238Y-94421178D01*
X26256610Y-94494165D01*
X26046173Y-94601389D01*
X26002870Y-94632851D01*
X25855097Y-94740215D01*
X25855095Y-94740217D01*
X25855094Y-94740217D01*
X25688092Y-94907219D01*
X25688092Y-94907220D01*
X25688090Y-94907222D01*
X25654986Y-94952786D01*
X25549264Y-95098298D01*
X25442040Y-95308735D01*
X25369053Y-95533363D01*
X25332107Y-95766634D01*
X21230483Y-95766634D01*
X21237441Y-95740666D01*
X21273381Y-95467674D01*
X21273381Y-95192326D01*
X21237441Y-94919334D01*
X21166176Y-94653368D01*
X21060804Y-94398979D01*
X21060802Y-94398976D01*
X21060800Y-94398971D01*
X20987667Y-94272302D01*
X20923130Y-94160521D01*
X20822636Y-94029554D01*
X20755510Y-93942073D01*
X20755504Y-93942066D01*
X20560814Y-93747376D01*
X20560807Y-93747370D01*
X20342364Y-93579754D01*
X20342363Y-93579753D01*
X20342360Y-93579751D01*
X20247288Y-93524861D01*
X20103909Y-93442080D01*
X20103897Y-93442074D01*
X19908407Y-93361099D01*
X19854004Y-93317258D01*
X19831939Y-93250963D01*
X19831860Y-93246538D01*
X19831860Y-90601421D01*
X26147381Y-90601421D01*
X26147381Y-90778578D01*
X26175095Y-90953556D01*
X26229837Y-91122039D01*
X26229838Y-91122042D01*
X26310267Y-91279890D01*
X26414398Y-91423214D01*
X26539667Y-91548483D01*
X26682991Y-91652614D01*
X26760410Y-91692061D01*
X26840838Y-91733042D01*
X26840841Y-91733043D01*
X26925082Y-91760414D01*
X27009326Y-91787786D01*
X27184302Y-91815500D01*
X27184303Y-91815500D01*
X27361459Y-91815500D01*
X27361460Y-91815500D01*
X27536436Y-91787786D01*
X27704923Y-91733042D01*
X27862771Y-91652614D01*
X28006095Y-91548483D01*
X28131364Y-91423214D01*
X28235495Y-91279890D01*
X28315923Y-91122042D01*
X28370667Y-90953555D01*
X28398381Y-90778579D01*
X28398381Y-90601421D01*
X28370667Y-90426445D01*
X28315923Y-90257958D01*
X28315923Y-90257957D01*
X28235494Y-90100109D01*
X28131364Y-89956786D01*
X28006095Y-89831517D01*
X27862771Y-89727386D01*
X27790379Y-89690500D01*
X27704923Y-89646957D01*
X27704920Y-89646956D01*
X27536437Y-89592214D01*
X27448948Y-89578357D01*
X27361460Y-89564500D01*
X27184302Y-89564500D01*
X27125976Y-89573738D01*
X27009324Y-89592214D01*
X26840841Y-89646956D01*
X26840838Y-89646957D01*
X26682990Y-89727386D01*
X26601219Y-89786796D01*
X26539667Y-89831517D01*
X26539665Y-89831519D01*
X26539664Y-89831519D01*
X26414400Y-89956783D01*
X26414400Y-89956784D01*
X26414398Y-89956786D01*
X26369677Y-90018338D01*
X26310267Y-90100109D01*
X26229838Y-90257957D01*
X26229837Y-90257960D01*
X26175095Y-90426443D01*
X26147381Y-90601421D01*
X19831860Y-90601421D01*
X19831860Y-88071902D01*
X21622381Y-88071902D01*
X21622381Y-88308097D01*
X21659327Y-88541368D01*
X21732314Y-88765996D01*
X21839400Y-88976163D01*
X21839538Y-88976433D01*
X21978364Y-89167510D01*
X22145371Y-89334517D01*
X22336448Y-89473343D01*
X22435872Y-89524002D01*
X22546884Y-89580566D01*
X22546886Y-89580566D01*
X22546889Y-89580568D01*
X22582732Y-89592214D01*
X22771512Y-89653553D01*
X23004784Y-89690500D01*
X23004789Y-89690500D01*
X23240978Y-89690500D01*
X23474249Y-89653553D01*
X23494552Y-89646956D01*
X23698873Y-89580568D01*
X23909314Y-89473343D01*
X24100391Y-89334517D01*
X24267398Y-89167510D01*
X24406224Y-88976433D01*
X24513449Y-88765992D01*
X24586434Y-88541368D01*
X24588598Y-88527708D01*
X24623381Y-88308097D01*
X24623381Y-88071902D01*
X24586434Y-87838631D01*
X24513447Y-87614003D01*
X24406358Y-87403830D01*
X24406224Y-87403567D01*
X24267398Y-87212490D01*
X24100391Y-87045483D01*
X23909314Y-86906657D01*
X23698877Y-86799433D01*
X23474249Y-86726446D01*
X23240978Y-86689500D01*
X23240973Y-86689500D01*
X23004789Y-86689500D01*
X23004784Y-86689500D01*
X22771512Y-86726446D01*
X22546884Y-86799433D01*
X22336447Y-86906657D01*
X22232037Y-86982516D01*
X22145371Y-87045483D01*
X22145369Y-87045485D01*
X22145368Y-87045485D01*
X21978366Y-87212487D01*
X21978366Y-87212488D01*
X21978364Y-87212490D01*
X21918743Y-87294550D01*
X21839538Y-87403566D01*
X21732314Y-87614003D01*
X21659327Y-87838631D01*
X21622381Y-88071902D01*
X19831860Y-88071902D01*
X19831860Y-83642135D01*
X21622381Y-83642135D01*
X21622381Y-85737870D01*
X21622382Y-85737876D01*
X21628789Y-85797483D01*
X21679083Y-85932328D01*
X21679087Y-85932335D01*
X21765333Y-86047544D01*
X21765336Y-86047547D01*
X21880545Y-86133793D01*
X21880552Y-86133797D01*
X22015398Y-86184091D01*
X22015397Y-86184091D01*
X22022325Y-86184835D01*
X22075008Y-86190500D01*
X24170753Y-86190499D01*
X24230364Y-86184091D01*
X24365212Y-86133796D01*
X24480427Y-86047546D01*
X24566677Y-85932331D01*
X24616972Y-85797483D01*
X24623381Y-85737873D01*
X24623380Y-83642128D01*
X24616972Y-83582517D01*
X24566677Y-83447669D01*
X24566676Y-83447668D01*
X24566674Y-83447664D01*
X24480428Y-83332455D01*
X24480425Y-83332452D01*
X24365216Y-83246206D01*
X24365209Y-83246202D01*
X24230363Y-83195908D01*
X24230364Y-83195908D01*
X24170764Y-83189501D01*
X24170762Y-83189500D01*
X24170754Y-83189500D01*
X24170745Y-83189500D01*
X22075010Y-83189500D01*
X22075004Y-83189501D01*
X22015397Y-83195908D01*
X21880552Y-83246202D01*
X21880545Y-83246206D01*
X21765336Y-83332452D01*
X21765333Y-83332455D01*
X21679087Y-83447664D01*
X21679083Y-83447671D01*
X21628789Y-83582517D01*
X21622382Y-83642116D01*
X21622382Y-83642123D01*
X21622381Y-83642135D01*
X19831860Y-83642135D01*
X19831860Y-82101421D01*
X27347381Y-82101421D01*
X27347381Y-82278578D01*
X27375095Y-82453556D01*
X27429837Y-82622039D01*
X27429838Y-82622042D01*
X27510267Y-82779890D01*
X27614398Y-82923214D01*
X27739667Y-83048483D01*
X27882991Y-83152614D01*
X27955385Y-83189501D01*
X28040838Y-83233042D01*
X28040841Y-83233043D01*
X28081354Y-83246206D01*
X28209326Y-83287786D01*
X28384302Y-83315500D01*
X28384303Y-83315500D01*
X28561459Y-83315500D01*
X28561460Y-83315500D01*
X28736436Y-83287786D01*
X28904923Y-83233042D01*
X29062771Y-83152614D01*
X29206095Y-83048483D01*
X29331364Y-82923214D01*
X29435495Y-82779890D01*
X29515923Y-82622042D01*
X29570667Y-82453555D01*
X29598381Y-82278579D01*
X29598381Y-82101421D01*
X29570667Y-81926445D01*
X29515923Y-81757958D01*
X29515923Y-81757957D01*
X29435494Y-81600109D01*
X29331364Y-81456786D01*
X29206095Y-81331517D01*
X29062771Y-81227386D01*
X28904923Y-81146957D01*
X28904920Y-81146956D01*
X28736437Y-81092214D01*
X28648948Y-81078357D01*
X28561460Y-81064500D01*
X28384302Y-81064500D01*
X28325976Y-81073738D01*
X28209324Y-81092214D01*
X28040841Y-81146956D01*
X28040838Y-81146957D01*
X27882990Y-81227386D01*
X27801219Y-81286796D01*
X27739667Y-81331517D01*
X27739665Y-81331519D01*
X27739664Y-81331519D01*
X27614400Y-81456783D01*
X27614400Y-81456784D01*
X27614398Y-81456786D01*
X27569677Y-81518338D01*
X27510267Y-81600109D01*
X27429838Y-81757957D01*
X27429837Y-81757960D01*
X27375095Y-81926443D01*
X27347381Y-82101421D01*
X19831860Y-82101421D01*
X19831860Y-79633461D01*
X19851545Y-79566422D01*
X19904349Y-79520667D01*
X19908407Y-79518900D01*
X20103902Y-79437923D01*
X20342360Y-79300249D01*
X20560809Y-79132628D01*
X20755509Y-78937928D01*
X20923130Y-78719479D01*
X21060804Y-78481021D01*
X21166176Y-78226632D01*
X21237441Y-77960666D01*
X21273381Y-77687674D01*
X21273381Y-77412326D01*
X21237441Y-77139334D01*
X21166176Y-76873368D01*
X21060804Y-76618979D01*
X21060802Y-76618976D01*
X21060800Y-76618971D01*
X21011613Y-76533778D01*
X20923130Y-76380521D01*
X20853980Y-76290403D01*
X20755510Y-76162073D01*
X20755504Y-76162066D01*
X20560814Y-75967376D01*
X20560807Y-75967370D01*
X20342364Y-75799754D01*
X20342363Y-75799753D01*
X20342360Y-75799751D01*
X20247288Y-75744861D01*
X20103909Y-75662080D01*
X20103897Y-75662074D01*
X19908407Y-75581099D01*
X19854004Y-75537258D01*
X19831939Y-75470963D01*
X19831860Y-75466538D01*
X19831860Y-75232135D01*
X21682381Y-75232135D01*
X21682381Y-77927870D01*
X21682382Y-77927876D01*
X21688789Y-77987483D01*
X21739083Y-78122328D01*
X21739087Y-78122335D01*
X21825333Y-78237544D01*
X21825336Y-78237547D01*
X21940545Y-78323793D01*
X21940552Y-78323797D01*
X22075398Y-78374091D01*
X22075397Y-78374091D01*
X22082325Y-78374835D01*
X22135008Y-78380500D01*
X23830753Y-78380499D01*
X23890364Y-78374091D01*
X24025212Y-78323796D01*
X24140427Y-78237546D01*
X24226677Y-78122331D01*
X24276972Y-77987483D01*
X24280942Y-77950556D01*
X24307677Y-77886011D01*
X24365069Y-77846161D01*
X24434894Y-77843666D01*
X24494983Y-77879317D01*
X24504548Y-77890929D01*
X24530913Y-77927217D01*
X24675667Y-78071971D01*
X24760596Y-78133674D01*
X24841271Y-78192287D01*
X24930093Y-78237544D01*
X25023657Y-78285218D01*
X25023659Y-78285218D01*
X25023662Y-78285220D01*
X25112813Y-78314187D01*
X25218346Y-78348477D01*
X25319438Y-78364488D01*
X25420529Y-78380500D01*
X25420530Y-78380500D01*
X25625232Y-78380500D01*
X25625233Y-78380500D01*
X25827415Y-78348477D01*
X26022100Y-78285220D01*
X26204491Y-78192287D01*
X26300782Y-78122328D01*
X26370094Y-78071971D01*
X26370096Y-78071968D01*
X26370100Y-78071966D01*
X26514847Y-77927219D01*
X26514849Y-77927215D01*
X26514852Y-77927213D01*
X26635165Y-77761614D01*
X26635167Y-77761611D01*
X26635168Y-77761610D01*
X26682397Y-77668917D01*
X26730370Y-77618123D01*
X26798191Y-77601328D01*
X26864326Y-77623865D01*
X26903364Y-77668917D01*
X26903749Y-77669671D01*
X26950596Y-77761614D01*
X27070909Y-77927213D01*
X27215667Y-78071971D01*
X27300596Y-78133674D01*
X27381271Y-78192287D01*
X27470093Y-78237544D01*
X27563657Y-78285218D01*
X27563659Y-78285218D01*
X27563662Y-78285220D01*
X27652813Y-78314187D01*
X27758346Y-78348477D01*
X27859438Y-78364488D01*
X27960529Y-78380500D01*
X27960530Y-78380500D01*
X28165232Y-78380500D01*
X28165233Y-78380500D01*
X28367415Y-78348477D01*
X28562100Y-78285220D01*
X28744491Y-78192287D01*
X28840782Y-78122328D01*
X28910094Y-78071971D01*
X28910096Y-78071968D01*
X28910100Y-78071966D01*
X29054847Y-77927219D01*
X29054849Y-77927215D01*
X29054852Y-77927213D01*
X29175165Y-77761614D01*
X29175167Y-77761611D01*
X29175168Y-77761610D01*
X29222676Y-77668369D01*
X29270651Y-77617574D01*
X29338472Y-77600779D01*
X29404606Y-77623316D01*
X29443646Y-77668370D01*
X29491021Y-77761349D01*
X29611298Y-77926894D01*
X29611298Y-77926895D01*
X29755985Y-78071582D01*
X29921531Y-78191859D01*
X30103849Y-78284754D01*
X30298459Y-78347988D01*
X30352881Y-78356607D01*
X30352881Y-76713012D01*
X30409888Y-76745925D01*
X30537055Y-76780000D01*
X30668707Y-76780000D01*
X30795874Y-76745925D01*
X30852881Y-76713012D01*
X30852881Y-78356606D01*
X30907302Y-78347988D01*
X31101912Y-78284754D01*
X31284230Y-78191859D01*
X31449775Y-78071582D01*
X31449776Y-78071582D01*
X31594463Y-77926895D01*
X31594463Y-77926894D01*
X31714742Y-77761347D01*
X31762115Y-77668371D01*
X31810089Y-77617575D01*
X31877909Y-77600779D01*
X31944045Y-77623316D01*
X31983084Y-77668369D01*
X32030594Y-77761611D01*
X32150909Y-77927213D01*
X32295667Y-78071971D01*
X32380596Y-78133674D01*
X32461271Y-78192287D01*
X32550093Y-78237544D01*
X32643657Y-78285218D01*
X32643659Y-78285218D01*
X32643662Y-78285220D01*
X32732813Y-78314187D01*
X32838346Y-78348477D01*
X32939438Y-78364488D01*
X33040529Y-78380500D01*
X33040530Y-78380500D01*
X33245232Y-78380500D01*
X33245233Y-78380500D01*
X33447415Y-78348477D01*
X33642100Y-78285220D01*
X33824491Y-78192287D01*
X33920782Y-78122328D01*
X33990094Y-78071971D01*
X33990096Y-78071968D01*
X33990100Y-78071966D01*
X34134847Y-77927219D01*
X34134849Y-77927215D01*
X34134852Y-77927213D01*
X34255165Y-77761614D01*
X34255167Y-77761611D01*
X34255168Y-77761610D01*
X34302397Y-77668917D01*
X34350370Y-77618123D01*
X34418191Y-77601328D01*
X34484326Y-77623865D01*
X34523364Y-77668917D01*
X34523749Y-77669671D01*
X34570596Y-77761614D01*
X34690909Y-77927213D01*
X34835667Y-78071971D01*
X34920596Y-78133674D01*
X35001271Y-78192287D01*
X35090093Y-78237544D01*
X35183657Y-78285218D01*
X35183659Y-78285218D01*
X35183662Y-78285220D01*
X35272813Y-78314187D01*
X35378346Y-78348477D01*
X35479438Y-78364488D01*
X35580529Y-78380500D01*
X35580530Y-78380500D01*
X35785232Y-78380500D01*
X35785233Y-78380500D01*
X35987415Y-78348477D01*
X36182100Y-78285220D01*
X36364491Y-78192287D01*
X36460782Y-78122328D01*
X36530094Y-78071971D01*
X36530096Y-78071968D01*
X36530100Y-78071966D01*
X36674847Y-77927219D01*
X36674849Y-77927215D01*
X36674852Y-77927213D01*
X36795165Y-77761614D01*
X36795167Y-77761611D01*
X36795168Y-77761610D01*
X36842397Y-77668917D01*
X36890370Y-77618123D01*
X36958191Y-77601328D01*
X37024326Y-77623865D01*
X37063364Y-77668917D01*
X37063749Y-77669671D01*
X37110596Y-77761614D01*
X37230909Y-77927213D01*
X37375667Y-78071971D01*
X37460596Y-78133674D01*
X37541271Y-78192287D01*
X37630093Y-78237544D01*
X37723657Y-78285218D01*
X37723659Y-78285218D01*
X37723662Y-78285220D01*
X37812813Y-78314187D01*
X37918346Y-78348477D01*
X38019438Y-78364488D01*
X38120529Y-78380500D01*
X38120530Y-78380500D01*
X38325232Y-78380500D01*
X38325233Y-78380500D01*
X38527415Y-78348477D01*
X38722100Y-78285220D01*
X38904491Y-78192287D01*
X39000782Y-78122328D01*
X39070094Y-78071971D01*
X39070096Y-78071968D01*
X39070100Y-78071966D01*
X39214847Y-77927219D01*
X39214849Y-77927215D01*
X39214852Y-77927213D01*
X39335165Y-77761614D01*
X39335167Y-77761611D01*
X39335168Y-77761610D01*
X39382397Y-77668917D01*
X39430370Y-77618123D01*
X39498191Y-77601328D01*
X39564326Y-77623865D01*
X39603364Y-77668917D01*
X39603749Y-77669671D01*
X39650596Y-77761614D01*
X39770909Y-77927213D01*
X39915667Y-78071971D01*
X40000596Y-78133674D01*
X40081271Y-78192287D01*
X40170093Y-78237544D01*
X40263657Y-78285218D01*
X40263659Y-78285218D01*
X40263662Y-78285220D01*
X40352813Y-78314187D01*
X40458346Y-78348477D01*
X40559438Y-78364488D01*
X40660529Y-78380500D01*
X40660530Y-78380500D01*
X40865232Y-78380500D01*
X40865233Y-78380500D01*
X41067415Y-78348477D01*
X41262100Y-78285220D01*
X41444491Y-78192287D01*
X41540782Y-78122328D01*
X41610094Y-78071971D01*
X41610096Y-78071968D01*
X41610100Y-78071966D01*
X41754847Y-77927219D01*
X41754849Y-77927215D01*
X41754852Y-77927213D01*
X41875165Y-77761614D01*
X41875167Y-77761611D01*
X41875168Y-77761610D01*
X41922397Y-77668917D01*
X41970370Y-77618123D01*
X42038191Y-77601328D01*
X42104326Y-77623865D01*
X42143364Y-77668917D01*
X42143749Y-77669671D01*
X42190596Y-77761614D01*
X42310909Y-77927213D01*
X42455667Y-78071971D01*
X42540596Y-78133674D01*
X42621271Y-78192287D01*
X42710093Y-78237544D01*
X42803657Y-78285218D01*
X42803659Y-78285218D01*
X42803662Y-78285220D01*
X42892813Y-78314187D01*
X42998346Y-78348477D01*
X43099438Y-78364488D01*
X43200529Y-78380500D01*
X43200530Y-78380500D01*
X43405232Y-78380500D01*
X43405233Y-78380500D01*
X43607415Y-78348477D01*
X43802100Y-78285220D01*
X43984491Y-78192287D01*
X44080782Y-78122328D01*
X44150094Y-78071971D01*
X44150096Y-78071968D01*
X44150100Y-78071966D01*
X44294847Y-77927219D01*
X44294849Y-77927215D01*
X44294852Y-77927213D01*
X44415165Y-77761614D01*
X44415167Y-77761611D01*
X44415168Y-77761610D01*
X44462397Y-77668917D01*
X44510370Y-77618123D01*
X44578191Y-77601328D01*
X44644326Y-77623865D01*
X44683364Y-77668917D01*
X44683749Y-77669671D01*
X44730596Y-77761614D01*
X44850909Y-77927213D01*
X44995667Y-78071971D01*
X45080596Y-78133674D01*
X45161271Y-78192287D01*
X45250093Y-78237544D01*
X45343657Y-78285218D01*
X45343659Y-78285218D01*
X45343662Y-78285220D01*
X45432813Y-78314187D01*
X45538346Y-78348477D01*
X45639438Y-78364488D01*
X45740529Y-78380500D01*
X45740530Y-78380500D01*
X45945232Y-78380500D01*
X45945233Y-78380500D01*
X46147415Y-78348477D01*
X46342100Y-78285220D01*
X46524491Y-78192287D01*
X46620782Y-78122328D01*
X46690094Y-78071971D01*
X46690096Y-78071968D01*
X46690100Y-78071966D01*
X46834847Y-77927219D01*
X46834849Y-77927215D01*
X46834852Y-77927213D01*
X46955165Y-77761614D01*
X46955167Y-77761611D01*
X46955168Y-77761610D01*
X47002397Y-77668917D01*
X47050370Y-77618123D01*
X47118191Y-77601328D01*
X47184326Y-77623865D01*
X47223364Y-77668917D01*
X47223749Y-77669671D01*
X47270596Y-77761614D01*
X47390909Y-77927213D01*
X47535667Y-78071971D01*
X47620596Y-78133674D01*
X47701271Y-78192287D01*
X47790093Y-78237544D01*
X47883657Y-78285218D01*
X47883659Y-78285218D01*
X47883662Y-78285220D01*
X47972813Y-78314187D01*
X48078346Y-78348477D01*
X48179438Y-78364488D01*
X48280529Y-78380500D01*
X48280530Y-78380500D01*
X48485232Y-78380500D01*
X48485233Y-78380500D01*
X48687415Y-78348477D01*
X48882100Y-78285220D01*
X48882105Y-78285217D01*
X48882109Y-78285216D01*
X49042086Y-78203703D01*
X49110755Y-78190806D01*
X49175495Y-78217082D01*
X49215753Y-78274188D01*
X49222381Y-78314187D01*
X49222381Y-94565812D01*
X49202696Y-94632851D01*
X49149892Y-94678606D01*
X49080734Y-94688550D01*
X49042086Y-94676297D01*
X48882104Y-94594781D01*
X48687415Y-94531522D01*
X48512876Y-94503878D01*
X48485233Y-94499500D01*
X48280529Y-94499500D01*
X48256210Y-94503351D01*
X48078346Y-94531522D01*
X47883657Y-94594781D01*
X47701267Y-94687715D01*
X47535667Y-94808028D01*
X47390909Y-94952786D01*
X47270596Y-95118386D01*
X47223366Y-95211080D01*
X47175391Y-95261876D01*
X47107570Y-95278671D01*
X47041435Y-95256134D01*
X47002396Y-95211080D01*
X46988275Y-95183366D01*
X46955168Y-95118390D01*
X46940571Y-95098299D01*
X46834852Y-94952786D01*
X46690094Y-94808028D01*
X46524494Y-94687715D01*
X46524493Y-94687714D01*
X46524491Y-94687713D01*
X46457085Y-94653368D01*
X46342104Y-94594781D01*
X46147415Y-94531522D01*
X45972876Y-94503878D01*
X45945233Y-94499500D01*
X45740529Y-94499500D01*
X45716210Y-94503351D01*
X45538346Y-94531522D01*
X45343657Y-94594781D01*
X45161267Y-94687715D01*
X44995667Y-94808028D01*
X44850909Y-94952786D01*
X44730596Y-95118386D01*
X44683366Y-95211080D01*
X44635391Y-95261876D01*
X44567570Y-95278671D01*
X44501435Y-95256134D01*
X44462396Y-95211080D01*
X44448275Y-95183366D01*
X44415168Y-95118390D01*
X44400571Y-95098299D01*
X44294852Y-94952786D01*
X44150094Y-94808028D01*
X43984494Y-94687715D01*
X43984493Y-94687714D01*
X43984491Y-94687713D01*
X43917085Y-94653368D01*
X43802104Y-94594781D01*
X43607415Y-94531522D01*
X43432876Y-94503878D01*
X43405233Y-94499500D01*
X43200529Y-94499500D01*
X43176210Y-94503351D01*
X42998346Y-94531522D01*
X42803657Y-94594781D01*
X42621267Y-94687715D01*
X42455667Y-94808028D01*
X42310909Y-94952786D01*
X42190596Y-95118386D01*
X42143366Y-95211080D01*
X42095391Y-95261876D01*
X42027570Y-95278671D01*
X41961435Y-95256134D01*
X41922396Y-95211080D01*
X41908275Y-95183366D01*
X41875168Y-95118390D01*
X41860571Y-95098299D01*
X41754852Y-94952786D01*
X41610094Y-94808028D01*
X41444494Y-94687715D01*
X41444493Y-94687714D01*
X41444491Y-94687713D01*
X41377085Y-94653368D01*
X41262104Y-94594781D01*
X41067415Y-94531522D01*
X40892876Y-94503878D01*
X40865233Y-94499500D01*
X40660529Y-94499500D01*
X40636210Y-94503351D01*
X40458346Y-94531522D01*
X40263657Y-94594781D01*
X40081267Y-94687715D01*
X39915667Y-94808028D01*
X39770909Y-94952786D01*
X39650596Y-95118386D01*
X39603366Y-95211080D01*
X39555391Y-95261876D01*
X39487570Y-95278671D01*
X39421435Y-95256134D01*
X39382396Y-95211080D01*
X39368275Y-95183366D01*
X39335168Y-95118390D01*
X39320571Y-95098299D01*
X39214852Y-94952786D01*
X39070094Y-94808028D01*
X38904494Y-94687715D01*
X38904493Y-94687714D01*
X38904491Y-94687713D01*
X38837085Y-94653368D01*
X38722104Y-94594781D01*
X38527415Y-94531522D01*
X38352876Y-94503878D01*
X38325233Y-94499500D01*
X38120529Y-94499500D01*
X38096210Y-94503351D01*
X37918346Y-94531522D01*
X37723657Y-94594781D01*
X37541267Y-94687715D01*
X37375667Y-94808028D01*
X37230909Y-94952786D01*
X37110596Y-95118386D01*
X37063366Y-95211080D01*
X37015391Y-95261876D01*
X36947570Y-95278671D01*
X36881435Y-95256134D01*
X36842396Y-95211080D01*
X36828275Y-95183366D01*
X36795168Y-95118390D01*
X36780571Y-95098299D01*
X36674852Y-94952786D01*
X36530094Y-94808028D01*
X36364494Y-94687715D01*
X36364493Y-94687714D01*
X36364491Y-94687713D01*
X36297085Y-94653368D01*
X36182104Y-94594781D01*
X35987415Y-94531522D01*
X35812876Y-94503878D01*
X35785233Y-94499500D01*
X35580529Y-94499500D01*
X35556210Y-94503351D01*
X35378346Y-94531522D01*
X35183657Y-94594781D01*
X35001267Y-94687715D01*
X34835667Y-94808028D01*
X34690909Y-94952786D01*
X34570596Y-95118386D01*
X34523366Y-95211080D01*
X34475391Y-95261876D01*
X34407570Y-95278671D01*
X34341435Y-95256134D01*
X34302396Y-95211080D01*
X34288275Y-95183366D01*
X34255168Y-95118390D01*
X34240571Y-95098299D01*
X34134852Y-94952786D01*
X33990094Y-94808028D01*
X33824494Y-94687715D01*
X33824493Y-94687714D01*
X33824491Y-94687713D01*
X33757085Y-94653368D01*
X33642104Y-94594781D01*
X33447415Y-94531522D01*
X33272876Y-94503878D01*
X33245233Y-94499500D01*
X33040529Y-94499500D01*
X33016210Y-94503351D01*
X32838346Y-94531522D01*
X32643657Y-94594781D01*
X32461267Y-94687715D01*
X32295667Y-94808028D01*
X32150909Y-94952786D01*
X32030596Y-95118386D01*
X31937662Y-95300776D01*
X31874403Y-95495465D01*
X31842381Y-95697648D01*
X31842381Y-96902351D01*
X31874403Y-97104534D01*
X31937662Y-97299223D01*
X31995870Y-97413461D01*
X32024831Y-97470300D01*
X32030596Y-97481613D01*
X32150909Y-97647213D01*
X32295667Y-97791971D01*
X32450630Y-97904556D01*
X32461271Y-97912287D01*
X32577488Y-97971503D01*
X32643657Y-98005218D01*
X32643659Y-98005218D01*
X32643662Y-98005220D01*
X32748018Y-98039127D01*
X32838346Y-98068477D01*
X32939438Y-98084488D01*
X33040529Y-98100500D01*
X33040530Y-98100500D01*
X33245232Y-98100500D01*
X33245233Y-98100500D01*
X33447415Y-98068477D01*
X33642100Y-98005220D01*
X33824491Y-97912287D01*
X33930007Y-97835626D01*
X33990094Y-97791971D01*
X33990096Y-97791968D01*
X33990100Y-97791966D01*
X34134847Y-97647219D01*
X34134849Y-97647215D01*
X34134852Y-97647213D01*
X34250947Y-97487420D01*
X34255168Y-97481610D01*
X34302397Y-97388917D01*
X34350370Y-97338123D01*
X34418191Y-97321328D01*
X34484326Y-97343865D01*
X34523364Y-97388917D01*
X34544260Y-97429927D01*
X34570596Y-97481614D01*
X34690909Y-97647213D01*
X34835667Y-97791971D01*
X34990630Y-97904556D01*
X35001271Y-97912287D01*
X35117488Y-97971503D01*
X35183657Y-98005218D01*
X35183659Y-98005218D01*
X35183662Y-98005220D01*
X35288018Y-98039127D01*
X35378346Y-98068477D01*
X35479438Y-98084488D01*
X35580529Y-98100500D01*
X35580530Y-98100500D01*
X35785232Y-98100500D01*
X35785233Y-98100500D01*
X35987415Y-98068477D01*
X36182100Y-98005220D01*
X36364491Y-97912287D01*
X36470007Y-97835626D01*
X36530094Y-97791971D01*
X36530096Y-97791968D01*
X36530100Y-97791966D01*
X36674847Y-97647219D01*
X36674849Y-97647215D01*
X36674852Y-97647213D01*
X36790947Y-97487420D01*
X36795168Y-97481610D01*
X36842397Y-97388917D01*
X36890370Y-97338123D01*
X36958191Y-97321328D01*
X37024326Y-97343865D01*
X37063364Y-97388917D01*
X37084260Y-97429927D01*
X37110596Y-97481614D01*
X37230909Y-97647213D01*
X37375667Y-97791971D01*
X37530630Y-97904556D01*
X37541271Y-97912287D01*
X37657488Y-97971503D01*
X37723657Y-98005218D01*
X37723659Y-98005218D01*
X37723662Y-98005220D01*
X37828018Y-98039127D01*
X37918346Y-98068477D01*
X38019438Y-98084488D01*
X38120529Y-98100500D01*
X38120530Y-98100500D01*
X38325232Y-98100500D01*
X38325233Y-98100500D01*
X38527415Y-98068477D01*
X38722100Y-98005220D01*
X38904491Y-97912287D01*
X39010007Y-97835626D01*
X39070094Y-97791971D01*
X39070096Y-97791968D01*
X39070100Y-97791966D01*
X39214847Y-97647219D01*
X39214849Y-97647215D01*
X39214852Y-97647213D01*
X39330947Y-97487420D01*
X39335168Y-97481610D01*
X39382397Y-97388917D01*
X39430370Y-97338123D01*
X39498191Y-97321328D01*
X39564326Y-97343865D01*
X39603364Y-97388917D01*
X39624260Y-97429927D01*
X39650596Y-97481614D01*
X39770909Y-97647213D01*
X39915667Y-97791971D01*
X40070630Y-97904556D01*
X40081271Y-97912287D01*
X40197488Y-97971503D01*
X40263657Y-98005218D01*
X40263659Y-98005218D01*
X40263662Y-98005220D01*
X40368018Y-98039127D01*
X40458346Y-98068477D01*
X40559438Y-98084488D01*
X40660529Y-98100500D01*
X40660530Y-98100500D01*
X40865232Y-98100500D01*
X40865233Y-98100500D01*
X41067415Y-98068477D01*
X41262100Y-98005220D01*
X41444491Y-97912287D01*
X41550007Y-97835626D01*
X41610094Y-97791971D01*
X41610096Y-97791968D01*
X41610100Y-97791966D01*
X41754847Y-97647219D01*
X41754849Y-97647215D01*
X41754852Y-97647213D01*
X41870947Y-97487420D01*
X41875168Y-97481610D01*
X41922397Y-97388917D01*
X41970370Y-97338123D01*
X42038191Y-97321328D01*
X42104326Y-97343865D01*
X42143364Y-97388917D01*
X42164260Y-97429927D01*
X42190596Y-97481614D01*
X42310909Y-97647213D01*
X42455667Y-97791971D01*
X42610630Y-97904556D01*
X42621271Y-97912287D01*
X42737488Y-97971503D01*
X42803657Y-98005218D01*
X42803659Y-98005218D01*
X42803662Y-98005220D01*
X42908018Y-98039127D01*
X42998346Y-98068477D01*
X43099438Y-98084488D01*
X43200529Y-98100500D01*
X43200530Y-98100500D01*
X43405232Y-98100500D01*
X43405233Y-98100500D01*
X43607415Y-98068477D01*
X43802100Y-98005220D01*
X43984491Y-97912287D01*
X44090007Y-97835626D01*
X44150094Y-97791971D01*
X44150096Y-97791968D01*
X44150100Y-97791966D01*
X44294847Y-97647219D01*
X44294849Y-97647215D01*
X44294852Y-97647213D01*
X44410947Y-97487420D01*
X44415168Y-97481610D01*
X44462397Y-97388917D01*
X44510370Y-97338123D01*
X44578191Y-97321328D01*
X44644326Y-97343865D01*
X44683364Y-97388917D01*
X44704260Y-97429927D01*
X44730596Y-97481614D01*
X44850909Y-97647213D01*
X44995667Y-97791971D01*
X45150630Y-97904556D01*
X45161271Y-97912287D01*
X45277488Y-97971503D01*
X45343657Y-98005218D01*
X45343659Y-98005218D01*
X45343662Y-98005220D01*
X45448018Y-98039127D01*
X45538346Y-98068477D01*
X45639438Y-98084488D01*
X45740529Y-98100500D01*
X45740530Y-98100500D01*
X45945232Y-98100500D01*
X45945233Y-98100500D01*
X46147415Y-98068477D01*
X46342100Y-98005220D01*
X46524491Y-97912287D01*
X46630007Y-97835626D01*
X46690094Y-97791971D01*
X46690096Y-97791968D01*
X46690100Y-97791966D01*
X46834847Y-97647219D01*
X46834849Y-97647215D01*
X46834852Y-97647213D01*
X46950947Y-97487420D01*
X46955168Y-97481610D01*
X47002397Y-97388917D01*
X47050370Y-97338123D01*
X47118191Y-97321328D01*
X47184326Y-97343865D01*
X47223364Y-97388917D01*
X47244260Y-97429927D01*
X47270596Y-97481614D01*
X47390909Y-97647213D01*
X47535667Y-97791971D01*
X47690630Y-97904556D01*
X47701271Y-97912287D01*
X47817488Y-97971503D01*
X47883657Y-98005218D01*
X47883659Y-98005218D01*
X47883662Y-98005220D01*
X47988018Y-98039127D01*
X48078346Y-98068477D01*
X48179438Y-98084488D01*
X48280529Y-98100500D01*
X48280530Y-98100500D01*
X48485232Y-98100500D01*
X48485233Y-98100500D01*
X48687415Y-98068477D01*
X48882100Y-98005220D01*
X49064491Y-97912287D01*
X49170007Y-97835626D01*
X49230094Y-97791971D01*
X49230096Y-97791968D01*
X49230100Y-97791966D01*
X49374847Y-97647219D01*
X49374849Y-97647215D01*
X49374852Y-97647213D01*
X49490947Y-97487420D01*
X49495168Y-97481610D01*
X49542397Y-97388917D01*
X49590370Y-97338123D01*
X49658191Y-97321328D01*
X49724326Y-97343865D01*
X49763364Y-97388917D01*
X49784260Y-97429927D01*
X49810596Y-97481614D01*
X49930909Y-97647213D01*
X50075667Y-97791971D01*
X50230630Y-97904556D01*
X50241271Y-97912287D01*
X50357488Y-97971503D01*
X50423657Y-98005218D01*
X50423659Y-98005218D01*
X50423662Y-98005220D01*
X50528018Y-98039127D01*
X50618346Y-98068477D01*
X50719438Y-98084488D01*
X50820529Y-98100500D01*
X50820530Y-98100500D01*
X51025232Y-98100500D01*
X51025233Y-98100500D01*
X51227415Y-98068477D01*
X51422100Y-98005220D01*
X51604491Y-97912287D01*
X51710007Y-97835626D01*
X51770094Y-97791971D01*
X51770096Y-97791968D01*
X51770100Y-97791966D01*
X51914847Y-97647219D01*
X51914849Y-97647215D01*
X51914852Y-97647213D01*
X52030947Y-97487420D01*
X52035168Y-97481610D01*
X52082397Y-97388917D01*
X52130370Y-97338123D01*
X52198191Y-97321328D01*
X52264326Y-97343865D01*
X52303364Y-97388917D01*
X52324260Y-97429927D01*
X52350596Y-97481614D01*
X52470909Y-97647213D01*
X52615667Y-97791971D01*
X52770630Y-97904556D01*
X52781271Y-97912287D01*
X52897488Y-97971503D01*
X52963657Y-98005218D01*
X52963659Y-98005218D01*
X52963662Y-98005220D01*
X53068018Y-98039127D01*
X53158346Y-98068477D01*
X53259438Y-98084488D01*
X53360529Y-98100500D01*
X53360530Y-98100500D01*
X53565232Y-98100500D01*
X53565233Y-98100500D01*
X53767415Y-98068477D01*
X53932677Y-98014779D01*
X54002516Y-98012785D01*
X54058675Y-98045030D01*
X54394165Y-98380520D01*
X54394167Y-98380521D01*
X54394171Y-98380524D01*
X54531090Y-98459573D01*
X54531097Y-98459577D01*
X54683824Y-98500501D01*
X54683826Y-98500501D01*
X54849535Y-98500501D01*
X54849551Y-98500500D01*
X61451847Y-98500500D01*
X61451863Y-98500501D01*
X61459459Y-98500501D01*
X61617570Y-98500501D01*
X61617573Y-98500501D01*
X61770301Y-98459577D01*
X61820420Y-98430639D01*
X61907232Y-98380520D01*
X62019036Y-98268716D01*
X62019036Y-98268714D01*
X62029244Y-98258507D01*
X62029245Y-98258504D01*
X62663401Y-97624351D01*
X62742458Y-97487419D01*
X62783382Y-97334692D01*
X62783382Y-97176577D01*
X62783382Y-97168982D01*
X62783381Y-97168964D01*
X62783381Y-96049071D01*
X62803066Y-95982032D01*
X62819700Y-95961390D01*
X62969737Y-95811353D01*
X63194698Y-95586391D01*
X63256019Y-95552908D01*
X63325710Y-95557892D01*
X63381644Y-95599763D01*
X63404850Y-95654674D01*
X63409820Y-95686053D01*
X63483779Y-95913674D01*
X63592435Y-96126919D01*
X63733102Y-96320532D01*
X63733106Y-96320537D01*
X63902343Y-96489774D01*
X63902348Y-96489778D01*
X63979451Y-96545796D01*
X64095965Y-96630448D01*
X64231842Y-96699681D01*
X64309206Y-96739101D01*
X64309208Y-96739101D01*
X64309211Y-96739103D01*
X64536830Y-96813061D01*
X64658616Y-96832349D01*
X64773210Y-96850500D01*
X64773215Y-96850500D01*
X65012552Y-96850500D01*
X65117016Y-96833953D01*
X65248932Y-96813061D01*
X65476551Y-96739103D01*
X65689797Y-96630448D01*
X65883420Y-96489773D01*
X66052654Y-96320539D01*
X66193329Y-96126916D01*
X66301984Y-95913670D01*
X66375942Y-95686051D01*
X66400125Y-95533363D01*
X66413381Y-95449671D01*
X66413381Y-95210328D01*
X66379700Y-94997679D01*
X66375942Y-94973949D01*
X66375940Y-94973945D01*
X66375940Y-94973940D01*
X66368866Y-94952170D01*
X66368863Y-94952160D01*
X66357995Y-94918713D01*
X82102381Y-94918713D01*
X82102381Y-95431286D01*
X82135584Y-95640925D01*
X82135635Y-95641243D01*
X82192472Y-95816169D01*
X82201325Y-95843414D01*
X82297832Y-96032820D01*
X82422771Y-96204786D01*
X82573094Y-96355109D01*
X82745060Y-96480048D01*
X82745062Y-96480049D01*
X82745065Y-96480051D01*
X82934469Y-96576557D01*
X83136638Y-96642246D01*
X83346594Y-96675500D01*
X83346595Y-96675500D01*
X83559167Y-96675500D01*
X83559168Y-96675500D01*
X83769124Y-96642246D01*
X83971293Y-96576557D01*
X84160697Y-96480051D01*
X84252217Y-96413558D01*
X84332665Y-96355110D01*
X84332665Y-96355109D01*
X84332673Y-96355104D01*
X84471848Y-96215928D01*
X84533167Y-96182446D01*
X84602859Y-96187430D01*
X84658793Y-96229301D01*
X84665065Y-96238515D01*
X84760565Y-96393345D01*
X84884535Y-96517315D01*
X85033756Y-96609356D01*
X85033761Y-96609358D01*
X85200183Y-96664505D01*
X85200190Y-96664506D01*
X85302900Y-96674999D01*
X85702880Y-96674999D01*
X85702881Y-96674998D01*
X85702881Y-95608012D01*
X85759888Y-95640925D01*
X85887055Y-95675000D01*
X86018707Y-95675000D01*
X86145874Y-95640925D01*
X86202881Y-95608012D01*
X86202881Y-96674999D01*
X86602853Y-96674999D01*
X86602865Y-96674998D01*
X86643204Y-96670877D01*
X86711897Y-96683646D01*
X86762782Y-96731526D01*
X86779703Y-96799316D01*
X86770368Y-96841687D01*
X86735066Y-96926913D01*
X86735063Y-96926925D01*
X86702381Y-97091228D01*
X86702381Y-97258771D01*
X86735063Y-97423074D01*
X86735065Y-97423082D01*
X86799176Y-97577860D01*
X86892254Y-97717162D01*
X87010718Y-97835626D01*
X87103375Y-97897537D01*
X87150018Y-97928703D01*
X87304799Y-97992816D01*
X87469109Y-98025499D01*
X87469113Y-98025500D01*
X87469114Y-98025500D01*
X87636649Y-98025500D01*
X87636650Y-98025499D01*
X87800963Y-97992816D01*
X87955744Y-97928703D01*
X88095043Y-97835626D01*
X88213507Y-97717162D01*
X88306584Y-97577863D01*
X88370697Y-97423082D01*
X88403381Y-97258767D01*
X88403381Y-97091233D01*
X88370697Y-96926918D01*
X88306584Y-96772137D01*
X88242013Y-96675500D01*
X88213507Y-96632837D01*
X88095043Y-96514373D01*
X87955741Y-96421295D01*
X87800963Y-96357184D01*
X87800955Y-96357182D01*
X87636652Y-96324500D01*
X87636648Y-96324500D01*
X87469114Y-96324500D01*
X87401250Y-96337998D01*
X87331659Y-96331769D01*
X87276482Y-96288905D01*
X87253239Y-96223015D01*
X87259355Y-96177375D01*
X87292386Y-96077694D01*
X87292387Y-96077690D01*
X87302880Y-95974986D01*
X87302881Y-95974973D01*
X87302881Y-95851702D01*
X91392201Y-95851702D01*
X91392201Y-96087897D01*
X91429147Y-96321168D01*
X91502134Y-96545796D01*
X91589843Y-96717933D01*
X91609358Y-96756233D01*
X91748184Y-96947310D01*
X91915191Y-97114317D01*
X92106268Y-97253143D01*
X92117314Y-97258771D01*
X92316704Y-97360366D01*
X92316706Y-97360366D01*
X92316709Y-97360368D01*
X92404580Y-97388919D01*
X92541332Y-97433353D01*
X92774604Y-97470300D01*
X92774609Y-97470300D01*
X93010798Y-97470300D01*
X93244069Y-97433353D01*
X93254613Y-97429927D01*
X93468693Y-97360368D01*
X93679134Y-97253143D01*
X93870211Y-97114317D01*
X94037218Y-96947310D01*
X94176044Y-96756233D01*
X94283269Y-96545792D01*
X94356254Y-96321168D01*
X94369345Y-96238515D01*
X94393201Y-96087897D01*
X94393201Y-95851702D01*
X94356254Y-95618431D01*
X94307273Y-95467684D01*
X94283269Y-95393808D01*
X94283267Y-95393805D01*
X94283267Y-95393803D01*
X94216046Y-95261876D01*
X94176044Y-95183367D01*
X94037218Y-94992290D01*
X93870211Y-94825283D01*
X93679134Y-94686457D01*
X93659194Y-94676297D01*
X93468697Y-94579233D01*
X93244069Y-94506246D01*
X93010798Y-94469300D01*
X93010793Y-94469300D01*
X92774609Y-94469300D01*
X92774604Y-94469300D01*
X92541332Y-94506246D01*
X92316704Y-94579233D01*
X92106267Y-94686457D01*
X92032274Y-94740217D01*
X91915191Y-94825283D01*
X91915189Y-94825285D01*
X91915188Y-94825285D01*
X91748186Y-94992287D01*
X91748186Y-94992288D01*
X91748184Y-94992290D01*
X91744269Y-94997679D01*
X91609358Y-95183366D01*
X91502134Y-95393803D01*
X91429147Y-95618431D01*
X91392201Y-95851702D01*
X87302881Y-95851702D01*
X87302881Y-95425000D01*
X86385893Y-95425000D01*
X86418806Y-95367993D01*
X86452881Y-95240826D01*
X86452881Y-95109174D01*
X86418806Y-94982007D01*
X86385893Y-94925000D01*
X87302880Y-94925000D01*
X87302880Y-94375028D01*
X87302879Y-94375013D01*
X87292386Y-94272302D01*
X87237239Y-94105880D01*
X87237237Y-94105875D01*
X87145196Y-93956654D01*
X87021226Y-93832684D01*
X86872005Y-93740643D01*
X86872000Y-93740641D01*
X86705578Y-93685494D01*
X86705571Y-93685493D01*
X86602867Y-93675000D01*
X86202881Y-93675000D01*
X86202881Y-94741988D01*
X86145874Y-94709075D01*
X86018707Y-94675000D01*
X85887055Y-94675000D01*
X85759888Y-94709075D01*
X85702881Y-94741988D01*
X85702881Y-93675000D01*
X85302909Y-93675000D01*
X85302893Y-93675001D01*
X85200183Y-93685494D01*
X85033761Y-93740641D01*
X85033756Y-93740643D01*
X84884535Y-93832684D01*
X84760564Y-93956655D01*
X84760561Y-93956659D01*
X84665064Y-94111484D01*
X84613116Y-94158209D01*
X84544154Y-94169430D01*
X84480072Y-94141587D01*
X84471845Y-94134068D01*
X84332667Y-93994890D01*
X84160701Y-93869951D01*
X83971295Y-93773444D01*
X83971294Y-93773443D01*
X83971293Y-93773443D01*
X83769124Y-93707754D01*
X83769122Y-93707753D01*
X83769121Y-93707753D01*
X83607838Y-93682208D01*
X83559168Y-93674500D01*
X83346594Y-93674500D01*
X83297923Y-93682208D01*
X83136641Y-93707753D01*
X82934466Y-93773444D01*
X82745060Y-93869951D01*
X82573094Y-93994890D01*
X82422771Y-94145213D01*
X82297832Y-94317179D01*
X82201325Y-94506585D01*
X82135634Y-94708760D01*
X82102381Y-94918713D01*
X66357995Y-94918713D01*
X66311267Y-94774901D01*
X66301984Y-94746330D01*
X66301982Y-94746327D01*
X66301982Y-94746325D01*
X66228132Y-94601389D01*
X66193329Y-94533084D01*
X66162170Y-94490197D01*
X66052659Y-94339467D01*
X66052655Y-94339462D01*
X65883418Y-94170225D01*
X65883413Y-94170221D01*
X65689800Y-94029554D01*
X65689799Y-94029553D01*
X65689797Y-94029552D01*
X65621769Y-93994890D01*
X65476555Y-93920898D01*
X65248934Y-93846939D01*
X65217555Y-93841969D01*
X65154421Y-93812039D01*
X65117491Y-93752727D01*
X65118489Y-93682864D01*
X65149272Y-93631817D01*
X68179669Y-90601421D01*
X91347381Y-90601421D01*
X91347381Y-90778578D01*
X91375095Y-90953556D01*
X91429837Y-91122039D01*
X91429838Y-91122042D01*
X91510267Y-91279890D01*
X91614398Y-91423214D01*
X91739667Y-91548483D01*
X91882991Y-91652614D01*
X91960410Y-91692061D01*
X92040838Y-91733042D01*
X92040841Y-91733043D01*
X92125082Y-91760414D01*
X92209326Y-91787786D01*
X92384302Y-91815500D01*
X92384303Y-91815500D01*
X92561459Y-91815500D01*
X92561460Y-91815500D01*
X92736436Y-91787786D01*
X92904923Y-91733042D01*
X93062771Y-91652614D01*
X93206095Y-91548483D01*
X93331364Y-91423214D01*
X93435495Y-91279890D01*
X93515923Y-91122042D01*
X93570667Y-90953555D01*
X93598381Y-90778579D01*
X93598381Y-90601421D01*
X93570667Y-90426445D01*
X93515923Y-90257958D01*
X93515923Y-90257957D01*
X93435494Y-90100109D01*
X93331364Y-89956786D01*
X93206095Y-89831517D01*
X93062771Y-89727386D01*
X92990379Y-89690500D01*
X92904923Y-89646957D01*
X92904920Y-89646956D01*
X92736437Y-89592214D01*
X92648948Y-89578357D01*
X92561460Y-89564500D01*
X92384302Y-89564500D01*
X92325976Y-89573738D01*
X92209324Y-89592214D01*
X92040841Y-89646956D01*
X92040838Y-89646957D01*
X91882990Y-89727386D01*
X91801219Y-89786796D01*
X91739667Y-89831517D01*
X91739665Y-89831519D01*
X91739664Y-89831519D01*
X91614400Y-89956783D01*
X91614400Y-89956784D01*
X91614398Y-89956786D01*
X91569677Y-90018338D01*
X91510267Y-90100109D01*
X91429838Y-90257957D01*
X91429837Y-90257960D01*
X91375095Y-90426443D01*
X91347381Y-90601421D01*
X68179669Y-90601421D01*
X70709144Y-88071947D01*
X95122881Y-88071947D01*
X95122881Y-88308052D01*
X95159815Y-88541247D01*
X95232778Y-88765802D01*
X95339968Y-88976174D01*
X95400219Y-89059104D01*
X95400221Y-89059105D01*
X96099093Y-88360233D01*
X96110363Y-88402292D01*
X96182771Y-88527708D01*
X96285173Y-88630110D01*
X96410589Y-88702518D01*
X96452646Y-88713787D01*
X95753774Y-89412658D01*
X95836709Y-89472914D01*
X96047078Y-89580102D01*
X96271633Y-89653065D01*
X96271632Y-89653065D01*
X96504829Y-89690000D01*
X96740933Y-89690000D01*
X96974128Y-89653065D01*
X97198683Y-89580102D01*
X97409044Y-89472918D01*
X97409050Y-89472914D01*
X97491985Y-89412658D01*
X97491986Y-89412658D01*
X96793114Y-88713787D01*
X96835173Y-88702518D01*
X96960589Y-88630110D01*
X97062991Y-88527708D01*
X97135399Y-88402292D01*
X97146668Y-88360234D01*
X97845539Y-89059105D01*
X97845539Y-89059104D01*
X97905795Y-88976169D01*
X97905799Y-88976163D01*
X98012983Y-88765802D01*
X98085946Y-88541247D01*
X98122881Y-88308052D01*
X98122881Y-88071947D01*
X98085946Y-87838752D01*
X98012983Y-87614197D01*
X97905795Y-87403828D01*
X97845539Y-87320894D01*
X97845539Y-87320893D01*
X97146668Y-88019765D01*
X97135399Y-87977708D01*
X97062991Y-87852292D01*
X96960589Y-87749890D01*
X96835173Y-87677482D01*
X96793115Y-87666212D01*
X97491986Y-86967340D01*
X97491985Y-86967338D01*
X97409055Y-86907087D01*
X97198683Y-86799897D01*
X96974128Y-86726934D01*
X96974129Y-86726934D01*
X96740933Y-86690000D01*
X96504829Y-86690000D01*
X96271633Y-86726934D01*
X96047078Y-86799897D01*
X95836711Y-86907084D01*
X95753775Y-86967340D01*
X96452647Y-87666212D01*
X96410589Y-87677482D01*
X96285173Y-87749890D01*
X96182771Y-87852292D01*
X96110363Y-87977708D01*
X96099093Y-88019766D01*
X95400221Y-87320894D01*
X95339965Y-87403830D01*
X95232778Y-87614197D01*
X95159815Y-87838752D01*
X95122881Y-88071947D01*
X70709144Y-88071947D01*
X71623401Y-87157690D01*
X71702458Y-87020758D01*
X71743382Y-86868031D01*
X71743382Y-86709916D01*
X71743382Y-86702321D01*
X71743381Y-86702303D01*
X71743381Y-82101421D01*
X90147381Y-82101421D01*
X90147381Y-82278578D01*
X90175095Y-82453556D01*
X90229837Y-82622039D01*
X90229838Y-82622042D01*
X90310267Y-82779890D01*
X90414398Y-82923214D01*
X90539667Y-83048483D01*
X90682991Y-83152614D01*
X90755385Y-83189501D01*
X90840838Y-83233042D01*
X90840841Y-83233043D01*
X90881354Y-83246206D01*
X91009326Y-83287786D01*
X91184302Y-83315500D01*
X91184303Y-83315500D01*
X91361459Y-83315500D01*
X91361460Y-83315500D01*
X91536436Y-83287786D01*
X91704923Y-83233042D01*
X91862771Y-83152614D01*
X92006095Y-83048483D01*
X92131364Y-82923214D01*
X92235495Y-82779890D01*
X92315923Y-82622042D01*
X92370667Y-82453555D01*
X92398381Y-82278579D01*
X92398381Y-82101421D01*
X92370667Y-81926445D01*
X92315923Y-81757958D01*
X92315923Y-81757957D01*
X92235494Y-81600109D01*
X92131364Y-81456786D01*
X92006095Y-81331517D01*
X91862771Y-81227386D01*
X91704923Y-81146957D01*
X91704920Y-81146956D01*
X91536437Y-81092214D01*
X91448948Y-81078357D01*
X91361460Y-81064500D01*
X91184302Y-81064500D01*
X91125976Y-81073738D01*
X91009324Y-81092214D01*
X90840841Y-81146956D01*
X90840838Y-81146957D01*
X90682990Y-81227386D01*
X90601219Y-81286796D01*
X90539667Y-81331517D01*
X90539665Y-81331519D01*
X90539664Y-81331519D01*
X90414400Y-81456783D01*
X90414400Y-81456784D01*
X90414398Y-81456786D01*
X90369677Y-81518338D01*
X90310267Y-81600109D01*
X90229838Y-81757957D01*
X90229837Y-81757960D01*
X90175095Y-81926443D01*
X90147381Y-82101421D01*
X71743381Y-82101421D01*
X71743381Y-75618713D01*
X82102381Y-75618713D01*
X82102381Y-76131286D01*
X82127620Y-76290642D01*
X82135635Y-76341243D01*
X82178443Y-76472993D01*
X82201325Y-76543414D01*
X82297832Y-76732820D01*
X82422771Y-76904786D01*
X82573094Y-77055109D01*
X82745060Y-77180048D01*
X82745062Y-77180049D01*
X82745065Y-77180051D01*
X82934469Y-77276557D01*
X83136638Y-77342246D01*
X83346594Y-77375500D01*
X83346595Y-77375500D01*
X83559167Y-77375500D01*
X83559168Y-77375500D01*
X83769124Y-77342246D01*
X83971293Y-77276557D01*
X84160697Y-77180051D01*
X84332673Y-77055104D01*
X84471485Y-76916291D01*
X84532804Y-76882809D01*
X84602496Y-76887793D01*
X84658430Y-76929664D01*
X84664702Y-76938878D01*
X84668066Y-76944333D01*
X84668067Y-76944334D01*
X84760169Y-77093656D01*
X84884225Y-77217712D01*
X85033547Y-77309814D01*
X85200084Y-77364999D01*
X85302872Y-77375500D01*
X86602889Y-77375499D01*
X86642989Y-77371402D01*
X86711678Y-77384170D01*
X86762563Y-77432050D01*
X86779485Y-77499840D01*
X86770151Y-77542211D01*
X86735065Y-77626918D01*
X86735063Y-77626925D01*
X86702381Y-77791228D01*
X86702381Y-77958771D01*
X86735063Y-78123074D01*
X86735065Y-78123082D01*
X86799176Y-78277860D01*
X86892254Y-78417162D01*
X87010718Y-78535626D01*
X87103375Y-78597537D01*
X87150018Y-78628703D01*
X87304799Y-78692816D01*
X87469109Y-78725499D01*
X87469113Y-78725500D01*
X87469114Y-78725500D01*
X87636649Y-78725500D01*
X87636650Y-78725499D01*
X87800963Y-78692816D01*
X87955744Y-78628703D01*
X88095043Y-78535626D01*
X88213507Y-78417162D01*
X88306584Y-78277863D01*
X88370697Y-78123082D01*
X88403381Y-77958767D01*
X88403381Y-77791233D01*
X88370697Y-77626918D01*
X88306584Y-77472137D01*
X88275418Y-77425494D01*
X88213507Y-77332837D01*
X88095043Y-77214373D01*
X87955741Y-77121295D01*
X87800963Y-77057184D01*
X87800955Y-77057182D01*
X87636652Y-77024500D01*
X87636648Y-77024500D01*
X87469114Y-77024500D01*
X87449581Y-77028385D01*
X87401815Y-77037886D01*
X87332223Y-77031657D01*
X87277046Y-76988794D01*
X87253803Y-76922904D01*
X87259918Y-76877268D01*
X87292880Y-76777797D01*
X87303381Y-76675009D01*
X87303380Y-75074992D01*
X87292880Y-74972203D01*
X87237695Y-74805666D01*
X87145593Y-74656344D01*
X87021537Y-74532288D01*
X86872215Y-74440186D01*
X86705678Y-74385001D01*
X86705676Y-74385000D01*
X86602891Y-74374500D01*
X85302879Y-74374500D01*
X85302862Y-74374501D01*
X85200084Y-74385000D01*
X85200081Y-74385001D01*
X85033549Y-74440185D01*
X85033544Y-74440187D01*
X84884223Y-74532289D01*
X84760170Y-74656342D01*
X84664702Y-74811121D01*
X84612754Y-74857845D01*
X84543791Y-74869068D01*
X84479709Y-74841224D01*
X84471482Y-74833705D01*
X84332667Y-74694890D01*
X84160701Y-74569951D01*
X83971295Y-74473444D01*
X83971294Y-74473443D01*
X83971293Y-74473443D01*
X83769124Y-74407754D01*
X83769122Y-74407753D01*
X83769121Y-74407753D01*
X83607838Y-74382208D01*
X83559168Y-74374500D01*
X83346594Y-74374500D01*
X83297923Y-74382208D01*
X83136641Y-74407753D01*
X82934466Y-74473444D01*
X82745060Y-74569951D01*
X82573094Y-74694890D01*
X82422771Y-74845213D01*
X82297832Y-75017179D01*
X82201325Y-75206585D01*
X82135634Y-75408760D01*
X82102381Y-75618713D01*
X71743381Y-75618713D01*
X71743381Y-71686268D01*
X91326646Y-71686268D01*
X91326646Y-71863425D01*
X91354360Y-72038403D01*
X91409102Y-72206886D01*
X91409103Y-72206889D01*
X91489532Y-72364737D01*
X91593663Y-72508061D01*
X91718932Y-72633330D01*
X91862256Y-72737461D01*
X91939675Y-72776908D01*
X92020103Y-72817889D01*
X92020106Y-72817890D01*
X92104347Y-72845261D01*
X92188591Y-72872633D01*
X92363567Y-72900347D01*
X92363568Y-72900347D01*
X92540724Y-72900347D01*
X92540725Y-72900347D01*
X92715701Y-72872633D01*
X92884188Y-72817889D01*
X93042036Y-72737461D01*
X93185360Y-72633330D01*
X93310629Y-72508061D01*
X93414760Y-72364737D01*
X93495188Y-72206889D01*
X93549932Y-72038402D01*
X93577646Y-71863426D01*
X93577646Y-71686268D01*
X93549932Y-71511292D01*
X93495188Y-71342805D01*
X93495188Y-71342804D01*
X93414759Y-71184956D01*
X93310629Y-71041633D01*
X93185360Y-70916364D01*
X93042036Y-70812233D01*
X92969644Y-70775347D01*
X92884188Y-70731804D01*
X92884185Y-70731803D01*
X92715702Y-70677061D01*
X92628213Y-70663204D01*
X92540725Y-70649347D01*
X92363567Y-70649347D01*
X92305241Y-70658585D01*
X92188589Y-70677061D01*
X92020106Y-70731803D01*
X92020103Y-70731804D01*
X91862255Y-70812233D01*
X91780484Y-70871643D01*
X91718932Y-70916364D01*
X91718930Y-70916366D01*
X91718929Y-70916366D01*
X91593665Y-71041630D01*
X91593665Y-71041631D01*
X91593663Y-71041633D01*
X91548942Y-71103185D01*
X91489532Y-71184956D01*
X91409103Y-71342804D01*
X91409102Y-71342807D01*
X91354360Y-71511290D01*
X91326646Y-71686268D01*
X71743381Y-71686268D01*
X71743381Y-69156794D01*
X95102146Y-69156794D01*
X95102146Y-69392899D01*
X95139080Y-69626094D01*
X95212043Y-69850649D01*
X95319233Y-70061021D01*
X95379484Y-70143951D01*
X95379486Y-70143952D01*
X96078358Y-69445080D01*
X96089628Y-69487139D01*
X96162036Y-69612555D01*
X96264438Y-69714957D01*
X96389854Y-69787365D01*
X96431911Y-69798634D01*
X95733039Y-70497505D01*
X95815974Y-70557761D01*
X96026343Y-70664949D01*
X96250898Y-70737912D01*
X96250897Y-70737912D01*
X96484094Y-70774847D01*
X96720198Y-70774847D01*
X96953393Y-70737912D01*
X97177948Y-70664949D01*
X97388309Y-70557765D01*
X97388315Y-70557761D01*
X97471250Y-70497505D01*
X97471251Y-70497505D01*
X96772379Y-69798634D01*
X96814438Y-69787365D01*
X96939854Y-69714957D01*
X97042256Y-69612555D01*
X97114664Y-69487139D01*
X97125933Y-69445080D01*
X97824804Y-70143952D01*
X97824804Y-70143951D01*
X97885060Y-70061016D01*
X97885064Y-70061010D01*
X97992248Y-69850649D01*
X98065211Y-69626094D01*
X98102146Y-69392899D01*
X98102146Y-69156794D01*
X98065211Y-68923599D01*
X97992248Y-68699044D01*
X97885060Y-68488675D01*
X97824804Y-68405741D01*
X97824804Y-68405740D01*
X97125933Y-69104612D01*
X97114664Y-69062555D01*
X97042256Y-68937139D01*
X96939854Y-68834737D01*
X96814438Y-68762329D01*
X96772380Y-68751059D01*
X97471251Y-68052187D01*
X97471250Y-68052185D01*
X97388320Y-67991934D01*
X97177948Y-67884744D01*
X96953393Y-67811781D01*
X96953394Y-67811781D01*
X96720198Y-67774847D01*
X96484094Y-67774847D01*
X96250898Y-67811781D01*
X96026343Y-67884744D01*
X95815976Y-67991931D01*
X95733040Y-68052187D01*
X96431912Y-68751059D01*
X96389854Y-68762329D01*
X96264438Y-68834737D01*
X96162036Y-68937139D01*
X96089628Y-69062555D01*
X96078358Y-69104613D01*
X95379486Y-68405741D01*
X95319230Y-68488677D01*
X95212043Y-68699044D01*
X95139080Y-68923599D01*
X95102146Y-69156794D01*
X71743381Y-69156794D01*
X71743381Y-63186268D01*
X90126646Y-63186268D01*
X90126646Y-63363426D01*
X90140503Y-63450914D01*
X90154360Y-63538403D01*
X90209102Y-63706886D01*
X90209103Y-63706889D01*
X90289532Y-63864737D01*
X90393663Y-64008061D01*
X90518932Y-64133330D01*
X90662256Y-64237461D01*
X90734650Y-64274348D01*
X90820103Y-64317889D01*
X90820106Y-64317890D01*
X90860619Y-64331053D01*
X90988591Y-64372633D01*
X91163567Y-64400347D01*
X91163568Y-64400347D01*
X91340724Y-64400347D01*
X91340725Y-64400347D01*
X91515701Y-64372633D01*
X91684188Y-64317889D01*
X91842036Y-64237461D01*
X91985360Y-64133330D01*
X92110629Y-64008061D01*
X92214760Y-63864737D01*
X92295188Y-63706889D01*
X92349932Y-63538402D01*
X92377646Y-63363426D01*
X92377646Y-63186268D01*
X92349932Y-63011292D01*
X92295188Y-62842805D01*
X92295188Y-62842804D01*
X92214759Y-62684956D01*
X92110629Y-62541633D01*
X91985360Y-62416364D01*
X91842036Y-62312233D01*
X91684188Y-62231804D01*
X91684185Y-62231803D01*
X91515702Y-62177061D01*
X91428213Y-62163204D01*
X91340725Y-62149347D01*
X91163567Y-62149347D01*
X91105241Y-62158585D01*
X90988589Y-62177061D01*
X90820106Y-62231803D01*
X90820103Y-62231804D01*
X90662255Y-62312233D01*
X90580484Y-62371643D01*
X90518932Y-62416364D01*
X90518930Y-62416366D01*
X90518929Y-62416366D01*
X90393665Y-62541630D01*
X90393665Y-62541631D01*
X90393663Y-62541633D01*
X90348942Y-62603185D01*
X90289532Y-62684956D01*
X90209103Y-62842804D01*
X90209102Y-62842807D01*
X90154360Y-63011290D01*
X90146005Y-63064041D01*
X90126646Y-63186268D01*
X71743381Y-63186268D01*
X71743381Y-59121421D01*
X80344526Y-59121421D01*
X80344526Y-59357616D01*
X80381472Y-59590887D01*
X80454459Y-59815515D01*
X80515672Y-59935651D01*
X80561683Y-60025952D01*
X80700509Y-60217029D01*
X80867516Y-60384036D01*
X81058593Y-60522862D01*
X81158017Y-60573521D01*
X81269029Y-60630085D01*
X81269031Y-60630085D01*
X81269034Y-60630087D01*
X81381055Y-60666485D01*
X81493657Y-60703072D01*
X81726929Y-60740019D01*
X81726934Y-60740019D01*
X81963123Y-60740019D01*
X82196394Y-60703072D01*
X82421018Y-60630087D01*
X82631459Y-60522862D01*
X82822536Y-60384036D01*
X82989543Y-60217029D01*
X83128369Y-60025952D01*
X83235594Y-59815511D01*
X83308579Y-59590887D01*
X83324309Y-59491572D01*
X83345526Y-59357616D01*
X83345526Y-59121421D01*
X83308579Y-58888150D01*
X83246551Y-58697250D01*
X83235594Y-58663527D01*
X83235592Y-58663524D01*
X83235592Y-58663522D01*
X83174380Y-58543387D01*
X83128369Y-58453086D01*
X82989543Y-58262009D01*
X82822536Y-58095002D01*
X82631459Y-57956176D01*
X82421022Y-57848952D01*
X82196394Y-57775965D01*
X81963123Y-57739019D01*
X81963118Y-57739019D01*
X81726934Y-57739019D01*
X81726929Y-57739019D01*
X81493657Y-57775965D01*
X81269029Y-57848952D01*
X81058592Y-57956176D01*
X80949576Y-58035381D01*
X80867516Y-58095002D01*
X80867514Y-58095004D01*
X80867513Y-58095004D01*
X80700511Y-58262006D01*
X80700511Y-58262007D01*
X80700509Y-58262009D01*
X80687715Y-58279619D01*
X80561683Y-58453085D01*
X80454459Y-58663522D01*
X80381472Y-58888150D01*
X80344526Y-59121421D01*
X71743381Y-59121421D01*
X71743381Y-48300568D01*
X72546646Y-48300568D01*
X72546646Y-50196303D01*
X72546647Y-50196309D01*
X72553054Y-50255916D01*
X72603348Y-50390761D01*
X72603352Y-50390768D01*
X72689598Y-50505977D01*
X72689601Y-50505980D01*
X72804810Y-50592226D01*
X72804817Y-50592230D01*
X72939663Y-50642524D01*
X72939662Y-50642524D01*
X72946590Y-50643268D01*
X72999273Y-50648933D01*
X74895018Y-50648932D01*
X74954629Y-50642524D01*
X75089477Y-50592229D01*
X75204692Y-50505979D01*
X75290942Y-50390764D01*
X75318575Y-50316676D01*
X75320747Y-50310853D01*
X75362617Y-50254919D01*
X75428082Y-50230501D01*
X75496355Y-50245352D01*
X75524610Y-50266504D01*
X75574782Y-50316676D01*
X75574787Y-50316680D01*
X75730338Y-50429693D01*
X75753124Y-50446248D01*
X75873423Y-50507544D01*
X75949539Y-50546328D01*
X75949542Y-50546329D01*
X76054367Y-50580388D01*
X76159195Y-50614448D01*
X76376924Y-50648933D01*
X76376925Y-50648933D01*
X76597367Y-50648933D01*
X76597368Y-50648933D01*
X76815097Y-50614448D01*
X77024752Y-50546328D01*
X77221168Y-50446248D01*
X77399511Y-50316675D01*
X77555388Y-50160798D01*
X77684961Y-49982455D01*
X77785041Y-49786039D01*
X77853161Y-49576384D01*
X77887646Y-49358655D01*
X77887646Y-49138211D01*
X77853161Y-48920482D01*
X77830334Y-48850227D01*
X77828339Y-48780386D01*
X77860582Y-48724230D01*
X79121387Y-47463426D01*
X79121392Y-47463422D01*
X79131595Y-47453218D01*
X79131597Y-47453218D01*
X79243401Y-47341414D01*
X79305383Y-47234057D01*
X79322458Y-47204483D01*
X79363381Y-47051756D01*
X79363381Y-46893641D01*
X79363381Y-43629601D01*
X79383066Y-43562562D01*
X79431087Y-43519116D01*
X79444491Y-43512287D01*
X79610100Y-43391966D01*
X79754847Y-43247219D01*
X79754849Y-43247215D01*
X79754852Y-43247213D01*
X79807613Y-43174590D01*
X79875168Y-43081610D01*
X79968101Y-42899219D01*
X80031358Y-42704534D01*
X80063381Y-42502352D01*
X80063381Y-42297648D01*
X80031358Y-42095466D01*
X79968101Y-41900781D01*
X79968099Y-41900778D01*
X79968099Y-41900776D01*
X79911909Y-41790499D01*
X79875168Y-41718390D01*
X79841109Y-41671511D01*
X79754852Y-41552786D01*
X79610094Y-41408028D01*
X79444494Y-41287715D01*
X79444493Y-41287714D01*
X79444491Y-41287713D01*
X79366807Y-41248131D01*
X79262104Y-41194781D01*
X79067415Y-41131522D01*
X78892876Y-41103878D01*
X78865233Y-41099500D01*
X78660529Y-41099500D01*
X78636210Y-41103351D01*
X78458346Y-41131522D01*
X78263657Y-41194781D01*
X78081267Y-41287715D01*
X77915667Y-41408028D01*
X77770909Y-41552786D01*
X77650596Y-41718386D01*
X77557662Y-41900776D01*
X77494403Y-42095465D01*
X77462381Y-42297648D01*
X77462381Y-42502351D01*
X77494403Y-42704534D01*
X77557662Y-42899223D01*
X77650596Y-43081613D01*
X77770909Y-43247213D01*
X77770915Y-43247219D01*
X77915662Y-43391966D01*
X78081271Y-43512287D01*
X78094674Y-43519116D01*
X78145470Y-43567088D01*
X78162381Y-43629601D01*
X78162381Y-46672600D01*
X78142696Y-46739639D01*
X78126062Y-46760281D01*
X77011348Y-47874994D01*
X76950025Y-47908479D01*
X76885349Y-47905244D01*
X76860730Y-47897245D01*
X76815098Y-47882418D01*
X76647726Y-47855909D01*
X76597368Y-47847933D01*
X76376924Y-47847933D01*
X76326572Y-47855908D01*
X76159193Y-47882418D01*
X75949542Y-47950536D01*
X75949539Y-47950537D01*
X75753120Y-48050620D01*
X75574787Y-48180185D01*
X75574782Y-48180189D01*
X75524609Y-48230362D01*
X75463286Y-48263846D01*
X75393594Y-48258861D01*
X75337661Y-48216990D01*
X75320747Y-48186013D01*
X75290943Y-48106104D01*
X75290939Y-48106097D01*
X75204693Y-47990888D01*
X75204690Y-47990885D01*
X75089481Y-47904639D01*
X75089474Y-47904635D01*
X74954628Y-47854341D01*
X74954629Y-47854341D01*
X74895029Y-47847934D01*
X74895027Y-47847933D01*
X74895019Y-47847933D01*
X74895010Y-47847933D01*
X72999275Y-47847933D01*
X72999269Y-47847934D01*
X72939662Y-47854341D01*
X72804817Y-47904635D01*
X72804810Y-47904639D01*
X72689601Y-47990885D01*
X72689598Y-47990888D01*
X72603352Y-48106097D01*
X72603348Y-48106104D01*
X72553054Y-48240950D01*
X72546647Y-48300549D01*
X72546646Y-48300568D01*
X71743381Y-48300568D01*
X71743381Y-43629601D01*
X71763066Y-43562562D01*
X71811087Y-43519116D01*
X71824491Y-43512287D01*
X71990100Y-43391966D01*
X72134847Y-43247219D01*
X72134849Y-43247215D01*
X72134852Y-43247213D01*
X72187613Y-43174590D01*
X72255168Y-43081610D01*
X72348101Y-42899219D01*
X72411358Y-42704534D01*
X72443381Y-42502352D01*
X72443381Y-42297648D01*
X72411358Y-42095466D01*
X72348101Y-41900781D01*
X72348099Y-41900778D01*
X72348099Y-41900776D01*
X72291909Y-41790499D01*
X72255168Y-41718390D01*
X72221109Y-41671511D01*
X72134852Y-41552786D01*
X71990094Y-41408028D01*
X71824494Y-41287715D01*
X71824493Y-41287714D01*
X71824491Y-41287713D01*
X71746807Y-41248131D01*
X71642104Y-41194781D01*
X71447415Y-41131522D01*
X71272876Y-41103878D01*
X71245233Y-41099500D01*
X71040529Y-41099500D01*
X71016210Y-41103351D01*
X70838346Y-41131522D01*
X70643657Y-41194781D01*
X70461267Y-41287715D01*
X70295667Y-41408028D01*
X70150909Y-41552786D01*
X70030596Y-41718386D01*
X69937662Y-41900776D01*
X69874403Y-42095465D01*
X69842381Y-42297648D01*
X69842381Y-42502351D01*
X69874403Y-42704534D01*
X69937662Y-42899223D01*
X70030596Y-43081613D01*
X70150909Y-43247213D01*
X70150915Y-43247219D01*
X70295662Y-43391966D01*
X70461271Y-43512287D01*
X70474674Y-43519116D01*
X70525470Y-43567088D01*
X70542381Y-43629601D01*
X70542381Y-86488876D01*
X70522696Y-86555915D01*
X70506062Y-86576557D01*
X62190023Y-94892595D01*
X62128700Y-94926080D01*
X62059008Y-94921096D01*
X62014661Y-94892595D01*
X61930094Y-94808028D01*
X61764494Y-94687715D01*
X61764493Y-94687714D01*
X61764491Y-94687713D01*
X61697085Y-94653368D01*
X61582104Y-94594781D01*
X61387415Y-94531522D01*
X61212876Y-94503878D01*
X61185233Y-94499500D01*
X60980529Y-94499500D01*
X60956210Y-94503351D01*
X60778346Y-94531522D01*
X60583657Y-94594781D01*
X60401267Y-94687715D01*
X60235667Y-94808028D01*
X60090909Y-94952786D01*
X59970596Y-95118386D01*
X59923366Y-95211080D01*
X59875391Y-95261876D01*
X59807570Y-95278671D01*
X59741435Y-95256134D01*
X59702396Y-95211080D01*
X59688275Y-95183366D01*
X59655168Y-95118390D01*
X59640571Y-95098299D01*
X59534852Y-94952786D01*
X59390094Y-94808028D01*
X59224492Y-94687713D01*
X59193903Y-94672127D01*
X59143108Y-94624153D01*
X59126313Y-94556332D01*
X59148851Y-94490197D01*
X59162512Y-94473968D01*
X67245833Y-86390648D01*
X67273086Y-86349860D01*
X67327965Y-86267728D01*
X67359954Y-86190499D01*
X67384540Y-86131145D01*
X67413381Y-85986150D01*
X67413381Y-85838315D01*
X67413381Y-38126082D01*
X67413381Y-38126079D01*
X67384540Y-37981092D01*
X67384539Y-37981091D01*
X67384539Y-37981087D01*
X67357256Y-37915220D01*
X67327968Y-37844511D01*
X67327961Y-37844498D01*
X67245833Y-37721585D01*
X67226214Y-37701966D01*
X67141297Y-37617049D01*
X66499354Y-36975106D01*
X66465869Y-36913783D01*
X66464562Y-36868028D01*
X66473381Y-36812352D01*
X66473381Y-36607648D01*
X66441358Y-36405466D01*
X66378101Y-36210781D01*
X66378099Y-36210778D01*
X66378099Y-36210776D01*
X66344384Y-36144607D01*
X66285168Y-36028390D01*
X66277437Y-36017749D01*
X66164852Y-35862786D01*
X66020094Y-35718028D01*
X65854494Y-35597715D01*
X65854493Y-35597714D01*
X65854491Y-35597713D01*
X65797534Y-35568691D01*
X65672104Y-35504781D01*
X65477415Y-35441522D01*
X65302876Y-35413878D01*
X65275233Y-35409500D01*
X65070529Y-35409500D01*
X65046210Y-35413351D01*
X64868346Y-35441522D01*
X64673657Y-35504781D01*
X64491267Y-35597715D01*
X64325667Y-35718028D01*
X64180909Y-35862786D01*
X64060596Y-36028386D01*
X63967662Y-36210776D01*
X63904403Y-36405465D01*
X63872381Y-36607648D01*
X63872381Y-36812351D01*
X63904403Y-37014534D01*
X63967662Y-37209223D01*
X64060596Y-37391613D01*
X64180909Y-37557213D01*
X64325667Y-37701971D01*
X64480630Y-37814556D01*
X64491271Y-37822287D01*
X64607488Y-37881503D01*
X64673657Y-37915218D01*
X64673659Y-37915218D01*
X64673662Y-37915220D01*
X64778018Y-37949127D01*
X64868346Y-37978477D01*
X64952445Y-37991797D01*
X65070529Y-38010500D01*
X65070530Y-38010500D01*
X65275231Y-38010500D01*
X65275233Y-38010500D01*
X65330908Y-38001681D01*
X65400200Y-38010635D01*
X65437987Y-38036473D01*
X65876062Y-38474548D01*
X65909547Y-38535871D01*
X65912381Y-38562229D01*
X65912381Y-43830953D01*
X65892696Y-43897992D01*
X65839892Y-43943747D01*
X65770734Y-43953691D01*
X65707178Y-43924666D01*
X65700700Y-43918634D01*
X65560094Y-43778028D01*
X65394494Y-43657715D01*
X65394493Y-43657714D01*
X65394491Y-43657713D01*
X65292844Y-43605921D01*
X65212104Y-43564781D01*
X65017415Y-43501522D01*
X64842876Y-43473878D01*
X64815233Y-43469500D01*
X64610529Y-43469500D01*
X64572480Y-43475526D01*
X64408349Y-43501522D01*
X64399598Y-43504365D01*
X64394035Y-43506173D01*
X64324194Y-43508167D01*
X64268038Y-43475922D01*
X62631082Y-41838966D01*
X62597597Y-41777643D01*
X62602581Y-41707951D01*
X62644453Y-41652018D01*
X62650427Y-41647546D01*
X62736677Y-41532331D01*
X62786972Y-41397483D01*
X62793381Y-41337873D01*
X62793380Y-39442128D01*
X62786972Y-39382517D01*
X62751612Y-39287713D01*
X62736678Y-39247671D01*
X62736674Y-39247664D01*
X62650428Y-39132455D01*
X62650425Y-39132452D01*
X62535216Y-39046206D01*
X62535209Y-39046202D01*
X62400363Y-38995908D01*
X62400364Y-38995908D01*
X62340764Y-38989501D01*
X62340762Y-38989500D01*
X62340754Y-38989500D01*
X62340745Y-38989500D01*
X61175010Y-38989500D01*
X61175004Y-38989501D01*
X61115397Y-38995908D01*
X60980552Y-39046202D01*
X60972771Y-39050452D01*
X60971682Y-39048459D01*
X60917869Y-39068518D01*
X60861598Y-39059393D01*
X60788471Y-39029103D01*
X60788459Y-39029100D01*
X60589379Y-38989500D01*
X60589376Y-38989500D01*
X60386386Y-38989500D01*
X60386383Y-38989500D01*
X60187302Y-39029100D01*
X60187290Y-39029103D01*
X59999758Y-39106781D01*
X59921772Y-39158890D01*
X59855094Y-39179768D01*
X59787714Y-39161283D01*
X59783990Y-39158890D01*
X59706003Y-39106781D01*
X59518471Y-39029103D01*
X59518459Y-39029100D01*
X59319379Y-38989500D01*
X59319376Y-38989500D01*
X59116386Y-38989500D01*
X59116383Y-38989500D01*
X58917302Y-39029100D01*
X58917290Y-39029103D01*
X58729758Y-39106781D01*
X58651772Y-39158890D01*
X58585094Y-39179768D01*
X58517714Y-39161283D01*
X58513990Y-39158890D01*
X58436003Y-39106781D01*
X58248471Y-39029103D01*
X58248459Y-39029100D01*
X58049379Y-38989500D01*
X58049376Y-38989500D01*
X57846386Y-38989500D01*
X57846383Y-38989500D01*
X57647302Y-39029100D01*
X57647290Y-39029103D01*
X57459762Y-39106779D01*
X57459749Y-39106786D01*
X57290976Y-39219557D01*
X57290972Y-39219560D01*
X57147441Y-39363091D01*
X57147438Y-39363095D01*
X57034667Y-39531868D01*
X57034660Y-39531881D01*
X56956984Y-39719409D01*
X56956981Y-39719421D01*
X56917381Y-39918500D01*
X56917381Y-40861499D01*
X56956981Y-41060578D01*
X56956984Y-41060590D01*
X57034660Y-41248118D01*
X57034667Y-41248131D01*
X57147438Y-41416904D01*
X57147441Y-41416908D01*
X57224408Y-41493875D01*
X57257893Y-41555198D01*
X57252909Y-41624890D01*
X57224408Y-41669237D01*
X55287723Y-43605921D01*
X55226400Y-43639406D01*
X55161729Y-43636173D01*
X55147415Y-43631522D01*
X54972876Y-43603878D01*
X54945233Y-43599500D01*
X54740529Y-43599500D01*
X54716210Y-43603351D01*
X54538346Y-43631522D01*
X54343657Y-43694781D01*
X54161267Y-43787715D01*
X53995667Y-43908028D01*
X53850909Y-44052786D01*
X53730596Y-44218386D01*
X53637662Y-44400776D01*
X53574403Y-44595465D01*
X53542381Y-44797648D01*
X53542381Y-45002351D01*
X53574403Y-45204534D01*
X53637662Y-45399223D01*
X53730596Y-45581613D01*
X53850909Y-45747213D01*
X53995667Y-45891971D01*
X54110249Y-45975218D01*
X54161271Y-46012287D01*
X54271550Y-46068477D01*
X54343657Y-46105218D01*
X54343659Y-46105218D01*
X54343662Y-46105220D01*
X54448018Y-46139127D01*
X54538346Y-46168477D01*
X54639438Y-46184488D01*
X54740529Y-46200500D01*
X54740530Y-46200500D01*
X54945232Y-46200500D01*
X54945233Y-46200500D01*
X55147415Y-46168477D01*
X55342100Y-46105220D01*
X55524491Y-46012287D01*
X55617471Y-45944732D01*
X55690094Y-45891971D01*
X55690096Y-45891968D01*
X55690100Y-45891966D01*
X55834847Y-45747219D01*
X55834849Y-45747215D01*
X55834852Y-45747213D01*
X55887613Y-45674590D01*
X55955168Y-45581610D01*
X56048101Y-45399219D01*
X56111358Y-45204534D01*
X56143381Y-45002352D01*
X56143381Y-44797648D01*
X56111358Y-44595466D01*
X56106706Y-44581151D01*
X56104713Y-44511312D01*
X56136956Y-44455158D01*
X58306387Y-42285728D01*
X58306392Y-42285724D01*
X58316595Y-42275520D01*
X58316597Y-42275520D01*
X58428401Y-42163716D01*
X58504860Y-42031284D01*
X58507458Y-42026785D01*
X58548381Y-41874057D01*
X58548381Y-41783151D01*
X58568066Y-41716112D01*
X58620870Y-41670357D01*
X58690028Y-41660413D01*
X58723868Y-41671511D01*
X58724127Y-41670886D01*
X58876007Y-41733796D01*
X58917295Y-41750898D01*
X59084166Y-41784091D01*
X59116381Y-41790499D01*
X59116384Y-41790500D01*
X59116386Y-41790500D01*
X59319378Y-41790500D01*
X59319379Y-41790499D01*
X59518467Y-41750898D01*
X59588585Y-41721854D01*
X59711635Y-41670886D01*
X59712212Y-41672279D01*
X59773312Y-41659549D01*
X59838560Y-41684540D01*
X59879939Y-41740839D01*
X59887381Y-41783151D01*
X59887381Y-43375500D01*
X59867696Y-43442539D01*
X59814892Y-43488294D01*
X59763381Y-43499500D01*
X59660529Y-43499500D01*
X59638387Y-43503007D01*
X59458346Y-43531522D01*
X59263657Y-43594781D01*
X59081267Y-43687715D01*
X58915667Y-43808028D01*
X58770909Y-43952786D01*
X58650596Y-44118386D01*
X58557662Y-44300776D01*
X58494403Y-44495465D01*
X58462381Y-44697648D01*
X58462381Y-44902351D01*
X58494403Y-45104534D01*
X58557662Y-45299223D01*
X58650596Y-45481613D01*
X58770909Y-45647213D01*
X58915667Y-45791971D01*
X59039975Y-45882284D01*
X59081271Y-45912287D01*
X59197488Y-45971503D01*
X59263657Y-46005218D01*
X59263659Y-46005218D01*
X59263662Y-46005220D01*
X59366017Y-46038477D01*
X59458346Y-46068477D01*
X59559438Y-46084488D01*
X59660529Y-46100500D01*
X59660530Y-46100500D01*
X59865232Y-46100500D01*
X59865233Y-46100500D01*
X60067415Y-46068477D01*
X60262100Y-46005220D01*
X60444491Y-45912287D01*
X60537471Y-45844732D01*
X60610094Y-45791971D01*
X60610096Y-45791968D01*
X60610100Y-45791966D01*
X60754847Y-45647219D01*
X60754849Y-45647215D01*
X60754852Y-45647213D01*
X60807613Y-45574590D01*
X60875168Y-45481610D01*
X60968101Y-45299219D01*
X61031358Y-45104534D01*
X61063381Y-44902352D01*
X61063381Y-44697648D01*
X61031358Y-44495466D01*
X61014985Y-44445078D01*
X61012990Y-44375241D01*
X61025528Y-44344767D01*
X61036384Y-44325965D01*
X61047458Y-44306785D01*
X61088382Y-44154057D01*
X61088382Y-43995943D01*
X61088382Y-43988348D01*
X61088381Y-43988330D01*
X61088381Y-42294098D01*
X61108066Y-42227059D01*
X61160870Y-42181304D01*
X61230028Y-42171360D01*
X61293584Y-42200385D01*
X61300047Y-42206402D01*
X61389165Y-42295520D01*
X61389167Y-42295521D01*
X61396237Y-42302591D01*
X63418803Y-44325157D01*
X63452288Y-44386480D01*
X63449054Y-44451155D01*
X63444403Y-44465468D01*
X63412381Y-44667648D01*
X63412381Y-44872351D01*
X63444403Y-45074534D01*
X63507662Y-45269223D01*
X63600596Y-45451613D01*
X63720909Y-45617213D01*
X63865667Y-45761971D01*
X64020630Y-45874556D01*
X64031271Y-45882287D01*
X64147488Y-45941503D01*
X64213657Y-45975218D01*
X64213659Y-45975218D01*
X64213662Y-45975220D01*
X64318018Y-46009127D01*
X64408346Y-46038477D01*
X64509438Y-46054488D01*
X64610529Y-46070500D01*
X64610530Y-46070500D01*
X64815232Y-46070500D01*
X64815233Y-46070500D01*
X65017415Y-46038477D01*
X65212100Y-45975220D01*
X65394491Y-45882287D01*
X65487471Y-45814732D01*
X65560094Y-45761971D01*
X65560096Y-45761968D01*
X65560100Y-45761966D01*
X65700700Y-45621366D01*
X65762023Y-45587881D01*
X65831715Y-45592865D01*
X65887648Y-45634737D01*
X65912065Y-45700201D01*
X65912381Y-45709047D01*
X65912381Y-51450953D01*
X65892696Y-51517992D01*
X65839892Y-51563747D01*
X65770734Y-51573691D01*
X65707178Y-51544666D01*
X65700700Y-51538634D01*
X65560094Y-51398028D01*
X65394494Y-51277715D01*
X65394493Y-51277714D01*
X65394491Y-51277713D01*
X65337534Y-51248691D01*
X65212104Y-51184781D01*
X65017415Y-51121522D01*
X64842876Y-51093878D01*
X64815233Y-51089500D01*
X64610529Y-51089500D01*
X64586210Y-51093351D01*
X64408346Y-51121522D01*
X64213657Y-51184781D01*
X64031267Y-51277715D01*
X63865667Y-51398028D01*
X63720909Y-51542786D01*
X63600596Y-51708386D01*
X63507662Y-51890776D01*
X63444403Y-52085465D01*
X63412381Y-52287648D01*
X63412381Y-52492351D01*
X63444403Y-52694534D01*
X63507662Y-52889223D01*
X63600596Y-53071613D01*
X63720909Y-53237213D01*
X63865667Y-53381971D01*
X64020630Y-53494556D01*
X64031271Y-53502287D01*
X64147488Y-53561503D01*
X64213657Y-53595218D01*
X64213659Y-53595218D01*
X64213662Y-53595220D01*
X64318018Y-53629127D01*
X64408346Y-53658477D01*
X64480095Y-53669841D01*
X64610529Y-53690500D01*
X64610530Y-53690500D01*
X64815232Y-53690500D01*
X64815233Y-53690500D01*
X65017415Y-53658477D01*
X65212100Y-53595220D01*
X65394491Y-53502287D01*
X65487471Y-53434732D01*
X65560094Y-53381971D01*
X65560096Y-53381968D01*
X65560100Y-53381966D01*
X65700700Y-53241366D01*
X65762023Y-53207881D01*
X65831715Y-53212865D01*
X65887648Y-53254737D01*
X65912065Y-53320201D01*
X65912381Y-53329047D01*
X65912381Y-76167904D01*
X65892696Y-76234943D01*
X65839892Y-76280698D01*
X65770734Y-76290642D01*
X65715497Y-76268223D01*
X65689799Y-76249553D01*
X65476555Y-76140898D01*
X65248932Y-76066939D01*
X65012552Y-76029500D01*
X65012547Y-76029500D01*
X64773215Y-76029500D01*
X64773210Y-76029500D01*
X64536829Y-76066939D01*
X64309206Y-76140898D01*
X64095961Y-76249554D01*
X63902348Y-76390221D01*
X63902343Y-76390225D01*
X63733106Y-76559462D01*
X63733102Y-76559467D01*
X63592435Y-76753080D01*
X63483779Y-76966325D01*
X63409820Y-77193948D01*
X63372381Y-77430328D01*
X63372381Y-77669671D01*
X63409820Y-77906051D01*
X63483779Y-78133674D01*
X63558502Y-78280324D01*
X63580653Y-78323797D01*
X63592435Y-78346919D01*
X63733102Y-78540532D01*
X63733106Y-78540537D01*
X63902343Y-78709774D01*
X63902348Y-78709778D01*
X63923988Y-78725500D01*
X64095965Y-78850448D01*
X64231842Y-78919681D01*
X64309206Y-78959101D01*
X64309208Y-78959101D01*
X64309211Y-78959103D01*
X64536830Y-79033061D01*
X64658616Y-79052349D01*
X64773210Y-79070500D01*
X64773215Y-79070500D01*
X65012552Y-79070500D01*
X65117016Y-79053953D01*
X65248932Y-79033061D01*
X65476551Y-78959103D01*
X65689797Y-78850448D01*
X65715495Y-78831776D01*
X65781301Y-78808297D01*
X65849355Y-78824122D01*
X65898050Y-78874228D01*
X65912381Y-78932095D01*
X65912381Y-85550002D01*
X65892696Y-85617041D01*
X65876062Y-85637683D01*
X56841357Y-94672387D01*
X56780034Y-94705872D01*
X56710342Y-94700888D01*
X56689095Y-94689512D01*
X56688640Y-94690256D01*
X56684489Y-94687712D01*
X56502104Y-94594781D01*
X56307415Y-94531522D01*
X56132876Y-94503878D01*
X56105233Y-94499500D01*
X55900529Y-94499500D01*
X55876210Y-94503351D01*
X55698346Y-94531522D01*
X55503657Y-94594781D01*
X55321267Y-94687715D01*
X55155667Y-94808028D01*
X55010909Y-94952786D01*
X54890596Y-95118386D01*
X54843366Y-95211080D01*
X54795391Y-95261876D01*
X54727570Y-95278671D01*
X54661435Y-95256134D01*
X54622396Y-95211080D01*
X54608275Y-95183366D01*
X54575168Y-95118390D01*
X54560571Y-95098299D01*
X54454852Y-94952786D01*
X54310094Y-94808028D01*
X54144494Y-94687715D01*
X54144493Y-94687714D01*
X54144491Y-94687713D01*
X54077085Y-94653368D01*
X53962104Y-94594781D01*
X53767415Y-94531522D01*
X53592876Y-94503878D01*
X53565233Y-94499500D01*
X53360529Y-94499500D01*
X53336210Y-94503351D01*
X53158346Y-94531522D01*
X52963657Y-94594781D01*
X52781267Y-94687715D01*
X52615667Y-94808028D01*
X52470909Y-94952786D01*
X52350596Y-95118386D01*
X52303366Y-95211080D01*
X52255391Y-95261876D01*
X52187570Y-95278671D01*
X52121435Y-95256134D01*
X52082396Y-95211080D01*
X52068275Y-95183366D01*
X52035168Y-95118390D01*
X52020571Y-95098299D01*
X51914852Y-94952786D01*
X51770094Y-94808028D01*
X51604494Y-94687715D01*
X51604493Y-94687714D01*
X51604491Y-94687713D01*
X51537085Y-94653368D01*
X51422104Y-94594781D01*
X51227415Y-94531522D01*
X51052876Y-94503878D01*
X51025233Y-94499500D01*
X50820529Y-94499500D01*
X50777937Y-94506246D01*
X50618345Y-94531523D01*
X50618338Y-94531524D01*
X50585698Y-94542130D01*
X50515857Y-94544125D01*
X50456024Y-94508044D01*
X50425197Y-94445343D01*
X50423381Y-94424199D01*
X50423381Y-78455800D01*
X50443066Y-78388761D01*
X50495870Y-78343006D01*
X50565028Y-78333062D01*
X50585701Y-78337870D01*
X50618339Y-78348475D01*
X50618342Y-78348475D01*
X50618347Y-78348477D01*
X50820529Y-78380500D01*
X50820530Y-78380500D01*
X51025232Y-78380500D01*
X51025233Y-78380500D01*
X51227415Y-78348477D01*
X51422100Y-78285220D01*
X51604491Y-78192287D01*
X51700782Y-78122328D01*
X51770094Y-78071971D01*
X51770096Y-78071968D01*
X51770100Y-78071966D01*
X51914847Y-77927219D01*
X51914849Y-77927215D01*
X51914852Y-77927213D01*
X52035165Y-77761614D01*
X52035167Y-77761611D01*
X52035168Y-77761610D01*
X52082397Y-77668917D01*
X52130370Y-77618123D01*
X52198191Y-77601328D01*
X52264326Y-77623865D01*
X52303364Y-77668917D01*
X52303749Y-77669671D01*
X52350596Y-77761614D01*
X52470909Y-77927213D01*
X52615667Y-78071971D01*
X52700596Y-78133674D01*
X52781271Y-78192287D01*
X52870093Y-78237544D01*
X52963657Y-78285218D01*
X52963659Y-78285218D01*
X52963662Y-78285220D01*
X53052813Y-78314187D01*
X53158346Y-78348477D01*
X53259438Y-78364488D01*
X53360529Y-78380500D01*
X53360530Y-78380500D01*
X53565232Y-78380500D01*
X53565233Y-78380500D01*
X53767415Y-78348477D01*
X53962100Y-78285220D01*
X54144491Y-78192287D01*
X54240782Y-78122328D01*
X54310094Y-78071971D01*
X54310096Y-78071968D01*
X54310100Y-78071966D01*
X54454847Y-77927219D01*
X54454849Y-77927215D01*
X54454852Y-77927213D01*
X54575165Y-77761614D01*
X54575167Y-77761611D01*
X54575168Y-77761610D01*
X54622397Y-77668917D01*
X54670370Y-77618123D01*
X54738191Y-77601328D01*
X54804326Y-77623865D01*
X54843364Y-77668917D01*
X54843749Y-77669671D01*
X54890596Y-77761614D01*
X55010909Y-77927213D01*
X55155667Y-78071971D01*
X55240596Y-78133674D01*
X55321271Y-78192287D01*
X55410093Y-78237544D01*
X55503657Y-78285218D01*
X55503659Y-78285218D01*
X55503662Y-78285220D01*
X55592813Y-78314187D01*
X55698346Y-78348477D01*
X55799438Y-78364488D01*
X55900529Y-78380500D01*
X55900530Y-78380500D01*
X56105232Y-78380500D01*
X56105233Y-78380500D01*
X56307415Y-78348477D01*
X56502100Y-78285220D01*
X56684491Y-78192287D01*
X56780782Y-78122328D01*
X56850094Y-78071971D01*
X56850096Y-78071968D01*
X56850100Y-78071966D01*
X56994847Y-77927219D01*
X56994849Y-77927215D01*
X56994852Y-77927213D01*
X57115165Y-77761614D01*
X57115167Y-77761611D01*
X57115168Y-77761610D01*
X57162397Y-77668917D01*
X57210370Y-77618123D01*
X57278191Y-77601328D01*
X57344326Y-77623865D01*
X57383364Y-77668917D01*
X57383749Y-77669671D01*
X57430596Y-77761614D01*
X57550909Y-77927213D01*
X57695667Y-78071971D01*
X57780596Y-78133674D01*
X57861271Y-78192287D01*
X57950093Y-78237544D01*
X58043657Y-78285218D01*
X58043659Y-78285218D01*
X58043662Y-78285220D01*
X58132813Y-78314187D01*
X58238346Y-78348477D01*
X58339438Y-78364488D01*
X58440529Y-78380500D01*
X58440530Y-78380500D01*
X58645232Y-78380500D01*
X58645233Y-78380500D01*
X58847415Y-78348477D01*
X59042100Y-78285220D01*
X59224491Y-78192287D01*
X59320782Y-78122328D01*
X59390094Y-78071971D01*
X59390096Y-78071968D01*
X59390100Y-78071966D01*
X59534847Y-77927219D01*
X59534849Y-77927215D01*
X59534852Y-77927213D01*
X59655165Y-77761614D01*
X59655167Y-77761611D01*
X59655168Y-77761610D01*
X59702397Y-77668917D01*
X59750370Y-77618123D01*
X59818191Y-77601328D01*
X59884326Y-77623865D01*
X59923364Y-77668917D01*
X59923749Y-77669671D01*
X59970596Y-77761614D01*
X60090909Y-77927213D01*
X60235667Y-78071971D01*
X60320596Y-78133674D01*
X60401271Y-78192287D01*
X60490093Y-78237544D01*
X60583657Y-78285218D01*
X60583659Y-78285218D01*
X60583662Y-78285220D01*
X60672813Y-78314187D01*
X60778346Y-78348477D01*
X60879438Y-78364488D01*
X60980529Y-78380500D01*
X60980530Y-78380500D01*
X61185232Y-78380500D01*
X61185233Y-78380500D01*
X61387415Y-78348477D01*
X61582100Y-78285220D01*
X61764491Y-78192287D01*
X61860782Y-78122328D01*
X61930094Y-78071971D01*
X61930096Y-78071968D01*
X61930100Y-78071966D01*
X62074847Y-77927219D01*
X62074849Y-77927215D01*
X62074852Y-77927213D01*
X62135551Y-77843666D01*
X62195168Y-77761610D01*
X62288101Y-77579219D01*
X62351358Y-77384534D01*
X62383381Y-77182352D01*
X62383381Y-75977648D01*
X62355205Y-75799754D01*
X62351358Y-75775465D01*
X62288099Y-75580776D01*
X62239522Y-75485440D01*
X62195168Y-75398390D01*
X62187437Y-75387749D01*
X62074852Y-75232786D01*
X61930094Y-75088028D01*
X61764494Y-74967715D01*
X61764493Y-74967714D01*
X61764491Y-74967713D01*
X61707534Y-74938691D01*
X61582104Y-74874781D01*
X61387415Y-74811522D01*
X61212876Y-74783878D01*
X61185233Y-74779500D01*
X60980529Y-74779500D01*
X60956210Y-74783351D01*
X60778346Y-74811522D01*
X60583657Y-74874781D01*
X60401267Y-74967715D01*
X60235667Y-75088028D01*
X60090909Y-75232786D01*
X59970596Y-75398386D01*
X59923366Y-75491080D01*
X59875391Y-75541876D01*
X59807570Y-75558671D01*
X59741435Y-75536134D01*
X59702396Y-75491080D01*
X59681501Y-75450072D01*
X59655168Y-75398390D01*
X59647437Y-75387749D01*
X59534852Y-75232786D01*
X59390094Y-75088028D01*
X59224494Y-74967715D01*
X59224493Y-74967714D01*
X59224491Y-74967713D01*
X59167534Y-74938691D01*
X59042104Y-74874781D01*
X58847415Y-74811522D01*
X58672876Y-74783878D01*
X58645233Y-74779500D01*
X58440529Y-74779500D01*
X58416210Y-74783351D01*
X58238346Y-74811522D01*
X58043657Y-74874781D01*
X57861267Y-74967715D01*
X57695667Y-75088028D01*
X57550909Y-75232786D01*
X57430596Y-75398386D01*
X57383366Y-75491080D01*
X57335391Y-75541876D01*
X57267570Y-75558671D01*
X57201435Y-75536134D01*
X57162396Y-75491080D01*
X57141501Y-75450072D01*
X57115168Y-75398390D01*
X57107437Y-75387749D01*
X56994852Y-75232786D01*
X56850094Y-75088028D01*
X56684494Y-74967715D01*
X56684493Y-74967714D01*
X56684491Y-74967713D01*
X56627534Y-74938691D01*
X56502104Y-74874781D01*
X56307415Y-74811522D01*
X56132876Y-74783878D01*
X56105233Y-74779500D01*
X55900529Y-74779500D01*
X55876210Y-74783351D01*
X55698346Y-74811522D01*
X55503657Y-74874781D01*
X55321267Y-74967715D01*
X55155667Y-75088028D01*
X55010909Y-75232786D01*
X54890596Y-75398386D01*
X54843366Y-75491080D01*
X54795391Y-75541876D01*
X54727570Y-75558671D01*
X54661435Y-75536134D01*
X54622396Y-75491080D01*
X54601501Y-75450072D01*
X54575168Y-75398390D01*
X54567437Y-75387749D01*
X54454852Y-75232786D01*
X54310094Y-75088028D01*
X54144494Y-74967715D01*
X54144493Y-74967714D01*
X54144491Y-74967713D01*
X54087534Y-74938691D01*
X53962104Y-74874781D01*
X53767415Y-74811522D01*
X53592876Y-74783878D01*
X53565233Y-74779500D01*
X53360529Y-74779500D01*
X53336210Y-74783351D01*
X53158346Y-74811522D01*
X52963657Y-74874781D01*
X52781267Y-74967715D01*
X52615667Y-75088028D01*
X52470909Y-75232786D01*
X52350596Y-75398386D01*
X52303366Y-75491080D01*
X52255391Y-75541876D01*
X52187570Y-75558671D01*
X52121435Y-75536134D01*
X52082396Y-75491080D01*
X52061501Y-75450072D01*
X52035168Y-75398390D01*
X52027437Y-75387749D01*
X51914852Y-75232786D01*
X51770094Y-75088028D01*
X51604494Y-74967715D01*
X51604493Y-74967714D01*
X51604491Y-74967713D01*
X51547534Y-74938691D01*
X51422104Y-74874781D01*
X51227415Y-74811522D01*
X51052876Y-74783878D01*
X51025233Y-74779500D01*
X50820529Y-74779500D01*
X50780065Y-74785909D01*
X50618345Y-74811523D01*
X50618338Y-74811524D01*
X50585698Y-74822130D01*
X50515857Y-74824125D01*
X50456024Y-74788044D01*
X50425197Y-74725343D01*
X50423381Y-74704199D01*
X50423381Y-52417648D01*
X53542381Y-52417648D01*
X53542381Y-52622351D01*
X53574403Y-52824534D01*
X53637662Y-53019223D01*
X53730596Y-53201613D01*
X53850909Y-53367213D01*
X53995667Y-53511971D01*
X54110249Y-53595218D01*
X54161271Y-53632287D01*
X54271550Y-53688477D01*
X54343657Y-53725218D01*
X54343659Y-53725218D01*
X54343662Y-53725220D01*
X54448018Y-53759127D01*
X54538346Y-53788477D01*
X54639438Y-53804488D01*
X54740529Y-53820500D01*
X54740530Y-53820500D01*
X54945232Y-53820500D01*
X54945233Y-53820500D01*
X55147415Y-53788477D01*
X55342100Y-53725220D01*
X55524491Y-53632287D01*
X55617471Y-53564732D01*
X55690094Y-53511971D01*
X55690096Y-53511968D01*
X55690100Y-53511966D01*
X55834847Y-53367219D01*
X55834849Y-53367215D01*
X55834852Y-53367213D01*
X55887613Y-53294590D01*
X55955168Y-53201610D01*
X56048101Y-53019219D01*
X56111358Y-52824534D01*
X56143381Y-52622352D01*
X56143381Y-52417648D01*
X56127542Y-52317648D01*
X58462381Y-52317648D01*
X58462381Y-52522351D01*
X58494403Y-52724534D01*
X58557662Y-52919223D01*
X58621572Y-53044653D01*
X58645316Y-53091252D01*
X58650596Y-53101613D01*
X58770909Y-53267213D01*
X58915667Y-53411971D01*
X59039975Y-53502284D01*
X59081271Y-53532287D01*
X59197488Y-53591503D01*
X59263657Y-53625218D01*
X59263659Y-53625218D01*
X59263662Y-53625220D01*
X59366017Y-53658477D01*
X59458346Y-53688477D01*
X59559438Y-53704488D01*
X59660529Y-53720500D01*
X59660530Y-53720500D01*
X59865232Y-53720500D01*
X59865233Y-53720500D01*
X60067415Y-53688477D01*
X60262100Y-53625220D01*
X60444491Y-53532287D01*
X60537471Y-53464732D01*
X60610094Y-53411971D01*
X60610096Y-53411968D01*
X60610100Y-53411966D01*
X60754847Y-53267219D01*
X60754849Y-53267215D01*
X60754852Y-53267213D01*
X60807613Y-53194590D01*
X60875168Y-53101610D01*
X60968101Y-52919219D01*
X61031358Y-52724534D01*
X61063381Y-52522352D01*
X61063381Y-52317648D01*
X61055768Y-52269584D01*
X61031358Y-52115465D01*
X60968099Y-51920776D01*
X60934384Y-51854607D01*
X60875168Y-51738390D01*
X60853369Y-51708386D01*
X60754852Y-51572786D01*
X60610094Y-51428028D01*
X60444494Y-51307715D01*
X60444493Y-51307714D01*
X60444491Y-51307713D01*
X60385613Y-51277713D01*
X60262104Y-51214781D01*
X60067415Y-51151522D01*
X59892876Y-51123878D01*
X59865233Y-51119500D01*
X59660529Y-51119500D01*
X59636210Y-51123351D01*
X59458346Y-51151522D01*
X59263657Y-51214781D01*
X59081267Y-51307715D01*
X58915667Y-51428028D01*
X58770909Y-51572786D01*
X58650596Y-51738386D01*
X58557662Y-51920776D01*
X58494403Y-52115465D01*
X58462381Y-52317648D01*
X56127542Y-52317648D01*
X56111358Y-52215466D01*
X56048101Y-52020781D01*
X56048099Y-52020778D01*
X56048099Y-52020776D01*
X55990172Y-51907089D01*
X55955168Y-51838390D01*
X55947437Y-51827749D01*
X55834852Y-51672786D01*
X55690094Y-51528028D01*
X55524494Y-51407715D01*
X55524493Y-51407714D01*
X55524491Y-51407713D01*
X55467534Y-51378691D01*
X55342104Y-51314781D01*
X55147415Y-51251522D01*
X54972876Y-51223878D01*
X54945233Y-51219500D01*
X54740529Y-51219500D01*
X54716210Y-51223351D01*
X54538346Y-51251522D01*
X54343657Y-51314781D01*
X54161267Y-51407715D01*
X53995667Y-51528028D01*
X53850909Y-51672786D01*
X53730596Y-51838386D01*
X53637662Y-52020776D01*
X53574403Y-52215465D01*
X53542381Y-52417648D01*
X50423381Y-52417648D01*
X50423381Y-41380945D01*
X50423381Y-41380943D01*
X50382458Y-41228216D01*
X50382454Y-41228209D01*
X50303405Y-41091290D01*
X50303402Y-41091286D01*
X50303401Y-41091284D01*
X50191597Y-40979480D01*
X50191596Y-40979479D01*
X50187266Y-40975149D01*
X50187255Y-40975139D01*
X50056958Y-40844842D01*
X50023473Y-40783519D01*
X50026709Y-40718841D01*
X50031358Y-40704534D01*
X50063381Y-40502352D01*
X50063381Y-40297648D01*
X50031358Y-40095466D01*
X49968101Y-39900781D01*
X49968099Y-39900778D01*
X49968099Y-39900776D01*
X49934384Y-39834607D01*
X49875168Y-39718390D01*
X49867437Y-39707749D01*
X49754852Y-39552786D01*
X49610094Y-39408028D01*
X49444494Y-39287715D01*
X49444493Y-39287714D01*
X49444491Y-39287713D01*
X49387534Y-39258691D01*
X49262104Y-39194781D01*
X49067415Y-39131522D01*
X48892876Y-39103878D01*
X48865233Y-39099500D01*
X48660529Y-39099500D01*
X48636210Y-39103351D01*
X48458346Y-39131522D01*
X48263657Y-39194781D01*
X48081267Y-39287715D01*
X47915667Y-39408028D01*
X47770909Y-39552786D01*
X47650596Y-39718386D01*
X47557662Y-39900776D01*
X47494403Y-40095465D01*
X47462381Y-40297648D01*
X47462381Y-40502351D01*
X47494403Y-40704534D01*
X47557662Y-40899223D01*
X47650596Y-41081613D01*
X47770909Y-41247213D01*
X47915667Y-41391971D01*
X48055929Y-41493875D01*
X48081271Y-41512287D01*
X48179941Y-41562562D01*
X48263657Y-41605218D01*
X48263659Y-41605218D01*
X48263662Y-41605220D01*
X48338699Y-41629601D01*
X48458346Y-41668477D01*
X48559438Y-41684488D01*
X48660529Y-41700500D01*
X48660530Y-41700500D01*
X48865232Y-41700500D01*
X48865233Y-41700500D01*
X49067415Y-41668477D01*
X49067442Y-41668468D01*
X49069416Y-41667995D01*
X49070209Y-41668034D01*
X49072227Y-41667715D01*
X49072294Y-41668138D01*
X49139199Y-41671476D01*
X49196023Y-41712131D01*
X49221846Y-41777054D01*
X49222381Y-41788565D01*
X49222381Y-74845812D01*
X49202696Y-74912851D01*
X49149892Y-74958606D01*
X49080734Y-74968550D01*
X49042086Y-74956297D01*
X48882104Y-74874781D01*
X48687415Y-74811522D01*
X48512876Y-74783878D01*
X48485233Y-74779500D01*
X48280529Y-74779500D01*
X48256210Y-74783351D01*
X48078346Y-74811522D01*
X47883657Y-74874781D01*
X47701267Y-74967715D01*
X47535667Y-75088028D01*
X47390909Y-75232786D01*
X47270596Y-75398386D01*
X47223366Y-75491080D01*
X47175391Y-75541876D01*
X47107570Y-75558671D01*
X47041435Y-75536134D01*
X47002396Y-75491080D01*
X46981501Y-75450072D01*
X46955168Y-75398390D01*
X46947437Y-75387749D01*
X46834852Y-75232786D01*
X46690094Y-75088028D01*
X46524494Y-74967715D01*
X46524493Y-74967714D01*
X46524491Y-74967713D01*
X46467534Y-74938691D01*
X46342104Y-74874781D01*
X46147415Y-74811522D01*
X45972876Y-74783878D01*
X45945233Y-74779500D01*
X45740529Y-74779500D01*
X45716210Y-74783351D01*
X45538346Y-74811522D01*
X45343657Y-74874781D01*
X45161267Y-74967715D01*
X44995667Y-75088028D01*
X44850909Y-75232786D01*
X44730596Y-75398386D01*
X44683366Y-75491080D01*
X44635391Y-75541876D01*
X44567570Y-75558671D01*
X44501435Y-75536134D01*
X44462396Y-75491080D01*
X44441501Y-75450072D01*
X44415168Y-75398390D01*
X44407437Y-75387749D01*
X44294852Y-75232786D01*
X44150094Y-75088028D01*
X43984494Y-74967715D01*
X43984493Y-74967714D01*
X43984491Y-74967713D01*
X43927534Y-74938691D01*
X43802104Y-74874781D01*
X43607415Y-74811522D01*
X43432876Y-74783878D01*
X43405233Y-74779500D01*
X43200529Y-74779500D01*
X43176210Y-74783351D01*
X42998346Y-74811522D01*
X42803657Y-74874781D01*
X42621267Y-74967715D01*
X42455667Y-75088028D01*
X42310909Y-75232786D01*
X42190596Y-75398386D01*
X42143366Y-75491080D01*
X42095391Y-75541876D01*
X42027570Y-75558671D01*
X41961435Y-75536134D01*
X41922396Y-75491080D01*
X41901501Y-75450072D01*
X41875168Y-75398390D01*
X41867437Y-75387749D01*
X41754852Y-75232786D01*
X41610094Y-75088028D01*
X41444494Y-74967715D01*
X41444493Y-74967714D01*
X41444491Y-74967713D01*
X41387534Y-74938691D01*
X41262104Y-74874781D01*
X41067415Y-74811522D01*
X40892876Y-74783878D01*
X40865233Y-74779500D01*
X40660529Y-74779500D01*
X40636210Y-74783351D01*
X40458346Y-74811522D01*
X40263657Y-74874781D01*
X40081267Y-74967715D01*
X39915667Y-75088028D01*
X39770909Y-75232786D01*
X39650596Y-75398386D01*
X39603366Y-75491080D01*
X39555391Y-75541876D01*
X39487570Y-75558671D01*
X39421435Y-75536134D01*
X39382396Y-75491080D01*
X39361501Y-75450072D01*
X39335168Y-75398390D01*
X39327437Y-75387749D01*
X39214852Y-75232786D01*
X39070094Y-75088028D01*
X38904494Y-74967715D01*
X38904493Y-74967714D01*
X38904491Y-74967713D01*
X38847534Y-74938691D01*
X38722104Y-74874781D01*
X38527415Y-74811522D01*
X38352876Y-74783878D01*
X38325233Y-74779500D01*
X38120529Y-74779500D01*
X38096210Y-74783351D01*
X37918346Y-74811522D01*
X37723657Y-74874781D01*
X37541267Y-74967715D01*
X37375667Y-75088028D01*
X37230909Y-75232786D01*
X37110596Y-75398386D01*
X37063366Y-75491080D01*
X37015391Y-75541876D01*
X36947570Y-75558671D01*
X36881435Y-75536134D01*
X36842396Y-75491080D01*
X36821501Y-75450072D01*
X36795168Y-75398390D01*
X36787437Y-75387749D01*
X36674852Y-75232786D01*
X36530094Y-75088028D01*
X36364494Y-74967715D01*
X36364493Y-74967714D01*
X36364491Y-74967713D01*
X36307534Y-74938691D01*
X36182104Y-74874781D01*
X35987415Y-74811522D01*
X35812876Y-74783878D01*
X35785233Y-74779500D01*
X35580529Y-74779500D01*
X35556210Y-74783351D01*
X35378346Y-74811522D01*
X35183657Y-74874781D01*
X35001267Y-74967715D01*
X34835667Y-75088028D01*
X34690909Y-75232786D01*
X34570596Y-75398386D01*
X34523366Y-75491080D01*
X34475391Y-75541876D01*
X34407570Y-75558671D01*
X34341435Y-75536134D01*
X34302396Y-75491080D01*
X34281501Y-75450072D01*
X34255168Y-75398390D01*
X34247437Y-75387749D01*
X34134852Y-75232786D01*
X33990094Y-75088028D01*
X33824494Y-74967715D01*
X33824493Y-74967714D01*
X33824491Y-74967713D01*
X33767534Y-74938691D01*
X33642104Y-74874781D01*
X33447415Y-74811522D01*
X33272876Y-74783878D01*
X33245233Y-74779500D01*
X33040529Y-74779500D01*
X33016210Y-74783351D01*
X32838346Y-74811522D01*
X32643657Y-74874781D01*
X32461267Y-74967715D01*
X32295667Y-75088028D01*
X32150909Y-75232786D01*
X32030594Y-75398388D01*
X31983084Y-75491630D01*
X31935109Y-75542426D01*
X31867288Y-75559220D01*
X31801153Y-75536682D01*
X31762115Y-75491628D01*
X31714742Y-75398652D01*
X31594463Y-75233105D01*
X31594463Y-75233104D01*
X31449776Y-75088417D01*
X31284230Y-74968140D01*
X31101910Y-74875244D01*
X30907294Y-74812009D01*
X30852881Y-74803390D01*
X30852881Y-75846988D01*
X30795874Y-75814075D01*
X30668707Y-75780000D01*
X30537055Y-75780000D01*
X30409888Y-75814075D01*
X30352881Y-75846988D01*
X30352881Y-74803390D01*
X30298467Y-74812009D01*
X30103851Y-74875244D01*
X29921531Y-74968140D01*
X29755986Y-75088417D01*
X29755985Y-75088417D01*
X29611298Y-75233104D01*
X29611298Y-75233105D01*
X29491021Y-75398650D01*
X29443646Y-75491629D01*
X29395671Y-75542425D01*
X29327850Y-75559220D01*
X29261715Y-75536682D01*
X29222676Y-75491629D01*
X29201501Y-75450072D01*
X29175168Y-75398390D01*
X29167437Y-75387749D01*
X29054852Y-75232786D01*
X28910094Y-75088028D01*
X28744494Y-74967715D01*
X28744493Y-74967714D01*
X28744491Y-74967713D01*
X28687534Y-74938691D01*
X28562104Y-74874781D01*
X28367415Y-74811522D01*
X28192876Y-74783878D01*
X28165233Y-74779500D01*
X27960529Y-74779500D01*
X27936210Y-74783351D01*
X27758346Y-74811522D01*
X27563657Y-74874781D01*
X27381267Y-74967715D01*
X27215667Y-75088028D01*
X27070909Y-75232786D01*
X26950596Y-75398386D01*
X26903366Y-75491080D01*
X26855391Y-75541876D01*
X26787570Y-75558671D01*
X26721435Y-75536134D01*
X26682396Y-75491080D01*
X26661501Y-75450072D01*
X26635168Y-75398390D01*
X26627437Y-75387749D01*
X26514852Y-75232786D01*
X26370094Y-75088028D01*
X26204494Y-74967715D01*
X26204493Y-74967714D01*
X26204491Y-74967713D01*
X26147534Y-74938691D01*
X26022104Y-74874781D01*
X25827415Y-74811522D01*
X25652876Y-74783878D01*
X25625233Y-74779500D01*
X25420529Y-74779500D01*
X25396210Y-74783351D01*
X25218346Y-74811522D01*
X25023657Y-74874781D01*
X24841267Y-74967715D01*
X24675667Y-75088028D01*
X24530913Y-75232782D01*
X24504549Y-75269070D01*
X24449219Y-75311735D01*
X24379605Y-75317714D01*
X24317810Y-75285108D01*
X24283453Y-75224269D01*
X24280941Y-75209438D01*
X24280521Y-75205533D01*
X24276972Y-75172517D01*
X24226677Y-75037669D01*
X24226676Y-75037668D01*
X24226674Y-75037664D01*
X24140428Y-74922455D01*
X24140425Y-74922452D01*
X24025216Y-74836206D01*
X24025209Y-74836202D01*
X23890363Y-74785908D01*
X23890364Y-74785908D01*
X23830764Y-74779501D01*
X23830762Y-74779500D01*
X23830754Y-74779500D01*
X23830745Y-74779500D01*
X22135010Y-74779500D01*
X22135004Y-74779501D01*
X22075397Y-74785908D01*
X21940552Y-74836202D01*
X21940545Y-74836206D01*
X21825336Y-74922452D01*
X21825333Y-74922455D01*
X21739087Y-75037664D01*
X21739083Y-75037671D01*
X21688789Y-75172517D01*
X21682382Y-75232116D01*
X21682381Y-75232135D01*
X19831860Y-75232135D01*
X19831860Y-71686268D01*
X26126646Y-71686268D01*
X26126646Y-71863425D01*
X26154360Y-72038403D01*
X26209102Y-72206886D01*
X26209103Y-72206889D01*
X26289532Y-72364737D01*
X26393663Y-72508061D01*
X26518932Y-72633330D01*
X26662256Y-72737461D01*
X26739675Y-72776908D01*
X26820103Y-72817889D01*
X26820106Y-72817890D01*
X26904347Y-72845261D01*
X26988591Y-72872633D01*
X27163567Y-72900347D01*
X27163568Y-72900347D01*
X27340724Y-72900347D01*
X27340725Y-72900347D01*
X27515701Y-72872633D01*
X27684188Y-72817889D01*
X27842036Y-72737461D01*
X27985360Y-72633330D01*
X28110629Y-72508061D01*
X28214760Y-72364737D01*
X28295188Y-72206889D01*
X28349932Y-72038402D01*
X28377646Y-71863426D01*
X28377646Y-71686268D01*
X28349932Y-71511292D01*
X28295188Y-71342805D01*
X28295188Y-71342804D01*
X28214759Y-71184956D01*
X28110629Y-71041633D01*
X27985360Y-70916364D01*
X27842036Y-70812233D01*
X27769644Y-70775347D01*
X27684188Y-70731804D01*
X27684185Y-70731803D01*
X27515702Y-70677061D01*
X27428213Y-70663204D01*
X27340725Y-70649347D01*
X27163567Y-70649347D01*
X27105241Y-70658585D01*
X26988589Y-70677061D01*
X26820106Y-70731803D01*
X26820103Y-70731804D01*
X26662255Y-70812233D01*
X26580484Y-70871643D01*
X26518932Y-70916364D01*
X26518930Y-70916366D01*
X26518929Y-70916366D01*
X26393665Y-71041630D01*
X26393665Y-71041631D01*
X26393663Y-71041633D01*
X26348942Y-71103185D01*
X26289532Y-71184956D01*
X26209103Y-71342804D01*
X26209102Y-71342807D01*
X26154360Y-71511290D01*
X26126646Y-71686268D01*
X19831860Y-71686268D01*
X19831860Y-69156749D01*
X21601646Y-69156749D01*
X21601646Y-69392944D01*
X21638592Y-69626215D01*
X21711579Y-69850843D01*
X21818665Y-70061010D01*
X21818803Y-70061280D01*
X21957629Y-70252357D01*
X22124636Y-70419364D01*
X22315713Y-70558190D01*
X22415137Y-70608849D01*
X22526149Y-70665413D01*
X22526151Y-70665413D01*
X22526154Y-70665415D01*
X22561997Y-70677061D01*
X22750777Y-70738400D01*
X22984049Y-70775347D01*
X22984054Y-70775347D01*
X23220243Y-70775347D01*
X23453514Y-70738400D01*
X23473817Y-70731803D01*
X23678138Y-70665415D01*
X23888579Y-70558190D01*
X24079656Y-70419364D01*
X24246663Y-70252357D01*
X24385489Y-70061280D01*
X24492714Y-69850839D01*
X24565699Y-69626215D01*
X24567863Y-69612555D01*
X24602646Y-69392944D01*
X24602646Y-69156749D01*
X24565699Y-68923478D01*
X24492712Y-68698850D01*
X24385623Y-68488677D01*
X24385489Y-68488414D01*
X24246663Y-68297337D01*
X24079656Y-68130330D01*
X23888579Y-67991504D01*
X23678142Y-67884280D01*
X23453514Y-67811293D01*
X23220243Y-67774347D01*
X23220238Y-67774347D01*
X22984054Y-67774347D01*
X22984049Y-67774347D01*
X22750777Y-67811293D01*
X22526149Y-67884280D01*
X22315712Y-67991504D01*
X22232193Y-68052185D01*
X22124636Y-68130330D01*
X22124634Y-68130332D01*
X22124633Y-68130332D01*
X21957631Y-68297334D01*
X21957631Y-68297335D01*
X21957629Y-68297337D01*
X21898008Y-68379397D01*
X21818803Y-68488413D01*
X21711579Y-68698850D01*
X21638592Y-68923478D01*
X21601646Y-69156749D01*
X19831860Y-69156749D01*
X19831860Y-65705317D01*
X19831978Y-65699910D01*
X19849124Y-65307087D01*
X19850067Y-65296311D01*
X19884600Y-65033972D01*
X19901030Y-64909159D01*
X19902903Y-64898534D01*
X19940931Y-64726982D01*
X21601646Y-64726982D01*
X21601646Y-66822717D01*
X21601647Y-66822723D01*
X21608054Y-66882330D01*
X21658348Y-67017175D01*
X21658352Y-67017182D01*
X21744598Y-67132391D01*
X21744601Y-67132394D01*
X21859810Y-67218640D01*
X21859817Y-67218644D01*
X21994663Y-67268938D01*
X21994662Y-67268938D01*
X22001590Y-67269682D01*
X22054273Y-67275347D01*
X24150018Y-67275346D01*
X24209629Y-67268938D01*
X24344477Y-67218643D01*
X24459692Y-67132393D01*
X24545942Y-67017178D01*
X24596237Y-66882330D01*
X24602646Y-66822720D01*
X24602645Y-64726975D01*
X24596237Y-64667364D01*
X24569169Y-64594792D01*
X24545943Y-64532518D01*
X24545939Y-64532511D01*
X24459693Y-64417302D01*
X24459690Y-64417299D01*
X24344481Y-64331053D01*
X24344474Y-64331049D01*
X24209628Y-64280755D01*
X24209629Y-64280755D01*
X24150029Y-64274348D01*
X24150027Y-64274347D01*
X24150019Y-64274347D01*
X24150010Y-64274347D01*
X22054275Y-64274347D01*
X22054269Y-64274348D01*
X21994662Y-64280755D01*
X21859817Y-64331049D01*
X21859810Y-64331053D01*
X21744601Y-64417299D01*
X21744598Y-64417302D01*
X21658352Y-64532511D01*
X21658348Y-64532518D01*
X21608054Y-64667364D01*
X21604888Y-64696816D01*
X21601647Y-64726970D01*
X21601646Y-64726982D01*
X19940931Y-64726982D01*
X19987414Y-64517283D01*
X19990211Y-64506843D01*
X20107628Y-64134406D01*
X20111312Y-64124282D01*
X20260750Y-63763470D01*
X20265303Y-63753705D01*
X20445608Y-63407308D01*
X20451005Y-63397958D01*
X20585852Y-63186268D01*
X27326646Y-63186268D01*
X27326646Y-63363426D01*
X27340503Y-63450914D01*
X27354360Y-63538403D01*
X27409102Y-63706886D01*
X27409103Y-63706889D01*
X27489532Y-63864737D01*
X27593663Y-64008061D01*
X27718932Y-64133330D01*
X27862256Y-64237461D01*
X27934650Y-64274348D01*
X28020103Y-64317889D01*
X28020106Y-64317890D01*
X28060619Y-64331053D01*
X28188591Y-64372633D01*
X28363567Y-64400347D01*
X28363568Y-64400347D01*
X28540724Y-64400347D01*
X28540725Y-64400347D01*
X28715701Y-64372633D01*
X28884188Y-64317889D01*
X29042036Y-64237461D01*
X29185360Y-64133330D01*
X29310629Y-64008061D01*
X29414760Y-63864737D01*
X29495188Y-63706889D01*
X29549932Y-63538402D01*
X29577646Y-63363426D01*
X29577646Y-63186268D01*
X29549932Y-63011292D01*
X29495188Y-62842805D01*
X29495188Y-62842804D01*
X29414759Y-62684956D01*
X29310629Y-62541633D01*
X29185360Y-62416364D01*
X29042036Y-62312233D01*
X28884188Y-62231804D01*
X28884185Y-62231803D01*
X28715702Y-62177061D01*
X28628213Y-62163204D01*
X28540725Y-62149347D01*
X28363567Y-62149347D01*
X28305241Y-62158585D01*
X28188589Y-62177061D01*
X28020106Y-62231803D01*
X28020103Y-62231804D01*
X27862255Y-62312233D01*
X27780484Y-62371643D01*
X27718932Y-62416364D01*
X27718930Y-62416366D01*
X27718929Y-62416366D01*
X27593665Y-62541630D01*
X27593665Y-62541631D01*
X27593663Y-62541633D01*
X27548942Y-62603185D01*
X27489532Y-62684956D01*
X27409103Y-62842804D01*
X27409102Y-62842807D01*
X27354360Y-63011290D01*
X27346005Y-63064041D01*
X27326646Y-63186268D01*
X20585852Y-63186268D01*
X20660811Y-63068593D01*
X20666999Y-63059756D01*
X20904708Y-62749934D01*
X20911639Y-62741671D01*
X21175460Y-62453725D01*
X21183087Y-62446098D01*
X21470986Y-62182252D01*
X21479250Y-62175318D01*
X21789037Y-61937575D01*
X21797873Y-61931385D01*
X22127218Y-61721533D01*
X22136556Y-61716140D01*
X22482948Y-61535783D01*
X22492706Y-61531232D01*
X22853486Y-61381754D01*
X22863636Y-61378059D01*
X23236049Y-61260598D01*
X23246469Y-61257804D01*
X23627718Y-61173241D01*
X23638356Y-61171365D01*
X24025503Y-61120353D01*
X24036267Y-61119410D01*
X24429103Y-61102213D01*
X24434502Y-61102095D01*
X24442410Y-61102095D01*
X24442425Y-61102100D01*
X24442426Y-61102096D01*
X27341115Y-61102537D01*
X27341120Y-61102539D01*
X27341121Y-61102538D01*
X27349726Y-61102540D01*
X27663996Y-61102588D01*
X28291395Y-61064733D01*
X28291403Y-61064732D01*
X28291406Y-61064732D01*
X28915358Y-60989067D01*
X28915361Y-60989066D01*
X28915364Y-60989066D01*
X29286320Y-60921144D01*
X29533615Y-60875865D01*
X29533619Y-60875864D01*
X29533625Y-60875863D01*
X30143924Y-60725537D01*
X30744032Y-60538636D01*
X31331761Y-60315842D01*
X31904966Y-60057968D01*
X32461555Y-59765956D01*
X32999497Y-59440871D01*
X33462451Y-59121421D01*
X36344526Y-59121421D01*
X36344526Y-59357616D01*
X36381472Y-59590887D01*
X36454459Y-59815515D01*
X36515672Y-59935651D01*
X36561683Y-60025952D01*
X36700509Y-60217029D01*
X36867516Y-60384036D01*
X37058593Y-60522862D01*
X37158017Y-60573521D01*
X37269029Y-60630085D01*
X37269031Y-60630085D01*
X37269034Y-60630087D01*
X37381055Y-60666485D01*
X37493657Y-60703072D01*
X37726929Y-60740019D01*
X37726934Y-60740019D01*
X37963123Y-60740019D01*
X38196394Y-60703072D01*
X38421018Y-60630087D01*
X38631459Y-60522862D01*
X38822536Y-60384036D01*
X38989543Y-60217029D01*
X39128369Y-60025952D01*
X39235594Y-59815511D01*
X39308579Y-59590887D01*
X39324309Y-59491572D01*
X39345526Y-59357616D01*
X39345526Y-59121421D01*
X39308579Y-58888150D01*
X39246551Y-58697250D01*
X39235594Y-58663527D01*
X39235592Y-58663524D01*
X39235592Y-58663522D01*
X39174380Y-58543387D01*
X39128369Y-58453086D01*
X38989543Y-58262009D01*
X38822536Y-58095002D01*
X38631459Y-57956176D01*
X38421022Y-57848952D01*
X38196394Y-57775965D01*
X37963123Y-57739019D01*
X37963118Y-57739019D01*
X37726934Y-57739019D01*
X37726929Y-57739019D01*
X37493657Y-57775965D01*
X37269029Y-57848952D01*
X37058592Y-57956176D01*
X36949576Y-58035381D01*
X36867516Y-58095002D01*
X36867514Y-58095004D01*
X36867513Y-58095004D01*
X36700511Y-58262006D01*
X36700511Y-58262007D01*
X36700509Y-58262009D01*
X36687715Y-58279619D01*
X36561683Y-58453085D01*
X36454459Y-58663522D01*
X36381472Y-58888150D01*
X36344526Y-59121421D01*
X33462451Y-59121421D01*
X33516830Y-59083898D01*
X34011655Y-58696348D01*
X34011658Y-58696347D01*
X34011665Y-58696341D01*
X34482198Y-58279614D01*
X34926710Y-57835237D01*
X35343581Y-57364832D01*
X35731289Y-56870114D01*
X36088419Y-56352891D01*
X36413669Y-55815048D01*
X36705851Y-55258548D01*
X36963899Y-54685421D01*
X37186872Y-54097760D01*
X37373956Y-53497709D01*
X37524468Y-52887456D01*
X37637860Y-52269229D01*
X37713717Y-51645283D01*
X37751763Y-51017896D01*
X37751811Y-50703626D01*
X37751811Y-50703504D01*
X37753384Y-40387824D01*
X37753410Y-40385419D01*
X37755238Y-40297648D01*
X39842381Y-40297648D01*
X39842381Y-40502351D01*
X39874403Y-40704534D01*
X39937662Y-40899223D01*
X40030596Y-41081613D01*
X40150909Y-41247213D01*
X40150915Y-41247219D01*
X40295662Y-41391966D01*
X40461271Y-41512287D01*
X40474674Y-41519116D01*
X40525470Y-41567088D01*
X40542381Y-41629601D01*
X40542381Y-47068330D01*
X40542380Y-47068348D01*
X40542380Y-47234052D01*
X40542379Y-47234054D01*
X40583304Y-47386785D01*
X40612239Y-47436900D01*
X40612240Y-47436904D01*
X40612241Y-47436904D01*
X40662360Y-47523714D01*
X40662362Y-47523717D01*
X40781230Y-47642585D01*
X40781236Y-47642590D01*
X41864442Y-48725796D01*
X41897927Y-48787119D01*
X41894692Y-48851794D01*
X41871866Y-48922045D01*
X41837381Y-49139778D01*
X41837381Y-49360221D01*
X41871866Y-49577952D01*
X41939984Y-49787603D01*
X41939985Y-49787606D01*
X42008003Y-49921096D01*
X42039269Y-49982458D01*
X42040068Y-49984025D01*
X42169633Y-50162358D01*
X42169637Y-50162363D01*
X42325517Y-50318243D01*
X42325522Y-50318247D01*
X42425340Y-50390768D01*
X42503859Y-50447815D01*
X42632256Y-50513237D01*
X42700274Y-50547895D01*
X42700277Y-50547896D01*
X42805102Y-50581955D01*
X42909930Y-50616015D01*
X43127659Y-50650500D01*
X43127660Y-50650500D01*
X43348102Y-50650500D01*
X43348103Y-50650500D01*
X43565832Y-50616015D01*
X43775487Y-50547895D01*
X43971903Y-50447815D01*
X44150246Y-50318242D01*
X44200417Y-50268070D01*
X44261738Y-50234586D01*
X44331429Y-50239570D01*
X44387363Y-50281441D01*
X44404279Y-50312419D01*
X44434083Y-50392328D01*
X44434087Y-50392335D01*
X44520333Y-50507544D01*
X44520336Y-50507547D01*
X44635545Y-50593793D01*
X44635552Y-50593797D01*
X44770398Y-50644091D01*
X44770397Y-50644091D01*
X44777325Y-50644835D01*
X44830008Y-50650500D01*
X46725753Y-50650499D01*
X46785364Y-50644091D01*
X46920212Y-50593796D01*
X47035427Y-50507546D01*
X47121677Y-50392331D01*
X47171972Y-50257483D01*
X47178381Y-50197873D01*
X47178380Y-48302128D01*
X47171972Y-48242517D01*
X47167438Y-48230362D01*
X47121678Y-48107671D01*
X47121674Y-48107664D01*
X47035428Y-47992455D01*
X47035425Y-47992452D01*
X46920216Y-47906206D01*
X46920209Y-47906202D01*
X46785363Y-47855908D01*
X46785364Y-47855908D01*
X46725764Y-47849501D01*
X46725762Y-47849500D01*
X46725754Y-47849500D01*
X46725745Y-47849500D01*
X44830010Y-47849500D01*
X44830004Y-47849501D01*
X44770397Y-47855908D01*
X44635552Y-47906202D01*
X44635545Y-47906206D01*
X44520336Y-47992452D01*
X44520333Y-47992455D01*
X44434087Y-48107664D01*
X44434084Y-48107669D01*
X44404279Y-48187581D01*
X44362407Y-48243514D01*
X44296943Y-48267931D01*
X44228670Y-48253079D01*
X44200416Y-48231928D01*
X44150244Y-48181756D01*
X44150239Y-48181752D01*
X43971906Y-48052187D01*
X43971905Y-48052186D01*
X43971903Y-48052185D01*
X43854672Y-47992452D01*
X43775487Y-47952104D01*
X43775484Y-47952103D01*
X43565833Y-47883985D01*
X43456967Y-47866742D01*
X43348103Y-47849500D01*
X43127659Y-47849500D01*
X43097088Y-47854342D01*
X42909926Y-47883985D01*
X42839675Y-47906811D01*
X42769834Y-47908806D01*
X42713677Y-47876561D01*
X41779700Y-46942584D01*
X41746215Y-46881261D01*
X41743381Y-46854903D01*
X41743381Y-41629601D01*
X41763066Y-41562562D01*
X41811087Y-41519116D01*
X41824491Y-41512287D01*
X41990100Y-41391966D01*
X42134847Y-41247219D01*
X42134849Y-41247215D01*
X42134852Y-41247213D01*
X42242170Y-41099500D01*
X42255168Y-41081610D01*
X42348101Y-40899219D01*
X42411358Y-40704534D01*
X42443381Y-40502352D01*
X42443381Y-40297648D01*
X42411358Y-40095466D01*
X42348101Y-39900781D01*
X42348099Y-39900778D01*
X42348099Y-39900776D01*
X42314384Y-39834607D01*
X42255168Y-39718390D01*
X42247437Y-39707749D01*
X42134852Y-39552786D01*
X41990094Y-39408028D01*
X41824494Y-39287715D01*
X41824493Y-39287714D01*
X41824491Y-39287713D01*
X41767534Y-39258691D01*
X41642104Y-39194781D01*
X41447415Y-39131522D01*
X41272876Y-39103878D01*
X41245233Y-39099500D01*
X41040529Y-39099500D01*
X41016210Y-39103351D01*
X40838346Y-39131522D01*
X40643657Y-39194781D01*
X40461267Y-39287715D01*
X40295667Y-39408028D01*
X40150909Y-39552786D01*
X40030596Y-39718386D01*
X39937662Y-39900776D01*
X39874403Y-40095465D01*
X39842381Y-40297648D01*
X37755238Y-40297648D01*
X37772345Y-39476014D01*
X37772557Y-39470911D01*
X37828973Y-38564356D01*
X37829389Y-38559346D01*
X37923221Y-37655859D01*
X37923844Y-37650869D01*
X38054923Y-36752075D01*
X38055764Y-36747041D01*
X38120094Y-36405466D01*
X38223865Y-35854456D01*
X38224917Y-35849449D01*
X38283192Y-35597713D01*
X38429742Y-34964637D01*
X38431000Y-34959671D01*
X38672225Y-34084029D01*
X38673688Y-34079117D01*
X38835915Y-33572935D01*
X38950895Y-33214173D01*
X38952543Y-33209376D01*
X39265245Y-32356650D01*
X39267108Y-32351878D01*
X39481016Y-31835626D01*
X39614800Y-31512747D01*
X39616829Y-31508125D01*
X39998889Y-30684097D01*
X40001110Y-30679555D01*
X40416920Y-29871970D01*
X40419311Y-29867553D01*
X40868111Y-29077881D01*
X40870713Y-29073514D01*
X41351767Y-28303050D01*
X41354549Y-28298794D01*
X41867015Y-27548887D01*
X41869940Y-27544790D01*
X42413001Y-26816637D01*
X42416072Y-26812692D01*
X42988763Y-26107594D01*
X42992015Y-26103756D01*
X43593298Y-25422986D01*
X43596728Y-25419259D01*
X44225668Y-24763874D01*
X44229225Y-24760318D01*
X44884681Y-24131508D01*
X44888413Y-24128072D01*
X45569294Y-23526882D01*
X45573146Y-23523619D01*
X46278315Y-22951055D01*
X46282287Y-22947965D01*
X47010467Y-22405062D01*
X47014600Y-22402111D01*
X47764582Y-21889768D01*
X47768848Y-21886980D01*
X48086144Y-21688939D01*
X57182556Y-21688939D01*
X57182556Y-23584674D01*
X57182557Y-23584680D01*
X57188964Y-23644287D01*
X57239258Y-23779132D01*
X57239262Y-23779139D01*
X57325508Y-23894348D01*
X57325511Y-23894351D01*
X57440720Y-23980597D01*
X57440727Y-23980601D01*
X57575573Y-24030895D01*
X57575572Y-24030895D01*
X57582500Y-24031639D01*
X57635183Y-24037304D01*
X59530928Y-24037303D01*
X59590539Y-24030895D01*
X59725387Y-23980600D01*
X59840602Y-23894350D01*
X59926852Y-23779135D01*
X59954485Y-23705047D01*
X59956657Y-23699224D01*
X59998527Y-23643290D01*
X60063992Y-23618872D01*
X60132265Y-23633723D01*
X60160520Y-23654875D01*
X60210692Y-23705047D01*
X60210697Y-23705051D01*
X60312659Y-23779130D01*
X60389034Y-23834619D01*
X60517431Y-23900041D01*
X60585449Y-23934699D01*
X60585452Y-23934700D01*
X60652581Y-23956511D01*
X60795105Y-24002819D01*
X61012834Y-24037304D01*
X61012835Y-24037304D01*
X61233277Y-24037304D01*
X61233278Y-24037304D01*
X61451007Y-24002819D01*
X61521261Y-23979991D01*
X61591100Y-23977996D01*
X61647259Y-24010242D01*
X64536062Y-26899045D01*
X64569547Y-26960368D01*
X64572381Y-26986726D01*
X64572381Y-27860397D01*
X64552696Y-27927436D01*
X64504681Y-27970879D01*
X64491270Y-27977712D01*
X64325667Y-28098028D01*
X64180909Y-28242786D01*
X64060596Y-28408386D01*
X63967662Y-28590776D01*
X63904403Y-28785465D01*
X63872381Y-28987648D01*
X63872381Y-29192351D01*
X63904403Y-29394534D01*
X63967662Y-29589223D01*
X64060596Y-29771613D01*
X64180909Y-29937213D01*
X64325667Y-30081971D01*
X64480630Y-30194556D01*
X64491271Y-30202287D01*
X64607488Y-30261503D01*
X64673657Y-30295218D01*
X64673659Y-30295218D01*
X64673662Y-30295220D01*
X64778018Y-30329127D01*
X64868346Y-30358477D01*
X64969438Y-30374488D01*
X65070529Y-30390500D01*
X65070530Y-30390500D01*
X65275232Y-30390500D01*
X65275233Y-30390500D01*
X65477415Y-30358477D01*
X65672100Y-30295220D01*
X65854491Y-30202287D01*
X65947471Y-30134732D01*
X66020094Y-30081971D01*
X66020096Y-30081968D01*
X66020100Y-30081966D01*
X66164847Y-29937219D01*
X66164849Y-29937215D01*
X66164852Y-29937213D01*
X66217613Y-29864590D01*
X66285168Y-29771610D01*
X66378101Y-29589219D01*
X66441358Y-29394534D01*
X66473381Y-29192352D01*
X66473381Y-28987648D01*
X66441358Y-28785466D01*
X66378101Y-28590781D01*
X66378099Y-28590778D01*
X66378099Y-28590776D01*
X66344384Y-28524607D01*
X66285168Y-28408390D01*
X66277437Y-28397749D01*
X66164852Y-28242786D01*
X66020094Y-28098028D01*
X65854491Y-27977712D01*
X65841081Y-27970879D01*
X65790287Y-27922903D01*
X65773381Y-27860397D01*
X65773381Y-26607574D01*
X65773381Y-26607572D01*
X65732458Y-26454845D01*
X65732454Y-26454838D01*
X65653405Y-26317919D01*
X65653402Y-26317915D01*
X65653401Y-26317913D01*
X65541597Y-26206109D01*
X65541596Y-26206108D01*
X65537266Y-26201778D01*
X65537255Y-26201768D01*
X62496494Y-23161007D01*
X62463009Y-23099684D01*
X62466243Y-23035009D01*
X62489071Y-22964755D01*
X62523556Y-22747026D01*
X62523556Y-22526582D01*
X62489071Y-22308853D01*
X62420951Y-22099198D01*
X62420951Y-22099197D01*
X62386293Y-22031179D01*
X62320871Y-21902782D01*
X62262557Y-21822519D01*
X62191303Y-21724445D01*
X62191299Y-21724440D01*
X62035419Y-21568560D01*
X62035414Y-21568556D01*
X61857081Y-21438991D01*
X61857080Y-21438990D01*
X61857078Y-21438989D01*
X61739847Y-21379256D01*
X61660662Y-21338908D01*
X61660659Y-21338907D01*
X61451008Y-21270789D01*
X61342142Y-21253546D01*
X61233278Y-21236304D01*
X61012834Y-21236304D01*
X60940257Y-21247799D01*
X60795103Y-21270789D01*
X60585452Y-21338907D01*
X60585449Y-21338908D01*
X60389030Y-21438991D01*
X60210697Y-21568556D01*
X60210692Y-21568560D01*
X60160519Y-21618733D01*
X60099196Y-21652217D01*
X60029504Y-21647232D01*
X59973571Y-21605361D01*
X59956657Y-21574384D01*
X59926853Y-21494475D01*
X59926849Y-21494468D01*
X59840603Y-21379259D01*
X59840600Y-21379256D01*
X59725391Y-21293010D01*
X59725384Y-21293006D01*
X59590538Y-21242712D01*
X59590539Y-21242712D01*
X59530939Y-21236305D01*
X59530937Y-21236304D01*
X59530929Y-21236304D01*
X59530920Y-21236304D01*
X57635185Y-21236304D01*
X57635179Y-21236305D01*
X57575572Y-21242712D01*
X57440727Y-21293006D01*
X57440720Y-21293010D01*
X57325511Y-21379256D01*
X57325508Y-21379259D01*
X57239262Y-21494468D01*
X57239258Y-21494475D01*
X57188964Y-21629321D01*
X57182557Y-21688920D01*
X57182556Y-21688939D01*
X48086144Y-21688939D01*
X48539406Y-21406034D01*
X48543710Y-21403470D01*
X49333471Y-20954784D01*
X49337931Y-20952370D01*
X50145537Y-20536711D01*
X50150106Y-20534477D01*
X50974225Y-20152531D01*
X50978820Y-20150516D01*
X51817996Y-19802959D01*
X51822732Y-19801111D01*
X52675550Y-19488527D01*
X52680356Y-19486877D01*
X53545359Y-19209800D01*
X53550217Y-19208354D01*
X54425940Y-18967255D01*
X54430831Y-18966016D01*
X55315781Y-18761306D01*
X55320762Y-18760262D01*
X56213360Y-18592304D01*
X56218357Y-18591469D01*
X57117166Y-18460533D01*
X57122222Y-18459902D01*
X58025691Y-18366215D01*
X58030712Y-18365799D01*
X58937254Y-18309527D01*
X58942354Y-18309316D01*
X59850468Y-18290550D01*
X59855499Y-18290550D01*
X60763690Y-18309328D01*
G37*
%TD.AperFunction*%
%TD*%
M02*
