%TF.GenerationSoftware,KiCad,Pcbnew,10.0.0*%
%TF.CreationDate,2026-08-28T23:32:35-04:00*%
%TF.ProjectId,RGBox,5247426f-782e-46b6-9963-61645f706362,rev?*%
%TF.SameCoordinates,Original*%
%TF.FileFunction,Soldermask,Top*%
%TF.FilePolarity,Negative*%
%FSLAX46Y46*%
G04 Gerber Fmt 4.6, Leading zero omitted, Abs format (unit mm)*
G04 Created by KiCad (PCBNEW 10.0.0) date 2026-08-28 23:32:35*
%MOMM*%
%LPD*%
G01*
G04 APERTURE LIST*
G04 Aperture macros list*
%AMRoundRect*
0 Rectangle with rounded corners*
0 $1 Rounding radius*
0 $2 $3 $4 $5 $6 $7 $8 $9 X,Y pos of 4 corners*
0 Add a 4 corners polygon primitive as box body*
4,1,4,$2,$3,$4,$5,$6,$7,$8,$9,$2,$3,0*
0 Add four circle primitives for the rounded corners*
1,1,$1+$1,$2,$3*
1,1,$1+$1,$4,$5*
1,1,$1+$1,$6,$7*
1,1,$1+$1,$8,$9*
0 Add four rect primitives between the rounded corners*
20,1,$1+$1,$2,$3,$4,$5,0*
20,1,$1+$1,$4,$5,$6,$7,0*
20,1,$1+$1,$6,$7,$8,$9,0*
20,1,$1+$1,$8,$9,$2,$3,0*%
G04 Aperture macros list end*
%ADD10C,2.900000*%
%ADD11C,1.600000*%
%ADD12C,1.750000*%
%ADD13R,2.000000X2.000000*%
%ADD14C,2.000000*%
%ADD15R,1.070000X1.800000*%
%ADD16O,1.060000X1.800000*%
%ADD17R,1.800000X1.800000*%
%ADD18C,1.800000*%
%ADD19C,1.200000*%
%ADD20RoundRect,0.250000X0.600000X0.750000X-0.600000X0.750000X-0.600000X-0.750000X0.600000X-0.750000X0*%
%ADD21O,1.700000X2.000000*%
%ADD22C,2.540000*%
%ADD23R,1.600000X2.600000*%
%ADD24O,1.600000X2.600000*%
G04 APERTURE END LIST*
D10*
%TO.C,*%
X26842607Y-95884732D03*
%TD*%
%TO.C,*%
X92892701Y-95979800D03*
%TD*%
%TO.C,*%
X81845026Y-59249519D03*
%TD*%
D11*
%TO.C,R2*%
X78762881Y-42400000D03*
X71142881Y-42400000D03*
%TD*%
D12*
%TO.C,RV1*%
X27252146Y-71774847D03*
X28452146Y-63274847D03*
X91252146Y-63274847D03*
X92452146Y-71774847D03*
D13*
X23102146Y-65774847D03*
D14*
X23102146Y-69274847D03*
X96602146Y-65774847D03*
%TD*%
D15*
%TO.C,D4*%
X61757881Y-40390000D03*
D16*
X60487881Y-40390000D03*
X59217881Y-40390000D03*
X57947881Y-40390000D03*
%TD*%
D11*
%TO.C,R5*%
X59762881Y-44800000D03*
X59762881Y-52420000D03*
%TD*%
D17*
%TO.C,D2*%
X76480000Y-49248433D03*
D18*
X73940000Y-49248433D03*
%TD*%
D11*
%TO.C,R3*%
X41142881Y-40400000D03*
X48762881Y-40400000D03*
%TD*%
D12*
%TO.C,RV2*%
X27272881Y-90690000D03*
X28472881Y-82190000D03*
X91272881Y-82190000D03*
X92472881Y-90690000D03*
D13*
X23122881Y-84690000D03*
D14*
X23122881Y-88190000D03*
X96622881Y-84690000D03*
%TD*%
D17*
%TO.C,D3*%
X43240000Y-49248433D03*
D18*
X45780000Y-49248433D03*
%TD*%
D11*
%TO.C,R1*%
X65172881Y-29090000D03*
X65172881Y-36710000D03*
%TD*%
D17*
%TO.C,D1*%
X61105000Y-22636804D03*
D18*
X58565000Y-22636804D03*
%TD*%
D11*
%TO.C,R6*%
X54842881Y-44900000D03*
X54842881Y-52520000D03*
%TD*%
D12*
%TO.C,RV3*%
X27272881Y-109677813D03*
X28472881Y-101177813D03*
X91272881Y-101177813D03*
X92472881Y-109677813D03*
D13*
X23122881Y-103677813D03*
D14*
X23122881Y-107177813D03*
X96622881Y-103677813D03*
%TD*%
D11*
%TO.C,R4*%
X64712881Y-44770000D03*
X64712881Y-52390000D03*
%TD*%
D10*
%TO.C,Mount*%
X37845026Y-59239519D03*
%TD*%
D19*
%TO.C,SW2*%
X80200000Y-79100000D03*
D20*
X78600000Y-77100000D03*
D21*
X76100000Y-77100000D03*
%TD*%
D19*
%TO.C,SW3*%
X89550000Y-78975000D03*
D20*
X87950000Y-76975000D03*
D21*
X85450000Y-76975000D03*
%TD*%
D22*
%TO.C,A1*%
X64892881Y-77550000D03*
X64892881Y-95330000D03*
D23*
X22982881Y-76580000D03*
D24*
X25522881Y-76580000D03*
X28062881Y-76580000D03*
X30602881Y-76580000D03*
X33142881Y-76580000D03*
X35682881Y-76580000D03*
X38222881Y-76580000D03*
X40762881Y-76580000D03*
X43302881Y-76580000D03*
X45842881Y-76580000D03*
X48382881Y-76580000D03*
X50922881Y-76580000D03*
X53462881Y-76580000D03*
X56002881Y-76580000D03*
X58542881Y-76580000D03*
X61082881Y-76580000D03*
X61082881Y-96300000D03*
X58542881Y-96300000D03*
X56002881Y-96300000D03*
X53462881Y-96300000D03*
X50922881Y-96300000D03*
X48382881Y-96300000D03*
X45842881Y-96300000D03*
X43302881Y-96300000D03*
X40762881Y-96300000D03*
X38222881Y-96300000D03*
X35682881Y-96300000D03*
X33142881Y-96300000D03*
%TD*%
D19*
%TO.C,SW1*%
X85100000Y-96800000D03*
D20*
X83500000Y-94800000D03*
D21*
X81000000Y-94800000D03*
%TD*%
M02*
