M48
; DRILL file KiCad 10.0.0 date 2026-08-10T22:11:25
; FORMAT={-:-/ absolute / metric / decimal}
; #@! TF.CreationDate,2026-08-10T22:11:25-04:00
; #@! TF.GenerationSoftware,Kicad,Pcbnew,10.0.0
; #@! TF.FileFunction,MixedPlating,1,2
FMAT,2
METRIC
; #@! TA.AperFunction,Plated,PTH,ViaDrill
T1C0.300
; #@! TA.AperFunction,Plated,PTH,ComponentDrill
T2C0.750
; #@! TA.AperFunction,Plated,PTH,ComponentDrill
T3C0.800
; #@! TA.AperFunction,Plated,PTH,ComponentDrill
T4C0.900
; #@! TA.AperFunction,Plated,PTH,ComponentDrill
T5C1.000
; #@! TA.AperFunction,Plated,PTH,ComponentDrill
T6C1.100
; #@! TA.AperFunction,NonPlated,NPTH,ComponentDrill
T7C1.200
; #@! TA.AperFunction,NonPlated,NPTH,ComponentDrill
T8C1.750
; #@! TA.AperFunction,NonPlated,NPTH,ComponentDrill
T9C2.500
; #@! TA.AperFunction,NonPlated,NPTH,ComponentDrill
T10C2.540
%
G90
G05
T1
X34.84Y-86.53
X41.35Y-67.49
X56.06Y-79.25
T2
X57.948Y-40.39
X59.218Y-40.39
X60.488Y-40.39
X61.758Y-40.39
T3
X41.143Y-40.4
X48.763Y-40.4
X54.843Y-44.9
X54.843Y-52.52
X59.763Y-44.8
X59.763Y-52.42
X64.713Y-44.77
X64.713Y-52.39
X65.173Y-29.09
X65.173Y-36.71
X71.143Y-42.4
X78.763Y-42.4
T4
X43.238Y-49.25
X45.778Y-49.25
X58.583Y-22.637
X61.123Y-22.637
X73.947Y-49.248
X76.487Y-49.248
T5
X22.983Y-76.28
X25.523Y-76.28
X28.063Y-76.28
X30.603Y-76.28
X33.143Y-76.28
X33.143Y-96.6
X35.683Y-76.28
X35.683Y-96.6
X38.223Y-76.28
X38.223Y-96.6
X40.763Y-76.28
X40.763Y-96.6
X43.303Y-76.28
X43.303Y-96.6
X45.843Y-76.28
X45.843Y-96.6
X48.383Y-76.28
X48.383Y-96.6
X50.923Y-76.28
X50.923Y-96.6
X53.463Y-76.28
X53.463Y-96.6
X56.003Y-76.28
X56.003Y-96.6
X58.543Y-76.28
X58.543Y-96.6
X61.083Y-76.28
X61.083Y-96.6
X83.453Y-75.875
X83.453Y-95.175
X85.953Y-75.875
X85.953Y-95.175
T6
X23.102Y-65.775
X23.102Y-69.275
X23.123Y-84.69
X23.123Y-88.19
X23.123Y-103.678
X23.123Y-107.178
X96.602Y-69.275
X96.623Y-88.19
X96.623Y-107.178
T7
X87.553Y-77.875
X87.553Y-97.175
T8
X27.252Y-71.775
X27.273Y-90.69
X27.273Y-109.678
X28.452Y-63.275
X28.473Y-82.19
X28.473Y-101.178
X91.252Y-63.275
X91.273Y-82.19
X91.273Y-101.178
X92.452Y-71.775
X92.473Y-90.69
X92.473Y-109.678
T9
X19.173Y-77.55
X19.173Y-95.33
T10
X64.893Y-77.55
X64.893Y-95.33
M30
