%TF.GenerationSoftware,KiCad,Pcbnew,10.0.0*%
%TF.CreationDate,2026-08-28T23:32:35-04:00*%
%TF.ProjectId,RGBox,5247426f-782e-46b6-9963-61645f706362,rev?*%
%TF.SameCoordinates,Original*%
%TF.FileFunction,Copper,L2,Bot*%
%TF.FilePolarity,Positive*%
%FSLAX46Y46*%
G04 Gerber Fmt 4.6, Leading zero omitted, Abs format (unit mm)*
G04 Created by KiCad (PCBNEW 10.0.0) date 2026-08-28 23:32:35*
%MOMM*%
%LPD*%
G01*
G04 APERTURE LIST*
G04 Aperture macros list*
%AMRoundRect*
0 Rectangle with rounded corners*
0 $1 Rounding radius*
0 $2 $3 $4 $5 $6 $7 $8 $9 X,Y pos of 4 corners*
0 Add a 4 corners polygon primitive as box body*
4,1,4,$2,$3,$4,$5,$6,$7,$8,$9,$2,$3,0*
0 Add four circle primitives for the rounded corners*
1,1,$1+$1,$2,$3*
1,1,$1+$1,$4,$5*
1,1,$1+$1,$6,$7*
1,1,$1+$1,$8,$9*
0 Add four rect primitives between the rounded corners*
20,1,$1+$1,$2,$3,$4,$5,0*
20,1,$1+$1,$4,$5,$6,$7,0*
20,1,$1+$1,$6,$7,$8,$9,0*
20,1,$1+$1,$8,$9,$2,$3,0*%
G04 Aperture macros list end*
%TA.AperFunction,WasherPad*%
%ADD10C,2.900000*%
%TD*%
%TA.AperFunction,ComponentPad*%
%ADD11C,1.600000*%
%TD*%
%TA.AperFunction,ComponentPad*%
%ADD12R,2.000000X2.000000*%
%TD*%
%TA.AperFunction,ComponentPad*%
%ADD13C,2.000000*%
%TD*%
%TA.AperFunction,ComponentPad*%
%ADD14R,1.070000X1.800000*%
%TD*%
%TA.AperFunction,ComponentPad*%
%ADD15O,1.060000X1.800000*%
%TD*%
%TA.AperFunction,ComponentPad*%
%ADD16R,1.800000X1.800000*%
%TD*%
%TA.AperFunction,ComponentPad*%
%ADD17C,1.800000*%
%TD*%
%TA.AperFunction,ComponentPad*%
%ADD18RoundRect,0.250000X0.600000X0.750000X-0.600000X0.750000X-0.600000X-0.750000X0.600000X-0.750000X0*%
%TD*%
%TA.AperFunction,ComponentPad*%
%ADD19O,1.700000X2.000000*%
%TD*%
%TA.AperFunction,ComponentPad*%
%ADD20R,1.600000X2.600000*%
%TD*%
%TA.AperFunction,ComponentPad*%
%ADD21O,1.600000X2.600000*%
%TD*%
%TA.AperFunction,ViaPad*%
%ADD22C,0.600000*%
%TD*%
%TA.AperFunction,Conductor*%
%ADD23C,0.200000*%
%TD*%
%TA.AperFunction,Conductor*%
%ADD24C,0.500000*%
%TD*%
G04 APERTURE END LIST*
D10*
%TO.P,,*%
%TO.N,*%
X26842607Y-95884732D03*
%TD*%
%TO.P,,*%
%TO.N,*%
X92892701Y-95979800D03*
%TD*%
%TO.P,,*%
%TO.N,*%
X81845026Y-59249519D03*
%TD*%
D11*
%TO.P,R2,1*%
%TO.N,Net-(D2-K)*%
X78762881Y-42400000D03*
%TO.P,R2,2*%
%TO.N,Net-(A1-D1)*%
X71142881Y-42400000D03*
%TD*%
D12*
%TO.P,RV1,1,1_1*%
%TO.N,+3.3V*%
X23102146Y-65774847D03*
D13*
%TO.P,RV1,2,2_2*%
%TO.N,Net-(A1-A2)*%
X23102146Y-69274847D03*
%TO.P,RV1,3,3_3*%
%TO.N,GND*%
X96602146Y-65774847D03*
%TD*%
D14*
%TO.P,D4,1,BK_1*%
%TO.N,Net-(D4-BK)*%
X61757881Y-40390000D03*
D15*
%TO.P,D4,2,GK_2*%
%TO.N,Net-(D4-GK)*%
X60487881Y-40390000D03*
%TO.P,D4,3,A_3*%
%TO.N,+3.3V*%
X59217881Y-40390000D03*
%TO.P,D4,4,RK_4*%
%TO.N,Net-(D4-RK)*%
X57947881Y-40390000D03*
%TD*%
D11*
%TO.P,R5,1*%
%TO.N,Net-(D4-GK)*%
X59762881Y-44800000D03*
%TO.P,R5,2*%
%TO.N,Net-(A1-D4)*%
X59762881Y-52420000D03*
%TD*%
D16*
%TO.P,D2,1,K_1*%
%TO.N,Net-(D2-K)*%
X76480000Y-49248433D03*
D17*
%TO.P,D2,2,A_2*%
%TO.N,+3.3V*%
X73940000Y-49248433D03*
%TD*%
D11*
%TO.P,R3,1*%
%TO.N,Net-(D3-K)*%
X41142881Y-40400000D03*
%TO.P,R3,2*%
%TO.N,Net-(A1-D2)*%
X48762881Y-40400000D03*
%TD*%
D12*
%TO.P,RV2,1,1_1*%
%TO.N,+3.3V*%
X23122881Y-84690000D03*
D13*
%TO.P,RV2,2,2_2*%
%TO.N,Net-(A1-A3)*%
X23122881Y-88190000D03*
%TO.P,RV2,3,3_3*%
%TO.N,GND*%
X96622881Y-84690000D03*
%TD*%
D16*
%TO.P,D3,1,K_1*%
%TO.N,Net-(D3-K)*%
X43240000Y-49248433D03*
D17*
%TO.P,D3,2,A_2*%
%TO.N,+3.3V*%
X45780000Y-49248433D03*
%TD*%
D11*
%TO.P,R1,1*%
%TO.N,Net-(D1-K)*%
X65172881Y-29090000D03*
%TO.P,R1,2*%
%TO.N,Net-(A1-D0)*%
X65172881Y-36710000D03*
%TD*%
D16*
%TO.P,D1,1,K_1*%
%TO.N,Net-(D1-K)*%
X61105000Y-22636804D03*
D17*
%TO.P,D1,2,A_2*%
%TO.N,+3.3V*%
X58565000Y-22636804D03*
%TD*%
D11*
%TO.P,R6,1*%
%TO.N,Net-(D4-RK)*%
X54842881Y-44900000D03*
%TO.P,R6,2*%
%TO.N,Net-(A1-D5)*%
X54842881Y-52520000D03*
%TD*%
D12*
%TO.P,RV3,1,1_1*%
%TO.N,+3.3V*%
X23122881Y-103677813D03*
D13*
%TO.P,RV3,2,2_2*%
%TO.N,Net-(A1-A4)*%
X23122881Y-107177813D03*
%TO.P,RV3,3,3_3*%
%TO.N,GND*%
X96622881Y-103677813D03*
%TD*%
D11*
%TO.P,R4,1*%
%TO.N,Net-(D4-BK)*%
X64712881Y-44770000D03*
%TO.P,R4,2*%
%TO.N,Net-(A1-D3)*%
X64712881Y-52390000D03*
%TD*%
D10*
%TO.P,Mount,*%
%TO.N,*%
X37845026Y-59239519D03*
%TD*%
D18*
%TO.P,SW2,1,A_1*%
%TO.N,GND*%
X78600000Y-77100000D03*
D19*
%TO.P,SW2,2,B_2*%
%TO.N,Net-(A1-D6)*%
X76100000Y-77100000D03*
%TD*%
D18*
%TO.P,SW3,1,A_1*%
%TO.N,GND*%
X87950000Y-76975000D03*
D19*
%TO.P,SW3,2,B_2*%
%TO.N,Net-(A1-RX)*%
X85450000Y-76975000D03*
%TD*%
D20*
%TO.P,A1,1,~{RESET}_1*%
%TO.N,unconnected-(A1-~{RESET}-Pad1)*%
X22982881Y-76580000D03*
D21*
%TO.P,A1,2,3V3_2*%
%TO.N,+3.3V*%
X25522881Y-76580000D03*
%TO.P,A1,3,AREF_3*%
%TO.N,unconnected-(A1-AREF-Pad3)*%
X28062881Y-76580000D03*
%TO.P,A1,4,GND_4*%
%TO.N,GND*%
X30602881Y-76580000D03*
%TO.P,A1,5,A0_5*%
%TO.N,unconnected-(A1-A0-Pad5)*%
X33142881Y-76580000D03*
%TO.P,A1,6,A1_6*%
%TO.N,unconnected-(A1-A1-Pad6)*%
X35682881Y-76580000D03*
%TO.P,A1,7,A2_7*%
%TO.N,Net-(A1-A2)*%
X38222881Y-76580000D03*
%TO.P,A1,8,A3_8*%
%TO.N,Net-(A1-A3)*%
X40762881Y-76580000D03*
%TO.P,A1,9,A4_9*%
%TO.N,Net-(A1-A4)*%
X43302881Y-76580000D03*
%TO.P,A1,10,A5_10*%
%TO.N,unconnected-(A1-A5-Pad10)*%
X45842881Y-76580000D03*
%TO.P,A1,11,SCK_11*%
%TO.N,unconnected-(A1-SCK-Pad11)*%
X48382881Y-76580000D03*
%TO.P,A1,12,MOSI_12*%
%TO.N,unconnected-(A1-MOSI-Pad12)*%
X50922881Y-76580000D03*
%TO.P,A1,13,MISO_13*%
%TO.N,unconnected-(A1-MISO-Pad13)*%
X53462881Y-76580000D03*
%TO.P,A1,14,RX_14*%
%TO.N,Net-(A1-RX)*%
X56002881Y-76580000D03*
%TO.P,A1,15,TX_15*%
%TO.N,unconnected-(A1-TX-Pad15)*%
X58542881Y-76580000D03*
%TO.P,A1,16,SPARE_16*%
%TO.N,unconnected-(A1-SPARE-Pad16)*%
X61082881Y-76580000D03*
%TO.P,A1,17,SDA_17*%
%TO.N,unconnected-(A1-SDA-Pad17)*%
X61082881Y-96300000D03*
%TO.P,A1,18,SCL_18*%
%TO.N,unconnected-(A1-SCL-Pad18)*%
X58542881Y-96300000D03*
%TO.P,A1,19,D0_19*%
%TO.N,Net-(A1-D0)*%
X56002881Y-96300000D03*
%TO.P,A1,20,D1_20*%
%TO.N,Net-(A1-D1)*%
X53462881Y-96300000D03*
%TO.P,A1,21,D2_21*%
%TO.N,Net-(A1-D2)*%
X50922881Y-96300000D03*
%TO.P,A1,22,D3_22*%
%TO.N,Net-(A1-D3)*%
X48382881Y-96300000D03*
%TO.P,A1,23,D4_23*%
%TO.N,Net-(A1-D4)*%
X45842881Y-96300000D03*
%TO.P,A1,24,D5_24*%
%TO.N,Net-(A1-D5)*%
X43302881Y-96300000D03*
%TO.P,A1,25,D6_25*%
%TO.N,Net-(A1-D6)*%
X40762881Y-96300000D03*
%TO.P,A1,26,USB_26*%
%TO.N,unconnected-(A1-USB-Pad26)*%
X38222881Y-96300000D03*
%TO.P,A1,27,EN_27*%
%TO.N,Net-(A1-EN)*%
X35682881Y-96300000D03*
%TO.P,A1,28,VBAT_28*%
%TO.N,unconnected-(A1-VBAT-Pad28)*%
X33142881Y-96300000D03*
%TD*%
D18*
%TO.P,SW1,1,A_1*%
%TO.N,GND*%
X83500000Y-94800000D03*
D19*
%TO.P,SW1,2,B_2*%
%TO.N,Net-(A1-EN)*%
X81000000Y-94800000D03*
%TD*%
D22*
%TO.N,GND*%
X62570000Y-86480000D03*
X73100000Y-86700000D03*
X64920000Y-67270000D03*
X46800000Y-86430000D03*
X41350000Y-67490000D03*
X34840000Y-86530000D03*
X56060000Y-79250000D03*
%TD*%
%TO.N,Net-(D2-K)*%
D23*
X78762881Y-42400000D02*
X78762881Y-46972698D01*
X78762881Y-46972698D02*
X76487146Y-49248433D01*
%TO.N,Net-(A1-D1)*%
X62182881Y-95748974D02*
X62182881Y-97255635D01*
X61538516Y-97900000D02*
X54762881Y-97900000D01*
X71142881Y-42400000D02*
X71142881Y-86788974D01*
X54762881Y-97900000D02*
X53462881Y-96600000D01*
X71142881Y-86788974D02*
X62182881Y-95748974D01*
X62182881Y-97255635D02*
X61538516Y-97900000D01*
%TO.N,+3.3V*%
X25522881Y-76740000D02*
X23122881Y-79140000D01*
X21802146Y-67074847D02*
X21802146Y-72559265D01*
X23122881Y-103677813D02*
X21822881Y-102377813D01*
X21822881Y-102377813D02*
X21822881Y-85990000D01*
X21802146Y-72559265D02*
X25522881Y-76280000D01*
X21822881Y-85990000D02*
X23122881Y-84690000D01*
X23122881Y-79140000D02*
X23122881Y-84690000D01*
X23102146Y-65774847D02*
X21802146Y-67074847D01*
%TO.N,Net-(D4-BK)*%
X61757881Y-41815000D02*
X61757881Y-40390000D01*
X64712881Y-44770000D02*
X61757881Y-41815000D01*
%TO.N,Net-(D4-GK)*%
X59762881Y-44800000D02*
X60487881Y-44075000D01*
X60487881Y-44075000D02*
X60487881Y-40390000D01*
%TO.N,Net-(D4-RK)*%
X54842881Y-44900000D02*
X57947881Y-41795000D01*
X57947881Y-41795000D02*
X57947881Y-40390000D01*
%TO.N,Net-(A1-D4)*%
X59762881Y-52420000D02*
X57252881Y-54930000D01*
X57252881Y-54930000D02*
X57252881Y-85162233D01*
X57252881Y-85162233D02*
X45842881Y-96572233D01*
%TO.N,Net-(D3-K)*%
X41142881Y-40400000D02*
X41142881Y-47155000D01*
X41142881Y-47155000D02*
X43237881Y-49250000D01*
%TO.N,Net-(A1-D2)*%
X44580000Y-48751376D02*
X44580000Y-49745490D01*
X44720000Y-48611376D02*
X44580000Y-48751376D01*
X43877057Y-50448433D02*
X42090000Y-52235490D01*
X42470000Y-98240000D02*
X49480000Y-98240000D01*
X42090000Y-52235490D02*
X42090000Y-97860000D01*
X49480000Y-98240000D02*
X49482881Y-98237119D01*
X50922881Y-97847119D02*
X50922881Y-96600000D01*
X48762881Y-40400000D02*
X44720000Y-44442881D01*
X49482881Y-98237119D02*
X50532881Y-98237119D01*
X44440000Y-49885490D02*
X44440000Y-50448433D01*
X44720000Y-44442881D02*
X44720000Y-48611376D01*
X50532881Y-98237119D02*
X50922881Y-97847119D01*
X44580000Y-49745490D02*
X44440000Y-49885490D01*
X44440000Y-50448433D02*
X43877057Y-50448433D01*
X42090000Y-97860000D02*
X42470000Y-98240000D01*
%TO.N,Net-(D1-K)*%
X65172881Y-26686629D02*
X65172881Y-29090000D01*
X61123056Y-22636804D02*
X65172881Y-26686629D01*
%TO.N,Net-(A1-D0)*%
X65172881Y-36710000D02*
X66662881Y-38200000D01*
D24*
X56002881Y-96572233D02*
X56002881Y-96600000D01*
D23*
X66662881Y-38200000D02*
X66662881Y-85912233D01*
X66662881Y-85912233D02*
X56002881Y-96572233D01*
%TO.N,Net-(A1-D5)*%
X54842881Y-85060000D02*
X43302881Y-96600000D01*
X54842881Y-52520000D02*
X54842881Y-85060000D01*
%TO.N,Net-(A1-D3)*%
X63272881Y-81710000D02*
X48382881Y-96600000D01*
X63272881Y-53830000D02*
X63272881Y-81710000D01*
X64712881Y-52390000D02*
X63272881Y-53830000D01*
%TD*%
%TA.AperFunction,Conductor*%
%TO.N,GND*%
G36*
X65999356Y-78715142D02*
G01*
X66048051Y-78765247D01*
X66062381Y-78823114D01*
X66062381Y-85612135D01*
X66042696Y-85679174D01*
X66026062Y-85699816D01*
X56964223Y-94761654D01*
X56902900Y-94795139D01*
X56833208Y-94790155D01*
X56803657Y-94774291D01*
X56684494Y-94687715D01*
X56684493Y-94687714D01*
X56684491Y-94687713D01*
X56615262Y-94652439D01*
X56502104Y-94594781D01*
X56307415Y-94531522D01*
X56117696Y-94501474D01*
X56105233Y-94499500D01*
X55900529Y-94499500D01*
X55888066Y-94501474D01*
X55698346Y-94531522D01*
X55503657Y-94594781D01*
X55321267Y-94687715D01*
X55155667Y-94808028D01*
X55010909Y-94952786D01*
X54890596Y-95118386D01*
X54843366Y-95211080D01*
X54795391Y-95261876D01*
X54727570Y-95278671D01*
X54661435Y-95256134D01*
X54622396Y-95211080D01*
X54614554Y-95195689D01*
X54575168Y-95118390D01*
X54530048Y-95056287D01*
X54454852Y-94952786D01*
X54310094Y-94808028D01*
X54144494Y-94687715D01*
X54144493Y-94687714D01*
X54144491Y-94687713D01*
X54075262Y-94652439D01*
X53962104Y-94594781D01*
X53767415Y-94531522D01*
X53577696Y-94501474D01*
X53565233Y-94499500D01*
X53360529Y-94499500D01*
X53348066Y-94501474D01*
X53158346Y-94531522D01*
X52963657Y-94594781D01*
X52781267Y-94687715D01*
X52615667Y-94808028D01*
X52470909Y-94952786D01*
X52350596Y-95118386D01*
X52303366Y-95211080D01*
X52255391Y-95261876D01*
X52187570Y-95278671D01*
X52121435Y-95256134D01*
X52082396Y-95211080D01*
X52074554Y-95195689D01*
X52035168Y-95118390D01*
X51990048Y-95056287D01*
X51914852Y-94952786D01*
X51770094Y-94808028D01*
X51604494Y-94687715D01*
X51604493Y-94687714D01*
X51604491Y-94687713D01*
X51451769Y-94609897D01*
X51400973Y-94561922D01*
X51384178Y-94494101D01*
X51406716Y-94427966D01*
X51420377Y-94411737D01*
X63641594Y-82190521D01*
X63641597Y-82190520D01*
X63753401Y-82078716D01*
X63803520Y-81991904D01*
X63832458Y-81941785D01*
X63873382Y-81789057D01*
X63873382Y-81630943D01*
X63873382Y-81623348D01*
X63873381Y-81623330D01*
X63873381Y-78932095D01*
X63893066Y-78865056D01*
X63945870Y-78819301D01*
X64015028Y-78809357D01*
X64070265Y-78831776D01*
X64095965Y-78850448D01*
X64124635Y-78865056D01*
X64309206Y-78959101D01*
X64309208Y-78959101D01*
X64309211Y-78959103D01*
X64536830Y-79033061D01*
X64658616Y-79052349D01*
X64773210Y-79070500D01*
X64773215Y-79070500D01*
X65012552Y-79070500D01*
X65117016Y-79053953D01*
X65248932Y-79033061D01*
X65476551Y-78959103D01*
X65689797Y-78850448D01*
X65832797Y-78746553D01*
X65865496Y-78722796D01*
X65931302Y-78699316D01*
X65999356Y-78715142D01*
G37*
%TD.AperFunction*%
%TA.AperFunction,Conductor*%
G36*
X52264326Y-77623865D02*
G01*
X52303364Y-77668917D01*
X52330302Y-77721785D01*
X52350596Y-77761614D01*
X52470909Y-77927213D01*
X52615667Y-78071971D01*
X52745526Y-78166317D01*
X52781271Y-78192287D01*
X52870093Y-78237544D01*
X52963657Y-78285218D01*
X52963659Y-78285218D01*
X52963662Y-78285220D01*
X53012816Y-78301191D01*
X53158346Y-78348477D01*
X53259438Y-78364488D01*
X53360529Y-78380500D01*
X53360530Y-78380500D01*
X53565232Y-78380500D01*
X53565233Y-78380500D01*
X53767415Y-78348477D01*
X53962100Y-78285220D01*
X53962105Y-78285217D01*
X53962109Y-78285216D01*
X54062086Y-78234275D01*
X54130755Y-78221378D01*
X54195495Y-78247654D01*
X54235753Y-78304760D01*
X54242381Y-78344759D01*
X54242381Y-84759901D01*
X54222696Y-84826940D01*
X54206062Y-84847582D01*
X44280305Y-94773338D01*
X44218982Y-94806823D01*
X44149290Y-94801839D01*
X44119739Y-94785975D01*
X43984494Y-94687715D01*
X43984493Y-94687714D01*
X43984491Y-94687713D01*
X43915262Y-94652439D01*
X43802104Y-94594781D01*
X43607415Y-94531522D01*
X43417696Y-94501474D01*
X43405233Y-94499500D01*
X43200529Y-94499500D01*
X43149433Y-94507593D01*
X42998345Y-94531523D01*
X42998342Y-94531523D01*
X42852818Y-94578808D01*
X42782977Y-94580803D01*
X42723144Y-94544723D01*
X42692316Y-94482022D01*
X42690500Y-94460877D01*
X42690500Y-78419122D01*
X42710185Y-78352083D01*
X42762989Y-78306328D01*
X42832147Y-78296384D01*
X42852807Y-78301188D01*
X42946722Y-78331703D01*
X42998346Y-78348477D01*
X43099438Y-78364488D01*
X43200529Y-78380500D01*
X43200530Y-78380500D01*
X43405232Y-78380500D01*
X43405233Y-78380500D01*
X43607415Y-78348477D01*
X43802100Y-78285220D01*
X43984491Y-78192287D01*
X44080782Y-78122328D01*
X44150094Y-78071971D01*
X44150096Y-78071968D01*
X44150100Y-78071966D01*
X44294847Y-77927219D01*
X44294849Y-77927215D01*
X44294852Y-77927213D01*
X44415165Y-77761614D01*
X44415167Y-77761611D01*
X44415168Y-77761610D01*
X44462397Y-77668917D01*
X44510370Y-77618123D01*
X44578191Y-77601328D01*
X44644326Y-77623865D01*
X44683364Y-77668917D01*
X44710302Y-77721785D01*
X44730596Y-77761614D01*
X44850909Y-77927213D01*
X44995667Y-78071971D01*
X45125526Y-78166317D01*
X45161271Y-78192287D01*
X45250093Y-78237544D01*
X45343657Y-78285218D01*
X45343659Y-78285218D01*
X45343662Y-78285220D01*
X45392816Y-78301191D01*
X45538346Y-78348477D01*
X45639438Y-78364488D01*
X45740529Y-78380500D01*
X45740530Y-78380500D01*
X45945232Y-78380500D01*
X45945233Y-78380500D01*
X46147415Y-78348477D01*
X46342100Y-78285220D01*
X46524491Y-78192287D01*
X46620782Y-78122328D01*
X46690094Y-78071971D01*
X46690096Y-78071968D01*
X46690100Y-78071966D01*
X46834847Y-77927219D01*
X46834849Y-77927215D01*
X46834852Y-77927213D01*
X46955165Y-77761614D01*
X46955167Y-77761611D01*
X46955168Y-77761610D01*
X47002397Y-77668917D01*
X47050370Y-77618123D01*
X47118191Y-77601328D01*
X47184326Y-77623865D01*
X47223364Y-77668917D01*
X47250302Y-77721785D01*
X47270596Y-77761614D01*
X47390909Y-77927213D01*
X47535667Y-78071971D01*
X47665526Y-78166317D01*
X47701271Y-78192287D01*
X47790093Y-78237544D01*
X47883657Y-78285218D01*
X47883659Y-78285218D01*
X47883662Y-78285220D01*
X47932816Y-78301191D01*
X48078346Y-78348477D01*
X48179438Y-78364488D01*
X48280529Y-78380500D01*
X48280530Y-78380500D01*
X48485232Y-78380500D01*
X48485233Y-78380500D01*
X48687415Y-78348477D01*
X48882100Y-78285220D01*
X49064491Y-78192287D01*
X49160782Y-78122328D01*
X49230094Y-78071971D01*
X49230096Y-78071968D01*
X49230100Y-78071966D01*
X49374847Y-77927219D01*
X49374849Y-77927215D01*
X49374852Y-77927213D01*
X49495165Y-77761614D01*
X49495167Y-77761611D01*
X49495168Y-77761610D01*
X49542397Y-77668917D01*
X49590370Y-77618123D01*
X49658191Y-77601328D01*
X49724326Y-77623865D01*
X49763364Y-77668917D01*
X49790302Y-77721785D01*
X49810596Y-77761614D01*
X49930909Y-77927213D01*
X50075667Y-78071971D01*
X50205526Y-78166317D01*
X50241271Y-78192287D01*
X50330093Y-78237544D01*
X50423657Y-78285218D01*
X50423659Y-78285218D01*
X50423662Y-78285220D01*
X50472816Y-78301191D01*
X50618346Y-78348477D01*
X50719438Y-78364488D01*
X50820529Y-78380500D01*
X50820530Y-78380500D01*
X51025232Y-78380500D01*
X51025233Y-78380500D01*
X51227415Y-78348477D01*
X51422100Y-78285220D01*
X51604491Y-78192287D01*
X51700782Y-78122328D01*
X51770094Y-78071971D01*
X51770096Y-78071968D01*
X51770100Y-78071966D01*
X51914847Y-77927219D01*
X51914849Y-77927215D01*
X51914852Y-77927213D01*
X52035165Y-77761614D01*
X52035167Y-77761611D01*
X52035168Y-77761610D01*
X52082397Y-77668917D01*
X52130370Y-77618123D01*
X52198191Y-77601328D01*
X52264326Y-77623865D01*
G37*
%TD.AperFunction*%
%TA.AperFunction,Conductor*%
G36*
X56619736Y-78323215D02*
G01*
X56650565Y-78385915D01*
X56652381Y-78407061D01*
X56652381Y-84862135D01*
X56632696Y-84929174D01*
X56616062Y-84949816D01*
X46804223Y-94761654D01*
X46742900Y-94795139D01*
X46673208Y-94790155D01*
X46643657Y-94774291D01*
X46524494Y-94687715D01*
X46524493Y-94687714D01*
X46524491Y-94687713D01*
X46455262Y-94652439D01*
X46371770Y-94609897D01*
X46320974Y-94561922D01*
X46304179Y-94494101D01*
X46326717Y-94427966D01*
X46340378Y-94411737D01*
X55323401Y-85428716D01*
X55402458Y-85291784D01*
X55443382Y-85139057D01*
X55443382Y-84980942D01*
X55443382Y-84973347D01*
X55443381Y-84973329D01*
X55443381Y-78436305D01*
X55463066Y-78369266D01*
X55515870Y-78323511D01*
X55585028Y-78313567D01*
X55605698Y-78318373D01*
X55622387Y-78323796D01*
X55698346Y-78348477D01*
X55799438Y-78364488D01*
X55900529Y-78380500D01*
X55900530Y-78380500D01*
X56105232Y-78380500D01*
X56105233Y-78380500D01*
X56307415Y-78348477D01*
X56490066Y-78289129D01*
X56559903Y-78287135D01*
X56619736Y-78323215D01*
G37*
%TD.AperFunction*%
%TA.AperFunction,Conductor*%
G36*
X66009823Y-53021199D02*
G01*
X66053277Y-53075913D01*
X66062381Y-53122550D01*
X66062381Y-76276885D01*
X66042696Y-76343924D01*
X65989892Y-76389679D01*
X65920734Y-76399623D01*
X65865496Y-76377203D01*
X65689800Y-76249554D01*
X65689799Y-76249553D01*
X65689797Y-76249552D01*
X65620364Y-76214174D01*
X65476555Y-76140898D01*
X65248932Y-76066939D01*
X65012552Y-76029500D01*
X65012547Y-76029500D01*
X64773215Y-76029500D01*
X64773210Y-76029500D01*
X64536829Y-76066939D01*
X64309206Y-76140898D01*
X64095962Y-76249553D01*
X64070265Y-76268223D01*
X64004458Y-76291702D01*
X63936404Y-76275876D01*
X63887710Y-76225769D01*
X63873381Y-76167904D01*
X63873381Y-54130097D01*
X63893066Y-54063058D01*
X63909700Y-54042416D01*
X64043059Y-53909057D01*
X64268040Y-53684075D01*
X64329361Y-53650592D01*
X64394035Y-53653826D01*
X64408347Y-53658477D01*
X64610529Y-53690500D01*
X64610530Y-53690500D01*
X64815232Y-53690500D01*
X64815233Y-53690500D01*
X65017415Y-53658477D01*
X65212100Y-53595220D01*
X65394491Y-53502287D01*
X65487471Y-53434732D01*
X65560094Y-53381971D01*
X65560096Y-53381968D01*
X65560100Y-53381966D01*
X65704847Y-53237219D01*
X65704849Y-53237215D01*
X65704852Y-53237213D01*
X65825167Y-53071612D01*
X65827895Y-53066258D01*
X65875867Y-53015461D01*
X65943688Y-52998664D01*
X66009823Y-53021199D01*
G37*
%TD.AperFunction*%
%TA.AperFunction,Conductor*%
G36*
X60763690Y-18309328D02*
G01*
X60768803Y-18309539D01*
X61675411Y-18365830D01*
X61680504Y-18366253D01*
X62584003Y-18459960D01*
X62589040Y-18460588D01*
X63487926Y-18591556D01*
X63492900Y-18592386D01*
X64385663Y-18760400D01*
X64390599Y-18761435D01*
X65275589Y-18966184D01*
X65280539Y-18967437D01*
X66156315Y-19208584D01*
X66161211Y-19210042D01*
X67024008Y-19486448D01*
X67026231Y-19487161D01*
X67031078Y-19488825D01*
X67883940Y-19801465D01*
X67888647Y-19803302D01*
X68727900Y-20150935D01*
X68732537Y-20152969D01*
X69555584Y-20534469D01*
X69556663Y-20534969D01*
X69561268Y-20537220D01*
X70368886Y-20952941D01*
X70373393Y-20955380D01*
X71163146Y-21404122D01*
X71167549Y-21406746D01*
X71936851Y-21886973D01*
X71938061Y-21887728D01*
X71942352Y-21890532D01*
X72692366Y-22402970D01*
X72696537Y-22405948D01*
X73424691Y-22948910D01*
X73428731Y-22952054D01*
X73633879Y-23118650D01*
X74133848Y-23524662D01*
X74137752Y-23527968D01*
X74338273Y-23705047D01*
X74818621Y-24129241D01*
X74822392Y-24132713D01*
X75477806Y-24761584D01*
X75481430Y-24765208D01*
X76110307Y-25420639D01*
X76113778Y-25424410D01*
X76715016Y-26105250D01*
X76718321Y-26109152D01*
X76842722Y-26262343D01*
X77290938Y-26814292D01*
X77294086Y-26818337D01*
X77837054Y-27546512D01*
X77840032Y-27550683D01*
X78352452Y-28300685D01*
X78355255Y-28304976D01*
X78836231Y-29075492D01*
X78838854Y-29079893D01*
X78984991Y-29337088D01*
X79287591Y-29869652D01*
X79290030Y-29874159D01*
X79705744Y-30681781D01*
X79707995Y-30686386D01*
X80089974Y-31510487D01*
X80092033Y-31515181D01*
X80439634Y-32354373D01*
X80441497Y-32359148D01*
X80754110Y-33211959D01*
X80755775Y-33216806D01*
X81032900Y-34081869D01*
X81034362Y-34086782D01*
X81275486Y-34962509D01*
X81276744Y-34967477D01*
X81481475Y-35852425D01*
X81482527Y-35857441D01*
X81650514Y-36750101D01*
X81651358Y-36755157D01*
X81782314Y-37654003D01*
X81782948Y-37659089D01*
X81876647Y-38562580D01*
X81877070Y-38567688D01*
X81933350Y-39474261D01*
X81933562Y-39479382D01*
X81950734Y-40310229D01*
X81949700Y-40328967D01*
X81949519Y-40330335D01*
X81949479Y-50749660D01*
X81950539Y-50757716D01*
X81949859Y-50757805D01*
X81952343Y-50776670D01*
X81952343Y-51018229D01*
X81990291Y-51645615D01*
X82066051Y-52269579D01*
X82066052Y-52269584D01*
X82179345Y-52887816D01*
X82329760Y-53498087D01*
X82408553Y-53750945D01*
X82516752Y-54098172D01*
X82516755Y-54098180D01*
X82516756Y-54098183D01*
X82739626Y-54685851D01*
X82739629Y-54685858D01*
X82739633Y-54685868D01*
X82997592Y-55259035D01*
X82997593Y-55259036D01*
X83289688Y-55815582D01*
X83289697Y-55815599D01*
X83591880Y-56315473D01*
X83614852Y-56353474D01*
X83971901Y-56870754D01*
X84359532Y-57365532D01*
X84388800Y-57398569D01*
X84726634Y-57779909D01*
X84776329Y-57836003D01*
X85220772Y-58280449D01*
X85691239Y-58697250D01*
X85832536Y-58807950D01*
X86186013Y-59084885D01*
X86627846Y-59389862D01*
X86703291Y-59441938D01*
X87015798Y-59630857D01*
X87241187Y-59767111D01*
X87241195Y-59767115D01*
X87797723Y-60059207D01*
X88370892Y-60317171D01*
X88419158Y-60335476D01*
X88958584Y-60540056D01*
X89558663Y-60727051D01*
X90168939Y-60877472D01*
X90787183Y-60990772D01*
X91411139Y-61066537D01*
X92038532Y-61104490D01*
X92275408Y-61104490D01*
X92275412Y-61104491D01*
X92504972Y-61104491D01*
X95259555Y-61104501D01*
X95270849Y-61104501D01*
X95276174Y-61104618D01*
X95668994Y-61121770D01*
X95679736Y-61122710D01*
X96066846Y-61173676D01*
X96077473Y-61175549D01*
X96458675Y-61260061D01*
X96469101Y-61262854D01*
X96841476Y-61380266D01*
X96851626Y-61383960D01*
X97140770Y-61503728D01*
X97212340Y-61533374D01*
X97222144Y-61537946D01*
X97568462Y-61718228D01*
X97577809Y-61723625D01*
X97810970Y-61872166D01*
X97907104Y-61933411D01*
X97915964Y-61939615D01*
X98225705Y-62177288D01*
X98233992Y-62184242D01*
X98521846Y-62448013D01*
X98529496Y-62455662D01*
X98793267Y-62743519D01*
X98800220Y-62751806D01*
X99037890Y-63061544D01*
X99044095Y-63070405D01*
X99253876Y-63399696D01*
X99259284Y-63409064D01*
X99439558Y-63755368D01*
X99444130Y-63765172D01*
X99593541Y-64125882D01*
X99597241Y-64136048D01*
X99714643Y-64508401D01*
X99717443Y-64518850D01*
X99801948Y-64900028D01*
X99803826Y-64910681D01*
X99820058Y-65033972D01*
X99850121Y-65262329D01*
X99854786Y-65297759D01*
X99855729Y-65308535D01*
X99872877Y-65701299D01*
X99872995Y-65706708D01*
X99872995Y-107343429D01*
X99872877Y-107348838D01*
X99855729Y-107741602D01*
X99854786Y-107752379D01*
X99803825Y-108139459D01*
X99801947Y-108150111D01*
X99717443Y-108531287D01*
X99714643Y-108541737D01*
X99597238Y-108914097D01*
X99593538Y-108924262D01*
X99444128Y-109284970D01*
X99439556Y-109294774D01*
X99259281Y-109641078D01*
X99253873Y-109650446D01*
X99044091Y-109979738D01*
X99037886Y-109988599D01*
X98800210Y-110298345D01*
X98793256Y-110306632D01*
X98529490Y-110594482D01*
X98521841Y-110602131D01*
X98233991Y-110865897D01*
X98225704Y-110872851D01*
X97915958Y-111110527D01*
X97907097Y-111116732D01*
X97577805Y-111326514D01*
X97568437Y-111331922D01*
X97222133Y-111512197D01*
X97212329Y-111516769D01*
X96851621Y-111666179D01*
X96841456Y-111669879D01*
X96469096Y-111787284D01*
X96458646Y-111790084D01*
X96077470Y-111874588D01*
X96066818Y-111876466D01*
X95679738Y-111927427D01*
X95668961Y-111928370D01*
X95276198Y-111945518D01*
X95270789Y-111945636D01*
X24434072Y-111945636D01*
X24428662Y-111945518D01*
X24035898Y-111928366D01*
X24025122Y-111927423D01*
X23638043Y-111876460D01*
X23627390Y-111874582D01*
X23246212Y-111790074D01*
X23235763Y-111787274D01*
X22863407Y-111669869D01*
X22853242Y-111666169D01*
X22492535Y-111516757D01*
X22482731Y-111512185D01*
X22136419Y-111331905D01*
X22127051Y-111326496D01*
X21797783Y-111116728D01*
X21788921Y-111110524D01*
X21479164Y-110872838D01*
X21470878Y-110865884D01*
X21183027Y-110602117D01*
X21175378Y-110594468D01*
X20911611Y-110306617D01*
X20904657Y-110298331D01*
X20666971Y-109988574D01*
X20660767Y-109979712D01*
X20636339Y-109941368D01*
X20450999Y-109650445D01*
X20445590Y-109641076D01*
X20418603Y-109589234D01*
X26147381Y-109589234D01*
X26147381Y-109766391D01*
X26175095Y-109941369D01*
X26229837Y-110109852D01*
X26229838Y-110109855D01*
X26310267Y-110267703D01*
X26414398Y-110411027D01*
X26539667Y-110536296D01*
X26682991Y-110640427D01*
X26760410Y-110679874D01*
X26840838Y-110720855D01*
X26840841Y-110720856D01*
X26925082Y-110748227D01*
X27009326Y-110775599D01*
X27184302Y-110803313D01*
X27184303Y-110803313D01*
X27361459Y-110803313D01*
X27361460Y-110803313D01*
X27536436Y-110775599D01*
X27704923Y-110720855D01*
X27862771Y-110640427D01*
X28006095Y-110536296D01*
X28131364Y-110411027D01*
X28235495Y-110267703D01*
X28315923Y-110109855D01*
X28370667Y-109941368D01*
X28398381Y-109766392D01*
X28398381Y-109589234D01*
X91347381Y-109589234D01*
X91347381Y-109766391D01*
X91375095Y-109941369D01*
X91429837Y-110109852D01*
X91429838Y-110109855D01*
X91510267Y-110267703D01*
X91614398Y-110411027D01*
X91739667Y-110536296D01*
X91882991Y-110640427D01*
X91960410Y-110679874D01*
X92040838Y-110720855D01*
X92040841Y-110720856D01*
X92125082Y-110748227D01*
X92209326Y-110775599D01*
X92384302Y-110803313D01*
X92384303Y-110803313D01*
X92561459Y-110803313D01*
X92561460Y-110803313D01*
X92736436Y-110775599D01*
X92904923Y-110720855D01*
X93062771Y-110640427D01*
X93206095Y-110536296D01*
X93331364Y-110411027D01*
X93435495Y-110267703D01*
X93515923Y-110109855D01*
X93570667Y-109941368D01*
X93598381Y-109766392D01*
X93598381Y-109589234D01*
X93570667Y-109414258D01*
X93537097Y-109310939D01*
X93515924Y-109245773D01*
X93515923Y-109245770D01*
X93435494Y-109087922D01*
X93331364Y-108944599D01*
X93206095Y-108819330D01*
X93062771Y-108715199D01*
X92990379Y-108678313D01*
X92904923Y-108634770D01*
X92904920Y-108634769D01*
X92736437Y-108580027D01*
X92648948Y-108566170D01*
X92561460Y-108552313D01*
X92384302Y-108552313D01*
X92325976Y-108561551D01*
X92209324Y-108580027D01*
X92040841Y-108634769D01*
X92040838Y-108634770D01*
X91882990Y-108715199D01*
X91801219Y-108774609D01*
X91739667Y-108819330D01*
X91739665Y-108819332D01*
X91739664Y-108819332D01*
X91614400Y-108944596D01*
X91614400Y-108944597D01*
X91614398Y-108944599D01*
X91569677Y-109006151D01*
X91510267Y-109087922D01*
X91429838Y-109245770D01*
X91429837Y-109245773D01*
X91375095Y-109414256D01*
X91347381Y-109589234D01*
X28398381Y-109589234D01*
X28370667Y-109414258D01*
X28337097Y-109310939D01*
X28315924Y-109245773D01*
X28315923Y-109245770D01*
X28235494Y-109087922D01*
X28131364Y-108944599D01*
X28006095Y-108819330D01*
X27862771Y-108715199D01*
X27790379Y-108678313D01*
X27704923Y-108634770D01*
X27704920Y-108634769D01*
X27536437Y-108580027D01*
X27448948Y-108566170D01*
X27361460Y-108552313D01*
X27184302Y-108552313D01*
X27125976Y-108561551D01*
X27009324Y-108580027D01*
X26840841Y-108634769D01*
X26840838Y-108634770D01*
X26682990Y-108715199D01*
X26601219Y-108774609D01*
X26539667Y-108819330D01*
X26539665Y-108819332D01*
X26539664Y-108819332D01*
X26414400Y-108944596D01*
X26414400Y-108944597D01*
X26414398Y-108944599D01*
X26369677Y-109006151D01*
X26310267Y-109087922D01*
X26229838Y-109245770D01*
X26229837Y-109245773D01*
X26175095Y-109414256D01*
X26147381Y-109589234D01*
X20418603Y-109589234D01*
X20265310Y-109294764D01*
X20260738Y-109284960D01*
X20228261Y-109206555D01*
X20111323Y-108924246D01*
X20107626Y-108914088D01*
X20099530Y-108888412D01*
X19990219Y-108541727D01*
X19987421Y-108531283D01*
X19971874Y-108461156D01*
X19902910Y-108150092D01*
X19901037Y-108139465D01*
X19850070Y-107752355D01*
X19849130Y-107741616D01*
X19831978Y-107348834D01*
X19831860Y-107343424D01*
X19831860Y-107059715D01*
X21622381Y-107059715D01*
X21622381Y-107295910D01*
X21659327Y-107529181D01*
X21732314Y-107753809D01*
X21839538Y-107964246D01*
X21978364Y-108155323D01*
X22145371Y-108322330D01*
X22336448Y-108461156D01*
X22435872Y-108511815D01*
X22546884Y-108568379D01*
X22546886Y-108568379D01*
X22546889Y-108568381D01*
X22582732Y-108580027D01*
X22771512Y-108641366D01*
X23004784Y-108678313D01*
X23004789Y-108678313D01*
X23240978Y-108678313D01*
X23474249Y-108641366D01*
X23494552Y-108634769D01*
X23698873Y-108568381D01*
X23909314Y-108461156D01*
X24100391Y-108322330D01*
X24267398Y-108155323D01*
X24406224Y-107964246D01*
X24513449Y-107753805D01*
X24586434Y-107529181D01*
X24623381Y-107295910D01*
X24623381Y-107059715D01*
X24586434Y-106826444D01*
X24513447Y-106601816D01*
X24406223Y-106391379D01*
X24267398Y-106200303D01*
X24100391Y-106033296D01*
X23909314Y-105894470D01*
X23698877Y-105787246D01*
X23474249Y-105714259D01*
X23240978Y-105677313D01*
X23240973Y-105677313D01*
X23004789Y-105677313D01*
X23004784Y-105677313D01*
X22771512Y-105714259D01*
X22546884Y-105787246D01*
X22336447Y-105894470D01*
X22227431Y-105973675D01*
X22145371Y-106033296D01*
X22145369Y-106033298D01*
X22145368Y-106033298D01*
X21978366Y-106200300D01*
X21978366Y-106200301D01*
X21978364Y-106200303D01*
X21918743Y-106282363D01*
X21839538Y-106391379D01*
X21732314Y-106601816D01*
X21659327Y-106826444D01*
X21622381Y-107059715D01*
X19831860Y-107059715D01*
X19831860Y-96929977D01*
X19851545Y-96862938D01*
X19895198Y-96821828D01*
X20089237Y-96712991D01*
X20286582Y-96559021D01*
X20458453Y-96377053D01*
X20600918Y-96171248D01*
X20602443Y-96168125D01*
X20678370Y-96012582D01*
X20710719Y-95946313D01*
X20785346Y-95707393D01*
X20823091Y-95459952D01*
X20823091Y-95209648D01*
X20821634Y-95200099D01*
X20794192Y-95020197D01*
X20785346Y-94962207D01*
X20710719Y-94723287D01*
X20710717Y-94723282D01*
X20600922Y-94498359D01*
X20600910Y-94498340D01*
X20529909Y-94395773D01*
X20458453Y-94292547D01*
X20286582Y-94110579D01*
X20089237Y-93956609D01*
X19895198Y-93847771D01*
X19846358Y-93797806D01*
X19831860Y-93739622D01*
X19831860Y-79149977D01*
X19851545Y-79082938D01*
X19895198Y-79041828D01*
X20089237Y-78932991D01*
X20286582Y-78779021D01*
X20458453Y-78597053D01*
X20600918Y-78391248D01*
X20602443Y-78388125D01*
X20710717Y-78166317D01*
X20710716Y-78166317D01*
X20710719Y-78166313D01*
X20785346Y-77927393D01*
X20823091Y-77679952D01*
X20823091Y-77429648D01*
X20785346Y-77182207D01*
X20710719Y-76943287D01*
X20694067Y-76909174D01*
X20600922Y-76718359D01*
X20600910Y-76718340D01*
X20518991Y-76600000D01*
X20458453Y-76512547D01*
X20286582Y-76330579D01*
X20089237Y-76176609D01*
X19903276Y-76072302D01*
X19895198Y-76067771D01*
X19846358Y-76017806D01*
X19831860Y-75959622D01*
X19831860Y-72638319D01*
X21201644Y-72638319D01*
X21242569Y-72791051D01*
X21258063Y-72817885D01*
X21258064Y-72817890D01*
X21258066Y-72817890D01*
X21321625Y-72927979D01*
X21321627Y-72927982D01*
X21440495Y-73046850D01*
X21440501Y-73046855D01*
X22961465Y-74567819D01*
X22994950Y-74629142D01*
X22989966Y-74698834D01*
X22948094Y-74754767D01*
X22882630Y-74779184D01*
X22873784Y-74779500D01*
X22135010Y-74779500D01*
X22135004Y-74779501D01*
X22075397Y-74785908D01*
X21940552Y-74836202D01*
X21940545Y-74836206D01*
X21825336Y-74922452D01*
X21825333Y-74922455D01*
X21739087Y-75037664D01*
X21739083Y-75037671D01*
X21688789Y-75172517D01*
X21682382Y-75232116D01*
X21682381Y-75232135D01*
X21682381Y-77927870D01*
X21682382Y-77927876D01*
X21688789Y-77987483D01*
X21739083Y-78122328D01*
X21739087Y-78122335D01*
X21825333Y-78237544D01*
X21825336Y-78237547D01*
X21940545Y-78323793D01*
X21940552Y-78323797D01*
X22075398Y-78374091D01*
X22075397Y-78374091D01*
X22082325Y-78374835D01*
X22135008Y-78380500D01*
X22733784Y-78380499D01*
X22800822Y-78400183D01*
X22846577Y-78452987D01*
X22856521Y-78522146D01*
X22827496Y-78585702D01*
X22821465Y-78592180D01*
X22754167Y-78659478D01*
X22642362Y-78771282D01*
X22642360Y-78771285D01*
X22637894Y-78779021D01*
X22596656Y-78850448D01*
X22563304Y-78908215D01*
X22522380Y-79060943D01*
X22522380Y-79060945D01*
X22522380Y-79229046D01*
X22522381Y-79229059D01*
X22522381Y-83065500D01*
X22502696Y-83132539D01*
X22449892Y-83178294D01*
X22398381Y-83189500D01*
X22075011Y-83189500D01*
X22075004Y-83189501D01*
X22015397Y-83195908D01*
X21880552Y-83246202D01*
X21880545Y-83246206D01*
X21765336Y-83332452D01*
X21765333Y-83332455D01*
X21679087Y-83447664D01*
X21679083Y-83447671D01*
X21628789Y-83582517D01*
X21622382Y-83642116D01*
X21622382Y-83642123D01*
X21622381Y-83642135D01*
X21622381Y-85289900D01*
X21602696Y-85356939D01*
X21586063Y-85377581D01*
X21454167Y-85509478D01*
X21454165Y-85509480D01*
X21454164Y-85509480D01*
X21454163Y-85509481D01*
X21342360Y-85621284D01*
X21326446Y-85648848D01*
X21319720Y-85660500D01*
X21263304Y-85758215D01*
X21222380Y-85910943D01*
X21222380Y-85910945D01*
X21222380Y-86079046D01*
X21222381Y-86079059D01*
X21222381Y-102291143D01*
X21222380Y-102291161D01*
X21222380Y-102456867D01*
X21222379Y-102456867D01*
X21222380Y-102456870D01*
X21263304Y-102609598D01*
X21275046Y-102629936D01*
X21292239Y-102659713D01*
X21292240Y-102659717D01*
X21292241Y-102659717D01*
X21342360Y-102746527D01*
X21342362Y-102746530D01*
X21461230Y-102865398D01*
X21461236Y-102865403D01*
X21586062Y-102990229D01*
X21619547Y-103051552D01*
X21622381Y-103077910D01*
X21622381Y-104725683D01*
X21622382Y-104725689D01*
X21628789Y-104785296D01*
X21679083Y-104920141D01*
X21679087Y-104920148D01*
X21765333Y-105035357D01*
X21765336Y-105035360D01*
X21880545Y-105121606D01*
X21880552Y-105121610D01*
X22015398Y-105171904D01*
X22015397Y-105171904D01*
X22022325Y-105172648D01*
X22075008Y-105178313D01*
X24170753Y-105178312D01*
X24230364Y-105171904D01*
X24365212Y-105121609D01*
X24480427Y-105035359D01*
X24566677Y-104920144D01*
X24616972Y-104785296D01*
X24623381Y-104725686D01*
X24623380Y-103559760D01*
X95122881Y-103559760D01*
X95122881Y-103795865D01*
X95159815Y-104029060D01*
X95232778Y-104253615D01*
X95339968Y-104463987D01*
X95400219Y-104546917D01*
X95400221Y-104546918D01*
X96099093Y-103848046D01*
X96110363Y-103890105D01*
X96182771Y-104015521D01*
X96285173Y-104117923D01*
X96410589Y-104190331D01*
X96452646Y-104201600D01*
X95753774Y-104900471D01*
X95836709Y-104960727D01*
X96047078Y-105067915D01*
X96271633Y-105140878D01*
X96271632Y-105140878D01*
X96504829Y-105177813D01*
X96740933Y-105177813D01*
X96974128Y-105140878D01*
X97198683Y-105067915D01*
X97409044Y-104960731D01*
X97409050Y-104960727D01*
X97491985Y-104900471D01*
X97491986Y-104900471D01*
X96793114Y-104201600D01*
X96835173Y-104190331D01*
X96960589Y-104117923D01*
X97062991Y-104015521D01*
X97135399Y-103890105D01*
X97146668Y-103848047D01*
X97845539Y-104546918D01*
X97845539Y-104546917D01*
X97905795Y-104463982D01*
X97905799Y-104463976D01*
X98012983Y-104253615D01*
X98085946Y-104029060D01*
X98122881Y-103795865D01*
X98122881Y-103559760D01*
X98085946Y-103326565D01*
X98012983Y-103102010D01*
X97905795Y-102891641D01*
X97845539Y-102808707D01*
X97845539Y-102808706D01*
X97146668Y-103507578D01*
X97135399Y-103465521D01*
X97062991Y-103340105D01*
X96960589Y-103237703D01*
X96835173Y-103165295D01*
X96793115Y-103154025D01*
X97491986Y-102455153D01*
X97491985Y-102455151D01*
X97409055Y-102394900D01*
X97198683Y-102287710D01*
X96974128Y-102214747D01*
X96974129Y-102214747D01*
X96740933Y-102177813D01*
X96504829Y-102177813D01*
X96271633Y-102214747D01*
X96047078Y-102287710D01*
X95836711Y-102394897D01*
X95753775Y-102455153D01*
X96452647Y-103154025D01*
X96410589Y-103165295D01*
X96285173Y-103237703D01*
X96182771Y-103340105D01*
X96110363Y-103465521D01*
X96099093Y-103507579D01*
X95400221Y-102808707D01*
X95339965Y-102891643D01*
X95232778Y-103102010D01*
X95159815Y-103326565D01*
X95122881Y-103559760D01*
X24623380Y-103559760D01*
X24623380Y-102629941D01*
X24616972Y-102570330D01*
X24616971Y-102570327D01*
X24607803Y-102545744D01*
X24566678Y-102435484D01*
X24566674Y-102435477D01*
X24480428Y-102320268D01*
X24480425Y-102320265D01*
X24365216Y-102234019D01*
X24365209Y-102234015D01*
X24230363Y-102183721D01*
X24230364Y-102183721D01*
X24170764Y-102177314D01*
X24170762Y-102177313D01*
X24170754Y-102177313D01*
X24170746Y-102177313D01*
X22547381Y-102177313D01*
X22480342Y-102157628D01*
X22434587Y-102104824D01*
X22423381Y-102053313D01*
X22423381Y-101089234D01*
X27347381Y-101089234D01*
X27347381Y-101266391D01*
X27375095Y-101441369D01*
X27429837Y-101609852D01*
X27429838Y-101609855D01*
X27510267Y-101767703D01*
X27614398Y-101911027D01*
X27739667Y-102036296D01*
X27882991Y-102140427D01*
X27955385Y-102177314D01*
X28040838Y-102220855D01*
X28040841Y-102220856D01*
X28081354Y-102234019D01*
X28209326Y-102275599D01*
X28384302Y-102303313D01*
X28384303Y-102303313D01*
X28561459Y-102303313D01*
X28561460Y-102303313D01*
X28736436Y-102275599D01*
X28904923Y-102220855D01*
X29062771Y-102140427D01*
X29206095Y-102036296D01*
X29331364Y-101911027D01*
X29435495Y-101767703D01*
X29515923Y-101609855D01*
X29570667Y-101441368D01*
X29598381Y-101266392D01*
X29598381Y-101089234D01*
X90147381Y-101089234D01*
X90147381Y-101266391D01*
X90175095Y-101441369D01*
X90229837Y-101609852D01*
X90229838Y-101609855D01*
X90310267Y-101767703D01*
X90414398Y-101911027D01*
X90539667Y-102036296D01*
X90682991Y-102140427D01*
X90755385Y-102177314D01*
X90840838Y-102220855D01*
X90840841Y-102220856D01*
X90881354Y-102234019D01*
X91009326Y-102275599D01*
X91184302Y-102303313D01*
X91184303Y-102303313D01*
X91361459Y-102303313D01*
X91361460Y-102303313D01*
X91536436Y-102275599D01*
X91704923Y-102220855D01*
X91862771Y-102140427D01*
X92006095Y-102036296D01*
X92131364Y-101911027D01*
X92235495Y-101767703D01*
X92315923Y-101609855D01*
X92370667Y-101441368D01*
X92398381Y-101266392D01*
X92398381Y-101089234D01*
X92370667Y-100914258D01*
X92315923Y-100745771D01*
X92315923Y-100745770D01*
X92235494Y-100587922D01*
X92131364Y-100444599D01*
X92006095Y-100319330D01*
X91862771Y-100215199D01*
X91704923Y-100134770D01*
X91704920Y-100134769D01*
X91536437Y-100080027D01*
X91448948Y-100066170D01*
X91361460Y-100052313D01*
X91184302Y-100052313D01*
X91125976Y-100061551D01*
X91009324Y-100080027D01*
X90840841Y-100134769D01*
X90840838Y-100134770D01*
X90682990Y-100215199D01*
X90601219Y-100274609D01*
X90539667Y-100319330D01*
X90539665Y-100319332D01*
X90539664Y-100319332D01*
X90414400Y-100444596D01*
X90414400Y-100444597D01*
X90414398Y-100444599D01*
X90369677Y-100506151D01*
X90310267Y-100587922D01*
X90229838Y-100745770D01*
X90229837Y-100745773D01*
X90175095Y-100914256D01*
X90147381Y-101089234D01*
X29598381Y-101089234D01*
X29570667Y-100914258D01*
X29515923Y-100745771D01*
X29515923Y-100745770D01*
X29435494Y-100587922D01*
X29331364Y-100444599D01*
X29206095Y-100319330D01*
X29062771Y-100215199D01*
X28904923Y-100134770D01*
X28904920Y-100134769D01*
X28736437Y-100080027D01*
X28648948Y-100066170D01*
X28561460Y-100052313D01*
X28384302Y-100052313D01*
X28325976Y-100061551D01*
X28209324Y-100080027D01*
X28040841Y-100134769D01*
X28040838Y-100134770D01*
X27882990Y-100215199D01*
X27801219Y-100274609D01*
X27739667Y-100319330D01*
X27739665Y-100319332D01*
X27739664Y-100319332D01*
X27614400Y-100444596D01*
X27614400Y-100444597D01*
X27614398Y-100444599D01*
X27569677Y-100506151D01*
X27510267Y-100587922D01*
X27429838Y-100745770D01*
X27429837Y-100745773D01*
X27375095Y-100914256D01*
X27347381Y-101089234D01*
X22423381Y-101089234D01*
X22423381Y-95756881D01*
X24892107Y-95756881D01*
X24892107Y-96012582D01*
X24909188Y-96142315D01*
X24925481Y-96266072D01*
X24985422Y-96489774D01*
X24991657Y-96513044D01*
X24991660Y-96513054D01*
X25089501Y-96749263D01*
X25089506Y-96749274D01*
X25217341Y-96970689D01*
X25217352Y-96970705D01*
X25372995Y-97173543D01*
X25373001Y-97173550D01*
X25553788Y-97354337D01*
X25553795Y-97354343D01*
X25677682Y-97449405D01*
X25756642Y-97509993D01*
X25756649Y-97509997D01*
X25978064Y-97637832D01*
X25978069Y-97637834D01*
X25978072Y-97637836D01*
X26008646Y-97650500D01*
X26207589Y-97732905D01*
X26214294Y-97735682D01*
X26461267Y-97801858D01*
X26714764Y-97835232D01*
X26714771Y-97835232D01*
X26970443Y-97835232D01*
X26970450Y-97835232D01*
X27223947Y-97801858D01*
X27470920Y-97735682D01*
X27707142Y-97637836D01*
X27928572Y-97509993D01*
X28131420Y-97354342D01*
X28312217Y-97173545D01*
X28467868Y-96970697D01*
X28595711Y-96749267D01*
X28693557Y-96513045D01*
X28759733Y-96266072D01*
X28793107Y-96012575D01*
X28793107Y-95756889D01*
X28759733Y-95503392D01*
X28693557Y-95256419D01*
X28674183Y-95209647D01*
X28636382Y-95118386D01*
X28595711Y-95020197D01*
X28595709Y-95020194D01*
X28595707Y-95020189D01*
X28467872Y-94798774D01*
X28467868Y-94798767D01*
X28382653Y-94687713D01*
X28312218Y-94595920D01*
X28312212Y-94595913D01*
X28131425Y-94415126D01*
X28131418Y-94415120D01*
X27928580Y-94259477D01*
X27928578Y-94259475D01*
X27928572Y-94259471D01*
X27928567Y-94259468D01*
X27928564Y-94259466D01*
X27707149Y-94131631D01*
X27707138Y-94131626D01*
X27470929Y-94033785D01*
X27470922Y-94033783D01*
X27470920Y-94033782D01*
X27223947Y-93967606D01*
X27167614Y-93960189D01*
X26970457Y-93934232D01*
X26970450Y-93934232D01*
X26714764Y-93934232D01*
X26714756Y-93934232D01*
X26489433Y-93963897D01*
X26461267Y-93967606D01*
X26231021Y-94029300D01*
X26214294Y-94033782D01*
X26214284Y-94033785D01*
X25978075Y-94131626D01*
X25978064Y-94131631D01*
X25756649Y-94259466D01*
X25756633Y-94259477D01*
X25553795Y-94415120D01*
X25553788Y-94415126D01*
X25373001Y-94595913D01*
X25372995Y-94595920D01*
X25217352Y-94798758D01*
X25217341Y-94798774D01*
X25089506Y-95020189D01*
X25089501Y-95020200D01*
X24991660Y-95256409D01*
X24991657Y-95256419D01*
X24926634Y-95499091D01*
X24925481Y-95503393D01*
X24892107Y-95756881D01*
X22423381Y-95756881D01*
X22423381Y-90601421D01*
X26147381Y-90601421D01*
X26147381Y-90778578D01*
X26175095Y-90953556D01*
X26229837Y-91122039D01*
X26229838Y-91122042D01*
X26310267Y-91279890D01*
X26414398Y-91423214D01*
X26539667Y-91548483D01*
X26682991Y-91652614D01*
X26760410Y-91692061D01*
X26840838Y-91733042D01*
X26840841Y-91733043D01*
X26925082Y-91760414D01*
X27009326Y-91787786D01*
X27184302Y-91815500D01*
X27184303Y-91815500D01*
X27361459Y-91815500D01*
X27361460Y-91815500D01*
X27536436Y-91787786D01*
X27704923Y-91733042D01*
X27862771Y-91652614D01*
X28006095Y-91548483D01*
X28131364Y-91423214D01*
X28235495Y-91279890D01*
X28315923Y-91122042D01*
X28370667Y-90953555D01*
X28398381Y-90778579D01*
X28398381Y-90601421D01*
X28370667Y-90426445D01*
X28315923Y-90257958D01*
X28315923Y-90257957D01*
X28235494Y-90100109D01*
X28131364Y-89956786D01*
X28006095Y-89831517D01*
X27862771Y-89727386D01*
X27790379Y-89690500D01*
X27704923Y-89646957D01*
X27704920Y-89646956D01*
X27536437Y-89592214D01*
X27448948Y-89578357D01*
X27361460Y-89564500D01*
X27184302Y-89564500D01*
X27125976Y-89573738D01*
X27009324Y-89592214D01*
X26840841Y-89646956D01*
X26840838Y-89646957D01*
X26682990Y-89727386D01*
X26601219Y-89786796D01*
X26539667Y-89831517D01*
X26539665Y-89831519D01*
X26539664Y-89831519D01*
X26414400Y-89956783D01*
X26414400Y-89956784D01*
X26414398Y-89956786D01*
X26369677Y-90018338D01*
X26310267Y-90100109D01*
X26229838Y-90257957D01*
X26229837Y-90257960D01*
X26175095Y-90426443D01*
X26147381Y-90601421D01*
X22423381Y-90601421D01*
X22423381Y-89711109D01*
X22443066Y-89644070D01*
X22495870Y-89598315D01*
X22565028Y-89588371D01*
X22585694Y-89593176D01*
X22698277Y-89629757D01*
X22771512Y-89653553D01*
X23004784Y-89690500D01*
X23004789Y-89690500D01*
X23240978Y-89690500D01*
X23474249Y-89653553D01*
X23494552Y-89646956D01*
X23698873Y-89580568D01*
X23909314Y-89473343D01*
X24100391Y-89334517D01*
X24267398Y-89167510D01*
X24406224Y-88976433D01*
X24513449Y-88765992D01*
X24586434Y-88541368D01*
X24623381Y-88308097D01*
X24623381Y-88071902D01*
X24586434Y-87838631D01*
X24513447Y-87614003D01*
X24406223Y-87403566D01*
X24267398Y-87212490D01*
X24100391Y-87045483D01*
X23909314Y-86906657D01*
X23698877Y-86799433D01*
X23474249Y-86726446D01*
X23240978Y-86689500D01*
X23240973Y-86689500D01*
X23004789Y-86689500D01*
X23004784Y-86689500D01*
X22771511Y-86726447D01*
X22771508Y-86726447D01*
X22585699Y-86786821D01*
X22515858Y-86788816D01*
X22456025Y-86752736D01*
X22425197Y-86690035D01*
X22423381Y-86668890D01*
X22423381Y-86314499D01*
X22443066Y-86247460D01*
X22495870Y-86201705D01*
X22547381Y-86190499D01*
X24170752Y-86190499D01*
X24170753Y-86190499D01*
X24230364Y-86184091D01*
X24365212Y-86133796D01*
X24480427Y-86047546D01*
X24566677Y-85932331D01*
X24616972Y-85797483D01*
X24623381Y-85737873D01*
X24623380Y-83642128D01*
X24616972Y-83582517D01*
X24566677Y-83447669D01*
X24566676Y-83447668D01*
X24566674Y-83447664D01*
X24480428Y-83332455D01*
X24480425Y-83332452D01*
X24365216Y-83246206D01*
X24365209Y-83246202D01*
X24230363Y-83195908D01*
X24230364Y-83195908D01*
X24170764Y-83189501D01*
X24170762Y-83189500D01*
X24170754Y-83189500D01*
X24170746Y-83189500D01*
X23847381Y-83189500D01*
X23780342Y-83169815D01*
X23734587Y-83117011D01*
X23723381Y-83065500D01*
X23723381Y-82101421D01*
X27347381Y-82101421D01*
X27347381Y-82278578D01*
X27375095Y-82453556D01*
X27429837Y-82622039D01*
X27429838Y-82622042D01*
X27510267Y-82779890D01*
X27614398Y-82923214D01*
X27739667Y-83048483D01*
X27882991Y-83152614D01*
X27955385Y-83189501D01*
X28040838Y-83233042D01*
X28040841Y-83233043D01*
X28081354Y-83246206D01*
X28209326Y-83287786D01*
X28384302Y-83315500D01*
X28384303Y-83315500D01*
X28561459Y-83315500D01*
X28561460Y-83315500D01*
X28736436Y-83287786D01*
X28904923Y-83233042D01*
X29062771Y-83152614D01*
X29206095Y-83048483D01*
X29331364Y-82923214D01*
X29435495Y-82779890D01*
X29515923Y-82622042D01*
X29570667Y-82453555D01*
X29598381Y-82278579D01*
X29598381Y-82101421D01*
X29570667Y-81926445D01*
X29515923Y-81757958D01*
X29515923Y-81757957D01*
X29435494Y-81600109D01*
X29331364Y-81456786D01*
X29206095Y-81331517D01*
X29062771Y-81227386D01*
X28904923Y-81146957D01*
X28904920Y-81146956D01*
X28736437Y-81092214D01*
X28648948Y-81078357D01*
X28561460Y-81064500D01*
X28384302Y-81064500D01*
X28325976Y-81073738D01*
X28209324Y-81092214D01*
X28040841Y-81146956D01*
X28040838Y-81146957D01*
X27882990Y-81227386D01*
X27801219Y-81286796D01*
X27739667Y-81331517D01*
X27739665Y-81331519D01*
X27739664Y-81331519D01*
X27614400Y-81456783D01*
X27614400Y-81456784D01*
X27614398Y-81456786D01*
X27611144Y-81461265D01*
X27510267Y-81600109D01*
X27429838Y-81757957D01*
X27429837Y-81757960D01*
X27375095Y-81926443D01*
X27347381Y-82101421D01*
X23723381Y-82101421D01*
X23723381Y-79440096D01*
X23743066Y-79373057D01*
X23759695Y-79352419D01*
X24829609Y-78282505D01*
X24890930Y-78249022D01*
X24960622Y-78254006D01*
X24973584Y-78259704D01*
X25023655Y-78285217D01*
X25023658Y-78285217D01*
X25023662Y-78285220D01*
X25142387Y-78323796D01*
X25218346Y-78348477D01*
X25319438Y-78364488D01*
X25420529Y-78380500D01*
X25420530Y-78380500D01*
X25625232Y-78380500D01*
X25625233Y-78380500D01*
X25827415Y-78348477D01*
X26022100Y-78285220D01*
X26204491Y-78192287D01*
X26300782Y-78122328D01*
X26370094Y-78071971D01*
X26370096Y-78071968D01*
X26370100Y-78071966D01*
X26514847Y-77927219D01*
X26514849Y-77927215D01*
X26514852Y-77927213D01*
X26635165Y-77761614D01*
X26635167Y-77761611D01*
X26635168Y-77761610D01*
X26682397Y-77668917D01*
X26730370Y-77618123D01*
X26798191Y-77601328D01*
X26864326Y-77623865D01*
X26903364Y-77668917D01*
X26930302Y-77721785D01*
X26950596Y-77761614D01*
X27070909Y-77927213D01*
X27215667Y-78071971D01*
X27345526Y-78166317D01*
X27381271Y-78192287D01*
X27470093Y-78237544D01*
X27563657Y-78285218D01*
X27563659Y-78285218D01*
X27563662Y-78285220D01*
X27612816Y-78301191D01*
X27758346Y-78348477D01*
X27859438Y-78364488D01*
X27960529Y-78380500D01*
X27960530Y-78380500D01*
X28165232Y-78380500D01*
X28165233Y-78380500D01*
X28367415Y-78348477D01*
X28562100Y-78285220D01*
X28744491Y-78192287D01*
X28840782Y-78122328D01*
X28910094Y-78071971D01*
X28910096Y-78071968D01*
X28910100Y-78071966D01*
X29054847Y-77927219D01*
X29054849Y-77927215D01*
X29054852Y-77927213D01*
X29175165Y-77761614D01*
X29175167Y-77761611D01*
X29175168Y-77761610D01*
X29222676Y-77668369D01*
X29270651Y-77617574D01*
X29338472Y-77600779D01*
X29404606Y-77623316D01*
X29443646Y-77668370D01*
X29491021Y-77761349D01*
X29611298Y-77926894D01*
X29611298Y-77926895D01*
X29755985Y-78071582D01*
X29921531Y-78191859D01*
X30103849Y-78284754D01*
X30298459Y-78347988D01*
X30352881Y-78356607D01*
X30352881Y-76713012D01*
X30409888Y-76745925D01*
X30537055Y-76780000D01*
X30668707Y-76780000D01*
X30795874Y-76745925D01*
X30852881Y-76713012D01*
X30852881Y-78356606D01*
X30907302Y-78347988D01*
X31101912Y-78284754D01*
X31284230Y-78191859D01*
X31449775Y-78071582D01*
X31449776Y-78071582D01*
X31594463Y-77926895D01*
X31594463Y-77926894D01*
X31714742Y-77761347D01*
X31762115Y-77668371D01*
X31810089Y-77617575D01*
X31877909Y-77600779D01*
X31944045Y-77623316D01*
X31983084Y-77668369D01*
X32030594Y-77761611D01*
X32150909Y-77927213D01*
X32295667Y-78071971D01*
X32425526Y-78166317D01*
X32461271Y-78192287D01*
X32550093Y-78237544D01*
X32643657Y-78285218D01*
X32643659Y-78285218D01*
X32643662Y-78285220D01*
X32692816Y-78301191D01*
X32838346Y-78348477D01*
X32939438Y-78364488D01*
X33040529Y-78380500D01*
X33040530Y-78380500D01*
X33245232Y-78380500D01*
X33245233Y-78380500D01*
X33447415Y-78348477D01*
X33642100Y-78285220D01*
X33824491Y-78192287D01*
X33920782Y-78122328D01*
X33990094Y-78071971D01*
X33990096Y-78071968D01*
X33990100Y-78071966D01*
X34134847Y-77927219D01*
X34134849Y-77927215D01*
X34134852Y-77927213D01*
X34255165Y-77761614D01*
X34255167Y-77761611D01*
X34255168Y-77761610D01*
X34302397Y-77668917D01*
X34350370Y-77618123D01*
X34418191Y-77601328D01*
X34484326Y-77623865D01*
X34523364Y-77668917D01*
X34550302Y-77721785D01*
X34570596Y-77761614D01*
X34690909Y-77927213D01*
X34835667Y-78071971D01*
X34965526Y-78166317D01*
X35001271Y-78192287D01*
X35090093Y-78237544D01*
X35183657Y-78285218D01*
X35183659Y-78285218D01*
X35183662Y-78285220D01*
X35232816Y-78301191D01*
X35378346Y-78348477D01*
X35479438Y-78364488D01*
X35580529Y-78380500D01*
X35580530Y-78380500D01*
X35785232Y-78380500D01*
X35785233Y-78380500D01*
X35987415Y-78348477D01*
X36182100Y-78285220D01*
X36364491Y-78192287D01*
X36460782Y-78122328D01*
X36530094Y-78071971D01*
X36530096Y-78071968D01*
X36530100Y-78071966D01*
X36674847Y-77927219D01*
X36674849Y-77927215D01*
X36674852Y-77927213D01*
X36795165Y-77761614D01*
X36795167Y-77761611D01*
X36795168Y-77761610D01*
X36842397Y-77668917D01*
X36890370Y-77618123D01*
X36958191Y-77601328D01*
X37024326Y-77623865D01*
X37063364Y-77668917D01*
X37090302Y-77721785D01*
X37110596Y-77761614D01*
X37230909Y-77927213D01*
X37375667Y-78071971D01*
X37505526Y-78166317D01*
X37541271Y-78192287D01*
X37630093Y-78237544D01*
X37723657Y-78285218D01*
X37723659Y-78285218D01*
X37723662Y-78285220D01*
X37772816Y-78301191D01*
X37918346Y-78348477D01*
X38019438Y-78364488D01*
X38120529Y-78380500D01*
X38120530Y-78380500D01*
X38325232Y-78380500D01*
X38325233Y-78380500D01*
X38527415Y-78348477D01*
X38722100Y-78285220D01*
X38904491Y-78192287D01*
X39000782Y-78122328D01*
X39070094Y-78071971D01*
X39070096Y-78071968D01*
X39070100Y-78071966D01*
X39214847Y-77927219D01*
X39214849Y-77927215D01*
X39214852Y-77927213D01*
X39335165Y-77761614D01*
X39335167Y-77761611D01*
X39335168Y-77761610D01*
X39382397Y-77668917D01*
X39430370Y-77618123D01*
X39498191Y-77601328D01*
X39564326Y-77623865D01*
X39603364Y-77668917D01*
X39630302Y-77721785D01*
X39650596Y-77761614D01*
X39770909Y-77927213D01*
X39915667Y-78071971D01*
X40045526Y-78166317D01*
X40081271Y-78192287D01*
X40170093Y-78237544D01*
X40263657Y-78285218D01*
X40263659Y-78285218D01*
X40263662Y-78285220D01*
X40312816Y-78301191D01*
X40458346Y-78348477D01*
X40559438Y-78364488D01*
X40660529Y-78380500D01*
X40660530Y-78380500D01*
X40865232Y-78380500D01*
X40865233Y-78380500D01*
X41067415Y-78348477D01*
X41262100Y-78285220D01*
X41268059Y-78282184D01*
X41282949Y-78274597D01*
X41309204Y-78261218D01*
X41377873Y-78248322D01*
X41442613Y-78274597D01*
X41482871Y-78331703D01*
X41489500Y-78371703D01*
X41489500Y-94508296D01*
X41469815Y-94575335D01*
X41417011Y-94621090D01*
X41347853Y-94631034D01*
X41309205Y-94618781D01*
X41262104Y-94594781D01*
X41067415Y-94531522D01*
X40877696Y-94501474D01*
X40865233Y-94499500D01*
X40660529Y-94499500D01*
X40648066Y-94501474D01*
X40458346Y-94531522D01*
X40263657Y-94594781D01*
X40081267Y-94687715D01*
X39915667Y-94808028D01*
X39770909Y-94952786D01*
X39650596Y-95118386D01*
X39603366Y-95211080D01*
X39555391Y-95261876D01*
X39487570Y-95278671D01*
X39421435Y-95256134D01*
X39382396Y-95211080D01*
X39374554Y-95195689D01*
X39335168Y-95118390D01*
X39290048Y-95056287D01*
X39214852Y-94952786D01*
X39070094Y-94808028D01*
X38904494Y-94687715D01*
X38904493Y-94687714D01*
X38904491Y-94687713D01*
X38835262Y-94652439D01*
X38722104Y-94594781D01*
X38527415Y-94531522D01*
X38337696Y-94501474D01*
X38325233Y-94499500D01*
X38120529Y-94499500D01*
X38108066Y-94501474D01*
X37918346Y-94531522D01*
X37723657Y-94594781D01*
X37541267Y-94687715D01*
X37375667Y-94808028D01*
X37230909Y-94952786D01*
X37110596Y-95118386D01*
X37063366Y-95211080D01*
X37015391Y-95261876D01*
X36947570Y-95278671D01*
X36881435Y-95256134D01*
X36842396Y-95211080D01*
X36834554Y-95195689D01*
X36795168Y-95118390D01*
X36750048Y-95056287D01*
X36674852Y-94952786D01*
X36530094Y-94808028D01*
X36364494Y-94687715D01*
X36364493Y-94687714D01*
X36364491Y-94687713D01*
X36295262Y-94652439D01*
X36182104Y-94594781D01*
X35987415Y-94531522D01*
X35797696Y-94501474D01*
X35785233Y-94499500D01*
X35580529Y-94499500D01*
X35568066Y-94501474D01*
X35378346Y-94531522D01*
X35183657Y-94594781D01*
X35001267Y-94687715D01*
X34835667Y-94808028D01*
X34690909Y-94952786D01*
X34570596Y-95118386D01*
X34523366Y-95211080D01*
X34475391Y-95261876D01*
X34407570Y-95278671D01*
X34341435Y-95256134D01*
X34302396Y-95211080D01*
X34294554Y-95195689D01*
X34255168Y-95118390D01*
X34210048Y-95056287D01*
X34134852Y-94952786D01*
X33990094Y-94808028D01*
X33824494Y-94687715D01*
X33824493Y-94687714D01*
X33824491Y-94687713D01*
X33755262Y-94652439D01*
X33642104Y-94594781D01*
X33447415Y-94531522D01*
X33257696Y-94501474D01*
X33245233Y-94499500D01*
X33040529Y-94499500D01*
X33028066Y-94501474D01*
X32838346Y-94531522D01*
X32643657Y-94594781D01*
X32461267Y-94687715D01*
X32295667Y-94808028D01*
X32150909Y-94952786D01*
X32030596Y-95118386D01*
X31937662Y-95300776D01*
X31874403Y-95495465D01*
X31842381Y-95697648D01*
X31842381Y-96902351D01*
X31874403Y-97104534D01*
X31937662Y-97299223D01*
X32030596Y-97481613D01*
X32150909Y-97647213D01*
X32295667Y-97791971D01*
X32416263Y-97879587D01*
X32461271Y-97912287D01*
X32564418Y-97964843D01*
X32643657Y-98005218D01*
X32643659Y-98005218D01*
X32643662Y-98005220D01*
X32673085Y-98014780D01*
X32838346Y-98068477D01*
X32904179Y-98078904D01*
X33040529Y-98100500D01*
X33040530Y-98100500D01*
X33245232Y-98100500D01*
X33245233Y-98100500D01*
X33447415Y-98068477D01*
X33642100Y-98005220D01*
X33824491Y-97912287D01*
X33930549Y-97835232D01*
X33990094Y-97791971D01*
X33990096Y-97791968D01*
X33990100Y-97791966D01*
X34134847Y-97647219D01*
X34134849Y-97647215D01*
X34134852Y-97647213D01*
X34250947Y-97487420D01*
X34255168Y-97481610D01*
X34302397Y-97388917D01*
X34350370Y-97338123D01*
X34418191Y-97321328D01*
X34484326Y-97343865D01*
X34523366Y-97388919D01*
X34570596Y-97481614D01*
X34690909Y-97647213D01*
X34835667Y-97791971D01*
X34956263Y-97879587D01*
X35001271Y-97912287D01*
X35104418Y-97964843D01*
X35183657Y-98005218D01*
X35183659Y-98005218D01*
X35183662Y-98005220D01*
X35213085Y-98014780D01*
X35378346Y-98068477D01*
X35444179Y-98078904D01*
X35580529Y-98100500D01*
X35580530Y-98100500D01*
X35785232Y-98100500D01*
X35785233Y-98100500D01*
X35987415Y-98068477D01*
X36182100Y-98005220D01*
X36364491Y-97912287D01*
X36470549Y-97835232D01*
X36530094Y-97791971D01*
X36530096Y-97791968D01*
X36530100Y-97791966D01*
X36674847Y-97647219D01*
X36674849Y-97647215D01*
X36674852Y-97647213D01*
X36790947Y-97487420D01*
X36795168Y-97481610D01*
X36842397Y-97388917D01*
X36890370Y-97338123D01*
X36958191Y-97321328D01*
X37024326Y-97343865D01*
X37063366Y-97388919D01*
X37110596Y-97481614D01*
X37230909Y-97647213D01*
X37375667Y-97791971D01*
X37496263Y-97879587D01*
X37541271Y-97912287D01*
X37644418Y-97964843D01*
X37723657Y-98005218D01*
X37723659Y-98005218D01*
X37723662Y-98005220D01*
X37753085Y-98014780D01*
X37918346Y-98068477D01*
X37984179Y-98078904D01*
X38120529Y-98100500D01*
X38120530Y-98100500D01*
X38325232Y-98100500D01*
X38325233Y-98100500D01*
X38527415Y-98068477D01*
X38722100Y-98005220D01*
X38904491Y-97912287D01*
X39010549Y-97835232D01*
X39070094Y-97791971D01*
X39070096Y-97791968D01*
X39070100Y-97791966D01*
X39214847Y-97647219D01*
X39214849Y-97647215D01*
X39214852Y-97647213D01*
X39330947Y-97487420D01*
X39335168Y-97481610D01*
X39382397Y-97388917D01*
X39430370Y-97338123D01*
X39498191Y-97321328D01*
X39564326Y-97343865D01*
X39603366Y-97388919D01*
X39650596Y-97481614D01*
X39770909Y-97647213D01*
X39915667Y-97791971D01*
X40036263Y-97879587D01*
X40081271Y-97912287D01*
X40184418Y-97964843D01*
X40263657Y-98005218D01*
X40263659Y-98005218D01*
X40263662Y-98005220D01*
X40293085Y-98014780D01*
X40458346Y-98068477D01*
X40524179Y-98078904D01*
X40660529Y-98100500D01*
X40660530Y-98100500D01*
X40865232Y-98100500D01*
X40865233Y-98100500D01*
X41067415Y-98068477D01*
X41262100Y-98005220D01*
X41341344Y-97964842D01*
X41410013Y-97951947D01*
X41474754Y-97978223D01*
X41515011Y-98035329D01*
X41517410Y-98043222D01*
X41530423Y-98091785D01*
X41534267Y-98098442D01*
X41535457Y-98100504D01*
X41609477Y-98228712D01*
X41609481Y-98228717D01*
X41728349Y-98347585D01*
X41728355Y-98347590D01*
X41985139Y-98604374D01*
X41985149Y-98604385D01*
X41989479Y-98608715D01*
X41989480Y-98608716D01*
X42101284Y-98720520D01*
X42183105Y-98767758D01*
X42188095Y-98770639D01*
X42188097Y-98770641D01*
X42226151Y-98792611D01*
X42238215Y-98799577D01*
X42390943Y-98840500D01*
X42549057Y-98840500D01*
X49400939Y-98840500D01*
X49400943Y-98840501D01*
X49559057Y-98840501D01*
X49568902Y-98837862D01*
X49584284Y-98837633D01*
X49584845Y-98837788D01*
X49586137Y-98837619D01*
X50446212Y-98837619D01*
X50446228Y-98837620D01*
X50453824Y-98837620D01*
X50611935Y-98837620D01*
X50611938Y-98837620D01*
X50764666Y-98796696D01*
X50814785Y-98767758D01*
X50901597Y-98717639D01*
X51013401Y-98605835D01*
X51013401Y-98605833D01*
X51023609Y-98595626D01*
X51023611Y-98595623D01*
X51281387Y-98337847D01*
X51281392Y-98337843D01*
X51291595Y-98327639D01*
X51291597Y-98327639D01*
X51403401Y-98215835D01*
X51475021Y-98091785D01*
X51482458Y-98078904D01*
X51501690Y-98007123D01*
X51503083Y-98003073D01*
X51520902Y-97977932D01*
X51536939Y-97951621D01*
X51542057Y-97948084D01*
X51543486Y-97946070D01*
X51547057Y-97944631D01*
X51564054Y-97932890D01*
X51604491Y-97912287D01*
X51770100Y-97791966D01*
X51914847Y-97647219D01*
X51914849Y-97647215D01*
X51914852Y-97647213D01*
X52030947Y-97487420D01*
X52035168Y-97481610D01*
X52082397Y-97388917D01*
X52130370Y-97338123D01*
X52198191Y-97321328D01*
X52264326Y-97343865D01*
X52303366Y-97388919D01*
X52350596Y-97481614D01*
X52470909Y-97647213D01*
X52615667Y-97791971D01*
X52736263Y-97879587D01*
X52781271Y-97912287D01*
X52884418Y-97964843D01*
X52963657Y-98005218D01*
X52963659Y-98005218D01*
X52963662Y-98005220D01*
X52993085Y-98014780D01*
X53158346Y-98068477D01*
X53224179Y-98078904D01*
X53360529Y-98100500D01*
X53360530Y-98100500D01*
X53565232Y-98100500D01*
X53565233Y-98100500D01*
X53767415Y-98068477D01*
X53932677Y-98014779D01*
X54002516Y-98012785D01*
X54058675Y-98045030D01*
X54394165Y-98380520D01*
X54394167Y-98380521D01*
X54394171Y-98380524D01*
X54531090Y-98459573D01*
X54531097Y-98459577D01*
X54683824Y-98500501D01*
X54683826Y-98500501D01*
X54849535Y-98500501D01*
X54849551Y-98500500D01*
X61451847Y-98500500D01*
X61451863Y-98500501D01*
X61459459Y-98500501D01*
X61617570Y-98500501D01*
X61617573Y-98500501D01*
X61770301Y-98459577D01*
X61820420Y-98430639D01*
X61907232Y-98380520D01*
X62019036Y-98268716D01*
X62019036Y-98268714D01*
X62029244Y-98258507D01*
X62029245Y-98258504D01*
X62663401Y-97624351D01*
X62742458Y-97487419D01*
X62783382Y-97334692D01*
X62783382Y-97176577D01*
X62783382Y-97168982D01*
X62783381Y-97168964D01*
X62783381Y-96049071D01*
X62803066Y-95982032D01*
X62819700Y-95961390D01*
X62978715Y-95802375D01*
X63194698Y-95586391D01*
X63256019Y-95552908D01*
X63325710Y-95557892D01*
X63381644Y-95599763D01*
X63404850Y-95654674D01*
X63409820Y-95686053D01*
X63483779Y-95913674D01*
X63537113Y-96018345D01*
X63586986Y-96116226D01*
X63592435Y-96126919D01*
X63733102Y-96320532D01*
X63733106Y-96320537D01*
X63902343Y-96489774D01*
X63902348Y-96489778D01*
X63997654Y-96559021D01*
X64095965Y-96630448D01*
X64231842Y-96699681D01*
X64309206Y-96739101D01*
X64309208Y-96739101D01*
X64309211Y-96739103D01*
X64536830Y-96813061D01*
X64658616Y-96832349D01*
X64773210Y-96850500D01*
X64773215Y-96850500D01*
X65012552Y-96850500D01*
X65117016Y-96833953D01*
X65248932Y-96813061D01*
X65476551Y-96739103D01*
X65689797Y-96630448D01*
X65883420Y-96489773D01*
X66052654Y-96320539D01*
X66193329Y-96126916D01*
X66301984Y-95913670D01*
X66375942Y-95686051D01*
X66397029Y-95552908D01*
X66413381Y-95449671D01*
X66413381Y-95210328D01*
X66388983Y-95056287D01*
X66375942Y-94973949D01*
X66301984Y-94746330D01*
X66301982Y-94746327D01*
X66301982Y-94746325D01*
X66243237Y-94631034D01*
X66198745Y-94543713D01*
X79649500Y-94543713D01*
X79649500Y-95056286D01*
X79682703Y-95265925D01*
X79682754Y-95266243D01*
X79745694Y-95459952D01*
X79748444Y-95468414D01*
X79844951Y-95657820D01*
X79969890Y-95829786D01*
X80120213Y-95980109D01*
X80292179Y-96105048D01*
X80292181Y-96105049D01*
X80292184Y-96105051D01*
X80481588Y-96201557D01*
X80683757Y-96267246D01*
X80893713Y-96300500D01*
X80893714Y-96300500D01*
X81106286Y-96300500D01*
X81106287Y-96300500D01*
X81316243Y-96267246D01*
X81518412Y-96201557D01*
X81707816Y-96105051D01*
X81801435Y-96037033D01*
X81879784Y-95980110D01*
X81879784Y-95980109D01*
X81879792Y-95980104D01*
X82018967Y-95840928D01*
X82080286Y-95807446D01*
X82149978Y-95812430D01*
X82205912Y-95854301D01*
X82212184Y-95863515D01*
X82307684Y-96018345D01*
X82431654Y-96142315D01*
X82580875Y-96234356D01*
X82580880Y-96234358D01*
X82747302Y-96289505D01*
X82747309Y-96289506D01*
X82850019Y-96299999D01*
X83249999Y-96299999D01*
X83250000Y-96299998D01*
X83250000Y-95233012D01*
X83307007Y-95265925D01*
X83434174Y-95300000D01*
X83565826Y-95300000D01*
X83692993Y-95265925D01*
X83750000Y-95233012D01*
X83750000Y-96299999D01*
X84149972Y-96299999D01*
X84149984Y-96299998D01*
X84190323Y-96295877D01*
X84259016Y-96308646D01*
X84309901Y-96356526D01*
X84326822Y-96424316D01*
X84317487Y-96466687D01*
X84282185Y-96551913D01*
X84282182Y-96551925D01*
X84249500Y-96716228D01*
X84249500Y-96883771D01*
X84282182Y-97048074D01*
X84282184Y-97048082D01*
X84346295Y-97202860D01*
X84439373Y-97342162D01*
X84557837Y-97460626D01*
X84650494Y-97522537D01*
X84697137Y-97553703D01*
X84851918Y-97617816D01*
X84960932Y-97639500D01*
X85016228Y-97650499D01*
X85016232Y-97650500D01*
X85016233Y-97650500D01*
X85183768Y-97650500D01*
X85183769Y-97650499D01*
X85348082Y-97617816D01*
X85502863Y-97553703D01*
X85642162Y-97460626D01*
X85760626Y-97342162D01*
X85853703Y-97202863D01*
X85917816Y-97048082D01*
X85950500Y-96883767D01*
X85950500Y-96716233D01*
X85917816Y-96551918D01*
X85853703Y-96397137D01*
X85802522Y-96320539D01*
X85760626Y-96257837D01*
X85642162Y-96139373D01*
X85502860Y-96046295D01*
X85348082Y-95982184D01*
X85348074Y-95982182D01*
X85284393Y-95969515D01*
X85183771Y-95949500D01*
X85183767Y-95949500D01*
X85016233Y-95949500D01*
X84948369Y-95962998D01*
X84878778Y-95956769D01*
X84823601Y-95913905D01*
X84801746Y-95851949D01*
X90942201Y-95851949D01*
X90942201Y-96107650D01*
X90967591Y-96300500D01*
X90975575Y-96361140D01*
X91026694Y-96551918D01*
X91041751Y-96608112D01*
X91041754Y-96608122D01*
X91139595Y-96844331D01*
X91139600Y-96844342D01*
X91267435Y-97065757D01*
X91267446Y-97065773D01*
X91423089Y-97268611D01*
X91423095Y-97268618D01*
X91603882Y-97449405D01*
X91603889Y-97449411D01*
X91653430Y-97487425D01*
X91806736Y-97605061D01*
X91806743Y-97605065D01*
X92028158Y-97732900D01*
X92028163Y-97732902D01*
X92028166Y-97732904D01*
X92264388Y-97830750D01*
X92511361Y-97896926D01*
X92764858Y-97930300D01*
X92764865Y-97930300D01*
X93020537Y-97930300D01*
X93020544Y-97930300D01*
X93274041Y-97896926D01*
X93521014Y-97830750D01*
X93757236Y-97732904D01*
X93978666Y-97605061D01*
X94181514Y-97449410D01*
X94362311Y-97268613D01*
X94517962Y-97065765D01*
X94645805Y-96844335D01*
X94743651Y-96608113D01*
X94809827Y-96361140D01*
X94843201Y-96107643D01*
X94843201Y-95851957D01*
X94809827Y-95598460D01*
X94743651Y-95351487D01*
X94722324Y-95300000D01*
X94685181Y-95210328D01*
X94645805Y-95115265D01*
X94645803Y-95115262D01*
X94645801Y-95115257D01*
X94517966Y-94893842D01*
X94517962Y-94893835D01*
X94473153Y-94835438D01*
X94362312Y-94690988D01*
X94362306Y-94690981D01*
X94181519Y-94510194D01*
X94181512Y-94510188D01*
X93978674Y-94354545D01*
X93978672Y-94354543D01*
X93978666Y-94354539D01*
X93978661Y-94354536D01*
X93978658Y-94354534D01*
X93757243Y-94226699D01*
X93757232Y-94226694D01*
X93521023Y-94128853D01*
X93521016Y-94128851D01*
X93521014Y-94128850D01*
X93274041Y-94062674D01*
X93217708Y-94055257D01*
X93020551Y-94029300D01*
X93020544Y-94029300D01*
X92764858Y-94029300D01*
X92764850Y-94029300D01*
X92539527Y-94058965D01*
X92511361Y-94062674D01*
X92332577Y-94110579D01*
X92264388Y-94128850D01*
X92264378Y-94128853D01*
X92028169Y-94226694D01*
X92028158Y-94226699D01*
X91806743Y-94354534D01*
X91806727Y-94354545D01*
X91603889Y-94510188D01*
X91603882Y-94510194D01*
X91423095Y-94690981D01*
X91423089Y-94690988D01*
X91267446Y-94893826D01*
X91267435Y-94893842D01*
X91139600Y-95115257D01*
X91139595Y-95115268D01*
X91041754Y-95351477D01*
X91041751Y-95351487D01*
X90975575Y-95598460D01*
X90975376Y-95599973D01*
X90942201Y-95851949D01*
X84801746Y-95851949D01*
X84800358Y-95848015D01*
X84806474Y-95802375D01*
X84839505Y-95702694D01*
X84839506Y-95702690D01*
X84849999Y-95599986D01*
X84850000Y-95599973D01*
X84850000Y-95050000D01*
X83933012Y-95050000D01*
X83965925Y-94992993D01*
X84000000Y-94865826D01*
X84000000Y-94734174D01*
X83965925Y-94607007D01*
X83933012Y-94550000D01*
X84849999Y-94550000D01*
X84849999Y-94000028D01*
X84849998Y-94000013D01*
X84839505Y-93897302D01*
X84784358Y-93730880D01*
X84784356Y-93730875D01*
X84692315Y-93581654D01*
X84568345Y-93457684D01*
X84419124Y-93365643D01*
X84419119Y-93365641D01*
X84252697Y-93310494D01*
X84252690Y-93310493D01*
X84149986Y-93300000D01*
X83750000Y-93300000D01*
X83750000Y-94366988D01*
X83692993Y-94334075D01*
X83565826Y-94300000D01*
X83434174Y-94300000D01*
X83307007Y-94334075D01*
X83250000Y-94366988D01*
X83250000Y-93300000D01*
X82850028Y-93300000D01*
X82850012Y-93300001D01*
X82747302Y-93310494D01*
X82580880Y-93365641D01*
X82580875Y-93365643D01*
X82431654Y-93457684D01*
X82307683Y-93581655D01*
X82307680Y-93581659D01*
X82212183Y-93736484D01*
X82160235Y-93783209D01*
X82091273Y-93794430D01*
X82027191Y-93766587D01*
X82018964Y-93759068D01*
X81879786Y-93619890D01*
X81707820Y-93494951D01*
X81518414Y-93398444D01*
X81518413Y-93398443D01*
X81518412Y-93398443D01*
X81316243Y-93332754D01*
X81316241Y-93332753D01*
X81316240Y-93332753D01*
X81154957Y-93307208D01*
X81106287Y-93299500D01*
X80893713Y-93299500D01*
X80845042Y-93307208D01*
X80683760Y-93332753D01*
X80481585Y-93398444D01*
X80292179Y-93494951D01*
X80120213Y-93619890D01*
X79969890Y-93770213D01*
X79844951Y-93942179D01*
X79748444Y-94131585D01*
X79682753Y-94333760D01*
X79649500Y-94543713D01*
X66198745Y-94543713D01*
X66193329Y-94533084D01*
X66120131Y-94432335D01*
X66052659Y-94339467D01*
X66052655Y-94339462D01*
X65883418Y-94170225D01*
X65883413Y-94170221D01*
X65689800Y-94029554D01*
X65689799Y-94029553D01*
X65689797Y-94029552D01*
X65623205Y-93995621D01*
X65476555Y-93920898D01*
X65248934Y-93846939D01*
X65217555Y-93841969D01*
X65154421Y-93812039D01*
X65117491Y-93752727D01*
X65118489Y-93682864D01*
X65149272Y-93631817D01*
X68179669Y-90601421D01*
X91347381Y-90601421D01*
X91347381Y-90778578D01*
X91375095Y-90953556D01*
X91429837Y-91122039D01*
X91429838Y-91122042D01*
X91510267Y-91279890D01*
X91614398Y-91423214D01*
X91739667Y-91548483D01*
X91882991Y-91652614D01*
X91960410Y-91692061D01*
X92040838Y-91733042D01*
X92040841Y-91733043D01*
X92125082Y-91760414D01*
X92209326Y-91787786D01*
X92384302Y-91815500D01*
X92384303Y-91815500D01*
X92561459Y-91815500D01*
X92561460Y-91815500D01*
X92736436Y-91787786D01*
X92904923Y-91733042D01*
X93062771Y-91652614D01*
X93206095Y-91548483D01*
X93331364Y-91423214D01*
X93435495Y-91279890D01*
X93515923Y-91122042D01*
X93570667Y-90953555D01*
X93598381Y-90778579D01*
X93598381Y-90601421D01*
X93570667Y-90426445D01*
X93515923Y-90257958D01*
X93515923Y-90257957D01*
X93435494Y-90100109D01*
X93331364Y-89956786D01*
X93206095Y-89831517D01*
X93062771Y-89727386D01*
X92990379Y-89690500D01*
X92904923Y-89646957D01*
X92904920Y-89646956D01*
X92736437Y-89592214D01*
X92648948Y-89578357D01*
X92561460Y-89564500D01*
X92384302Y-89564500D01*
X92325976Y-89573738D01*
X92209324Y-89592214D01*
X92040841Y-89646956D01*
X92040838Y-89646957D01*
X91882990Y-89727386D01*
X91801219Y-89786796D01*
X91739667Y-89831517D01*
X91739665Y-89831519D01*
X91739664Y-89831519D01*
X91614400Y-89956783D01*
X91614400Y-89956784D01*
X91614398Y-89956786D01*
X91569677Y-90018338D01*
X91510267Y-90100109D01*
X91429838Y-90257957D01*
X91429837Y-90257960D01*
X91375095Y-90426443D01*
X91347381Y-90601421D01*
X68179669Y-90601421D01*
X71623401Y-87157690D01*
X71702458Y-87020758D01*
X71743382Y-86868031D01*
X71743382Y-86709916D01*
X71743382Y-86702321D01*
X71743381Y-86702303D01*
X71743381Y-84571947D01*
X95122881Y-84571947D01*
X95122881Y-84808052D01*
X95159815Y-85041247D01*
X95232778Y-85265802D01*
X95339968Y-85476174D01*
X95400219Y-85559104D01*
X95400221Y-85559105D01*
X96099093Y-84860233D01*
X96110363Y-84902292D01*
X96182771Y-85027708D01*
X96285173Y-85130110D01*
X96410589Y-85202518D01*
X96452646Y-85213787D01*
X95753774Y-85912658D01*
X95836709Y-85972914D01*
X96047078Y-86080102D01*
X96271633Y-86153065D01*
X96271632Y-86153065D01*
X96504829Y-86190000D01*
X96740933Y-86190000D01*
X96974128Y-86153065D01*
X97198683Y-86080102D01*
X97409044Y-85972918D01*
X97409050Y-85972914D01*
X97491985Y-85912658D01*
X97491986Y-85912658D01*
X96793114Y-85213787D01*
X96835173Y-85202518D01*
X96960589Y-85130110D01*
X97062991Y-85027708D01*
X97135399Y-84902292D01*
X97146668Y-84860234D01*
X97845539Y-85559105D01*
X97845539Y-85559104D01*
X97905795Y-85476169D01*
X97905799Y-85476163D01*
X98012983Y-85265802D01*
X98085946Y-85041247D01*
X98122881Y-84808052D01*
X98122881Y-84571947D01*
X98085946Y-84338752D01*
X98012983Y-84114197D01*
X97905795Y-83903828D01*
X97845539Y-83820894D01*
X97845539Y-83820893D01*
X97146668Y-84519765D01*
X97135399Y-84477708D01*
X97062991Y-84352292D01*
X96960589Y-84249890D01*
X96835173Y-84177482D01*
X96793115Y-84166212D01*
X97491986Y-83467340D01*
X97491985Y-83467338D01*
X97409055Y-83407087D01*
X97198683Y-83299897D01*
X96974128Y-83226934D01*
X96974129Y-83226934D01*
X96740933Y-83190000D01*
X96504829Y-83190000D01*
X96271633Y-83226934D01*
X96047078Y-83299897D01*
X95836711Y-83407084D01*
X95753775Y-83467340D01*
X96452647Y-84166212D01*
X96410589Y-84177482D01*
X96285173Y-84249890D01*
X96182771Y-84352292D01*
X96110363Y-84477708D01*
X96099093Y-84519766D01*
X95400221Y-83820894D01*
X95339965Y-83903830D01*
X95232778Y-84114197D01*
X95159815Y-84338752D01*
X95122881Y-84571947D01*
X71743381Y-84571947D01*
X71743381Y-82101421D01*
X90147381Y-82101421D01*
X90147381Y-82278578D01*
X90175095Y-82453556D01*
X90229837Y-82622039D01*
X90229838Y-82622042D01*
X90310267Y-82779890D01*
X90414398Y-82923214D01*
X90539667Y-83048483D01*
X90682991Y-83152614D01*
X90755385Y-83189501D01*
X90840838Y-83233042D01*
X90840841Y-83233043D01*
X90881354Y-83246206D01*
X91009326Y-83287786D01*
X91184302Y-83315500D01*
X91184303Y-83315500D01*
X91361459Y-83315500D01*
X91361460Y-83315500D01*
X91536436Y-83287786D01*
X91704923Y-83233042D01*
X91862771Y-83152614D01*
X92006095Y-83048483D01*
X92131364Y-82923214D01*
X92235495Y-82779890D01*
X92315923Y-82622042D01*
X92370667Y-82453555D01*
X92398381Y-82278579D01*
X92398381Y-82101421D01*
X92370667Y-81926445D01*
X92315923Y-81757958D01*
X92315923Y-81757957D01*
X92235494Y-81600109D01*
X92131364Y-81456786D01*
X92006095Y-81331517D01*
X91862771Y-81227386D01*
X91704923Y-81146957D01*
X91704920Y-81146956D01*
X91536437Y-81092214D01*
X91448948Y-81078357D01*
X91361460Y-81064500D01*
X91184302Y-81064500D01*
X91125976Y-81073738D01*
X91009324Y-81092214D01*
X90840841Y-81146956D01*
X90840838Y-81146957D01*
X90682990Y-81227386D01*
X90601219Y-81286796D01*
X90539667Y-81331517D01*
X90539665Y-81331519D01*
X90539664Y-81331519D01*
X90414400Y-81456783D01*
X90414400Y-81456784D01*
X90414398Y-81456786D01*
X90411144Y-81461265D01*
X90310267Y-81600109D01*
X90229838Y-81757957D01*
X90229837Y-81757960D01*
X90175095Y-81926443D01*
X90147381Y-82101421D01*
X71743381Y-82101421D01*
X71743381Y-76843713D01*
X74749500Y-76843713D01*
X74749500Y-77356286D01*
X74782703Y-77565925D01*
X74782754Y-77566243D01*
X74846234Y-77761614D01*
X74848444Y-77768414D01*
X74944951Y-77957820D01*
X75069890Y-78129786D01*
X75220213Y-78280109D01*
X75392179Y-78405048D01*
X75392181Y-78405049D01*
X75392184Y-78405051D01*
X75581588Y-78501557D01*
X75783757Y-78567246D01*
X75993713Y-78600500D01*
X75993714Y-78600500D01*
X76206286Y-78600500D01*
X76206287Y-78600500D01*
X76416243Y-78567246D01*
X76618412Y-78501557D01*
X76807816Y-78405051D01*
X76920047Y-78323511D01*
X76979784Y-78280110D01*
X76979784Y-78280109D01*
X76979792Y-78280104D01*
X77118967Y-78140928D01*
X77180286Y-78107446D01*
X77249978Y-78112430D01*
X77305912Y-78154301D01*
X77312184Y-78163515D01*
X77407684Y-78318345D01*
X77531654Y-78442315D01*
X77680875Y-78534356D01*
X77680880Y-78534358D01*
X77847302Y-78589505D01*
X77847309Y-78589506D01*
X77950019Y-78599999D01*
X78349999Y-78599999D01*
X78350000Y-78599998D01*
X78350000Y-77533012D01*
X78407007Y-77565925D01*
X78534174Y-77600000D01*
X78665826Y-77600000D01*
X78792993Y-77565925D01*
X78850000Y-77533012D01*
X78850000Y-78599999D01*
X79249972Y-78599999D01*
X79249984Y-78599998D01*
X79290323Y-78595877D01*
X79359016Y-78608646D01*
X79409901Y-78656526D01*
X79426822Y-78724316D01*
X79417487Y-78766687D01*
X79382185Y-78851913D01*
X79382182Y-78851925D01*
X79349500Y-79016228D01*
X79349500Y-79183771D01*
X79382182Y-79348074D01*
X79382184Y-79348082D01*
X79446295Y-79502860D01*
X79539373Y-79642162D01*
X79657837Y-79760626D01*
X79706015Y-79792817D01*
X79797137Y-79853703D01*
X79951918Y-79917816D01*
X80116228Y-79950499D01*
X80116232Y-79950500D01*
X80116233Y-79950500D01*
X80283768Y-79950500D01*
X80283769Y-79950499D01*
X80448082Y-79917816D01*
X80602863Y-79853703D01*
X80742162Y-79760626D01*
X80860626Y-79642162D01*
X80953703Y-79502863D01*
X81017816Y-79348082D01*
X81050500Y-79183767D01*
X81050500Y-79016233D01*
X81017816Y-78851918D01*
X80953703Y-78697137D01*
X80889132Y-78600500D01*
X80860626Y-78557837D01*
X80742162Y-78439373D01*
X80602860Y-78346295D01*
X80448082Y-78282184D01*
X80448074Y-78282182D01*
X80283771Y-78249500D01*
X80283767Y-78249500D01*
X80116233Y-78249500D01*
X80048369Y-78262998D01*
X79978778Y-78256769D01*
X79923601Y-78213905D01*
X79900358Y-78148015D01*
X79906474Y-78102375D01*
X79939505Y-78002694D01*
X79939506Y-78002690D01*
X79949999Y-77899986D01*
X79950000Y-77899973D01*
X79950000Y-77350000D01*
X79033012Y-77350000D01*
X79065925Y-77292993D01*
X79100000Y-77165826D01*
X79100000Y-77034174D01*
X79065925Y-76907007D01*
X79033012Y-76850000D01*
X79949999Y-76850000D01*
X79949999Y-76718713D01*
X84099500Y-76718713D01*
X84099500Y-77231286D01*
X84132703Y-77440925D01*
X84132754Y-77441243D01*
X84193493Y-77628179D01*
X84198444Y-77643414D01*
X84294951Y-77832820D01*
X84419890Y-78004786D01*
X84570213Y-78155109D01*
X84742179Y-78280048D01*
X84742181Y-78280049D01*
X84742184Y-78280051D01*
X84931588Y-78376557D01*
X85133757Y-78442246D01*
X85343713Y-78475500D01*
X85343714Y-78475500D01*
X85556286Y-78475500D01*
X85556287Y-78475500D01*
X85766243Y-78442246D01*
X85968412Y-78376557D01*
X86157816Y-78280051D01*
X86256096Y-78208647D01*
X86329784Y-78155110D01*
X86329784Y-78155109D01*
X86329792Y-78155104D01*
X86468967Y-78015928D01*
X86530286Y-77982446D01*
X86599978Y-77987430D01*
X86655912Y-78029301D01*
X86662184Y-78038515D01*
X86757684Y-78193345D01*
X86881654Y-78317315D01*
X87030875Y-78409356D01*
X87030880Y-78409358D01*
X87197302Y-78464505D01*
X87197309Y-78464506D01*
X87300019Y-78474999D01*
X87699999Y-78474999D01*
X87700000Y-78474998D01*
X87700000Y-77408012D01*
X87757007Y-77440925D01*
X87884174Y-77475000D01*
X88015826Y-77475000D01*
X88142993Y-77440925D01*
X88200000Y-77408012D01*
X88200000Y-78474999D01*
X88599972Y-78474999D01*
X88599984Y-78474998D01*
X88640323Y-78470877D01*
X88709016Y-78483646D01*
X88759901Y-78531526D01*
X88776822Y-78599316D01*
X88767487Y-78641687D01*
X88732185Y-78726913D01*
X88732182Y-78726925D01*
X88699500Y-78891228D01*
X88699500Y-79058771D01*
X88732182Y-79223074D01*
X88732184Y-79223082D01*
X88796295Y-79377860D01*
X88889373Y-79517162D01*
X89007837Y-79635626D01*
X89100494Y-79697537D01*
X89147137Y-79728703D01*
X89301918Y-79792816D01*
X89466228Y-79825499D01*
X89466232Y-79825500D01*
X89466233Y-79825500D01*
X89633768Y-79825500D01*
X89633769Y-79825499D01*
X89798082Y-79792816D01*
X89952863Y-79728703D01*
X90092162Y-79635626D01*
X90210626Y-79517162D01*
X90303703Y-79377863D01*
X90367816Y-79223082D01*
X90400500Y-79058767D01*
X90400500Y-78891233D01*
X90367816Y-78726918D01*
X90314961Y-78599316D01*
X90303704Y-78572139D01*
X90294148Y-78557838D01*
X90256543Y-78501557D01*
X90210626Y-78432837D01*
X90092162Y-78314373D01*
X89952860Y-78221295D01*
X89798082Y-78157184D01*
X89798074Y-78157182D01*
X89633771Y-78124500D01*
X89633767Y-78124500D01*
X89466233Y-78124500D01*
X89398369Y-78137998D01*
X89328778Y-78131769D01*
X89273601Y-78088905D01*
X89250358Y-78023015D01*
X89256474Y-77977375D01*
X89289505Y-77877694D01*
X89289506Y-77877690D01*
X89299999Y-77774986D01*
X89300000Y-77774973D01*
X89300000Y-77225000D01*
X88383012Y-77225000D01*
X88415925Y-77167993D01*
X88450000Y-77040826D01*
X88450000Y-76909174D01*
X88415925Y-76782007D01*
X88383012Y-76725000D01*
X89299999Y-76725000D01*
X89299999Y-76175028D01*
X89299998Y-76175013D01*
X89289505Y-76072302D01*
X89234358Y-75905880D01*
X89234356Y-75905875D01*
X89142315Y-75756654D01*
X89018345Y-75632684D01*
X88869124Y-75540643D01*
X88869119Y-75540641D01*
X88702697Y-75485494D01*
X88702690Y-75485493D01*
X88599986Y-75475000D01*
X88200000Y-75475000D01*
X88200000Y-76541988D01*
X88142993Y-76509075D01*
X88015826Y-76475000D01*
X87884174Y-76475000D01*
X87757007Y-76509075D01*
X87700000Y-76541988D01*
X87700000Y-75475000D01*
X87300028Y-75475000D01*
X87300012Y-75475001D01*
X87197302Y-75485494D01*
X87030880Y-75540641D01*
X87030875Y-75540643D01*
X86881654Y-75632684D01*
X86757683Y-75756655D01*
X86757680Y-75756659D01*
X86662183Y-75911484D01*
X86610235Y-75958209D01*
X86541273Y-75969430D01*
X86477191Y-75941587D01*
X86468964Y-75934068D01*
X86329786Y-75794890D01*
X86157820Y-75669951D01*
X85968414Y-75573444D01*
X85968413Y-75573443D01*
X85968412Y-75573443D01*
X85766243Y-75507754D01*
X85766241Y-75507753D01*
X85766240Y-75507753D01*
X85604957Y-75482208D01*
X85556287Y-75474500D01*
X85343713Y-75474500D01*
X85295042Y-75482208D01*
X85133760Y-75507753D01*
X84931585Y-75573444D01*
X84742179Y-75669951D01*
X84570213Y-75794890D01*
X84419890Y-75945213D01*
X84294951Y-76117179D01*
X84198444Y-76306585D01*
X84132753Y-76508760D01*
X84099500Y-76718713D01*
X79949999Y-76718713D01*
X79949999Y-76300028D01*
X79949998Y-76300013D01*
X79939505Y-76197302D01*
X79884358Y-76030880D01*
X79884356Y-76030875D01*
X79792315Y-75881654D01*
X79668345Y-75757684D01*
X79519124Y-75665643D01*
X79519119Y-75665641D01*
X79352697Y-75610494D01*
X79352690Y-75610493D01*
X79249986Y-75600000D01*
X78850000Y-75600000D01*
X78850000Y-76666988D01*
X78792993Y-76634075D01*
X78665826Y-76600000D01*
X78534174Y-76600000D01*
X78407007Y-76634075D01*
X78350000Y-76666988D01*
X78350000Y-75600000D01*
X77950028Y-75600000D01*
X77950012Y-75600001D01*
X77847302Y-75610494D01*
X77680880Y-75665641D01*
X77680875Y-75665643D01*
X77531654Y-75757684D01*
X77407683Y-75881655D01*
X77407680Y-75881659D01*
X77312183Y-76036484D01*
X77260235Y-76083209D01*
X77191273Y-76094430D01*
X77127191Y-76066587D01*
X77118964Y-76059068D01*
X76979786Y-75919890D01*
X76807820Y-75794951D01*
X76618414Y-75698444D01*
X76618413Y-75698443D01*
X76618412Y-75698443D01*
X76416243Y-75632754D01*
X76416241Y-75632753D01*
X76416240Y-75632753D01*
X76254957Y-75607208D01*
X76206287Y-75599500D01*
X75993713Y-75599500D01*
X75945042Y-75607208D01*
X75783760Y-75632753D01*
X75581585Y-75698444D01*
X75392179Y-75794951D01*
X75220213Y-75919890D01*
X75069890Y-76070213D01*
X74944951Y-76242179D01*
X74848444Y-76431585D01*
X74782753Y-76633760D01*
X74749500Y-76843713D01*
X71743381Y-76843713D01*
X71743381Y-71686268D01*
X91326646Y-71686268D01*
X91326646Y-71863425D01*
X91354360Y-72038403D01*
X91409102Y-72206886D01*
X91409103Y-72206889D01*
X91489532Y-72364737D01*
X91593663Y-72508061D01*
X91718932Y-72633330D01*
X91862256Y-72737461D01*
X91939675Y-72776908D01*
X92020103Y-72817889D01*
X92020106Y-72817890D01*
X92104347Y-72845261D01*
X92188591Y-72872633D01*
X92363567Y-72900347D01*
X92363568Y-72900347D01*
X92540724Y-72900347D01*
X92540725Y-72900347D01*
X92715701Y-72872633D01*
X92884188Y-72817889D01*
X93042036Y-72737461D01*
X93185360Y-72633330D01*
X93310629Y-72508061D01*
X93414760Y-72364737D01*
X93495188Y-72206889D01*
X93549932Y-72038402D01*
X93577646Y-71863426D01*
X93577646Y-71686268D01*
X93549932Y-71511292D01*
X93495188Y-71342805D01*
X93495188Y-71342804D01*
X93414759Y-71184956D01*
X93310629Y-71041633D01*
X93185360Y-70916364D01*
X93042036Y-70812233D01*
X92969644Y-70775347D01*
X92884188Y-70731804D01*
X92884185Y-70731803D01*
X92715702Y-70677061D01*
X92628213Y-70663204D01*
X92540725Y-70649347D01*
X92363567Y-70649347D01*
X92305241Y-70658585D01*
X92188589Y-70677061D01*
X92020106Y-70731803D01*
X92020103Y-70731804D01*
X91862255Y-70812233D01*
X91780484Y-70871643D01*
X91718932Y-70916364D01*
X91718930Y-70916366D01*
X91718929Y-70916366D01*
X91593665Y-71041630D01*
X91593665Y-71041631D01*
X91593663Y-71041633D01*
X91548942Y-71103185D01*
X91489532Y-71184956D01*
X91409103Y-71342804D01*
X91409102Y-71342807D01*
X91354360Y-71511290D01*
X91326646Y-71686268D01*
X71743381Y-71686268D01*
X71743381Y-65656794D01*
X95102146Y-65656794D01*
X95102146Y-65892899D01*
X95139080Y-66126094D01*
X95212043Y-66350649D01*
X95319233Y-66561021D01*
X95379484Y-66643951D01*
X95379486Y-66643952D01*
X96078358Y-65945080D01*
X96089628Y-65987139D01*
X96162036Y-66112555D01*
X96264438Y-66214957D01*
X96389854Y-66287365D01*
X96431911Y-66298634D01*
X95733039Y-66997505D01*
X95815974Y-67057761D01*
X96026343Y-67164949D01*
X96250898Y-67237912D01*
X96250897Y-67237912D01*
X96484094Y-67274847D01*
X96720198Y-67274847D01*
X96953393Y-67237912D01*
X97177948Y-67164949D01*
X97388309Y-67057765D01*
X97388315Y-67057761D01*
X97471250Y-66997505D01*
X97471251Y-66997505D01*
X96772379Y-66298634D01*
X96814438Y-66287365D01*
X96939854Y-66214957D01*
X97042256Y-66112555D01*
X97114664Y-65987139D01*
X97125933Y-65945080D01*
X97824804Y-66643952D01*
X97824804Y-66643951D01*
X97885060Y-66561016D01*
X97885064Y-66561010D01*
X97992248Y-66350649D01*
X98065211Y-66126094D01*
X98102146Y-65892899D01*
X98102146Y-65656794D01*
X98065211Y-65423599D01*
X97992248Y-65199044D01*
X97885060Y-64988675D01*
X97824804Y-64905741D01*
X97824804Y-64905740D01*
X97125933Y-65604612D01*
X97114664Y-65562555D01*
X97042256Y-65437139D01*
X96939854Y-65334737D01*
X96814438Y-65262329D01*
X96772380Y-65251059D01*
X97471251Y-64552187D01*
X97471250Y-64552185D01*
X97388320Y-64491934D01*
X97177948Y-64384744D01*
X96953393Y-64311781D01*
X96953394Y-64311781D01*
X96720198Y-64274847D01*
X96484094Y-64274847D01*
X96250898Y-64311781D01*
X96026343Y-64384744D01*
X95815976Y-64491931D01*
X95733040Y-64552187D01*
X96431912Y-65251059D01*
X96389854Y-65262329D01*
X96264438Y-65334737D01*
X96162036Y-65437139D01*
X96089628Y-65562555D01*
X96078358Y-65604613D01*
X95379486Y-64905741D01*
X95319230Y-64988677D01*
X95212043Y-65199044D01*
X95139080Y-65423599D01*
X95102146Y-65656794D01*
X71743381Y-65656794D01*
X71743381Y-63186268D01*
X90126646Y-63186268D01*
X90126646Y-63363426D01*
X90140503Y-63450914D01*
X90154360Y-63538403D01*
X90209102Y-63706886D01*
X90209103Y-63706889D01*
X90289532Y-63864737D01*
X90393663Y-64008061D01*
X90518932Y-64133330D01*
X90662256Y-64237461D01*
X90734650Y-64274348D01*
X90820103Y-64317889D01*
X90820106Y-64317890D01*
X90860619Y-64331053D01*
X90988591Y-64372633D01*
X91163567Y-64400347D01*
X91163568Y-64400347D01*
X91340724Y-64400347D01*
X91340725Y-64400347D01*
X91515701Y-64372633D01*
X91684188Y-64317889D01*
X91842036Y-64237461D01*
X91985360Y-64133330D01*
X92110629Y-64008061D01*
X92214760Y-63864737D01*
X92295188Y-63706889D01*
X92349932Y-63538402D01*
X92377646Y-63363426D01*
X92377646Y-63186268D01*
X92349932Y-63011292D01*
X92295188Y-62842805D01*
X92295188Y-62842804D01*
X92214759Y-62684956D01*
X92110629Y-62541633D01*
X91985360Y-62416364D01*
X91842036Y-62312233D01*
X91684188Y-62231804D01*
X91684185Y-62231803D01*
X91515702Y-62177061D01*
X91428213Y-62163204D01*
X91340725Y-62149347D01*
X91163567Y-62149347D01*
X91105241Y-62158585D01*
X90988589Y-62177061D01*
X90820106Y-62231803D01*
X90820103Y-62231804D01*
X90662255Y-62312233D01*
X90580484Y-62371643D01*
X90518932Y-62416364D01*
X90518930Y-62416366D01*
X90518929Y-62416366D01*
X90393665Y-62541630D01*
X90393665Y-62541631D01*
X90393663Y-62541633D01*
X90348942Y-62603185D01*
X90289532Y-62684956D01*
X90209103Y-62842804D01*
X90209102Y-62842807D01*
X90154360Y-63011290D01*
X90146005Y-63064041D01*
X90126646Y-63186268D01*
X71743381Y-63186268D01*
X71743381Y-59121668D01*
X79894526Y-59121668D01*
X79894526Y-59377369D01*
X79903028Y-59441943D01*
X79927900Y-59630859D01*
X79991397Y-59867832D01*
X79994076Y-59877831D01*
X79994079Y-59877841D01*
X80091920Y-60114050D01*
X80091925Y-60114061D01*
X80219760Y-60335476D01*
X80219771Y-60335492D01*
X80375414Y-60538330D01*
X80375420Y-60538337D01*
X80556207Y-60719124D01*
X80556213Y-60719129D01*
X80759061Y-60874780D01*
X80759068Y-60874784D01*
X80980483Y-61002619D01*
X80980488Y-61002621D01*
X80980491Y-61002623D01*
X81216713Y-61100469D01*
X81463686Y-61166645D01*
X81717183Y-61200019D01*
X81717190Y-61200019D01*
X81972862Y-61200019D01*
X81972869Y-61200019D01*
X82226366Y-61166645D01*
X82473339Y-61100469D01*
X82709561Y-61002623D01*
X82930991Y-60874780D01*
X83133839Y-60719129D01*
X83314636Y-60538332D01*
X83470287Y-60335484D01*
X83598130Y-60114054D01*
X83695976Y-59877832D01*
X83762152Y-59630859D01*
X83795526Y-59377362D01*
X83795526Y-59121676D01*
X83762152Y-58868179D01*
X83695976Y-58621206D01*
X83598130Y-58384984D01*
X83598128Y-58384981D01*
X83598126Y-58384976D01*
X83470291Y-58163561D01*
X83470287Y-58163554D01*
X83314636Y-57960706D01*
X83314631Y-57960700D01*
X83133844Y-57779913D01*
X83133837Y-57779907D01*
X82930999Y-57624264D01*
X82930997Y-57624262D01*
X82930991Y-57624258D01*
X82930986Y-57624255D01*
X82930983Y-57624253D01*
X82709568Y-57496418D01*
X82709557Y-57496413D01*
X82473348Y-57398572D01*
X82473341Y-57398570D01*
X82473339Y-57398569D01*
X82226366Y-57332393D01*
X82150410Y-57322393D01*
X81972876Y-57299019D01*
X81972869Y-57299019D01*
X81717183Y-57299019D01*
X81717175Y-57299019D01*
X81491852Y-57328684D01*
X81463686Y-57332393D01*
X81216713Y-57398569D01*
X81216703Y-57398572D01*
X80980494Y-57496413D01*
X80980483Y-57496418D01*
X80759068Y-57624253D01*
X80759052Y-57624264D01*
X80556214Y-57779907D01*
X80556207Y-57779913D01*
X80375420Y-57960700D01*
X80375414Y-57960707D01*
X80219771Y-58163545D01*
X80219760Y-58163561D01*
X80091925Y-58384976D01*
X80091920Y-58384987D01*
X79994079Y-58621196D01*
X79994076Y-58621206D01*
X79930580Y-58858179D01*
X79927900Y-58868180D01*
X79894526Y-59121668D01*
X71743381Y-59121668D01*
X71743381Y-49138211D01*
X72539500Y-49138211D01*
X72539500Y-49358654D01*
X72573985Y-49576385D01*
X72642103Y-49786036D01*
X72642104Y-49786039D01*
X72742187Y-49982458D01*
X72871752Y-50160791D01*
X72871756Y-50160796D01*
X73027636Y-50316676D01*
X73027641Y-50316680D01*
X73129606Y-50390761D01*
X73205978Y-50446248D01*
X73333593Y-50511272D01*
X73402393Y-50546328D01*
X73402396Y-50546329D01*
X73507221Y-50580388D01*
X73612049Y-50614448D01*
X73829778Y-50648933D01*
X73829779Y-50648933D01*
X74050221Y-50648933D01*
X74050222Y-50648933D01*
X74267951Y-50614448D01*
X74477606Y-50546328D01*
X74674022Y-50446248D01*
X74852365Y-50316675D01*
X74902536Y-50266503D01*
X74963857Y-50233019D01*
X75033548Y-50238003D01*
X75089482Y-50279874D01*
X75106398Y-50310852D01*
X75136202Y-50390761D01*
X75136206Y-50390768D01*
X75222452Y-50505977D01*
X75222455Y-50505980D01*
X75337664Y-50592226D01*
X75337671Y-50592230D01*
X75472517Y-50642524D01*
X75472516Y-50642524D01*
X75479444Y-50643268D01*
X75532127Y-50648933D01*
X77427872Y-50648932D01*
X77487483Y-50642524D01*
X77622331Y-50592229D01*
X77737546Y-50505979D01*
X77823796Y-50390764D01*
X77874091Y-50255916D01*
X77880500Y-50196306D01*
X77880499Y-48755674D01*
X77900184Y-48688636D01*
X77916813Y-48667999D01*
X79121387Y-47463426D01*
X79121392Y-47463422D01*
X79131595Y-47453218D01*
X79131597Y-47453218D01*
X79243401Y-47341414D01*
X79305383Y-47234057D01*
X79322458Y-47204483D01*
X79363381Y-47051756D01*
X79363381Y-46893641D01*
X79363381Y-43629601D01*
X79383066Y-43562562D01*
X79431087Y-43519116D01*
X79444491Y-43512287D01*
X79610100Y-43391966D01*
X79754847Y-43247219D01*
X79754849Y-43247215D01*
X79754852Y-43247213D01*
X79807613Y-43174590D01*
X79875168Y-43081610D01*
X79968101Y-42899219D01*
X80031358Y-42704534D01*
X80063381Y-42502352D01*
X80063381Y-42297648D01*
X80031358Y-42095466D01*
X79968101Y-41900781D01*
X79968099Y-41900778D01*
X79968099Y-41900776D01*
X79911909Y-41790499D01*
X79875168Y-41718390D01*
X79840655Y-41670886D01*
X79754852Y-41552786D01*
X79610094Y-41408028D01*
X79444494Y-41287715D01*
X79444493Y-41287714D01*
X79444491Y-41287713D01*
X79366807Y-41248131D01*
X79262104Y-41194781D01*
X79067415Y-41131522D01*
X78892876Y-41103878D01*
X78865233Y-41099500D01*
X78660529Y-41099500D01*
X78636210Y-41103351D01*
X78458346Y-41131522D01*
X78263657Y-41194781D01*
X78081267Y-41287715D01*
X77915667Y-41408028D01*
X77770909Y-41552786D01*
X77650596Y-41718386D01*
X77557662Y-41900776D01*
X77494403Y-42095465D01*
X77462381Y-42297648D01*
X77462381Y-42502351D01*
X77494403Y-42704534D01*
X77557662Y-42899223D01*
X77650596Y-43081613D01*
X77770909Y-43247213D01*
X77770915Y-43247219D01*
X77915662Y-43391966D01*
X78081271Y-43512287D01*
X78094674Y-43519116D01*
X78145470Y-43567088D01*
X78162381Y-43629601D01*
X78162381Y-46672600D01*
X78142696Y-46739639D01*
X78126062Y-46760281D01*
X77074728Y-47811614D01*
X77013405Y-47845099D01*
X76987047Y-47847933D01*
X75532129Y-47847933D01*
X75532123Y-47847934D01*
X75472516Y-47854341D01*
X75337671Y-47904635D01*
X75337664Y-47904639D01*
X75222455Y-47990885D01*
X75222452Y-47990888D01*
X75136206Y-48106097D01*
X75136203Y-48106102D01*
X75106398Y-48186014D01*
X75064526Y-48241947D01*
X74999062Y-48266364D01*
X74930789Y-48251512D01*
X74902535Y-48230361D01*
X74852363Y-48180189D01*
X74852358Y-48180185D01*
X74674025Y-48050620D01*
X74674024Y-48050619D01*
X74674022Y-48050618D01*
X74556791Y-47990885D01*
X74477606Y-47950537D01*
X74477603Y-47950536D01*
X74267952Y-47882418D01*
X74159086Y-47865175D01*
X74050222Y-47847933D01*
X73829778Y-47847933D01*
X73757201Y-47859428D01*
X73612047Y-47882418D01*
X73402396Y-47950536D01*
X73402393Y-47950537D01*
X73205974Y-48050620D01*
X73027641Y-48180185D01*
X73027636Y-48180189D01*
X72871756Y-48336069D01*
X72871752Y-48336074D01*
X72742187Y-48514407D01*
X72642104Y-48710826D01*
X72642103Y-48710829D01*
X72573985Y-48920480D01*
X72539500Y-49138211D01*
X71743381Y-49138211D01*
X71743381Y-43629601D01*
X71763066Y-43562562D01*
X71811087Y-43519116D01*
X71824491Y-43512287D01*
X71990100Y-43391966D01*
X72134847Y-43247219D01*
X72134849Y-43247215D01*
X72134852Y-43247213D01*
X72187613Y-43174590D01*
X72255168Y-43081610D01*
X72348101Y-42899219D01*
X72411358Y-42704534D01*
X72443381Y-42502352D01*
X72443381Y-42297648D01*
X72411358Y-42095466D01*
X72348101Y-41900781D01*
X72348099Y-41900778D01*
X72348099Y-41900776D01*
X72291909Y-41790499D01*
X72255168Y-41718390D01*
X72220655Y-41670886D01*
X72134852Y-41552786D01*
X71990094Y-41408028D01*
X71824494Y-41287715D01*
X71824493Y-41287714D01*
X71824491Y-41287713D01*
X71746807Y-41248131D01*
X71642104Y-41194781D01*
X71447415Y-41131522D01*
X71272876Y-41103878D01*
X71245233Y-41099500D01*
X71040529Y-41099500D01*
X71016210Y-41103351D01*
X70838346Y-41131522D01*
X70643657Y-41194781D01*
X70461267Y-41287715D01*
X70295667Y-41408028D01*
X70150909Y-41552786D01*
X70030596Y-41718386D01*
X69937662Y-41900776D01*
X69874403Y-42095465D01*
X69842381Y-42297648D01*
X69842381Y-42502351D01*
X69874403Y-42704534D01*
X69937662Y-42899223D01*
X70030596Y-43081613D01*
X70150909Y-43247213D01*
X70150915Y-43247219D01*
X70295662Y-43391966D01*
X70461271Y-43512287D01*
X70474674Y-43519116D01*
X70525470Y-43567088D01*
X70542381Y-43629601D01*
X70542381Y-86488876D01*
X70522696Y-86555915D01*
X70506062Y-86576557D01*
X62190023Y-94892595D01*
X62128700Y-94926080D01*
X62059008Y-94921096D01*
X62014661Y-94892595D01*
X61930094Y-94808028D01*
X61764494Y-94687715D01*
X61764493Y-94687714D01*
X61764491Y-94687713D01*
X61695262Y-94652439D01*
X61582104Y-94594781D01*
X61387415Y-94531522D01*
X61197696Y-94501474D01*
X61185233Y-94499500D01*
X60980529Y-94499500D01*
X60968066Y-94501474D01*
X60778346Y-94531522D01*
X60583657Y-94594781D01*
X60401267Y-94687715D01*
X60235667Y-94808028D01*
X60090909Y-94952786D01*
X59970596Y-95118386D01*
X59923366Y-95211080D01*
X59875391Y-95261876D01*
X59807570Y-95278671D01*
X59741435Y-95256134D01*
X59702396Y-95211080D01*
X59694554Y-95195689D01*
X59655168Y-95118390D01*
X59610048Y-95056287D01*
X59534852Y-94952786D01*
X59390094Y-94808028D01*
X59224494Y-94687715D01*
X59224493Y-94687714D01*
X59224491Y-94687713D01*
X59155262Y-94652439D01*
X59053375Y-94600524D01*
X59002579Y-94552549D01*
X58985784Y-94484728D01*
X59008322Y-94418593D01*
X59021983Y-94402364D01*
X67143401Y-86280949D01*
X67222458Y-86144017D01*
X67263382Y-85991290D01*
X67263382Y-85833175D01*
X67263382Y-85825580D01*
X67263381Y-85825562D01*
X67263381Y-38120945D01*
X67263381Y-38120943D01*
X67225208Y-37978477D01*
X67222458Y-37968215D01*
X67191861Y-37915220D01*
X67143401Y-37831284D01*
X67031597Y-37719480D01*
X67031596Y-37719479D01*
X67027266Y-37715149D01*
X67027255Y-37715139D01*
X66466958Y-37154842D01*
X66433473Y-37093519D01*
X66436709Y-37028841D01*
X66441358Y-37014534D01*
X66473381Y-36812352D01*
X66473381Y-36607648D01*
X66441358Y-36405466D01*
X66378101Y-36210781D01*
X66378099Y-36210778D01*
X66378099Y-36210776D01*
X66344384Y-36144607D01*
X66285168Y-36028390D01*
X66277437Y-36017749D01*
X66164852Y-35862786D01*
X66020094Y-35718028D01*
X65854494Y-35597715D01*
X65854493Y-35597714D01*
X65854491Y-35597713D01*
X65797534Y-35568691D01*
X65672104Y-35504781D01*
X65477415Y-35441522D01*
X65302876Y-35413878D01*
X65275233Y-35409500D01*
X65070529Y-35409500D01*
X65046210Y-35413351D01*
X64868346Y-35441522D01*
X64673657Y-35504781D01*
X64491267Y-35597715D01*
X64325667Y-35718028D01*
X64180909Y-35862786D01*
X64060596Y-36028386D01*
X63967662Y-36210776D01*
X63904403Y-36405465D01*
X63872381Y-36607648D01*
X63872381Y-36812351D01*
X63904403Y-37014534D01*
X63967662Y-37209223D01*
X64060596Y-37391613D01*
X64180909Y-37557213D01*
X64325667Y-37701971D01*
X64480630Y-37814556D01*
X64491271Y-37822287D01*
X64607488Y-37881503D01*
X64673657Y-37915218D01*
X64673659Y-37915218D01*
X64673662Y-37915220D01*
X64778018Y-37949127D01*
X64868346Y-37978477D01*
X64969438Y-37994488D01*
X65070529Y-38010500D01*
X65070530Y-38010500D01*
X65275232Y-38010500D01*
X65275233Y-38010500D01*
X65477415Y-37978477D01*
X65491723Y-37973827D01*
X65561563Y-37971831D01*
X65617723Y-38004077D01*
X66026062Y-38412416D01*
X66059547Y-38473739D01*
X66062381Y-38500097D01*
X66062381Y-44037449D01*
X66042696Y-44104488D01*
X65989892Y-44150243D01*
X65920734Y-44160187D01*
X65857178Y-44131162D01*
X65827897Y-44093745D01*
X65825167Y-44088388D01*
X65704852Y-43922786D01*
X65560094Y-43778028D01*
X65394494Y-43657715D01*
X65394493Y-43657714D01*
X65394491Y-43657713D01*
X65292844Y-43605921D01*
X65212104Y-43564781D01*
X65017415Y-43501522D01*
X64842876Y-43473878D01*
X64815233Y-43469500D01*
X64610529Y-43469500D01*
X64572480Y-43475526D01*
X64408349Y-43501522D01*
X64399598Y-43504365D01*
X64394035Y-43506173D01*
X64324194Y-43508167D01*
X64268038Y-43475922D01*
X62631082Y-41838966D01*
X62597597Y-41777643D01*
X62602581Y-41707951D01*
X62644453Y-41652018D01*
X62650427Y-41647546D01*
X62736677Y-41532331D01*
X62786972Y-41397483D01*
X62793381Y-41337873D01*
X62793380Y-39442128D01*
X62786972Y-39382517D01*
X62751612Y-39287713D01*
X62736678Y-39247671D01*
X62736674Y-39247664D01*
X62650428Y-39132455D01*
X62650425Y-39132452D01*
X62535216Y-39046206D01*
X62535209Y-39046202D01*
X62400363Y-38995908D01*
X62400364Y-38995908D01*
X62340764Y-38989501D01*
X62340762Y-38989500D01*
X62340754Y-38989500D01*
X62340745Y-38989500D01*
X61175010Y-38989500D01*
X61175004Y-38989501D01*
X61115397Y-38995908D01*
X60980552Y-39046202D01*
X60972771Y-39050452D01*
X60971682Y-39048459D01*
X60917869Y-39068518D01*
X60861598Y-39059393D01*
X60788471Y-39029103D01*
X60788459Y-39029100D01*
X60589379Y-38989500D01*
X60589376Y-38989500D01*
X60386386Y-38989500D01*
X60386383Y-38989500D01*
X60187302Y-39029100D01*
X60187290Y-39029103D01*
X59999758Y-39106781D01*
X59921772Y-39158890D01*
X59855094Y-39179768D01*
X59787714Y-39161283D01*
X59783990Y-39158890D01*
X59706003Y-39106781D01*
X59518471Y-39029103D01*
X59518459Y-39029100D01*
X59319379Y-38989500D01*
X59319376Y-38989500D01*
X59116386Y-38989500D01*
X59116383Y-38989500D01*
X58917302Y-39029100D01*
X58917290Y-39029103D01*
X58729758Y-39106781D01*
X58651772Y-39158890D01*
X58585094Y-39179768D01*
X58517714Y-39161283D01*
X58513990Y-39158890D01*
X58436003Y-39106781D01*
X58248471Y-39029103D01*
X58248459Y-39029100D01*
X58049379Y-38989500D01*
X58049376Y-38989500D01*
X57846386Y-38989500D01*
X57846383Y-38989500D01*
X57647302Y-39029100D01*
X57647290Y-39029103D01*
X57459762Y-39106779D01*
X57459749Y-39106786D01*
X57290976Y-39219557D01*
X57290972Y-39219560D01*
X57147441Y-39363091D01*
X57147438Y-39363095D01*
X57034667Y-39531868D01*
X57034660Y-39531881D01*
X56956984Y-39719409D01*
X56956981Y-39719421D01*
X56917381Y-39918500D01*
X56917381Y-40861499D01*
X56956981Y-41060578D01*
X56956984Y-41060590D01*
X57034660Y-41248118D01*
X57034667Y-41248131D01*
X57147438Y-41416904D01*
X57147441Y-41416908D01*
X57224408Y-41493875D01*
X57257893Y-41555198D01*
X57252909Y-41624890D01*
X57224408Y-41669237D01*
X55287723Y-43605921D01*
X55226400Y-43639406D01*
X55161729Y-43636173D01*
X55147415Y-43631522D01*
X54972876Y-43603878D01*
X54945233Y-43599500D01*
X54740529Y-43599500D01*
X54716210Y-43603351D01*
X54538346Y-43631522D01*
X54343657Y-43694781D01*
X54161267Y-43787715D01*
X53995667Y-43908028D01*
X53850909Y-44052786D01*
X53730596Y-44218386D01*
X53637662Y-44400776D01*
X53574403Y-44595465D01*
X53542381Y-44797648D01*
X53542381Y-45002351D01*
X53574403Y-45204534D01*
X53637662Y-45399223D01*
X53730596Y-45581613D01*
X53850909Y-45747213D01*
X53995667Y-45891971D01*
X54110249Y-45975218D01*
X54161271Y-46012287D01*
X54271550Y-46068477D01*
X54343657Y-46105218D01*
X54343659Y-46105218D01*
X54343662Y-46105220D01*
X54448018Y-46139127D01*
X54538346Y-46168477D01*
X54639438Y-46184488D01*
X54740529Y-46200500D01*
X54740530Y-46200500D01*
X54945232Y-46200500D01*
X54945233Y-46200500D01*
X55147415Y-46168477D01*
X55342100Y-46105220D01*
X55524491Y-46012287D01*
X55617471Y-45944732D01*
X55690094Y-45891971D01*
X55690096Y-45891968D01*
X55690100Y-45891966D01*
X55834847Y-45747219D01*
X55834849Y-45747215D01*
X55834852Y-45747213D01*
X55887613Y-45674590D01*
X55955168Y-45581610D01*
X56048101Y-45399219D01*
X56111358Y-45204534D01*
X56143381Y-45002352D01*
X56143381Y-44797648D01*
X56111358Y-44595466D01*
X56106706Y-44581151D01*
X56104713Y-44511312D01*
X56136956Y-44455158D01*
X58306387Y-42285728D01*
X58306392Y-42285724D01*
X58316595Y-42275520D01*
X58316597Y-42275520D01*
X58428401Y-42163716D01*
X58504860Y-42031284D01*
X58507458Y-42026785D01*
X58548381Y-41874057D01*
X58548381Y-41783151D01*
X58568066Y-41716112D01*
X58620870Y-41670357D01*
X58690028Y-41660413D01*
X58723868Y-41671511D01*
X58724127Y-41670886D01*
X58876007Y-41733796D01*
X58917295Y-41750898D01*
X59084166Y-41784091D01*
X59116381Y-41790499D01*
X59116384Y-41790500D01*
X59116386Y-41790500D01*
X59319378Y-41790500D01*
X59319379Y-41790499D01*
X59518467Y-41750898D01*
X59588585Y-41721854D01*
X59711635Y-41670886D01*
X59712212Y-41672279D01*
X59773312Y-41659549D01*
X59838560Y-41684540D01*
X59879939Y-41740839D01*
X59887381Y-41783151D01*
X59887381Y-43375500D01*
X59867696Y-43442539D01*
X59814892Y-43488294D01*
X59763381Y-43499500D01*
X59660529Y-43499500D01*
X59638387Y-43503007D01*
X59458346Y-43531522D01*
X59263657Y-43594781D01*
X59081267Y-43687715D01*
X58915667Y-43808028D01*
X58770909Y-43952786D01*
X58650596Y-44118386D01*
X58557662Y-44300776D01*
X58494403Y-44495465D01*
X58462381Y-44697648D01*
X58462381Y-44902351D01*
X58494403Y-45104534D01*
X58557662Y-45299223D01*
X58650596Y-45481613D01*
X58770909Y-45647213D01*
X58915667Y-45791971D01*
X59039975Y-45882284D01*
X59081271Y-45912287D01*
X59197488Y-45971503D01*
X59263657Y-46005218D01*
X59263659Y-46005218D01*
X59263662Y-46005220D01*
X59366017Y-46038477D01*
X59458346Y-46068477D01*
X59559438Y-46084488D01*
X59660529Y-46100500D01*
X59660530Y-46100500D01*
X59865232Y-46100500D01*
X59865233Y-46100500D01*
X60067415Y-46068477D01*
X60262100Y-46005220D01*
X60444491Y-45912287D01*
X60537471Y-45844732D01*
X60610094Y-45791971D01*
X60610096Y-45791968D01*
X60610100Y-45791966D01*
X60754847Y-45647219D01*
X60754849Y-45647215D01*
X60754852Y-45647213D01*
X60859954Y-45502550D01*
X60875168Y-45481610D01*
X60968101Y-45299219D01*
X61031358Y-45104534D01*
X61063381Y-44902352D01*
X61063381Y-44697648D01*
X61031358Y-44495466D01*
X61014985Y-44445078D01*
X61012990Y-44375241D01*
X61025528Y-44344767D01*
X61036384Y-44325965D01*
X61047458Y-44306785D01*
X61088382Y-44154057D01*
X61088382Y-43995943D01*
X61088382Y-43988348D01*
X61088381Y-43988330D01*
X61088381Y-42294098D01*
X61108066Y-42227059D01*
X61160870Y-42181304D01*
X61230028Y-42171360D01*
X61293584Y-42200385D01*
X61300047Y-42206402D01*
X61389165Y-42295520D01*
X61389167Y-42295521D01*
X61396237Y-42302591D01*
X63418803Y-44325157D01*
X63452288Y-44386480D01*
X63449054Y-44451155D01*
X63444403Y-44465468D01*
X63412381Y-44667648D01*
X63412381Y-44872351D01*
X63444403Y-45074534D01*
X63507662Y-45269223D01*
X63600596Y-45451613D01*
X63720909Y-45617213D01*
X63865667Y-45761971D01*
X64020630Y-45874556D01*
X64031271Y-45882287D01*
X64147488Y-45941503D01*
X64213657Y-45975218D01*
X64213659Y-45975218D01*
X64213662Y-45975220D01*
X64318018Y-46009127D01*
X64408346Y-46038477D01*
X64509438Y-46054488D01*
X64610529Y-46070500D01*
X64610530Y-46070500D01*
X64815232Y-46070500D01*
X64815233Y-46070500D01*
X65017415Y-46038477D01*
X65212100Y-45975220D01*
X65394491Y-45882287D01*
X65487471Y-45814732D01*
X65560094Y-45761971D01*
X65560096Y-45761968D01*
X65560100Y-45761966D01*
X65704847Y-45617219D01*
X65704849Y-45617215D01*
X65704852Y-45617213D01*
X65825167Y-45451612D01*
X65827895Y-45446258D01*
X65875867Y-45395461D01*
X65943688Y-45378664D01*
X66009823Y-45401199D01*
X66053277Y-45455913D01*
X66062381Y-45502550D01*
X66062381Y-51657449D01*
X66042696Y-51724488D01*
X65989892Y-51770243D01*
X65920734Y-51780187D01*
X65857178Y-51751162D01*
X65827897Y-51713745D01*
X65825167Y-51708388D01*
X65704852Y-51542786D01*
X65560094Y-51398028D01*
X65394494Y-51277715D01*
X65394493Y-51277714D01*
X65394491Y-51277713D01*
X65337534Y-51248691D01*
X65212104Y-51184781D01*
X65017415Y-51121522D01*
X64842876Y-51093878D01*
X64815233Y-51089500D01*
X64610529Y-51089500D01*
X64586210Y-51093351D01*
X64408346Y-51121522D01*
X64213657Y-51184781D01*
X64031267Y-51277715D01*
X63865667Y-51398028D01*
X63720909Y-51542786D01*
X63600596Y-51708386D01*
X63507662Y-51890776D01*
X63444403Y-52085465D01*
X63415298Y-52269229D01*
X63412381Y-52287648D01*
X63412381Y-52492352D01*
X63417133Y-52522352D01*
X63444404Y-52694535D01*
X63449053Y-52708845D01*
X63451046Y-52778687D01*
X63418802Y-52834841D01*
X62907603Y-53346041D01*
X62907597Y-53346047D01*
X62904167Y-53349478D01*
X62904165Y-53349480D01*
X62792361Y-53461284D01*
X62763100Y-53511966D01*
X62757399Y-53521839D01*
X62757399Y-53521840D01*
X62715034Y-53595218D01*
X62713304Y-53598215D01*
X62672380Y-53750943D01*
X62672380Y-53750945D01*
X62672380Y-53919046D01*
X62672381Y-53919059D01*
X62672381Y-81409903D01*
X62652696Y-81476942D01*
X62636062Y-81497584D01*
X49360306Y-94773339D01*
X49298983Y-94806824D01*
X49229291Y-94801840D01*
X49199740Y-94785976D01*
X49064494Y-94687715D01*
X49064493Y-94687714D01*
X49064491Y-94687713D01*
X48995262Y-94652439D01*
X48893375Y-94600524D01*
X48842579Y-94552549D01*
X48825784Y-94484728D01*
X48848322Y-94418593D01*
X48861983Y-94402364D01*
X57733401Y-85530949D01*
X57812458Y-85394017D01*
X57853382Y-85241290D01*
X57853382Y-85083175D01*
X57853382Y-85075580D01*
X57853381Y-85075562D01*
X57853381Y-78390616D01*
X57873066Y-78323577D01*
X57925870Y-78277822D01*
X57995028Y-78267878D01*
X58033677Y-78280132D01*
X58043662Y-78285220D01*
X58162387Y-78323796D01*
X58238346Y-78348477D01*
X58339438Y-78364488D01*
X58440529Y-78380500D01*
X58440530Y-78380500D01*
X58645232Y-78380500D01*
X58645233Y-78380500D01*
X58847415Y-78348477D01*
X59042100Y-78285220D01*
X59224491Y-78192287D01*
X59320782Y-78122328D01*
X59390094Y-78071971D01*
X59390096Y-78071968D01*
X59390100Y-78071966D01*
X59534847Y-77927219D01*
X59534849Y-77927215D01*
X59534852Y-77927213D01*
X59655165Y-77761614D01*
X59655167Y-77761611D01*
X59655168Y-77761610D01*
X59702397Y-77668917D01*
X59750370Y-77618123D01*
X59818191Y-77601328D01*
X59884326Y-77623865D01*
X59923364Y-77668917D01*
X59950302Y-77721785D01*
X59970596Y-77761614D01*
X60090909Y-77927213D01*
X60235667Y-78071971D01*
X60365526Y-78166317D01*
X60401271Y-78192287D01*
X60490093Y-78237544D01*
X60583657Y-78285218D01*
X60583659Y-78285218D01*
X60583662Y-78285220D01*
X60632816Y-78301191D01*
X60778346Y-78348477D01*
X60879438Y-78364488D01*
X60980529Y-78380500D01*
X60980530Y-78380500D01*
X61185232Y-78380500D01*
X61185233Y-78380500D01*
X61387415Y-78348477D01*
X61582100Y-78285220D01*
X61764491Y-78192287D01*
X61860782Y-78122328D01*
X61930094Y-78071971D01*
X61930096Y-78071968D01*
X61930100Y-78071966D01*
X62074847Y-77927219D01*
X62074849Y-77927215D01*
X62074852Y-77927213D01*
X62162297Y-77806853D01*
X62195168Y-77761610D01*
X62288101Y-77579219D01*
X62351358Y-77384534D01*
X62383381Y-77182352D01*
X62383381Y-75977648D01*
X62377669Y-75941587D01*
X62351358Y-75775465D01*
X62294346Y-75600001D01*
X62288101Y-75580781D01*
X62288099Y-75580778D01*
X62288099Y-75580776D01*
X62234203Y-75475001D01*
X62195168Y-75398390D01*
X62187437Y-75387749D01*
X62074852Y-75232786D01*
X61930094Y-75088028D01*
X61764494Y-74967715D01*
X61764493Y-74967714D01*
X61764491Y-74967713D01*
X61682085Y-74925725D01*
X61582104Y-74874781D01*
X61387415Y-74811522D01*
X61212876Y-74783878D01*
X61185233Y-74779500D01*
X60980529Y-74779500D01*
X60956210Y-74783351D01*
X60778346Y-74811522D01*
X60583657Y-74874781D01*
X60401267Y-74967715D01*
X60235667Y-75088028D01*
X60090909Y-75232786D01*
X59970596Y-75398386D01*
X59923366Y-75491080D01*
X59875391Y-75541876D01*
X59807570Y-75558671D01*
X59741435Y-75536134D01*
X59702396Y-75491080D01*
X59655300Y-75398650D01*
X59655168Y-75398390D01*
X59647437Y-75387749D01*
X59534852Y-75232786D01*
X59390094Y-75088028D01*
X59224494Y-74967715D01*
X59224493Y-74967714D01*
X59224491Y-74967713D01*
X59142085Y-74925725D01*
X59042104Y-74874781D01*
X58847415Y-74811522D01*
X58672876Y-74783878D01*
X58645233Y-74779500D01*
X58440529Y-74779500D01*
X58416210Y-74783351D01*
X58238346Y-74811522D01*
X58043657Y-74874781D01*
X58033676Y-74879868D01*
X57965007Y-74892764D01*
X57900266Y-74866488D01*
X57860009Y-74809381D01*
X57853381Y-74769383D01*
X57853381Y-55230096D01*
X57873066Y-55163057D01*
X57889695Y-55142420D01*
X59318039Y-53714075D01*
X59379360Y-53680592D01*
X59444032Y-53683825D01*
X59458347Y-53688477D01*
X59458352Y-53688477D01*
X59458353Y-53688478D01*
X59506625Y-53696123D01*
X59660529Y-53720500D01*
X59660530Y-53720500D01*
X59865232Y-53720500D01*
X59865233Y-53720500D01*
X60067415Y-53688477D01*
X60262100Y-53625220D01*
X60444491Y-53532287D01*
X60542219Y-53461284D01*
X60610094Y-53411971D01*
X60610096Y-53411968D01*
X60610100Y-53411966D01*
X60754847Y-53267219D01*
X60754849Y-53267215D01*
X60754852Y-53267213D01*
X60859954Y-53122550D01*
X60875168Y-53101610D01*
X60968101Y-52919219D01*
X61031358Y-52724534D01*
X61063381Y-52522352D01*
X61063381Y-52317648D01*
X61055768Y-52269584D01*
X61031358Y-52115465D01*
X60978760Y-51953586D01*
X60968101Y-51920781D01*
X60968099Y-51920778D01*
X60968099Y-51920776D01*
X60934384Y-51854607D01*
X60875168Y-51738390D01*
X60853372Y-51708390D01*
X60754852Y-51572786D01*
X60610094Y-51428028D01*
X60444494Y-51307715D01*
X60444493Y-51307714D01*
X60444491Y-51307713D01*
X60385613Y-51277713D01*
X60262104Y-51214781D01*
X60067415Y-51151522D01*
X59892876Y-51123878D01*
X59865233Y-51119500D01*
X59660529Y-51119500D01*
X59636210Y-51123351D01*
X59458346Y-51151522D01*
X59263657Y-51214781D01*
X59081267Y-51307715D01*
X58915667Y-51428028D01*
X58770909Y-51572786D01*
X58650596Y-51738386D01*
X58557662Y-51920776D01*
X58494403Y-52115465D01*
X58462381Y-52317648D01*
X58462381Y-52522351D01*
X58494403Y-52724534D01*
X58499054Y-52738848D01*
X58501046Y-52808690D01*
X58468802Y-52864842D01*
X56884167Y-54449478D01*
X56772362Y-54561282D01*
X56772360Y-54561285D01*
X56722242Y-54648094D01*
X56722240Y-54648096D01*
X56693306Y-54698209D01*
X56693305Y-54698210D01*
X56693304Y-54698215D01*
X56652380Y-54850943D01*
X56652380Y-54850945D01*
X56652380Y-55019046D01*
X56652381Y-55019059D01*
X56652381Y-74752938D01*
X56632696Y-74819977D01*
X56579892Y-74865732D01*
X56510734Y-74875676D01*
X56490066Y-74870869D01*
X56439399Y-74854407D01*
X56307415Y-74811522D01*
X56132876Y-74783878D01*
X56105233Y-74779500D01*
X55900529Y-74779500D01*
X55860065Y-74785909D01*
X55698345Y-74811523D01*
X55698342Y-74811523D01*
X55605699Y-74841625D01*
X55535857Y-74843620D01*
X55476025Y-74807539D01*
X55445197Y-74744838D01*
X55443381Y-74723694D01*
X55443381Y-53749601D01*
X55463066Y-53682562D01*
X55511087Y-53639116D01*
X55524491Y-53632287D01*
X55690100Y-53511966D01*
X55834847Y-53367219D01*
X55834849Y-53367215D01*
X55834852Y-53367213D01*
X55887613Y-53294590D01*
X55955168Y-53201610D01*
X56048101Y-53019219D01*
X56111358Y-52824534D01*
X56143381Y-52622352D01*
X56143381Y-52417648D01*
X56111358Y-52215466D01*
X56048101Y-52020781D01*
X56048099Y-52020778D01*
X56048099Y-52020776D01*
X55990172Y-51907089D01*
X55955168Y-51838390D01*
X55947437Y-51827749D01*
X55834852Y-51672786D01*
X55690094Y-51528028D01*
X55524494Y-51407715D01*
X55524493Y-51407714D01*
X55524491Y-51407713D01*
X55467534Y-51378691D01*
X55342104Y-51314781D01*
X55147415Y-51251522D01*
X54972876Y-51223878D01*
X54945233Y-51219500D01*
X54740529Y-51219500D01*
X54716210Y-51223351D01*
X54538346Y-51251522D01*
X54343657Y-51314781D01*
X54161267Y-51407715D01*
X53995667Y-51528028D01*
X53850909Y-51672786D01*
X53730596Y-51838386D01*
X53637662Y-52020776D01*
X53574403Y-52215465D01*
X53542381Y-52417648D01*
X53542381Y-52622351D01*
X53574403Y-52824534D01*
X53637662Y-53019223D01*
X53730596Y-53201613D01*
X53850909Y-53367213D01*
X53850915Y-53367219D01*
X53995662Y-53511966D01*
X54161271Y-53632287D01*
X54174674Y-53639116D01*
X54225470Y-53687088D01*
X54242381Y-53749601D01*
X54242381Y-74815240D01*
X54222696Y-74882279D01*
X54169892Y-74928034D01*
X54100734Y-74937978D01*
X54062086Y-74925725D01*
X53962104Y-74874782D01*
X53962103Y-74874781D01*
X53962100Y-74874780D01*
X53881916Y-74848726D01*
X53767415Y-74811522D01*
X53592876Y-74783878D01*
X53565233Y-74779500D01*
X53360529Y-74779500D01*
X53336210Y-74783351D01*
X53158346Y-74811522D01*
X52963657Y-74874781D01*
X52781267Y-74967715D01*
X52615667Y-75088028D01*
X52470909Y-75232786D01*
X52350596Y-75398386D01*
X52303366Y-75491080D01*
X52255391Y-75541876D01*
X52187570Y-75558671D01*
X52121435Y-75536134D01*
X52082396Y-75491080D01*
X52035300Y-75398650D01*
X52035168Y-75398390D01*
X52027437Y-75387749D01*
X51914852Y-75232786D01*
X51770094Y-75088028D01*
X51604494Y-74967715D01*
X51604493Y-74967714D01*
X51604491Y-74967713D01*
X51522085Y-74925725D01*
X51422104Y-74874781D01*
X51227415Y-74811522D01*
X51052876Y-74783878D01*
X51025233Y-74779500D01*
X50820529Y-74779500D01*
X50796210Y-74783351D01*
X50618346Y-74811522D01*
X50423657Y-74874781D01*
X50241267Y-74967715D01*
X50075667Y-75088028D01*
X49930909Y-75232786D01*
X49810596Y-75398386D01*
X49763366Y-75491080D01*
X49715391Y-75541876D01*
X49647570Y-75558671D01*
X49581435Y-75536134D01*
X49542396Y-75491080D01*
X49495300Y-75398650D01*
X49495168Y-75398390D01*
X49487437Y-75387749D01*
X49374852Y-75232786D01*
X49230094Y-75088028D01*
X49064494Y-74967715D01*
X49064493Y-74967714D01*
X49064491Y-74967713D01*
X48982085Y-74925725D01*
X48882104Y-74874781D01*
X48687415Y-74811522D01*
X48512876Y-74783878D01*
X48485233Y-74779500D01*
X48280529Y-74779500D01*
X48256210Y-74783351D01*
X48078346Y-74811522D01*
X47883657Y-74874781D01*
X47701267Y-74967715D01*
X47535667Y-75088028D01*
X47390909Y-75232786D01*
X47270596Y-75398386D01*
X47223366Y-75491080D01*
X47175391Y-75541876D01*
X47107570Y-75558671D01*
X47041435Y-75536134D01*
X47002396Y-75491080D01*
X46955300Y-75398650D01*
X46955168Y-75398390D01*
X46947437Y-75387749D01*
X46834852Y-75232786D01*
X46690094Y-75088028D01*
X46524494Y-74967715D01*
X46524493Y-74967714D01*
X46524491Y-74967713D01*
X46442085Y-74925725D01*
X46342104Y-74874781D01*
X46147415Y-74811522D01*
X45972876Y-74783878D01*
X45945233Y-74779500D01*
X45740529Y-74779500D01*
X45716210Y-74783351D01*
X45538346Y-74811522D01*
X45343657Y-74874781D01*
X45161267Y-74967715D01*
X44995667Y-75088028D01*
X44850909Y-75232786D01*
X44730596Y-75398386D01*
X44683366Y-75491080D01*
X44635391Y-75541876D01*
X44567570Y-75558671D01*
X44501435Y-75536134D01*
X44462396Y-75491080D01*
X44415300Y-75398650D01*
X44415168Y-75398390D01*
X44407437Y-75387749D01*
X44294852Y-75232786D01*
X44150094Y-75088028D01*
X43984494Y-74967715D01*
X43984493Y-74967714D01*
X43984491Y-74967713D01*
X43902085Y-74925725D01*
X43802104Y-74874781D01*
X43607415Y-74811522D01*
X43432876Y-74783878D01*
X43405233Y-74779500D01*
X43200529Y-74779500D01*
X43160065Y-74785909D01*
X42998345Y-74811523D01*
X42998342Y-74811523D01*
X42852818Y-74858808D01*
X42782977Y-74860803D01*
X42723144Y-74824723D01*
X42692316Y-74762022D01*
X42690500Y-74740877D01*
X42690500Y-52535587D01*
X42710185Y-52468548D01*
X42726819Y-52447906D01*
X44089473Y-51085252D01*
X44150796Y-51051767D01*
X44177154Y-51048933D01*
X44519055Y-51048933D01*
X44519057Y-51048933D01*
X44671784Y-51008010D01*
X44808716Y-50928953D01*
X44920520Y-50817149D01*
X44999577Y-50680217D01*
X45020679Y-50601459D01*
X45057042Y-50541802D01*
X45119889Y-50511272D01*
X45189264Y-50519566D01*
X45196748Y-50523071D01*
X45242383Y-50546323D01*
X45242396Y-50546329D01*
X45347221Y-50580388D01*
X45452049Y-50614448D01*
X45669778Y-50648933D01*
X45669779Y-50648933D01*
X45890221Y-50648933D01*
X45890222Y-50648933D01*
X46107951Y-50614448D01*
X46317606Y-50546328D01*
X46514022Y-50446248D01*
X46692365Y-50316675D01*
X46848242Y-50160798D01*
X46977815Y-49982455D01*
X47077895Y-49786039D01*
X47146015Y-49576384D01*
X47180500Y-49358655D01*
X47180500Y-49138211D01*
X47146015Y-48920482D01*
X47077895Y-48710827D01*
X47077895Y-48710826D01*
X47043237Y-48642808D01*
X46977815Y-48514411D01*
X46961260Y-48491625D01*
X46848247Y-48336074D01*
X46848243Y-48336069D01*
X46692363Y-48180189D01*
X46692358Y-48180185D01*
X46514025Y-48050620D01*
X46514024Y-48050619D01*
X46514022Y-48050618D01*
X46396791Y-47990885D01*
X46317606Y-47950537D01*
X46317603Y-47950536D01*
X46107952Y-47882418D01*
X45999086Y-47865175D01*
X45890222Y-47847933D01*
X45669778Y-47847933D01*
X45598102Y-47859285D01*
X45463898Y-47880541D01*
X45394604Y-47871586D01*
X45341152Y-47826590D01*
X45320513Y-47759838D01*
X45320500Y-47758068D01*
X45320500Y-44742977D01*
X45340185Y-44675938D01*
X45356814Y-44655301D01*
X48318039Y-41694075D01*
X48379360Y-41660592D01*
X48444032Y-41663825D01*
X48458347Y-41668477D01*
X48458352Y-41668477D01*
X48458353Y-41668478D01*
X48482351Y-41672279D01*
X48660529Y-41700500D01*
X48660530Y-41700500D01*
X48865232Y-41700500D01*
X48865233Y-41700500D01*
X49067415Y-41668477D01*
X49262100Y-41605220D01*
X49444491Y-41512287D01*
X49575770Y-41416908D01*
X49610094Y-41391971D01*
X49610096Y-41391968D01*
X49610100Y-41391966D01*
X49754847Y-41247219D01*
X49754849Y-41247215D01*
X49754852Y-41247213D01*
X49862170Y-41099500D01*
X49875168Y-41081610D01*
X49968101Y-40899219D01*
X50031358Y-40704534D01*
X50063381Y-40502352D01*
X50063381Y-40297648D01*
X50031358Y-40095466D01*
X49968101Y-39900781D01*
X49968099Y-39900778D01*
X49968099Y-39900776D01*
X49934384Y-39834607D01*
X49875168Y-39718390D01*
X49867437Y-39707749D01*
X49754852Y-39552786D01*
X49610094Y-39408028D01*
X49444494Y-39287715D01*
X49444493Y-39287714D01*
X49444491Y-39287713D01*
X49387534Y-39258691D01*
X49262104Y-39194781D01*
X49067415Y-39131522D01*
X48892876Y-39103878D01*
X48865233Y-39099500D01*
X48660529Y-39099500D01*
X48636210Y-39103351D01*
X48458346Y-39131522D01*
X48263657Y-39194781D01*
X48081267Y-39287715D01*
X47915667Y-39408028D01*
X47770909Y-39552786D01*
X47650596Y-39718386D01*
X47557662Y-39900776D01*
X47494403Y-40095465D01*
X47462381Y-40297648D01*
X47462381Y-40502351D01*
X47494403Y-40704534D01*
X47499054Y-40718848D01*
X47501046Y-40788690D01*
X47468802Y-40844842D01*
X44354474Y-43959170D01*
X44354467Y-43959177D01*
X44351286Y-43962359D01*
X44351284Y-43962361D01*
X44239480Y-44074165D01*
X44213947Y-44118390D01*
X44160423Y-44211096D01*
X44119499Y-44363824D01*
X44119499Y-44363826D01*
X44119499Y-44531927D01*
X44119500Y-44531940D01*
X44119500Y-47723933D01*
X44099815Y-47790972D01*
X44047011Y-47836727D01*
X43995500Y-47847933D01*
X42736411Y-47847933D01*
X42669372Y-47828248D01*
X42648730Y-47811614D01*
X41779700Y-46942584D01*
X41746215Y-46881261D01*
X41743381Y-46854903D01*
X41743381Y-41629601D01*
X41763066Y-41562562D01*
X41811087Y-41519116D01*
X41824491Y-41512287D01*
X41990100Y-41391966D01*
X42134847Y-41247219D01*
X42134849Y-41247215D01*
X42134852Y-41247213D01*
X42242170Y-41099500D01*
X42255168Y-41081610D01*
X42348101Y-40899219D01*
X42411358Y-40704534D01*
X42443381Y-40502352D01*
X42443381Y-40297648D01*
X42411358Y-40095466D01*
X42348101Y-39900781D01*
X42348099Y-39900778D01*
X42348099Y-39900776D01*
X42314384Y-39834607D01*
X42255168Y-39718390D01*
X42247437Y-39707749D01*
X42134852Y-39552786D01*
X41990094Y-39408028D01*
X41824494Y-39287715D01*
X41824493Y-39287714D01*
X41824491Y-39287713D01*
X41767534Y-39258691D01*
X41642104Y-39194781D01*
X41447415Y-39131522D01*
X41272876Y-39103878D01*
X41245233Y-39099500D01*
X41040529Y-39099500D01*
X41016210Y-39103351D01*
X40838346Y-39131522D01*
X40643657Y-39194781D01*
X40461267Y-39287715D01*
X40295667Y-39408028D01*
X40150909Y-39552786D01*
X40030596Y-39718386D01*
X39937662Y-39900776D01*
X39874403Y-40095465D01*
X39842381Y-40297648D01*
X39842381Y-40502351D01*
X39874403Y-40704534D01*
X39937662Y-40899223D01*
X40030596Y-41081613D01*
X40150909Y-41247213D01*
X40150915Y-41247219D01*
X40295662Y-41391966D01*
X40461271Y-41512287D01*
X40474674Y-41519116D01*
X40525470Y-41567088D01*
X40542381Y-41629601D01*
X40542381Y-47068330D01*
X40542380Y-47068348D01*
X40542380Y-47234052D01*
X40542379Y-47234054D01*
X40583304Y-47386785D01*
X40612239Y-47436900D01*
X40612240Y-47436904D01*
X40612241Y-47436904D01*
X40662360Y-47523714D01*
X40662362Y-47523717D01*
X40781230Y-47642585D01*
X40781236Y-47642590D01*
X41803181Y-48664535D01*
X41836666Y-48725858D01*
X41839500Y-48752216D01*
X41839500Y-50196303D01*
X41839501Y-50196309D01*
X41845908Y-50255916D01*
X41896202Y-50390761D01*
X41896206Y-50390768D01*
X41982452Y-50505977D01*
X41982455Y-50505980D01*
X42097664Y-50592226D01*
X42097671Y-50592230D01*
X42142618Y-50608994D01*
X42232517Y-50642524D01*
X42292127Y-50648933D01*
X42527959Y-50648932D01*
X42594998Y-50668616D01*
X42640753Y-50721420D01*
X42650697Y-50790579D01*
X42621672Y-50854134D01*
X42615640Y-50860613D01*
X41721286Y-51754968D01*
X41609481Y-51866772D01*
X41609479Y-51866775D01*
X41559361Y-51953584D01*
X41559359Y-51953586D01*
X41530425Y-52003699D01*
X41530424Y-52003700D01*
X41530423Y-52003705D01*
X41489499Y-52156433D01*
X41489499Y-52156435D01*
X41489499Y-52324536D01*
X41489500Y-52324549D01*
X41489500Y-74788296D01*
X41469815Y-74855335D01*
X41417011Y-74901090D01*
X41347853Y-74911034D01*
X41309205Y-74898781D01*
X41262104Y-74874781D01*
X41067415Y-74811522D01*
X40892876Y-74783878D01*
X40865233Y-74779500D01*
X40660529Y-74779500D01*
X40636210Y-74783351D01*
X40458346Y-74811522D01*
X40263657Y-74874781D01*
X40081267Y-74967715D01*
X39915667Y-75088028D01*
X39770909Y-75232786D01*
X39650596Y-75398386D01*
X39603366Y-75491080D01*
X39555391Y-75541876D01*
X39487570Y-75558671D01*
X39421435Y-75536134D01*
X39382396Y-75491080D01*
X39335300Y-75398650D01*
X39335168Y-75398390D01*
X39327437Y-75387749D01*
X39214852Y-75232786D01*
X39070094Y-75088028D01*
X38904494Y-74967715D01*
X38904493Y-74967714D01*
X38904491Y-74967713D01*
X38822085Y-74925725D01*
X38722104Y-74874781D01*
X38527415Y-74811522D01*
X38352876Y-74783878D01*
X38325233Y-74779500D01*
X38120529Y-74779500D01*
X38096210Y-74783351D01*
X37918346Y-74811522D01*
X37723657Y-74874781D01*
X37541267Y-74967715D01*
X37375667Y-75088028D01*
X37230909Y-75232786D01*
X37110596Y-75398386D01*
X37063366Y-75491080D01*
X37015391Y-75541876D01*
X36947570Y-75558671D01*
X36881435Y-75536134D01*
X36842396Y-75491080D01*
X36795300Y-75398650D01*
X36795168Y-75398390D01*
X36787437Y-75387749D01*
X36674852Y-75232786D01*
X36530094Y-75088028D01*
X36364494Y-74967715D01*
X36364493Y-74967714D01*
X36364491Y-74967713D01*
X36282085Y-74925725D01*
X36182104Y-74874781D01*
X35987415Y-74811522D01*
X35812876Y-74783878D01*
X35785233Y-74779500D01*
X35580529Y-74779500D01*
X35556210Y-74783351D01*
X35378346Y-74811522D01*
X35183657Y-74874781D01*
X35001267Y-74967715D01*
X34835667Y-75088028D01*
X34690909Y-75232786D01*
X34570596Y-75398386D01*
X34523366Y-75491080D01*
X34475391Y-75541876D01*
X34407570Y-75558671D01*
X34341435Y-75536134D01*
X34302396Y-75491080D01*
X34255300Y-75398650D01*
X34255168Y-75398390D01*
X34247437Y-75387749D01*
X34134852Y-75232786D01*
X33990094Y-75088028D01*
X33824494Y-74967715D01*
X33824493Y-74967714D01*
X33824491Y-74967713D01*
X33742085Y-74925725D01*
X33642104Y-74874781D01*
X33447415Y-74811522D01*
X33272876Y-74783878D01*
X33245233Y-74779500D01*
X33040529Y-74779500D01*
X33016210Y-74783351D01*
X32838346Y-74811522D01*
X32643657Y-74874781D01*
X32461267Y-74967715D01*
X32295667Y-75088028D01*
X32150909Y-75232786D01*
X32030594Y-75398388D01*
X31983084Y-75491630D01*
X31935109Y-75542426D01*
X31867288Y-75559220D01*
X31801153Y-75536682D01*
X31762115Y-75491628D01*
X31714742Y-75398652D01*
X31594463Y-75233105D01*
X31594463Y-75233104D01*
X31449776Y-75088417D01*
X31284230Y-74968140D01*
X31101910Y-74875244D01*
X30907294Y-74812009D01*
X30852881Y-74803390D01*
X30852881Y-75846988D01*
X30795874Y-75814075D01*
X30668707Y-75780000D01*
X30537055Y-75780000D01*
X30409888Y-75814075D01*
X30352881Y-75846988D01*
X30352881Y-74803390D01*
X30298467Y-74812009D01*
X30103851Y-74875244D01*
X29921531Y-74968140D01*
X29755986Y-75088417D01*
X29755985Y-75088417D01*
X29611298Y-75233104D01*
X29611298Y-75233105D01*
X29491021Y-75398650D01*
X29443646Y-75491629D01*
X29395671Y-75542425D01*
X29327850Y-75559220D01*
X29261715Y-75536682D01*
X29222676Y-75491629D01*
X29175300Y-75398650D01*
X29175168Y-75398390D01*
X29167437Y-75387749D01*
X29054852Y-75232786D01*
X28910094Y-75088028D01*
X28744494Y-74967715D01*
X28744493Y-74967714D01*
X28744491Y-74967713D01*
X28662085Y-74925725D01*
X28562104Y-74874781D01*
X28367415Y-74811522D01*
X28192876Y-74783878D01*
X28165233Y-74779500D01*
X27960529Y-74779500D01*
X27936210Y-74783351D01*
X27758346Y-74811522D01*
X27563657Y-74874781D01*
X27381267Y-74967715D01*
X27215667Y-75088028D01*
X27070909Y-75232786D01*
X26950596Y-75398386D01*
X26903366Y-75491080D01*
X26855391Y-75541876D01*
X26787570Y-75558671D01*
X26721435Y-75536134D01*
X26682396Y-75491080D01*
X26635300Y-75398650D01*
X26635168Y-75398390D01*
X26627437Y-75387749D01*
X26514852Y-75232786D01*
X26370094Y-75088028D01*
X26204494Y-74967715D01*
X26204493Y-74967714D01*
X26204491Y-74967713D01*
X26122085Y-74925725D01*
X26022104Y-74874781D01*
X25827415Y-74811522D01*
X25652876Y-74783878D01*
X25625233Y-74779500D01*
X25420529Y-74779500D01*
X25380065Y-74785909D01*
X25218345Y-74811523D01*
X25218342Y-74811523D01*
X25053084Y-74865219D01*
X24983243Y-74867214D01*
X24927085Y-74834969D01*
X22438965Y-72346849D01*
X22405480Y-72285526D01*
X22402646Y-72259168D01*
X22402646Y-71686268D01*
X26126646Y-71686268D01*
X26126646Y-71863425D01*
X26154360Y-72038403D01*
X26209102Y-72206886D01*
X26209103Y-72206889D01*
X26289532Y-72364737D01*
X26393663Y-72508061D01*
X26518932Y-72633330D01*
X26662256Y-72737461D01*
X26739675Y-72776908D01*
X26820103Y-72817889D01*
X26820106Y-72817890D01*
X26904347Y-72845261D01*
X26988591Y-72872633D01*
X27163567Y-72900347D01*
X27163568Y-72900347D01*
X27340724Y-72900347D01*
X27340725Y-72900347D01*
X27515701Y-72872633D01*
X27684188Y-72817889D01*
X27842036Y-72737461D01*
X27985360Y-72633330D01*
X28110629Y-72508061D01*
X28214760Y-72364737D01*
X28295188Y-72206889D01*
X28349932Y-72038402D01*
X28377646Y-71863426D01*
X28377646Y-71686268D01*
X28349932Y-71511292D01*
X28295188Y-71342805D01*
X28295188Y-71342804D01*
X28214759Y-71184956D01*
X28110629Y-71041633D01*
X27985360Y-70916364D01*
X27842036Y-70812233D01*
X27769644Y-70775347D01*
X27684188Y-70731804D01*
X27684185Y-70731803D01*
X27515702Y-70677061D01*
X27428213Y-70663204D01*
X27340725Y-70649347D01*
X27163567Y-70649347D01*
X27105241Y-70658585D01*
X26988589Y-70677061D01*
X26820106Y-70731803D01*
X26820103Y-70731804D01*
X26662255Y-70812233D01*
X26580484Y-70871643D01*
X26518932Y-70916364D01*
X26518930Y-70916366D01*
X26518929Y-70916366D01*
X26393665Y-71041630D01*
X26393665Y-71041631D01*
X26393663Y-71041633D01*
X26348942Y-71103185D01*
X26289532Y-71184956D01*
X26209103Y-71342804D01*
X26209102Y-71342807D01*
X26154360Y-71511290D01*
X26126646Y-71686268D01*
X22402646Y-71686268D01*
X22402646Y-70795956D01*
X22422331Y-70728917D01*
X22475135Y-70683162D01*
X22544293Y-70673218D01*
X22564959Y-70678023D01*
X22677542Y-70714604D01*
X22750777Y-70738400D01*
X22984049Y-70775347D01*
X22984054Y-70775347D01*
X23220243Y-70775347D01*
X23453514Y-70738400D01*
X23473817Y-70731803D01*
X23678138Y-70665415D01*
X23888579Y-70558190D01*
X24079656Y-70419364D01*
X24246663Y-70252357D01*
X24385489Y-70061280D01*
X24492714Y-69850839D01*
X24565699Y-69626215D01*
X24602646Y-69392944D01*
X24602646Y-69156749D01*
X24565699Y-68923478D01*
X24492712Y-68698850D01*
X24385488Y-68488413D01*
X24246663Y-68297337D01*
X24079656Y-68130330D01*
X23888579Y-67991504D01*
X23678142Y-67884280D01*
X23453514Y-67811293D01*
X23220243Y-67774347D01*
X23220238Y-67774347D01*
X22984054Y-67774347D01*
X22984049Y-67774347D01*
X22750776Y-67811294D01*
X22750773Y-67811294D01*
X22564964Y-67871668D01*
X22495123Y-67873663D01*
X22435290Y-67837583D01*
X22404462Y-67774882D01*
X22402646Y-67753737D01*
X22402646Y-67399346D01*
X22422331Y-67332307D01*
X22475135Y-67286552D01*
X22526646Y-67275346D01*
X24150017Y-67275346D01*
X24150018Y-67275346D01*
X24209629Y-67268938D01*
X24344477Y-67218643D01*
X24459692Y-67132393D01*
X24545942Y-67017178D01*
X24596237Y-66882330D01*
X24602646Y-66822720D01*
X24602645Y-64726975D01*
X24596237Y-64667364D01*
X24569169Y-64594792D01*
X24545943Y-64532518D01*
X24545939Y-64532511D01*
X24459693Y-64417302D01*
X24459690Y-64417299D01*
X24344481Y-64331053D01*
X24344474Y-64331049D01*
X24209628Y-64280755D01*
X24209629Y-64280755D01*
X24150029Y-64274348D01*
X24150027Y-64274347D01*
X24150019Y-64274347D01*
X24150010Y-64274347D01*
X22054275Y-64274347D01*
X22054269Y-64274348D01*
X21994662Y-64280755D01*
X21859817Y-64331049D01*
X21859810Y-64331053D01*
X21744601Y-64417299D01*
X21744598Y-64417302D01*
X21658352Y-64532511D01*
X21658348Y-64532518D01*
X21608054Y-64667364D01*
X21601647Y-64726963D01*
X21601647Y-64726970D01*
X21601646Y-64726982D01*
X21601646Y-66374747D01*
X21581961Y-66441786D01*
X21565328Y-66462428D01*
X21433432Y-66594325D01*
X21433430Y-66594327D01*
X21433429Y-66594327D01*
X21433428Y-66594328D01*
X21321627Y-66706129D01*
X21321621Y-66706137D01*
X21276105Y-66784975D01*
X21276105Y-66784976D01*
X21242569Y-66843061D01*
X21242569Y-66843062D01*
X21201645Y-66995790D01*
X21201645Y-67153904D01*
X21201645Y-67153906D01*
X21201646Y-67163905D01*
X21201646Y-72472595D01*
X21201645Y-72472613D01*
X21201645Y-72638319D01*
X21201644Y-72638319D01*
X19831860Y-72638319D01*
X19831860Y-65705317D01*
X19831978Y-65699910D01*
X19841610Y-65479229D01*
X19849124Y-65307084D01*
X19850067Y-65296311D01*
X19884600Y-65033972D01*
X19901030Y-64909159D01*
X19902903Y-64898530D01*
X19987414Y-64517283D01*
X19990211Y-64506843D01*
X20107628Y-64134406D01*
X20111312Y-64124282D01*
X20260750Y-63763470D01*
X20265303Y-63753705D01*
X20445608Y-63407308D01*
X20451005Y-63397958D01*
X20585852Y-63186268D01*
X27326646Y-63186268D01*
X27326646Y-63363426D01*
X27340503Y-63450914D01*
X27354360Y-63538403D01*
X27409102Y-63706886D01*
X27409103Y-63706889D01*
X27489532Y-63864737D01*
X27593663Y-64008061D01*
X27718932Y-64133330D01*
X27862256Y-64237461D01*
X27934650Y-64274348D01*
X28020103Y-64317889D01*
X28020106Y-64317890D01*
X28060619Y-64331053D01*
X28188591Y-64372633D01*
X28363567Y-64400347D01*
X28363568Y-64400347D01*
X28540724Y-64400347D01*
X28540725Y-64400347D01*
X28715701Y-64372633D01*
X28884188Y-64317889D01*
X29042036Y-64237461D01*
X29185360Y-64133330D01*
X29310629Y-64008061D01*
X29414760Y-63864737D01*
X29495188Y-63706889D01*
X29549932Y-63538402D01*
X29577646Y-63363426D01*
X29577646Y-63186268D01*
X29549932Y-63011292D01*
X29495188Y-62842805D01*
X29495188Y-62842804D01*
X29414759Y-62684956D01*
X29310629Y-62541633D01*
X29185360Y-62416364D01*
X29042036Y-62312233D01*
X28884188Y-62231804D01*
X28884185Y-62231803D01*
X28715702Y-62177061D01*
X28628213Y-62163204D01*
X28540725Y-62149347D01*
X28363567Y-62149347D01*
X28305241Y-62158585D01*
X28188589Y-62177061D01*
X28020106Y-62231803D01*
X28020103Y-62231804D01*
X27862255Y-62312233D01*
X27780484Y-62371643D01*
X27718932Y-62416364D01*
X27718930Y-62416366D01*
X27718929Y-62416366D01*
X27593665Y-62541630D01*
X27593665Y-62541631D01*
X27593663Y-62541633D01*
X27548942Y-62603185D01*
X27489532Y-62684956D01*
X27409103Y-62842804D01*
X27409102Y-62842807D01*
X27354360Y-63011290D01*
X27346005Y-63064041D01*
X27326646Y-63186268D01*
X20585852Y-63186268D01*
X20660811Y-63068593D01*
X20666999Y-63059756D01*
X20904708Y-62749934D01*
X20911639Y-62741671D01*
X21175460Y-62453725D01*
X21183087Y-62446098D01*
X21470986Y-62182252D01*
X21479250Y-62175318D01*
X21789037Y-61937575D01*
X21797873Y-61931385D01*
X22127218Y-61721533D01*
X22136556Y-61716140D01*
X22482948Y-61535783D01*
X22492706Y-61531232D01*
X22853486Y-61381754D01*
X22863636Y-61378059D01*
X23236049Y-61260598D01*
X23246469Y-61257804D01*
X23627718Y-61173241D01*
X23638356Y-61171365D01*
X24025503Y-61120353D01*
X24036267Y-61119410D01*
X24429103Y-61102213D01*
X24434502Y-61102095D01*
X24442410Y-61102095D01*
X24442425Y-61102100D01*
X24442426Y-61102096D01*
X27341115Y-61102537D01*
X27341120Y-61102539D01*
X27341121Y-61102538D01*
X27349726Y-61102540D01*
X27663996Y-61102588D01*
X28291395Y-61064733D01*
X28291403Y-61064732D01*
X28291406Y-61064732D01*
X28915358Y-60989067D01*
X28915361Y-60989066D01*
X28915364Y-60989066D01*
X29286320Y-60921144D01*
X29533615Y-60875865D01*
X29533619Y-60875864D01*
X29533625Y-60875863D01*
X30143924Y-60725537D01*
X30744032Y-60538636D01*
X31331761Y-60315842D01*
X31904966Y-60057968D01*
X32461555Y-59765956D01*
X32999497Y-59440871D01*
X33476585Y-59111668D01*
X35894526Y-59111668D01*
X35894526Y-59367369D01*
X35920483Y-59564526D01*
X35927900Y-59620859D01*
X35984916Y-59833646D01*
X35994076Y-59867831D01*
X35994079Y-59867841D01*
X36091920Y-60104050D01*
X36091925Y-60104061D01*
X36219760Y-60325476D01*
X36219771Y-60325492D01*
X36375414Y-60528330D01*
X36375420Y-60528337D01*
X36556207Y-60709124D01*
X36556214Y-60709130D01*
X36579564Y-60727047D01*
X36759061Y-60864780D01*
X36759068Y-60864784D01*
X36980483Y-60992619D01*
X36980488Y-60992621D01*
X36980491Y-60992623D01*
X37004636Y-61002624D01*
X37154580Y-61064733D01*
X37216713Y-61090469D01*
X37463686Y-61156645D01*
X37717183Y-61190019D01*
X37717190Y-61190019D01*
X37972862Y-61190019D01*
X37972869Y-61190019D01*
X38226366Y-61156645D01*
X38473339Y-61090469D01*
X38709561Y-60992623D01*
X38930991Y-60864780D01*
X39133839Y-60709129D01*
X39314636Y-60528332D01*
X39470287Y-60325484D01*
X39598130Y-60104054D01*
X39695976Y-59867832D01*
X39762152Y-59620859D01*
X39795526Y-59367362D01*
X39795526Y-59111676D01*
X39762152Y-58858179D01*
X39695976Y-58611206D01*
X39598130Y-58374984D01*
X39598128Y-58374981D01*
X39598126Y-58374976D01*
X39470291Y-58153561D01*
X39470287Y-58153554D01*
X39314636Y-57950706D01*
X39314631Y-57950700D01*
X39133844Y-57769913D01*
X39133837Y-57769907D01*
X38930999Y-57614264D01*
X38930997Y-57614262D01*
X38930991Y-57614258D01*
X38930986Y-57614255D01*
X38930983Y-57614253D01*
X38709568Y-57486418D01*
X38709557Y-57486413D01*
X38473348Y-57388572D01*
X38473341Y-57388570D01*
X38473339Y-57388569D01*
X38226366Y-57322393D01*
X38170033Y-57314976D01*
X37972876Y-57289019D01*
X37972869Y-57289019D01*
X37717183Y-57289019D01*
X37717175Y-57289019D01*
X37491852Y-57318684D01*
X37463686Y-57322393D01*
X37305301Y-57364832D01*
X37216713Y-57388569D01*
X37216703Y-57388572D01*
X36980494Y-57486413D01*
X36980483Y-57486418D01*
X36759068Y-57614253D01*
X36759052Y-57614264D01*
X36556214Y-57769907D01*
X36556207Y-57769913D01*
X36375420Y-57950700D01*
X36375414Y-57950707D01*
X36219771Y-58153545D01*
X36219760Y-58153561D01*
X36091925Y-58374976D01*
X36091920Y-58374987D01*
X35994079Y-58611196D01*
X35994076Y-58611206D01*
X35927900Y-58858179D01*
X35926583Y-58868180D01*
X35894526Y-59111668D01*
X33476585Y-59111668D01*
X33516830Y-59083898D01*
X34011655Y-58696348D01*
X34011658Y-58696347D01*
X34107792Y-58611206D01*
X34482198Y-58279614D01*
X34926710Y-57835237D01*
X35343581Y-57364832D01*
X35731289Y-56870114D01*
X36088419Y-56352891D01*
X36413669Y-55815048D01*
X36705851Y-55258548D01*
X36963899Y-54685421D01*
X37186872Y-54097760D01*
X37373956Y-53497709D01*
X37524468Y-52887456D01*
X37637860Y-52269229D01*
X37713717Y-51645283D01*
X37751763Y-51017896D01*
X37751811Y-50703626D01*
X37751811Y-50703504D01*
X37753384Y-40387824D01*
X37753410Y-40385419D01*
X37772345Y-39476014D01*
X37772557Y-39470911D01*
X37828973Y-38564356D01*
X37829389Y-38559346D01*
X37923221Y-37655859D01*
X37923844Y-37650869D01*
X38054923Y-36752075D01*
X38055764Y-36747041D01*
X38120094Y-36405466D01*
X38223865Y-35854456D01*
X38224917Y-35849449D01*
X38283192Y-35597713D01*
X38429742Y-34964637D01*
X38431000Y-34959671D01*
X38672225Y-34084029D01*
X38673688Y-34079117D01*
X38835915Y-33572935D01*
X38950895Y-33214173D01*
X38952543Y-33209376D01*
X39265245Y-32356650D01*
X39267108Y-32351878D01*
X39481016Y-31835626D01*
X39614800Y-31512747D01*
X39616829Y-31508125D01*
X39998889Y-30684097D01*
X40001110Y-30679555D01*
X40416920Y-29871970D01*
X40419311Y-29867553D01*
X40868111Y-29077881D01*
X40870713Y-29073514D01*
X41351767Y-28303050D01*
X41354549Y-28298794D01*
X41867015Y-27548887D01*
X41869940Y-27544790D01*
X42413001Y-26816637D01*
X42416072Y-26812692D01*
X42988763Y-26107594D01*
X42992015Y-26103756D01*
X43593298Y-25422986D01*
X43596728Y-25419259D01*
X44225668Y-24763874D01*
X44229225Y-24760318D01*
X44884681Y-24131508D01*
X44888413Y-24128072D01*
X45569294Y-23526882D01*
X45573146Y-23523619D01*
X46278315Y-22951055D01*
X46282287Y-22947965D01*
X46847476Y-22526582D01*
X57164500Y-22526582D01*
X57164500Y-22747025D01*
X57198985Y-22964756D01*
X57267103Y-23174407D01*
X57267104Y-23174410D01*
X57367187Y-23370829D01*
X57496752Y-23549162D01*
X57496756Y-23549167D01*
X57652636Y-23705047D01*
X57652641Y-23705051D01*
X57754606Y-23779132D01*
X57830978Y-23834619D01*
X57959375Y-23900041D01*
X58027393Y-23934699D01*
X58027396Y-23934700D01*
X58132221Y-23968759D01*
X58237049Y-24002819D01*
X58454778Y-24037304D01*
X58454779Y-24037304D01*
X58675221Y-24037304D01*
X58675222Y-24037304D01*
X58892951Y-24002819D01*
X59102606Y-23934699D01*
X59299022Y-23834619D01*
X59477365Y-23705046D01*
X59527536Y-23654874D01*
X59588857Y-23621390D01*
X59658548Y-23626374D01*
X59714482Y-23668245D01*
X59731398Y-23699223D01*
X59761202Y-23779132D01*
X59761206Y-23779139D01*
X59847452Y-23894348D01*
X59847455Y-23894351D01*
X59962664Y-23980597D01*
X59962671Y-23980601D01*
X60097517Y-24030895D01*
X60097516Y-24030895D01*
X60104444Y-24031639D01*
X60157127Y-24037304D01*
X61622958Y-24037303D01*
X61689997Y-24056988D01*
X61710639Y-24073622D01*
X64536062Y-26899045D01*
X64569547Y-26960368D01*
X64572381Y-26986726D01*
X64572381Y-27860397D01*
X64552696Y-27927436D01*
X64504681Y-27970879D01*
X64491270Y-27977712D01*
X64325667Y-28098028D01*
X64180909Y-28242786D01*
X64060596Y-28408386D01*
X63967662Y-28590776D01*
X63904403Y-28785465D01*
X63872381Y-28987648D01*
X63872381Y-29192351D01*
X63904403Y-29394534D01*
X63967662Y-29589223D01*
X64060596Y-29771613D01*
X64180909Y-29937213D01*
X64325667Y-30081971D01*
X64480630Y-30194556D01*
X64491271Y-30202287D01*
X64607488Y-30261503D01*
X64673657Y-30295218D01*
X64673659Y-30295218D01*
X64673662Y-30295220D01*
X64778018Y-30329127D01*
X64868346Y-30358477D01*
X64969438Y-30374488D01*
X65070529Y-30390500D01*
X65070530Y-30390500D01*
X65275232Y-30390500D01*
X65275233Y-30390500D01*
X65477415Y-30358477D01*
X65672100Y-30295220D01*
X65854491Y-30202287D01*
X65947471Y-30134732D01*
X66020094Y-30081971D01*
X66020096Y-30081968D01*
X66020100Y-30081966D01*
X66164847Y-29937219D01*
X66164849Y-29937215D01*
X66164852Y-29937213D01*
X66217613Y-29864590D01*
X66285168Y-29771610D01*
X66378101Y-29589219D01*
X66441358Y-29394534D01*
X66473381Y-29192352D01*
X66473381Y-28987648D01*
X66441358Y-28785466D01*
X66378101Y-28590781D01*
X66378099Y-28590778D01*
X66378099Y-28590776D01*
X66344384Y-28524607D01*
X66285168Y-28408390D01*
X66277437Y-28397749D01*
X66164852Y-28242786D01*
X66020094Y-28098028D01*
X65854491Y-27977712D01*
X65841081Y-27970879D01*
X65790287Y-27922903D01*
X65773381Y-27860397D01*
X65773381Y-26607574D01*
X65773381Y-26607572D01*
X65732458Y-26454845D01*
X65732454Y-26454838D01*
X65653405Y-26317919D01*
X65653402Y-26317915D01*
X65653401Y-26317913D01*
X65541597Y-26206109D01*
X65541596Y-26206108D01*
X65537266Y-26201778D01*
X65537255Y-26201768D01*
X62541818Y-23206331D01*
X62508333Y-23145008D01*
X62505499Y-23118650D01*
X62505499Y-21688933D01*
X62505498Y-21688927D01*
X62499091Y-21629320D01*
X62448797Y-21494475D01*
X62448793Y-21494468D01*
X62362547Y-21379259D01*
X62362544Y-21379256D01*
X62247335Y-21293010D01*
X62247328Y-21293006D01*
X62112482Y-21242712D01*
X62112483Y-21242712D01*
X62052883Y-21236305D01*
X62052881Y-21236304D01*
X62052873Y-21236304D01*
X62052864Y-21236304D01*
X60157129Y-21236304D01*
X60157123Y-21236305D01*
X60097516Y-21242712D01*
X59962671Y-21293006D01*
X59962664Y-21293010D01*
X59847455Y-21379256D01*
X59847452Y-21379259D01*
X59761206Y-21494468D01*
X59761203Y-21494473D01*
X59731398Y-21574385D01*
X59689526Y-21630318D01*
X59624062Y-21654735D01*
X59555789Y-21639883D01*
X59527535Y-21618732D01*
X59477363Y-21568560D01*
X59477358Y-21568556D01*
X59299025Y-21438991D01*
X59299024Y-21438990D01*
X59299022Y-21438989D01*
X59181791Y-21379256D01*
X59102606Y-21338908D01*
X59102603Y-21338907D01*
X58892952Y-21270789D01*
X58784086Y-21253546D01*
X58675222Y-21236304D01*
X58454778Y-21236304D01*
X58382201Y-21247799D01*
X58237047Y-21270789D01*
X58027396Y-21338907D01*
X58027393Y-21338908D01*
X57830974Y-21438991D01*
X57652641Y-21568556D01*
X57652636Y-21568560D01*
X57496756Y-21724440D01*
X57496752Y-21724445D01*
X57367187Y-21902778D01*
X57267104Y-22099197D01*
X57267103Y-22099200D01*
X57198985Y-22308851D01*
X57164500Y-22526582D01*
X46847476Y-22526582D01*
X47010498Y-22405039D01*
X47014600Y-22402111D01*
X47764582Y-21889768D01*
X47768848Y-21886980D01*
X48539406Y-21406034D01*
X48543710Y-21403470D01*
X49333471Y-20954784D01*
X49337931Y-20952370D01*
X50145537Y-20536711D01*
X50150106Y-20534477D01*
X50974225Y-20152531D01*
X50978820Y-20150516D01*
X51817996Y-19802959D01*
X51822732Y-19801111D01*
X52675550Y-19488527D01*
X52680356Y-19486877D01*
X53545359Y-19209800D01*
X53550217Y-19208354D01*
X54425940Y-18967255D01*
X54430831Y-18966016D01*
X55315781Y-18761306D01*
X55320762Y-18760262D01*
X56213360Y-18592304D01*
X56218357Y-18591469D01*
X57117166Y-18460533D01*
X57122222Y-18459902D01*
X58025691Y-18366215D01*
X58030712Y-18365799D01*
X58937254Y-18309527D01*
X58942354Y-18309316D01*
X59850468Y-18290550D01*
X59855499Y-18290550D01*
X60763690Y-18309328D01*
G37*
%TD.AperFunction*%
%TD*%
M02*
